<svg width="56" height="56" viewBox="0 0 56 56" fill="none" xmlns="http://www.w3.org/2000/svg">
<path d="M28 4.66675C40.887 4.66675 51.3333 15.1131 51.3333 28.0001C51.3333 40.8871 40.887 51.3334 28 51.3334C15.113 51.3334 4.66667 40.8871 4.66667 28.0001C4.66667 15.1131 15.113 4.66675 28 4.66675ZM28 9.33341C23.0493 9.33341 18.3014 11.3001 14.8007 14.8008C11.3 18.3014 9.33333 23.0494 9.33333 28.0001C9.33333 32.9508 11.3 37.6987 14.8007 41.1994C18.3014 44.7001 23.0493 46.6667 28 46.6667C32.9507 46.6667 37.6986 44.7001 41.1993 41.1994C44.7 37.6987 46.6667 32.9508 46.6667 28.0001C46.6667 23.0494 44.7 18.3014 41.1993 14.8008C37.6986 11.3001 32.9507 9.33341 28 9.33341ZM28 16.3334C30.456 16.3343 32.8491 17.1104 34.8384 18.5509C36.8276 19.9914 38.3114 22.023 39.0786 24.3561C39.8457 26.6893 39.8569 29.205 39.1107 31.5449C38.3644 33.8848 36.8987 35.9296 34.9225 37.3878C32.9462 38.846 30.5601 39.6434 28.1042 39.6662C25.6483 39.6891 23.2477 38.9363 21.2447 37.5151C19.2416 36.094 17.7381 34.0769 16.9484 31.7513C16.1587 29.4256 16.1231 26.9101 16.8467 24.5631C17.3925 25.7827 18.3406 26.7779 19.5325 27.3821C20.7243 27.9863 22.0875 28.1628 23.3939 27.8821C24.7003 27.6015 25.8707 26.8806 26.7091 25.8402C27.5476 24.7998 28.0033 23.503 28 22.1667C28.0003 21.0432 27.6761 19.9434 27.0664 18.9997C26.4567 18.0559 25.5874 17.3083 24.563 16.8467C25.6503 16.5131 26.803 16.3334 28 16.3334Z" fill="#050505"/>
</svg>
