<svg width="240" height="65" viewBox="0 0 240 65" fill="none" xmlns="http://www.w3.org/2000/svg">
<g clip-path="url(#clip0_7025_1644)">
<path d="M220.872 64.4992C216.991 64.4992 213.775 64.0005 211.225 63.0031C208.73 61.9503 206.734 60.6758 205.237 59.1798C203.74 57.6282 202.603 56.1044 201.827 54.6083C201.106 53.1122 200.635 51.8655 200.413 50.8681C200.191 49.8153 200.081 49.2889 200.081 49.2889H214.302C214.302 49.2889 214.468 49.6491 214.801 50.3694C215.134 51.0343 215.827 51.727 216.88 52.4473C217.989 53.1122 219.597 53.4447 221.704 53.4447C223.09 53.4447 224.088 53.2785 224.698 52.946C225.363 52.5581 225.779 52.1426 225.945 51.6993C226.167 51.256 226.278 50.9235 226.278 50.7019C226.278 49.3166 225.03 48.43 222.535 48.0421L216.464 47.0447C213.747 46.6015 211.169 45.8811 208.73 44.8837C206.29 43.8863 204.322 42.4733 202.825 40.6448C201.328 38.8162 200.58 36.4336 200.58 33.4968C200.58 30.7262 201.3 28.2327 202.742 26.0163C204.183 23.7998 206.29 22.0544 209.062 20.78C211.89 19.4501 215.3 18.7852 219.292 18.7852C222.896 18.7852 225.89 19.2839 228.274 20.2813C230.658 21.2232 232.571 22.3869 234.012 23.7721C235.454 25.1574 236.535 26.5704 237.256 28.0111C237.976 29.3964 238.448 30.5877 238.669 31.5851C238.891 32.5271 239.002 32.9981 239.002 32.9981H225.197C225.197 32.9981 225.03 32.721 224.698 32.1669C224.42 31.5574 223.81 30.9756 222.868 30.4215C221.981 29.8673 220.65 29.5903 218.876 29.5903C217.102 29.5903 215.91 29.9228 215.3 30.5877C214.69 31.1972 214.385 31.8067 214.385 32.4163C214.385 33.3028 214.829 33.9401 215.716 34.3279C216.603 34.6604 217.739 34.9652 219.125 35.2422L224.531 36.2396C229.078 37.0708 232.792 38.5392 235.675 40.6448C238.558 42.695 240 45.7426 240 49.7876C240 53.9988 238.364 57.5174 235.093 60.3434C231.822 63.1139 227.082 64.4992 220.872 64.4992Z" fill="#050505"/>
<path d="M163.859 64.5001C160.643 64.5001 158.037 63.8074 156.041 62.4222C154.101 61.0369 152.687 59.236 151.8 57.0196C150.968 54.7477 150.552 52.3374 150.552 49.7885V19.6172H166.187V45.882C166.187 47.5443 166.603 48.9573 167.435 50.1209C168.266 51.2291 169.597 51.7833 171.427 51.7833C173.312 51.7833 174.643 51.2014 175.419 50.0378C176.195 48.8188 176.583 47.4335 176.583 45.882V19.6172H192.384V63.6689H176.583V57.4352H176.084C174.864 59.6516 173.256 61.3971 171.26 62.6715C169.264 63.8905 166.797 64.5001 163.859 64.5001Z" fill="#050505"/>
<path d="M123.712 64.4997C121.55 64.4997 119.692 64.2226 118.14 63.6685C116.587 63.059 115.312 62.394 114.314 61.6737C113.372 60.9534 112.651 60.3161 112.152 59.762C111.708 59.1525 111.487 58.8477 111.487 58.8477H110.821V63.6685H95.0198V0.5H110.821V24.4375H111.487C111.487 24.4375 111.708 24.1605 112.152 23.6064C112.651 22.9969 113.372 22.3319 114.314 21.6116C115.312 20.8912 116.587 20.254 118.14 19.6999C119.692 19.0904 121.55 18.7856 123.712 18.7856C126.928 18.7856 129.7 19.4506 132.028 20.7804C134.412 22.0549 136.381 23.8003 137.933 26.0168C139.541 28.1778 140.733 30.6159 141.509 33.331C142.285 36.0461 142.674 38.8167 142.674 41.6426C142.674 44.4686 142.285 47.2391 141.509 49.9543C140.733 52.6694 139.541 55.1352 137.933 57.3516C136.381 59.5127 134.412 61.2581 132.028 62.588C129.7 63.8624 126.928 64.4997 123.712 64.4997ZM118.472 51.9491C120.358 51.9491 121.882 51.4504 123.047 50.453C124.266 49.4002 125.181 48.098 125.791 46.5465C126.401 44.9396 126.706 43.305 126.706 41.6426C126.706 39.9803 126.401 38.3734 125.791 36.8219C125.181 35.215 124.266 33.9128 123.047 32.9154C121.882 31.8626 120.358 31.3362 118.472 31.3362C116.643 31.3362 115.118 31.8626 113.898 32.9154C112.679 33.9128 111.764 35.215 111.154 36.8219C110.544 38.3734 110.239 39.9803 110.239 41.6426C110.239 43.305 110.544 44.9396 111.154 46.5465C111.764 48.098 112.679 49.4002 113.898 50.453C115.118 51.4504 116.643 51.9491 118.472 51.9491Z" fill="#050505"/>
<path d="M70.1118 62.6685V1.5H84.0796V62.6685H70.1118Z" stroke="#050505" stroke-width="2"/>
<path d="M43.5346 53.0617L43.3144 52.3618H42.5807H19.8766H19.1429L18.9227 53.0617L15.8995 62.6683H1.3865L21.18 3.16211H41.2773L61.0708 62.6683H46.5578L43.5346 53.0617ZM23.1643 39.4301L22.7543 40.7307H24.118H38.3393H39.6982L39.294 39.4333L34.1233 22.8359C33.2493 20.0305 29.2812 20.0239 28.3978 22.8263L23.1643 39.4301Z" stroke="#050505" stroke-width="2"/>
</g>
<defs>
<clipPath id="clip0_7025_1644">
<rect width="240" height="64" fill="white" transform="translate(0 0.5)"/>
</clipPath>
</defs>
</svg>
