<svg width="132" height="44" viewBox="0 0 132 44" fill="none" xmlns="http://www.w3.org/2000/svg">
<path d="M116.436 38.0001C114.495 38.0001 112.888 37.7507 111.612 37.252C110.365 36.7256 109.367 36.0884 108.618 35.3403C107.87 34.5646 107.302 33.8027 106.914 33.0546C106.553 32.3066 106.318 31.6832 106.207 31.1845C106.096 30.6581 106.04 30.3949 106.04 30.3949H113.151C113.151 30.3949 113.234 30.575 113.4 30.9351C113.567 31.2676 113.913 31.6139 114.44 31.9741C114.994 32.3066 115.798 32.4728 116.852 32.4728C117.545 32.4728 118.044 32.3897 118.349 32.2234C118.681 32.0295 118.889 31.8217 118.973 31.6001C119.083 31.3784 119.139 31.2122 119.139 31.1014C119.139 30.4087 118.515 29.9654 117.268 29.7715L114.232 29.2728C112.874 29.0511 111.585 28.691 110.365 28.1923C109.145 27.6936 108.161 26.9871 107.413 26.0728C106.664 25.1585 106.29 23.9672 106.29 22.4988C106.29 21.1135 106.65 19.8667 107.371 18.7585C108.092 17.6503 109.145 16.7776 110.531 16.1403C111.945 15.4754 113.65 15.1429 115.646 15.1429C117.448 15.1429 118.945 15.3923 120.137 15.891C121.329 16.362 122.285 16.9438 123.006 17.6364C123.727 18.3291 124.267 19.0356 124.628 19.7559C124.988 20.4486 125.224 21.0442 125.335 21.5429C125.446 22.0139 125.501 22.2494 125.501 22.2494H118.598C118.598 22.2494 118.515 22.1109 118.349 21.8338C118.21 21.5291 117.905 21.2382 117.434 20.9611C116.99 20.6841 116.325 20.5455 115.438 20.5455C114.551 20.5455 113.955 20.7118 113.65 21.0442C113.345 21.349 113.193 21.6538 113.193 21.9585C113.193 22.4018 113.414 22.7204 113.858 22.9144C114.301 23.0806 114.87 23.233 115.563 23.3715L118.266 23.8702C120.539 24.2858 122.396 25.02 123.838 26.0728C125.279 27.0979 126 28.6217 126 30.6442C126 32.7498 125.182 34.5091 123.547 35.9221C121.911 37.3074 119.541 38.0001 116.436 38.0001Z" fill="white" fill-opacity="0.86"/>
<path d="M87.9294 38C86.3215 38 85.0186 37.6537 84.0206 36.961C83.0503 36.2684 82.3434 35.368 81.8999 34.2597C81.484 33.1238 81.2761 31.9186 81.2761 30.6442V15.5585H89.0937V28.6909C89.0937 29.5221 89.3016 30.2286 89.7174 30.8104C90.1332 31.3645 90.7986 31.6416 91.7134 31.6416C92.6559 31.6416 93.3213 31.3507 93.7094 30.7688C94.0975 30.1593 94.2915 29.4667 94.2915 28.6909V15.5585H102.192V37.5844H94.2915V34.4675H94.042C93.4321 35.5758 92.6282 36.4485 91.6302 37.0857C90.6322 37.6952 89.3986 38 87.9294 38Z" fill="white" fill-opacity="0.86"/>
<path d="M67.8559 38C66.7748 38 65.8461 37.8614 65.0699 37.5844C64.2937 37.2796 63.6561 36.9471 63.1571 36.587C62.6858 36.2268 62.3254 35.9082 62.0759 35.6311C61.8542 35.3264 61.7433 35.174 61.7433 35.174H61.4106V37.5844H53.5099V6H61.4106V17.9688H61.7433C61.7433 17.9688 61.8542 17.8303 62.0759 17.5532C62.3254 17.2485 62.6858 16.916 63.1571 16.5558C63.6561 16.1957 64.2937 15.877 65.0699 15.6C65.8461 15.2952 66.7748 15.1428 67.8559 15.1428C69.4638 15.1428 70.8499 15.4753 72.0142 16.1402C73.2062 16.7775 74.1904 17.6502 74.9666 18.7584C75.7705 19.8389 76.3665 21.058 76.7546 22.4156C77.1427 23.7731 77.3368 25.1584 77.3368 26.5714C77.3368 27.9844 77.1427 29.3697 76.7546 30.7272C76.3665 32.0848 75.7705 33.3177 74.9666 34.4259C74.1904 35.5064 73.2062 36.3792 72.0142 37.0441C70.8499 37.6813 69.4638 38 67.8559 38ZM65.2362 31.7246C66.1788 31.7246 66.9411 31.4753 67.5233 30.9766C68.1332 30.4502 68.5906 29.7991 68.8955 29.0233C69.2004 28.2199 69.3529 27.4026 69.3529 26.5714C69.3529 25.7402 69.2004 24.9368 68.8955 24.161C68.5906 23.3575 68.1332 22.7065 67.5233 22.2078C66.9411 21.6814 66.1788 21.4182 65.2362 21.4182C64.3214 21.4182 63.559 21.6814 62.9492 22.2078C62.3393 22.7065 61.8819 23.3575 61.5769 24.161C61.272 24.9368 61.1195 25.7402 61.1195 26.5714C61.1195 27.4026 61.272 28.2199 61.5769 29.0233C61.8819 29.7991 62.3393 30.4502 62.9492 30.9766C63.559 31.4753 64.3214 31.7246 65.2362 31.7246Z" fill="white" fill-opacity="0.86"/>
<path d="M41.0559 37.0844V6.5H48.0398V37.0844H41.0559Z" stroke="white" stroke-opacity="0.86"/>
<path d="M27.7673 32.281L27.6572 31.9311H27.2904H15.9383H15.5715L15.4613 32.281L13.9497 37.0844H6.69325L16.59 7.33118H26.6387L36.5354 37.0844H29.2789L27.7673 32.281ZM17.5821 25.4653L17.3771 26.1156H18.059H25.1696H25.8491L25.647 25.4668L23.0616 17.1681C22.6247 15.7654 20.6406 15.7621 20.1989 17.1633L17.5821 25.4653Z" stroke="white" stroke-opacity="0.86"/>
</svg>
