<svg width="20" height="21" viewBox="0 0 20 21" fill="none" xmlns="http://www.w3.org/2000/svg">
<path fill-rule="evenodd" clip-rule="evenodd" d="M16.3196 18.0459L19.2193 3.42632L19.2192 3.42657C19.2192 2.45328 17.8809 3.04126 17.8809 3.04126L1.59911 9.42841C1.59911 9.42841 0.828504 9.69197 0.889382 10.1786C0.95026 10.6653 1.57882 10.8882 1.57882 10.8882L5.67463 12.2671L5.67503 12.2673C5.67486 12.2668 5.67477 12.2665 5.67477 12.2665L15.5088 6.02137C15.5088 6.02137 16.0766 5.67665 16.0563 6.02137C16.0563 6.02137 16.1577 6.08225 15.8534 6.3661C15.5494 6.65007 8.12828 13.3209 8.12828 13.3209L8.11344 13.4475L14.7989 18.5731C15.9141 19.0597 16.3196 18.0459 16.3196 18.0459Z" fill="#050505"/>
</svg>
