<svg width="20" height="21" viewBox="0 0 20 21" fill="none" xmlns="http://www.w3.org/2000/svg">
<path d="M10.0008 2.16699C14.6032 2.16699 18.3342 5.89795 18.3342 10.5003C18.3342 15.1027 14.6032 18.8337 10.0008 18.8337C8.47258 18.8337 7.04042 18.4223 5.80905 17.7042L1.67096 18.8337L2.7976 14.6932C2.07911 13.4617 1.66748 12.0291 1.66748 10.5003C1.66748 5.89795 5.39844 2.16699 10.0008 2.16699ZM6.9936 6.5906C6.88577 6.59818 6.78006 6.62451 6.68381 6.67375C6.6116 6.71069 6.54456 6.76408 6.43924 6.86354C6.33978 6.95745 6.28214 7.03947 6.22141 7.11854C5.91332 7.51966 5.74774 8.01203 5.75081 8.51781C5.75249 8.92666 5.85869 9.32399 6.02641 9.69499C6.36651 10.4473 6.9274 11.2427 7.66828 11.9802C7.84625 12.1574 8.02061 12.3365 8.20861 12.502C9.12816 13.3117 10.224 13.8955 11.4089 14.2072C11.4089 14.2072 11.8756 14.2788 11.8824 14.2792C12.037 14.2876 12.1913 14.2764 12.3461 14.2685C12.5888 14.256 12.8258 14.1903 13.0403 14.0761C13.1782 14.0027 13.2435 13.9662 13.3592 13.8932C13.3592 13.8932 13.3947 13.8692 13.4632 13.8182C13.5757 13.7343 13.6452 13.6753 13.7388 13.5782C13.8078 13.5065 13.8672 13.4218 13.913 13.3264C13.9782 13.1904 14.0437 12.9308 14.0698 12.7152C14.0897 12.5506 14.0837 12.4606 14.0816 12.4048C14.078 12.3152 14.0039 12.2229 13.9227 12.1837L13.4382 11.9659C13.4382 11.9659 12.7136 11.6506 12.2704 11.4484C12.2242 11.4273 12.1737 11.4176 12.123 11.4145C12.0118 11.4077 11.8872 11.4367 11.808 11.5202C11.8038 11.5185 11.7487 11.5662 11.1457 12.2966C11.1125 12.3363 11.0346 12.4227 10.8998 12.4147C10.8795 12.4132 10.8592 12.4103 10.8395 12.4052C10.7849 12.3907 10.7317 12.3717 10.6797 12.3497C10.5767 12.306 10.5405 12.2894 10.4701 12.2591C9.989 12.0489 9.5475 11.7677 9.15725 11.4237C9.05258 11.3315 8.95525 11.2322 8.85491 11.135C8.50475 10.7956 8.21807 10.4346 8.00481 10.0785C7.99316 10.0591 7.97522 10.031 7.9559 9.99958C7.92101 9.94283 7.88252 9.87533 7.87046 9.82899C7.83948 9.70641 7.92166 9.60791 7.92166 9.60791C7.92166 9.60791 8.12449 9.38616 8.21873 9.26558C8.3094 9.14949 8.38766 9.03599 8.4375 8.95508C8.53566 8.79727 8.56675 8.63417 8.51516 8.50835C8.28136 7.93837 8.04015 7.37146 7.79155 6.80778C7.74248 6.69653 7.59654 6.61571 7.46382 6.60038C7.41887 6.59519 7.37396 6.58998 7.32882 6.58701C7.21711 6.58156 7.10516 6.58276 6.9936 6.5906Z" fill="#050505"/>
</svg>
