<svg width="68" height="68" viewBox="0 0 68 68" fill="none" xmlns="http://www.w3.org/2000/svg">
<path fill-rule="evenodd" clip-rule="evenodd" d="M21.745 12C16.3629 12 12 16.363 12 21.745V46.255C12 51.637 16.3629 56 21.745 56H46.255C51.6371 56 56 51.637 56 46.255V21.745C56 16.363 51.6371 12 46.255 12H21.745ZM35.2431 42.7114L33.9986 38.643H27.7763L26.5318 42.7114H22.6309L28.6618 25.5522H33.0891L39.144 42.7114H35.2431ZM31.8925 31.6309C31.8128 31.3597 31.7091 31.0166 31.5815 30.6018C31.4537 30.187 31.3261 29.7642 31.1985 29.3334C31.0709 28.9027 30.9672 28.5277 30.8874 28.2086C30.8076 28.5277 30.696 28.9266 30.5524 29.4052C30.4247 29.8679 30.297 30.3146 30.1694 30.7454C30.0578 31.1602 29.97 31.4554 29.9061 31.6309L28.6857 35.6036H33.137L31.8925 31.6309ZM35.9195 25.5839L41.9732 42.7114H45.5168L39.3154 25.5839H35.9195Z" fill="#FF6C5C"/>
</svg>
