<svg width="185" height="68" viewBox="0 0 185 68" fill="none" xmlns="http://www.w3.org/2000/svg">
<path fill-rule="evenodd" clip-rule="evenodd" d="M10.9028 19.3016L31.379 12L52.3949 19.1746L48.9981 46.254L31.379 56L14.0457 46.381L10.9028 19.3016ZM31.4108 17.1429L18.6489 45.5238L23.4108 45.4286L25.9822 39.0159H37.379L40.1727 45.4921L44.7124 45.5873L31.4108 17.1429ZM31.4425 26.254L35.76 35.2698H27.6647L31.4425 26.254ZM58.7124 24.6349V44.6349H61.1568V28.381L73.379 44.6349H75.9504V24.6349H73.506V40.7302L61.2838 24.6349H58.7124ZM90.6489 44.7619C92.4901 44.7619 94.2362 44.4444 95.8552 43.8413V35.5556H93.2838V42.254C92.2362 42.4762 91.2838 42.6032 90.4266 42.6032C85.0616 42.6032 82.3631 39.8413 82.3631 34.2857C82.3631 29.1429 85.0933 26.5397 90.5536 26.5397C92.3631 26.5397 94.1409 26.8571 95.8552 27.5238V25.3016C94.1409 24.7619 92.2679 24.4762 90.2679 24.4762C83.2838 24.4762 79.7917 27.7778 79.7917 34.3492C79.7917 41.3016 83.4108 44.7619 90.6489 44.7619ZM99.9822 24.6349V36.9206C99.9822 42.1587 102.744 44.7937 108.3 44.7937C113.855 44.7937 116.617 42.1587 116.617 36.9206V24.6349H114.046V36.9206C114.046 40.7619 112.109 42.6984 108.3 42.6984C104.458 42.6984 102.554 40.7619 102.554 36.9206V24.6349H99.9822ZM123.792 42.5397V24.6349H121.22V44.6349H134.268V42.5397H123.792ZM135.284 44.6349H137.982L145.125 27.2063L148.871 36.254H143.823L143.125 38.3492H149.728L152.3 44.6349H155.157L145.22 22L135.284 44.6349ZM157.919 24.6349V44.6349H160.554V26.7937H166.268C168.395 26.7937 169.443 27.7143 169.443 29.5556C169.443 31.9048 167.506 33.3651 163.696 33.9683V35.6508L170.046 44.6349H173.443L166.585 35.2064C170.3 33.9683 172.173 32.0317 172.173 29.4286C172.173 26.2222 170.268 24.6349 166.458 24.6349H157.919Z" fill="#FF6C5C" />
</svg>
