<svg width="94" height="68" viewBox="0 0 94 68" fill="none" xmlns="http://www.w3.org/2000/svg">
<path fill-rule="evenodd" clip-rule="evenodd" d="M30.9457 27.98C30.9457 28.8854 31.0437 29.6196 31.215 30.158C31.4108 30.6963 31.6555 31.2836 31.9981 31.9199C32.1204 32.1157 32.1693 32.3115 32.1693 32.4828C32.1693 32.7275 32.0226 32.9722 31.7044 33.2169L30.1627 34.2447C29.9425 34.3915 29.7222 34.465 29.5264 34.465C29.2817 34.465 29.037 34.3426 28.7923 34.1224C28.4497 33.7553 28.156 33.3637 27.9113 32.9722C27.6666 32.5562 27.4218 32.0912 27.1526 31.5284C25.2439 33.7798 22.8457 34.9055 19.958 34.9055C17.9024 34.9055 16.2628 34.3181 15.0637 33.1435C13.8646 31.9689 13.2528 30.4027 13.2528 28.4449C13.2528 26.3649 13.9869 24.6763 15.4797 23.4038C16.9725 22.1313 18.9546 21.495 21.4753 21.495C22.3073 21.495 23.1638 21.5684 24.0693 21.6908C24.9747 21.8131 25.9047 22.0089 26.8835 22.2291V20.4427C26.8835 18.5829 26.492 17.2859 25.7333 16.5273C24.9502 15.7686 23.6287 15.4016 21.7445 15.4016C20.888 15.4016 20.007 15.4994 19.1015 15.7197C18.1961 15.9399 17.3151 16.2091 16.4586 16.5517C16.067 16.723 15.7733 16.8209 15.6021 16.8699C15.4307 16.9188 15.3084 16.9433 15.2105 16.9433C14.8679 16.9433 14.6966 16.6986 14.6966 16.1847V14.9855C14.6966 14.594 14.7456 14.3003 14.8679 14.129C14.9903 13.9577 15.2105 13.7864 15.5531 13.6151C16.4096 13.1746 17.4375 12.8076 18.6366 12.5139C19.8356 12.1958 21.1082 12.0489 22.4542 12.0489C25.3663 12.0489 27.4953 12.7097 28.8656 14.0311C30.2116 15.3526 30.8969 17.3593 30.8969 20.0512V27.98H30.9457ZM21.0104 31.6997C21.8179 31.6997 22.6499 31.5528 23.5309 31.2592C24.4119 30.9655 25.1949 30.4271 25.8557 29.693C26.2473 29.228 26.5408 28.7141 26.6877 28.1268C26.8346 27.5395 26.9324 26.8298 26.9324 25.9978V24.97C26.2228 24.7987 25.4641 24.6518 24.6811 24.554C23.898 24.4561 23.1393 24.4071 22.3807 24.4071C20.7411 24.4071 19.5421 24.7253 18.7344 25.386C17.9269 26.0467 17.5353 26.9766 17.5353 28.2002C17.5353 29.3504 17.829 30.2069 18.4408 30.7942C19.0281 31.406 19.8846 31.6997 21.0104 31.6997ZM40.661 34.3426C40.2206 34.3426 39.9269 34.2692 39.7312 34.0979C39.5353 33.9511 39.3641 33.6085 39.2172 33.1435L33.4664 14.2269C33.3195 13.7375 33.2462 13.4194 33.2462 13.2481C33.2462 12.8565 33.4419 12.6363 33.8335 12.6363H36.2316C36.6966 12.6363 37.0148 12.7097 37.186 12.881C37.3818 13.0278 37.5287 13.3704 37.6754 13.8354L41.7867 30.0356L45.6043 13.8354C45.7267 13.3459 45.8734 13.0278 46.0693 12.881C46.265 12.7341 46.6076 12.6363 47.0481 12.6363H49.0059C49.4708 12.6363 49.7889 12.7097 49.9847 12.881C50.1805 13.0278 50.3518 13.3704 50.4497 13.8354L54.3162 30.2314L58.5498 13.8354C58.6967 13.3459 58.8679 13.0278 59.0392 12.881C59.235 12.7341 59.5532 12.6363 59.9936 12.6363H62.2694C62.661 12.6363 62.8812 12.832 62.8812 13.2481C62.8812 13.3704 62.8568 13.4928 62.8324 13.6396C62.8079 13.7864 62.7589 13.9822 62.661 14.2514L56.7633 33.168C56.6166 33.6574 56.4452 33.9755 56.2495 34.1224C56.0537 34.2692 55.7356 34.3671 55.3195 34.3671H53.2149C52.75 34.3671 52.4319 34.2937 52.2361 34.1224C52.0403 33.9511 51.869 33.6329 51.7711 33.1435L47.978 17.3593L44.2094 33.119C44.0871 33.6085 43.9402 33.9266 43.7445 34.0979C43.5486 34.2692 43.2061 34.3426 42.7656 34.3426H40.661ZM72.1071 35.0033C70.8345 35.0033 69.5621 34.8565 68.3385 34.5629C67.1149 34.2692 66.1605 33.9511 65.5242 33.584C65.1327 33.3637 64.8635 33.119 64.7656 32.8988C64.6677 32.6785 64.6187 32.4338 64.6187 32.2136V30.9655C64.6187 30.4516 64.8146 30.2069 65.1817 30.2069C65.3284 30.2069 65.4752 30.2314 65.6221 30.2803C65.769 30.3293 65.9892 30.4271 66.2339 30.525C67.0659 30.8921 67.9714 31.1858 68.9258 31.3815C69.9046 31.5773 70.859 31.6752 71.8379 31.6752C73.3797 31.6752 74.5787 31.406 75.4108 30.8676C76.2428 30.3293 76.6833 29.5462 76.6833 28.5428C76.6833 27.8576 76.463 27.2948 76.0225 26.8298C75.5821 26.3649 74.75 25.9488 73.5509 25.5573L70.0025 24.4561C68.2161 23.8932 66.8947 23.0612 66.087 21.96C65.2795 20.8832 64.8635 19.6841 64.8635 18.4116C64.8635 17.3838 65.0837 16.4783 65.5242 15.6952C65.9647 14.9121 66.552 14.2269 67.2861 13.6885C68.0203 13.1257 68.8524 12.7097 69.8313 12.416C70.8101 12.1224 71.8379 12 72.9146 12C73.453 12 74.0158 12.0245 74.5542 12.0979C75.117 12.1713 75.631 12.2692 76.1449 12.3671C76.6343 12.4894 77.0993 12.6118 77.5398 12.7586C77.9803 12.9055 78.3229 13.0523 78.5676 13.1991C78.9101 13.3949 79.1549 13.5907 79.3017 13.8109C79.4486 14.0067 79.5219 14.2759 79.5219 14.6185V15.7686C79.5219 16.2825 79.3262 16.5517 78.9591 16.5517C78.7634 16.5517 78.4452 16.4538 78.0293 16.2581C76.6343 15.6218 75.0682 15.3037 73.3307 15.3037C71.9357 15.3037 70.8345 15.5239 70.076 15.9889C69.3173 16.4538 68.9258 17.1635 68.9258 18.1669C68.9258 18.8521 69.1705 19.4394 69.6599 19.9043C70.1493 20.3693 71.0548 20.8343 72.3518 21.2503L75.8268 22.3515C77.5887 22.9144 78.8613 23.6974 79.6199 24.7008C80.3784 25.7041 80.7455 26.8543 80.7455 28.1268C80.7455 29.1791 80.5253 30.1335 80.1094 30.9655C79.6688 31.7976 79.0815 32.5317 78.3229 33.119C77.5642 33.7308 76.6588 34.1713 75.6065 34.4894C74.5052 34.832 73.3552 35.0033 72.1071 35.0033ZM76.7322 46.8965C68.681 52.8432 56.9835 56 46.9258 56C32.8301 56 20.1293 50.7875 10.5364 42.1246C9.77777 41.4394 10.4631 40.5095 11.3684 41.0478C21.7444 47.0679 34.5431 50.7141 47.7823 50.7141C56.7144 50.7141 66.5275 48.8543 75.5576 45.0367C76.9035 44.4249 78.0536 45.9177 76.7322 46.8965ZM70.6633 42.7608C73.2817 42.4427 79.057 41.7575 80.0849 43.079C81.1126 44.376 78.9346 49.8332 77.9558 52.2558C77.6621 52.99 78.2984 53.2837 78.9591 52.7208C83.2662 49.099 84.3918 41.5373 83.5109 40.436C82.6299 39.3593 75.0682 38.4294 70.4674 41.6596C69.7578 42.1735 69.8801 42.8587 70.6633 42.7608Z" fill="#FF6C5C"/>
</svg>
