<svg width="152" height="68" viewBox="0 0 152 68" fill="none" xmlns="http://www.w3.org/2000/svg">
<path fill-rule="evenodd" clip-rule="evenodd" d="M13.6568 28.9319L18.9128 12.6291C19.1831 11.7904 20.3606 11.7902 20.6311 12.6291L25.8869 28.9319L43.3407 28.9321L48.5968 12.6291C48.8673 11.7902 50.0449 11.7904 50.3152 12.6291L55.5712 28.9319L58.2231 37.1577C58.341 37.5235 58.341 37.9174 58.2231 38.2831C58.1052 38.6488 57.8754 38.9675 57.5667 39.1935L34.614 56L11.6612 39.1935C11.3525 38.9675 11.1228 38.6488 11.0049 38.2831C10.887 37.9174 10.887 37.5234 11.0049 37.1577L13.6568 28.9319ZM126.182 42.9807H132.177C134.058 42.9807 135.661 42.6099 136.987 41.8685C138.313 41.121 139.326 40.054 140.025 38.6675C140.731 37.281 141.083 35.6233 141.083 33.6943C141.083 31.7713 140.734 30.1226 140.035 28.7482C139.341 27.3677 138.344 26.3098 137.042 25.5744C135.739 24.8329 134.181 24.4622 132.367 24.4622H126.182V42.9807ZM132.023 40.5393H128.976V26.9036H132.195C133.545 26.9036 134.675 27.1658 135.586 27.6902C136.496 28.2147 137.18 28.9833 137.638 29.996C138.102 31.0087 138.335 32.2415 138.335 33.6943C138.335 35.1591 138.102 36.4009 137.638 37.4197C137.174 38.4324 136.475 39.207 135.541 39.7435C134.606 40.274 133.434 40.5393 132.023 40.5393ZM122.838 30.4843H120.017C119.909 29.8815 119.707 29.351 119.411 28.8929C119.116 28.4347 118.754 28.0459 118.326 27.7264C117.898 27.4069 117.419 27.1658 116.889 27.003C116.364 26.8403 115.807 26.7589 115.216 26.7589C114.149 26.7589 113.193 27.0271 112.349 27.5637C111.512 28.1002 110.848 28.8868 110.36 29.9237C109.878 30.9605 109.637 32.2264 109.637 33.7214C109.637 35.2285 109.878 36.5004 110.36 37.5372C110.848 38.5741 111.515 39.3577 112.358 39.8882C113.202 40.4187 114.152 40.6839 115.207 40.6839C115.792 40.6839 116.346 40.6056 116.871 40.4488C117.401 40.2861 117.88 40.048 118.308 39.7345C118.736 39.421 119.098 39.0383 119.393 38.5861C119.695 38.128 119.903 37.6036 120.017 37.0128L122.838 37.0218C122.688 37.9321 122.395 38.77 121.961 39.5356C121.533 40.2951 120.982 40.9522 120.307 41.5068C119.637 42.0554 118.872 42.4803 118.01 42.7817C117.148 43.0832 116.207 43.2339 115.189 43.2339C113.585 43.2339 112.157 42.8541 110.903 42.0945C109.649 41.329 108.66 40.2348 107.937 38.8122C107.219 37.3896 106.861 35.6926 106.861 33.7214C106.861 31.7442 107.222 30.0473 107.946 28.6306C108.669 27.208 109.658 26.1169 110.912 25.3573C112.166 24.5918 113.591 24.209 115.189 24.209C116.171 24.209 117.088 24.3506 117.938 24.634C118.794 24.9113 119.562 25.3212 120.243 25.8637C120.924 26.4002 121.488 27.0573 121.934 27.8349C122.38 28.6065 122.682 29.4896 122.838 30.4843ZM98.976 45.7657L104.944 23.5941H102.53L96.5617 45.7657H98.976ZM94.0387 24.4622V42.9807H91.2447V24.4622H94.0387ZM85.0802 30.4843H87.9013C87.7446 29.4896 87.4432 28.6065 86.9971 27.8349C86.551 27.0573 85.9874 26.4002 85.3062 25.8637C84.625 25.3212 83.8564 24.9113 83.0004 24.634C82.1505 24.3506 81.2342 24.209 80.2516 24.209C78.6541 24.209 77.2285 24.5918 75.9746 25.3573C74.7208 26.1169 73.7321 27.208 73.0088 28.6306C72.2854 30.0473 71.9237 31.7442 71.9237 33.7214C71.9237 35.6926 72.2824 37.3896 72.9997 38.8122C73.7231 40.2348 74.7117 41.329 75.9656 42.0945C77.2194 42.8541 78.6481 43.2339 80.2516 43.2339C81.2704 43.2339 82.2108 43.0832 83.0728 42.7817C83.9348 42.4803 84.7004 42.0554 85.3695 41.5068C86.0447 40.9522 86.5962 40.2951 87.0242 39.5356C87.4583 38.77 87.7506 37.9321 87.9013 37.0218L85.0802 37.0128C84.9656 37.6036 84.7577 38.128 84.4562 38.5861C84.1609 39.0383 83.7992 39.421 83.3712 39.7345C82.9432 40.048 82.4639 40.2861 81.9335 40.4488C81.409 40.6056 80.8544 40.6839 80.2697 40.6839C79.2148 40.6839 78.2653 40.4187 77.4214 39.8882C76.5774 39.3577 75.9113 38.5741 75.423 37.5372C74.9408 36.5004 74.6997 35.2285 74.6997 33.7214C74.6997 32.2264 74.9408 30.9605 75.423 29.9237C75.9113 28.8868 76.5744 28.1002 77.4123 27.5637C78.2563 27.0271 79.2117 26.7589 80.2787 26.7589C80.8695 26.7589 81.4271 26.8403 81.9515 27.003C82.482 27.1658 82.9613 27.4069 83.3893 27.7264C83.8173 28.0459 84.1789 28.4347 84.4743 28.8929C84.7697 29.351 84.9716 29.8815 85.0802 30.4843Z" fill="#FF6C5C"/>
</svg>
