<svg width="74" height="68" viewBox="0 0 74 68" fill="none" xmlns="http://www.w3.org/2000/svg">
<path fill-rule="evenodd" clip-rule="evenodd" d="M23.0216 22.6472C24.6511 16.3872 30.3065 12.0074 36.7803 12.0074L36.7834 12.0074L36.7911 12.0073L36.7944 12.0071L36.7965 12.0069C36.8017 12.0065 36.8058 12.0056 36.8081 12.0037C36.8092 12.0027 36.8098 12.0015 36.8098 12C44.6403 12.0074 50.9815 18.3559 50.9741 26.179C50.9741 34.0169 44.6182 40.3728 36.7803 40.3728C30.3065 40.3728 24.6511 36.0003 23.0216 29.733C23.0216 29.7081 23.0182 29.6832 23.0146 29.6575V29.6573L23.0145 29.6563V29.6561C23.0107 29.6289 23.0069 29.6008 23.0069 29.5708C23.0142 29.1947 23.3166 28.8998 23.6852 28.8924H29.4217C29.6871 28.8998 29.9157 29.062 30.0263 29.2979L30.0411 29.3127C30.7858 30.9127 32.0688 32.1957 33.6614 32.933C37.3849 34.6584 41.8016 33.0362 43.527 29.3127C45.2523 25.5891 43.6302 21.1725 39.9067 19.4471C36.1831 17.7217 31.7665 19.3439 30.0411 23.0674C30.0337 23.0674 30.0263 23.0748 30.0263 23.0822C29.9305 23.3329 29.6871 23.4877 29.4217 23.4877H23.6852C23.3166 23.4803 23.0142 23.178 23.0069 22.8094C22.9995 22.7578 23.0069 22.6988 23.0216 22.6472ZM40.1794 26.2085C40.1794 28.0817 38.6609 29.6003 36.7877 29.6003C34.9145 29.6003 33.3959 28.0817 33.3959 26.2085C33.3959 24.3353 34.9145 22.8167 36.7877 22.8167C38.6609 22.8167 40.1794 24.3353 40.1794 26.2085ZM15.2058 48.1738C16.2824 48.1738 17.2925 48.712 17.8971 49.6042C17.934 49.6558 17.993 49.6927 18.0593 49.6927H19.0695C19.1875 49.7001 19.2833 49.6042 19.2907 49.4863V49.4715C19.2981 49.442 19.2907 49.4051 19.276 49.383C18.1405 47.1341 15.3976 46.2272 13.1487 47.3627C10.8998 48.4982 9.99288 51.2411 11.1284 53.49C12.2639 55.7389 15.0068 56.6458 17.2557 55.5103C18.1331 55.0679 18.8409 54.3601 19.276 53.49C19.2907 53.4605 19.2981 53.431 19.2907 53.4015C19.2981 53.2835 19.2022 53.1877 19.0916 53.1803H19.0695H18.0593C17.993 53.1803 17.9266 53.2172 17.8971 53.2688C16.887 54.7582 14.8593 55.1416 13.3699 54.1315C11.8804 53.1213 11.497 51.0936 12.5072 49.6042C13.1192 48.7047 14.1293 48.1664 15.2058 48.1738ZM22.1147 45.3498C22.1147 45.8262 21.7284 46.2125 21.252 46.2125C20.7755 46.2125 20.3893 45.8262 20.3893 45.3498C20.3893 44.8733 20.7755 44.4871 21.252 44.4871C21.7284 44.4871 22.1147 44.8733 22.1147 45.3498ZM20.6105 55.5545C20.6031 55.6725 20.699 55.7684 20.8096 55.7757H20.8317H21.6944C21.8124 55.7831 21.9082 55.6873 21.9156 55.5767V55.5545V47.0899H20.6105V55.5545ZM27.7701 47.0899V47.9526C27.7774 48.0632 27.6742 48.1664 27.5562 48.1664C25.8456 48.277 24.5184 49.6927 24.5184 51.4107V55.5398V55.5619C24.5111 55.6725 24.4152 55.7684 24.2972 55.761H23.4345H23.4124C23.3018 55.7536 23.206 55.6578 23.2133 55.5398V47.2964V47.2742C23.2207 47.1636 23.3166 47.0678 23.4345 47.0752H24.2899H24.312C24.4226 47.0825 24.5184 47.1784 24.5111 47.2964V48.5203C25.2041 47.5176 26.3323 46.9056 27.5489 46.8687C27.6742 46.8687 27.7701 46.9646 27.7701 47.0899ZM32.3342 48.1738C33.4107 48.1738 34.4209 48.712 35.0255 49.6042C35.0623 49.6558 35.1213 49.6927 35.1877 49.6927H36.1978C36.3158 49.7001 36.4117 49.6042 36.419 49.4863V49.4715C36.4264 49.442 36.419 49.4051 36.4043 49.383C35.2688 47.1341 32.5259 46.2272 30.277 47.3627C28.0281 48.4982 27.1212 51.2411 28.2567 53.49C29.3922 55.7389 32.1351 56.6458 34.384 55.5103C35.2614 55.0679 35.9693 54.3601 36.4043 53.49C36.419 53.4605 36.4264 53.431 36.419 53.4015C36.4264 53.2835 36.3306 53.1877 36.22 53.1803H36.1978H35.1877C35.1213 53.1803 35.0549 53.2172 35.0255 53.2688C34.0153 54.7582 31.9877 55.1416 30.4982 54.1315C29.0088 53.1213 28.6254 51.0936 29.6355 49.6042C30.2475 48.7047 31.2577 48.1664 32.3342 48.1738ZM37.9527 44.2512H38.8154C38.926 44.2512 39.0218 44.3618 39.0366 44.4724V55.5324V55.5545C39.0292 55.6651 38.9334 55.761 38.8154 55.7536H37.9527H37.9306C37.82 55.7463 37.7241 55.6504 37.7315 55.5324V44.4724V44.4502C37.7389 44.3396 37.8347 44.2438 37.9527 44.2512ZM44.8837 46.8687C42.362 46.8687 40.3196 48.9038 40.3196 51.4255C40.3196 53.9471 42.3546 55.9896 44.8763 55.9896C46.6017 55.9896 48.1796 55.0237 48.9538 53.4826C49.0128 53.3794 48.9759 53.254 48.8727 53.1951L48.8653 53.1877C48.8284 53.1729 48.7916 53.1656 48.7547 53.1729H47.7446C47.6708 53.1729 47.6045 53.2098 47.5602 53.2614C46.5501 54.7508 44.5298 55.1416 43.0403 54.1315C42.2735 53.608 41.7648 52.7895 41.6394 51.8679H49.2045C49.3151 51.8605 49.4109 51.7794 49.4257 51.6688V51.4476C49.4552 48.948 47.4496 46.8982 44.95 46.8687H44.8837ZM41.75 50.548C42.2293 48.8153 44.021 47.8051 45.7464 48.277C46.8524 48.5793 47.7077 49.442 48.0174 50.548H41.75ZM63.3614 45.3498C63.3614 46.065 62.7788 46.6475 62.0637 46.6475C61.3484 46.6475 60.7659 46.065 60.7659 45.3498C60.7659 44.6346 61.3484 44.0521 62.0637 44.0521C62.7788 44.0521 63.3614 44.6346 63.3614 45.3498ZM60.9798 55.5545C60.9724 55.6725 61.0682 55.7684 61.1862 55.7757H61.201H62.9411C63.0591 55.7831 63.1549 55.6873 63.1623 55.5767V55.5545V47.0899H60.9798V55.5545ZM57.4626 50.4227C57.0792 49.5747 56.2313 49.0291 55.3022 49.0291C53.9824 49.0291 52.9206 50.0909 52.928 51.4402C52.928 52.3766 53.4736 53.2246 54.3216 53.608C55.5161 54.1536 56.9244 53.6227 57.47 52.4282C57.5069 52.3545 57.5806 52.3029 57.6691 52.3029H59.4903H59.5125C59.6231 52.3103 59.7189 52.4061 59.7115 52.5241V52.5609C59.2986 54.1683 58.0378 55.4292 56.4304 55.8421C53.9898 56.4688 51.505 55.0015 50.8782 52.5609C50.2515 50.1204 51.7188 47.6355 54.1594 47.0088C56.6 46.3821 59.0848 47.8494 59.7115 50.2899V50.3268V50.3489C59.7041 50.4595 59.6083 50.5554 59.4903 50.548H57.6617C57.5806 50.548 57.4995 50.5038 57.4626 50.4227Z" fill="#FF6C5C"/>
</svg>
