<svg width="312" height="68" viewBox="0 0 312 68" fill="none" xmlns="http://www.w3.org/2000/svg">
<path fill-rule="evenodd" clip-rule="evenodd" d="M47.7822 12V56H42.2984V12H47.7822ZM36.8145 12V56H31.3306V12H36.8145ZM58.8146 29.871V38.129H53.3307V29.871H58.8146ZM25.7822 12V56H20.2983V12H25.7822ZM14.8144 12V50.4516V50.5161V56H9.33057V50.5161V50.4516V12H14.8144ZM275.072 27.2258C273.718 26.9677 272.298 26.8387 270.879 26.8387C268.621 26.7097 266.427 27.2903 264.492 28.3871C262.944 29.5484 262.04 31.3548 262.169 33.2903C262.105 34.2581 262.363 35.2903 262.814 36.1936C263.266 36.9677 263.847 37.6129 264.556 38.129C265.331 38.7097 266.105 39.0968 267.008 39.4193L269.911 40.3871C271.266 40.7097 272.492 41.2903 273.653 42.0645C274.363 42.6452 274.814 43.5484 274.75 44.4516C274.814 45.5484 274.298 46.5806 273.46 47.2258C272.298 47.9355 270.943 48.2581 269.589 48.1935C268.75 48.1935 267.911 48.0645 267.072 47.9355C266.363 47.8064 265.653 47.6129 265.008 47.3548C264.545 47.2005 264.164 47.0052 263.767 46.8016C263.666 46.7498 263.564 46.6975 263.46 46.6452C263.073 46.4516 262.814 46.2581 262.492 46L261.201 49.2903C261.653 49.5484 262.105 49.8064 262.556 50C263.137 50.2581 263.718 50.4516 264.298 50.5807C265.072 50.7742 265.782 50.9032 266.556 51.0322C267.589 51.0968 268.557 51.0968 269.589 51.0322C270.75 51.1613 271.911 51.0968 273.073 50.9678C274.105 50.7097 275.072 50.2581 275.976 49.6774C276.814 49.0968 277.524 48.3871 278.04 47.4839C278.621 46.5161 278.879 45.3548 278.815 44.1936C278.943 42.2581 278.04 40.3871 276.427 39.2258C275.653 38.7097 274.814 38.2581 273.976 37.9355L271.266 37.0323L269.266 36.4516C268.685 36.2581 268.105 36 267.589 35.6774C267.137 35.4194 266.75 35.0323 266.427 34.6452C266.105 34.2581 265.976 33.7419 265.976 33.2258C265.847 32.129 266.363 31.1613 267.331 30.6452C268.492 30.129 269.718 29.871 271.008 29.9355C272.169 29.871 273.395 30.0645 274.556 30.4516C275.395 30.7097 276.169 31.0322 276.944 31.4193L277.911 28.129C277.008 27.7419 276.04 27.4194 275.072 27.2258ZM241.201 42.9032V27.1613H237.072V42.9032C236.879 45.1613 237.589 47.3548 239.073 49.0323C240.556 50.3871 242.428 51.0968 244.427 51.0322C246.298 51.0968 248.105 50.6452 249.653 49.6774C251.008 48.7742 252.105 47.6129 252.75 46.1935L253.137 50.3871H256.685V27.1613H252.686V43.1613C252.04 44.4516 251.073 45.5484 249.911 46.4516C248.685 47.3548 247.202 47.8064 245.653 47.7419C245.072 47.7419 244.492 47.6129 243.911 47.4839C243.395 47.3548 242.879 47.0968 242.492 46.7097C242.04 46.3226 241.718 45.8065 241.524 45.2258C241.266 44.4516 241.201 43.6774 241.201 42.9032ZM105.589 19.9355C104.298 19.2903 102.944 18.7742 101.524 18.3871C99.7823 17.9355 98.0402 17.7419 96.2339 17.9355C93.9759 17.871 91.7824 18.2581 89.7177 19.0323C85.7176 20.5161 82.4918 23.6129 81.008 27.5484C79.3951 32.0645 79.3951 37.0323 81.008 41.5484C81.7178 43.4839 82.879 45.2258 84.363 46.7097C85.7176 48.129 87.4597 49.2258 89.3306 50C91.3306 50.7742 93.4595 51.0968 95.6533 51.0968C97.5888 51.0968 99.5243 50.8387 101.331 50.1936C102.75 49.7419 103.976 49.0968 105.137 48.2581L103.976 45.4194C102.75 46.129 101.46 46.7097 100.169 47.1613C98.8146 47.6129 97.3951 47.8064 95.9113 47.8064C94.2984 47.8064 92.7501 47.4839 91.266 46.9032C89.9111 46.3226 88.6854 45.4194 87.7177 44.3226C86.6853 43.0968 85.9113 41.7419 85.395 40.1935C84.8144 38.3871 84.5564 36.4516 84.5564 34.5806C84.4919 32.6452 84.8144 30.7097 85.4596 28.8387C86.0402 27.2903 86.8145 25.871 87.9114 24.6452C89.9111 22.3226 92.8144 21.0968 95.8468 21.0968C97.5242 21.0322 99.1371 21.2903 100.685 21.8064C101.976 22.3226 103.202 22.9032 104.363 23.6774L105.589 19.9355ZM146.298 27.1613C145.072 26.8387 143.782 26.7097 142.492 26.7097C140.879 26.7097 139.266 26.9677 137.718 27.6129C136.234 28.129 134.879 28.9677 133.782 30.0645C132.621 31.1613 131.782 32.4516 131.201 33.871C129.976 37.1613 129.976 40.7742 131.201 44.0645C131.782 45.4839 132.621 46.7742 133.718 47.871C134.75 48.9032 136.04 49.7419 137.46 50.2581C138.943 50.8387 140.556 51.0968 142.105 51.0968C143.46 51.0322 144.75 50.8387 146.04 50.3871C147.072 50.0645 148.105 49.5484 149.008 48.9032L148.105 46C146.492 47.0968 144.556 47.6774 142.621 47.7419C140.363 47.871 138.169 47.0968 136.556 45.5484C135.008 43.6774 134.169 41.2903 134.363 38.9032C134.363 37.5484 134.556 36.1936 135.008 34.9032C135.395 33.871 135.976 32.9032 136.685 32.0645C137.33 31.2903 138.169 30.7097 139.137 30.3226C140.105 29.9355 141.073 29.7419 142.105 29.7419C143.137 29.6774 144.234 29.871 145.202 30.2581C146.105 30.6452 147.008 31.1613 147.847 31.8065L149.137 28.3226C148.234 27.8065 147.331 27.3548 146.298 27.1613ZM224.879 27.5484C223.524 26.9677 221.976 26.7097 220.492 26.7097C219.008 26.7097 217.524 26.9677 216.04 27.5484C214.686 28.129 213.46 28.9032 212.428 29.9355C211.395 31.0323 210.556 32.3226 209.976 33.7419C208.75 37.0968 208.75 40.7742 209.976 44.129C210.492 45.5484 211.331 46.8387 212.428 47.9355C213.46 48.9677 214.686 49.8064 216.04 50.3226C217.46 50.9032 218.943 51.1613 220.427 51.1613C221.976 51.1613 223.524 50.9032 225.008 50.3226C226.363 49.7419 227.653 48.9677 228.685 47.9355C229.718 46.8387 230.556 45.5484 231.073 44.129C232.298 40.7742 232.298 37.0968 231.073 33.7419C230.492 32.3226 229.653 31.0323 228.557 29.9355C227.524 28.9032 226.234 28.0645 224.879 27.5484ZM297.589 27.4194C296.234 26.8387 294.75 26.5806 293.266 26.5806C291.782 26.5806 290.298 26.8387 288.879 27.4194C287.589 27.9355 286.492 28.7742 285.524 29.8064C284.492 30.9032 283.718 32.1936 283.202 33.6129C282.621 35.2903 282.363 36.9677 282.363 38.7097C282.169 41.9355 283.266 45.1613 285.395 47.6774C287.718 49.9355 290.879 51.1613 294.105 50.9678C295.718 50.9678 297.266 50.7742 298.75 50.2581C299.976 49.9355 301.137 49.2903 302.105 48.5161L300.943 45.6129C300.04 46.2581 299.008 46.7097 297.976 47.0968C296.814 47.4839 295.589 47.6774 294.363 47.6774C289.202 47.6774 286.556 44.9032 286.363 39.3548H302.428C302.75 37.5484 302.75 35.6774 302.428 33.871C302.234 32.3871 301.653 31.0323 300.75 29.871C299.911 28.7742 298.815 27.9355 297.589 27.4194ZM114.427 50.5161V16.8387H110.427V50.5161H114.427ZM157.976 50.5161V16.8387H153.911V50.5161H157.976ZM172.432 27.2258L172.492 27.1613V27.2258H172.432ZM162.814 37.6129L172.432 27.2258H168.298L158.492 38.129L168.427 50.5807H173.137L162.814 37.6129ZM182.169 32.9677V18.2581H177.847V50.5161H182.169V36.2581H199.008V50.5807H203.331V18.2581H199.008V32.9677H182.169ZM125.072 50.3871V27.1613H121.073V50.3871H125.072ZM217.782 30.2581C218.685 29.9355 219.589 29.7419 220.492 29.7419C221.46 29.7419 222.363 29.871 223.266 30.2581C224.169 30.5806 225.008 31.1613 225.653 31.871C226.363 32.7097 226.944 33.6774 227.33 34.7097C227.782 36.0645 228.04 37.4839 227.976 38.9032C227.976 40.3226 227.782 41.7419 227.33 43.0968C227.008 44.129 226.427 45.0968 225.653 45.9355C225.008 46.6452 224.169 47.2258 223.266 47.5484C222.363 47.871 221.46 48.0645 220.492 48.0645C219.589 48.0645 218.621 47.871 217.782 47.5484C216.879 47.1613 216.105 46.6452 215.46 45.9355C214.686 45.0968 214.105 44.129 213.782 43.0968C213.395 41.7419 213.137 40.3226 213.202 38.9032C213.137 37.4839 213.331 36.0645 213.782 34.7097C214.169 33.6774 214.75 32.7097 215.46 31.871C216.105 31.1613 216.879 30.5806 217.782 30.2581ZM289.073 31.2903C290.169 30.129 291.782 29.4839 293.395 29.4839C294.944 29.4193 296.492 30.0645 297.589 31.2258C298.685 32.7742 299.137 34.7742 298.815 36.6452H286.75C286.944 34.6452 287.718 32.7742 289.073 31.2903ZM125.589 21.1613C125.589 20.5161 125.331 19.871 124.879 19.3548C123.847 18.3871 122.234 18.3871 121.137 19.3548C120.685 19.8064 120.492 20.5161 120.492 21.1613C120.427 21.871 120.685 22.5161 121.201 22.9677C121.718 23.4194 122.363 23.6774 123.073 23.6129C123.718 23.6129 124.363 23.3548 124.879 22.9032C125.331 22.4516 125.589 21.8064 125.589 21.1613Z" fill="#FF6C5C"/>
</svg>
