<svg width="212" height="68" viewBox="0 0 212 68" fill="none" xmlns="http://www.w3.org/2000/svg">
<path fill-rule="evenodd" clip-rule="evenodd" d="M10.3716 34C10.3716 21.8369 20.2417 12 32.3716 12C44.5015 12 54.3716 21.8369 54.3716 34C54.3716 46.1631 44.5015 56 32.3716 56C20.2084 56 10.3716 46.1299 10.3716 34ZM44.9667 40.6133C46.4622 40.3474 47.2266 39.1843 47.2266 37.855V37.8547C47.2266 34.9968 47.2266 32.1056 47.293 29.281C47.293 27.9517 46.2961 26.7221 45.0332 26.5227C44.2689 26.3897 42.4743 26.2568 41.0785 26.2568C40.5468 26.2568 40.1148 26.6556 40.1148 27.287V33.3021L32.4048 33.136L24.6948 33.3021V27.287C24.6948 26.6556 24.2628 26.2568 23.7311 26.2568C22.3353 26.2568 20.5408 26.3897 19.7764 26.5227C18.5468 26.7221 17.5166 27.9517 17.5166 29.281V37.855C17.5166 39.1843 18.2809 40.3474 19.7764 40.6133C22.3686 41.0782 27.8187 41.3444 32.3716 41.3444C36.9245 41.3444 42.3746 41.0782 44.9667 40.6133ZM66.2688 33.9335C66.2688 39.3169 69.6586 44.1692 76.4048 44.1692C79.296 44.1692 81.6556 43.006 82.6525 42.1091L80.8912 39.0846C79.861 39.8493 78.5981 40.5801 76.4713 40.5801C72.716 40.5801 70.8549 37.523 70.8549 33.8338C70.8549 30.2447 72.7824 27.3535 76.4048 27.3535C78.1994 27.3535 79.3957 27.7855 80.4924 28.4834L82.4199 25.3263C80.858 24.3293 79.0302 23.7644 76.4713 23.7644C69.7915 23.7644 66.2688 28.5831 66.2688 33.9335ZM87.8701 36.5589C87.8701 33.9003 88.5679 32.0725 90.7281 32.0725C92.9214 32.0725 93.7855 34 93.8187 36.6586C93.8187 39.3172 93.0876 41.1118 90.8942 41.1118C88.7341 41.1118 87.8701 39.2175 87.8701 36.5589ZM83.5498 36.6583C83.5498 40.3807 85.7432 44.1692 90.7945 44.1692C95.8791 44.1692 98.1057 40.2145 98.1389 36.5253C98.1389 32.8033 95.8459 29.048 90.7945 29.048C85.7432 29.048 83.5498 32.9362 83.5498 36.6583ZM104.486 38.6526V29.4139H104.487V29.3807H100.366V39.4501C100.366 42.1088 101.496 44.136 104.686 44.136C107.079 44.136 108.574 42.8731 109.339 41.8761C109.372 42.4743 109.505 43.4048 109.637 43.8036H113.659C113.46 42.9399 113.26 41.4773 113.26 39.5831V29.4139H109.206V39.0514C109.183 39.0765 109.156 39.1078 109.124 39.144C108.738 39.587 107.699 40.7795 106.348 40.7795C104.985 40.7795 104.486 40.0816 104.486 38.6526ZM115.752 36.6254C115.752 41.1447 118.61 44.1692 123.263 44.1692C125.921 44.1692 127.251 43.3384 127.915 42.906L126.686 40.1813L126.679 40.1854C126.244 40.4532 125.282 41.0453 123.629 41.0453C121.202 41.0453 120.073 39.1507 120.073 36.5257C120.073 33.9003 121.269 32.139 123.529 32.139C124.958 32.139 125.889 32.571 126.52 32.9698L127.816 30.1782C127.118 29.7462 125.722 29.0483 123.396 29.0483C118.976 29.0483 115.752 31.7734 115.752 36.6254ZM138.816 34.565V43.8036H142.87V33.7341C142.87 31.0755 141.74 29.0483 138.55 29.0483C136.19 29.0483 134.795 30.3112 134.063 31.1088V22.5347H130.009V43.8036H134.063V34.1662C134.362 33.8006 135.492 32.4381 136.955 32.4381C138.317 32.4381 138.816 33.136 138.816 34.565ZM152.175 40.9785C151.112 40.9785 150.514 40.7795 150.248 40.6798V33.3018C150.481 33.0027 151.411 32.2383 152.607 32.2383C154.668 32.2383 155.565 33.8335 155.565 36.4921C155.565 39.4498 154.269 40.9785 152.175 40.9785ZM150.248 30.5438V22.568V22.5347H146.16V43.0064C146.892 43.3387 148.885 44.1695 152.175 44.1695C156.562 44.1695 159.885 41.4441 159.885 36.4924C159.885 31.5076 157.36 29.0483 153.77 29.0483C152.175 29.0483 150.912 29.8792 150.248 30.5438ZM169.057 37.4894H169.556V40.048C169.157 40.4471 168.36 41.2444 166.997 41.2444C166.1 41.2444 165.269 40.8127 165.269 39.7825C165.269 38.1541 166.831 37.4894 169.057 37.4894ZM169.755 42.3078C169.788 42.7399 169.855 43.471 169.988 43.8369H174.009C173.81 42.906 173.61 41.5106 173.61 39.5166V34.4653C173.61 30.6103 171.716 29.0816 167.728 29.0816C164.637 29.0816 162.71 30.3776 161.846 31.1752L163.608 33.6344C163.64 33.6124 163.674 33.5883 163.711 33.5623C164.293 33.1564 165.514 32.3051 167.263 32.3051C169.057 32.3051 169.556 33.0363 169.556 34.2326V35.0305H169.057C165.236 35.0305 161.381 36.3927 161.381 40.148C161.381 42.7402 163.275 44.2024 165.734 44.2021C167.761 44.2021 169.124 43.0722 169.755 42.3078ZM175.77 42.8063C176.668 43.4045 178.329 44.1692 180.921 44.1692C184.477 44.1692 186.671 42.574 186.737 39.4831C186.737 37.0903 185.109 36.0272 182.849 35.0963C182.501 34.957 182.167 34.8367 181.857 34.725C180.688 34.3035 179.858 34.004 179.858 33.2686C179.858 32.5042 180.456 32.0389 181.819 32.0389C183.181 32.0389 184.311 32.6039 184.876 32.9362L186.272 30.1779C185.607 29.8124 184.078 29.048 181.619 29.048C178.329 29.048 176.169 30.7761 176.169 33.5012C176.169 35.6949 177.332 36.7915 179.326 37.755C179.936 38.0501 180.509 38.2813 181.012 38.4845C182.208 38.9678 183.015 39.2936 183.015 39.9486C183.015 40.7459 182.184 41.1782 180.689 41.1782C179.094 41.1782 177.698 40.3807 177.133 39.9815L175.77 42.8063ZM195.245 31.9728C196.973 31.9728 197.604 33.2689 197.637 34.864H192.453C192.719 33.003 193.65 31.9728 195.245 31.9728ZM199.679 40.275C198.955 40.6451 197.91 41.1782 196.109 41.1782C193.782 41.1782 192.653 39.7492 192.486 37.5891H201.559C202.058 32.2054 199.864 29.0483 195.311 29.0483C191.29 29.0483 188.133 31.9396 188.133 36.5257C188.133 41.1447 190.891 44.1692 195.743 44.1692C198.639 44.1692 200.101 43.3594 201.066 42.8253C201.098 42.8077 201.129 42.7904 201.16 42.7734L199.864 40.1813C199.805 40.2109 199.743 40.2423 199.679 40.275Z" fill="#FF6C5C"/>
</svg>
