<svg width="234" height="68" viewBox="0 0 234 68" fill="none" xmlns="http://www.w3.org/2000/svg">
<path fill-rule="evenodd" clip-rule="evenodd" d="M19.7051 15.63C23.17 13.32 27.35 12 31.8051 12C39.45 12 46.1601 15.905 50.12 21.79C48.0851 23.88 45.225 25.2 42.0902 25.2H27.7902C27.35 24.21 26.8551 23.275 26.3051 22.395C25.9713 21.8384 25.6101 21.3089 25.2258 20.7991C25.5977 21.3111 25.9417 21.8442 26.25 22.395C26.8 23.275 27.295 24.21 27.7349 25.2H11.62C13.3801 21.295 16.1849 17.94 19.7051 15.63ZM19.8036 15.6979C19.7717 15.6759 19.7395 15.6538 19.7075 15.6318L19.7051 15.63C19.7381 15.6526 19.7709 15.6752 19.8036 15.6979ZM22.2351 17.555C22.3007 17.6207 22.3665 17.6848 22.4323 17.7478C22.5585 17.8691 22.6847 17.9864 22.8109 18.1038L22.8125 18.1051C23.0051 18.2838 23.1976 18.4625 23.3902 18.655C23.0051 18.27 22.62 17.885 22.2351 17.555ZM80.425 40.325H77.4V20.25H80.425V40.325ZM68.4349 40.545C66.2349 40.545 64.475 39.885 63.2099 38.62C61.945 37.355 61.3399 35.54 61.3399 33.285C61.3399 30.975 61.945 29.105 63.1 27.785C64.2548 26.465 65.85 25.805 67.8849 25.805C69.7548 25.805 71.2399 26.355 72.3399 27.51C73.4399 28.665 73.9899 30.205 73.9899 32.24V33.89H64.475C64.5298 35.265 64.9149 36.31 65.575 37.08C66.2349 37.85 67.2798 38.18 68.545 38.18C69.37 38.18 70.195 38.125 70.9099 37.96C71.625 37.795 72.395 37.52 73.275 37.19V39.665C72.5599 39.995 71.7899 40.27 71.02 40.435C70.4063 40.5665 69.7226 40.5583 68.9969 40.5495C68.8122 40.5473 68.6247 40.545 68.4349 40.545ZM67.8298 28.115C66.8399 28.115 66.07 28.445 65.52 29.05C64.97 29.655 64.5849 30.535 64.475 31.745H70.9649C70.9649 30.59 70.6899 29.655 70.1399 29.05C69.5899 28.445 68.82 28.115 67.8298 28.115ZM93.075 38.345L93.6801 40.325H95.825V30.865C95.825 29.16 95.3851 27.95 94.45 27.125C93.5149 26.3 92.1399 25.915 90.325 25.915C89.5 25.915 88.675 26.025 87.7399 26.245C86.8051 26.465 85.9801 26.795 85.2101 27.18L86.2 29.325C86.8051 29.05 87.4649 28.775 88.125 28.555C88.7851 28.335 89.5 28.225 90.2149 28.225C91.095 28.225 91.7551 28.445 92.195 28.885C92.6351 29.325 92.8551 29.985 92.8551 30.92V31.69L90.3801 31.745C88.125 31.8 86.475 32.24 85.375 32.955C84.275 33.67 83.725 34.77 83.725 36.255C83.725 37.63 84.0551 38.675 84.8801 39.445C85.7051 40.215 86.8051 40.6 88.1801 40.6C89.2801 40.6 90.1601 40.38 90.875 40.105C91.5899 39.83 92.3051 39.225 92.9649 38.345H93.075ZM91.8101 37.3C91.15 37.905 90.27 38.235 89.17 38.235C88.4 38.235 87.795 38.07 87.4101 37.74C87.025 37.41 86.8601 36.915 86.8601 36.255C86.8601 35.375 87.1899 34.715 87.85 34.275C88.5101 33.835 89.5551 33.615 90.9851 33.56L92.8 33.505V34.715C92.8 35.815 92.47 36.695 91.8101 37.3ZM109.63 36.255C109.63 37.63 109.135 38.73 108.09 39.445C107.045 40.16 105.615 40.545 103.745 40.545C101.82 40.545 100.335 40.27 99.1801 39.665V37.025C100.83 37.795 102.425 38.18 103.855 38.18C105.725 38.18 106.66 37.63 106.66 36.475C106.66 36.09 106.55 35.815 106.33 35.595C106.11 35.375 105.78 35.1 105.285 34.825C104.79 34.55 104.13 34.275 103.305 33.945C101.655 33.285 100.555 32.68 99.95 32.02C99.345 31.36 99.07 30.535 99.07 29.545C99.07 28.335 99.5649 27.4 100.555 26.685C101.545 25.97 102.865 25.695 104.57 25.695C106.22 25.695 107.815 26.025 109.3 26.74L108.31 28.995C106.77 28.335 105.505 28.06 104.405 28.06C102.81 28.06 101.985 28.5 101.985 29.435C101.985 29.875 102.205 30.26 102.59 30.59C102.975 30.92 103.91 31.305 105.34 31.855C106.495 32.295 107.375 32.735 107.925 33.12C108.475 33.505 108.86 33.945 109.135 34.44C109.52 34.99 109.63 35.54 109.63 36.255ZM120.41 37.795C119.695 38.015 118.925 38.125 118.21 38.125C117.66 38.125 117.165 38.015 116.78 37.685C116.395 37.355 116.23 36.805 116.23 36.09V28.445H120.3V26.135H116.23V22.945H114.36L113.315 25.97L111.225 27.07V28.39H113.15V36.09C113.15 39.06 114.58 40.6 117.44 40.6C117.99 40.6 118.54 40.545 119.09 40.435C119.64 40.325 120.08 40.215 120.41 40.05V37.795ZM123.105 22.285C123.105 21.735 123.27 21.35 123.545 21.02C123.82 20.69 124.26 20.58 124.81 20.58C125.36 20.58 125.745 20.745 126.075 21.02C126.405 21.295 126.515 21.735 126.515 22.285C126.515 22.78 126.35 23.22 126.075 23.495C125.8 23.77 125.36 23.935 124.81 23.935C124.26 23.935 123.82 23.77 123.545 23.495C123.27 23.22 123.105 22.78 123.105 22.285ZM126.35 40.325H123.325V26.08H126.35V40.325ZM131.52 38.675C132.62 39.94 134.27 40.545 136.415 40.545C137.109 40.545 137.666 40.4423 138.195 40.345C138.336 40.3189 138.476 40.2932 138.615 40.27C139.275 40.16 139.825 39.94 140.375 39.61V36.97C139.165 37.63 137.9 37.96 136.525 37.96C135.37 37.96 134.435 37.575 133.83 36.75C133.225 35.925 132.895 34.715 132.895 33.12C132.895 29.875 134.105 28.225 136.58 28.225C137.46 28.225 138.505 28.5 139.77 28.995L140.705 26.575C139.495 26.025 138.12 25.75 136.635 25.75C134.435 25.75 132.73 26.355 131.575 27.675C130.42 28.995 129.815 30.81 129.815 33.23C129.815 35.595 130.42 37.41 131.52 38.675ZM153.3 36.255C153.3 37.63 152.805 38.73 151.76 39.445C150.715 40.16 149.285 40.545 147.415 40.545C145.49 40.545 144.005 40.27 142.85 39.665V37.025C144.5 37.795 146.095 38.18 147.525 38.18C149.395 38.18 150.33 37.63 150.33 36.475C150.33 36.09 150.22 35.815 150 35.595C149.78 35.375 149.45 35.1 148.955 34.825C148.46 34.55 147.8 34.275 146.975 33.945C145.325 33.285 144.225 32.68 143.62 32.02C143.015 31.36 142.74 30.535 142.74 29.545C142.74 28.335 143.235 27.4 144.225 26.685C145.215 25.97 146.535 25.695 148.24 25.695C149.89 25.695 151.485 26.025 152.97 26.74L151.98 28.995C150.44 28.335 149.175 28.06 148.075 28.06C146.48 28.06 145.655 28.5 145.655 29.435C145.655 29.875 145.875 30.26 146.26 30.59C146.645 30.92 147.58 31.305 149.01 31.855C150.165 32.295 151.045 32.735 151.595 33.12C152.145 33.505 152.53 33.945 152.805 34.44C153.19 34.99 153.3 35.54 153.3 36.255ZM157.59 38.62C158.855 39.885 160.615 40.545 162.815 40.545C163.019 40.545 163.216 40.5473 163.407 40.5496C164.143 40.5583 164.789 40.566 165.4 40.435C166.17 40.27 166.94 39.995 167.655 39.665V37.19C166.775 37.52 166.005 37.795 165.29 37.96C164.575 38.125 163.75 38.18 162.925 38.18C161.66 38.18 160.615 37.85 159.955 37.08C159.295 36.31 158.91 35.265 158.855 33.89H168.37V32.24C168.37 30.205 167.82 28.665 166.72 27.51C165.62 26.355 164.135 25.805 162.265 25.805C160.23 25.805 158.635 26.465 157.48 27.785C156.325 29.105 155.72 30.975 155.72 33.285C155.72 35.54 156.325 37.355 157.59 38.62ZM159.955 29.05C160.505 28.445 161.275 28.115 162.265 28.115C163.2 28.115 164.025 28.445 164.575 29.05C165.125 29.655 165.4 30.59 165.4 31.745H158.91C159.02 30.535 159.405 29.655 159.955 29.05ZM180.69 40.325L180.085 38.345H179.975C179.315 39.225 178.6 39.83 177.885 40.105C177.17 40.38 176.29 40.6 175.19 40.6C173.815 40.6 172.715 40.215 171.89 39.445C171.065 38.675 170.735 37.63 170.735 36.255C170.735 34.77 171.285 33.67 172.385 32.955C173.485 32.24 175.135 31.8 177.39 31.745L179.865 31.69V30.92C179.865 29.985 179.645 29.325 179.205 28.885C178.765 28.445 178.105 28.225 177.225 28.225C176.51 28.225 175.795 28.335 175.135 28.555C174.475 28.775 173.815 29.05 173.21 29.325L172.22 27.18C172.99 26.795 173.815 26.465 174.75 26.245C175.685 26.025 176.51 25.915 177.335 25.915C179.15 25.915 180.525 26.3 181.46 27.125C182.395 27.95 182.835 29.16 182.835 30.865V40.325H180.69ZM176.18 38.235C177.28 38.235 178.16 37.905 178.82 37.3C179.48 36.695 179.81 35.815 179.81 34.715V33.505L177.995 33.56C176.565 33.615 175.52 33.835 174.86 34.275C174.2 34.715 173.87 35.375 173.87 36.255C173.87 36.915 174.035 37.41 174.42 37.74C174.805 38.07 175.465 38.235 176.18 38.235ZM195.815 25.915C195.43 25.86 194.935 25.805 194.33 25.805C193.45 25.805 192.625 26.08 191.855 26.575C191.085 27.07 190.48 27.785 189.985 28.61H189.82L189.435 26.08H187.07V40.325H190.095V32.845C190.095 31.58 190.48 30.59 191.25 29.765C192.02 28.94 193.01 28.555 194.22 28.555C194.66 28.555 195.1 28.61 195.54 28.72L195.815 25.915ZM204.23 40.545C202.085 40.545 200.435 39.94 199.335 38.675C198.235 37.41 197.63 35.595 197.63 33.23C197.63 30.81 198.235 28.995 199.39 27.675C200.545 26.355 202.25 25.75 204.45 25.75C205.935 25.75 207.31 26.025 208.52 26.575L207.585 28.995C206.32 28.5 205.275 28.225 204.395 28.225C201.92 28.225 200.71 29.875 200.71 33.12C200.71 34.715 201.04 35.925 201.645 36.75C202.25 37.575 203.185 37.96 204.34 37.96C205.715 37.96 206.98 37.63 208.19 36.97V39.61C207.64 39.94 207.09 40.16 206.43 40.27C206.29 40.2932 206.151 40.3189 206.01 40.345C205.481 40.4423 204.924 40.545 204.23 40.545ZM221.06 40.325H224.085H224.14V31.085C224.14 27.62 222.435 25.86 218.97 25.86C217.98 25.86 217.1 26.025 216.385 26.41C215.67 26.795 215.12 27.345 214.68 28.005H214.46C214.57 27.07 214.625 26.19 214.625 25.365V20.25H211.6V40.325H214.625V33.175C214.625 31.415 214.9 30.15 215.505 29.38C216.11 28.61 217.045 28.225 218.31 28.225C219.245 28.225 219.96 28.5 220.4 29.05C220.84 29.6 221.06 30.425 221.06 31.525V40.325ZM40.1099 27.4H28.6149H10.8498C10.1899 29.49 9.85986 31.69 9.85986 34C9.85986 36.31 10.1899 38.51 10.8498 40.6H28.6149H40.1099C43.7399 40.6 46.6548 37.63 46.6548 34C46.6548 30.37 43.7399 27.4 40.1099 27.4ZM28.6149 40.6C28.6477 40.4369 28.6992 40.2739 28.7473 40.1222L28.7481 40.1205C28.7664 40.0633 28.7841 40.0077 28.8002 39.9544C28.8131 39.9113 28.8249 39.8698 28.8349 39.83C28.8021 39.9931 28.7505 40.1561 28.7025 40.3078L28.7017 40.3095C28.6783 40.3826 28.6557 40.453 28.6367 40.5194C28.6286 40.547 28.6214 40.5739 28.6149 40.6ZM42.0902 42.8H27.7902H11.675C13.3755 46.6947 16.1701 50.0422 19.7317 52.3516L19.7051 52.37C23.17 54.68 27.35 56 31.8051 56C39.45 56 46.1601 52.095 50.12 46.21C48.0851 44.12 45.225 42.8 42.0902 42.8Z" fill="#FF6C5C"/>
</svg>
