<svg width="149" height="68" viewBox="0 0 149 68" fill="none" xmlns="http://www.w3.org/2000/svg">
<path fill-rule="evenodd" clip-rule="evenodd" d="M71.1685 51.048L71.1697 51.0478L71.1737 51.0472L71.1761 51.0469C74.1054 50.6479 77.1187 50.2374 80.2069 49.8338C79.2235 50.0233 78.2353 50.2146 77.2434 50.4066L77.2356 50.4081L77.208 50.4134L77.2049 50.414C45.7957 56.4934 10.7041 63.2856 10.397 37.2712C10.3028 28.9303 16.6484 22.5419 24.9465 22.5419C30.7525 8.87453 46.3467 8.02675 52.2041 22.7646C62.8914 21.3345 67.6356 28.956 67.4643 36.3634C67.0704 53.499 39.7956 54.5952 41.5683 35.7297C42.4246 45.475 48.7274 46.3314 48.7274 46.3314C59.6202 46.614 60.4851 40.0886 60.3138 36.2521C59.8257 25.2394 48.5304 27.3289 48.5304 27.3289C47.9652 22.3535 42.75 17.6265 38.16 18.1231C29.6221 19.0394 29.2453 27.132 29.2453 27.132C18.0699 27.7057 17.2735 36.8173 17.2735 36.8173C17.6263 58.3413 39.4811 55.3643 71.1685 51.048ZM136.453 33.4666L137.8 33.228C137.648 32.6314 137.334 32.1558 136.861 31.8011C136.387 31.4432 135.737 31.2642 134.912 31.2642C134.338 31.2642 133.829 31.3603 133.385 31.5526C132.941 31.7415 132.593 32.005 132.341 32.343C132.089 32.6811 131.963 33.0755 131.963 33.5263C131.963 34.0698 132.133 34.5189 132.471 34.8736C132.812 35.2282 133.339 35.4867 134.052 35.6491L135.344 35.9325C135.709 36.0154 135.979 36.138 136.155 36.3004C136.334 36.4628 136.423 36.6634 136.423 36.902C136.423 37.197 136.277 37.4472 135.986 37.6527C135.694 37.8549 135.304 37.956 134.817 37.956C134.37 37.956 134.007 37.8615 133.728 37.6726C133.45 37.4804 133.266 37.197 133.177 36.8224L131.74 37.0412C131.862 37.7173 132.194 38.2393 132.734 38.6072C133.274 38.9718 133.972 39.1541 134.827 39.1541C135.444 39.1541 135.986 39.053 136.453 38.8509C136.923 38.6487 137.29 38.3703 137.552 38.0156C137.817 37.6577 137.949 37.25 137.949 36.7926C137.949 36.2524 137.777 35.8132 137.432 35.4751C137.088 35.1371 136.564 34.8868 135.861 34.7244L134.648 34.446C134.227 34.3466 133.922 34.219 133.733 34.0632C133.544 33.9074 133.45 33.7019 133.45 33.4467C133.45 33.1518 133.591 32.9115 133.873 32.7259C134.154 32.5369 134.506 32.4425 134.927 32.4425C135.235 32.4425 135.492 32.4922 135.697 32.5916C135.903 32.6911 136.065 32.8187 136.184 32.9744C136.307 33.1302 136.396 33.2943 136.453 33.4666ZM128.591 31.3636H130.078V39.4972C130.078 40.0076 129.985 40.4384 129.8 40.7898C129.617 41.1411 129.345 41.4079 128.984 41.5902C128.626 41.7725 128.184 41.8636 127.657 41.8636H127.508C127.458 41.8636 127.407 41.862 127.354 41.8587V40.581H127.478H127.592C127.943 40.581 128.197 40.4865 128.353 40.2976C128.512 40.112 128.591 39.8419 128.591 39.4872V31.3636ZM129.327 30.1854C129.069 30.1854 128.847 30.0992 128.661 29.9268C128.479 29.7512 128.388 29.5424 128.388 29.3004C128.388 29.0552 128.479 28.8463 128.661 28.674C128.847 28.4983 129.069 28.4105 129.327 28.4105C129.586 28.4105 129.806 28.4983 129.988 28.674C130.174 28.8463 130.267 29.0552 130.267 29.3004C130.267 29.5424 130.174 29.7512 129.988 29.9268C129.806 30.0992 129.586 30.1854 129.327 30.1854ZM124.905 38.8061C125.101 38.9983 125.334 39.0945 125.606 39.0945C125.788 39.0945 125.954 39.0497 126.103 38.9602C126.252 38.8707 126.372 38.7514 126.461 38.6023C126.554 38.4498 126.6 38.2824 126.6 38.1001C126.6 37.8284 126.503 37.5964 126.307 37.4041C126.112 37.2086 125.878 37.1108 125.606 37.1108C125.334 37.1108 125.101 37.2086 124.905 37.4041C124.71 37.5964 124.612 37.8284 124.612 38.1001C124.612 38.3752 124.71 38.6106 124.905 38.8061ZM122.843 33.228L121.496 33.4666C121.439 33.2943 121.35 33.1302 121.227 32.9744C121.108 32.8187 120.946 32.6911 120.74 32.5916C120.535 32.4922 120.278 32.4425 119.97 32.4425C119.549 32.4425 119.197 32.5369 118.916 32.7259C118.634 32.9115 118.493 33.1518 118.493 33.4467C118.493 33.7019 118.587 33.9074 118.776 34.0632C118.965 34.219 119.27 34.3466 119.691 34.446L120.904 34.7244C121.607 34.8868 122.131 35.1371 122.475 35.4751C122.82 35.8132 122.992 36.2524 122.992 36.7926C122.992 37.25 122.86 37.6577 122.595 38.0156C122.333 38.3703 121.966 38.6487 121.496 38.8509C121.028 39.053 120.487 39.1541 119.87 39.1541C119.015 39.1541 118.317 38.9718 117.777 38.6072C117.237 38.2393 116.905 37.7173 116.783 37.0412L118.22 36.8224C118.309 37.197 118.493 37.4804 118.771 37.6726C119.05 37.8615 119.413 37.956 119.86 37.956C120.347 37.956 120.737 37.8549 121.028 37.6527C121.32 37.4472 121.466 37.197 121.466 36.902C121.466 36.6634 121.376 36.4628 121.198 36.3004C121.022 36.138 120.752 36.0154 120.387 35.9325L119.095 35.6491C118.382 35.4867 117.855 35.2282 117.514 34.8736C117.175 34.5189 117.006 34.0698 117.006 33.5263C117.006 33.0755 117.132 32.6811 117.384 32.343C117.636 32.005 117.984 31.7415 118.428 31.5526C118.872 31.3603 119.381 31.2642 119.955 31.2642C120.78 31.2642 121.43 31.4432 121.903 31.8011C122.377 32.1558 122.691 32.6314 122.843 33.228ZM111.748 31.3636V39H113.235V34.3366C113.235 34.0052 113.314 33.7102 113.473 33.4517C113.632 33.1899 113.848 32.986 114.12 32.8402C114.395 32.691 114.708 32.6165 115.059 32.6165C115.212 32.6165 115.364 32.6281 115.517 32.6513C115.669 32.6712 115.775 32.6894 115.835 32.706V31.2841C115.762 31.2741 115.661 31.2659 115.531 31.2592C115.405 31.2526 115.296 31.2493 115.203 31.2493C114.756 31.2493 114.355 31.3686 114 31.6072C113.649 31.8426 113.404 32.1657 113.264 32.5767H113.185V31.3636H111.748ZM106.822 39.1541C106.07 39.1541 105.422 38.9934 104.878 38.6719C104.338 38.3471 103.92 37.8913 103.625 37.3047C103.334 36.7147 103.188 36.0237 103.188 35.2315C103.188 34.4493 103.334 33.7599 103.625 33.1634C103.92 32.5668 104.331 32.1011 104.858 31.7663C105.389 31.4316 106.009 31.2642 106.718 31.2642C107.149 31.2642 107.566 31.3355 107.971 31.478C108.375 31.6205 108.738 31.8442 109.059 32.1491C109.381 32.4541 109.634 32.8501 109.82 33.3374C110.006 33.8213 110.099 34.4096 110.099 35.1023V35.6293H104.671C104.682 36.0947 104.771 36.4941 104.938 36.8274C105.12 37.1854 105.374 37.4588 105.699 37.6477C106.023 37.8333 106.403 37.9261 106.837 37.9261C107.119 37.9261 107.376 37.8864 107.608 37.8068C107.84 37.724 108.04 37.6013 108.209 37.4389C108.378 37.2765 108.508 37.076 108.597 36.8374L110.004 37.0909C109.891 37.5052 109.689 37.8681 109.398 38.1797C109.109 38.4879 108.746 38.7282 108.309 38.9006C107.875 39.0696 107.379 39.1541 106.822 39.1541ZM104.673 34.5156H108.642C108.642 34.1245 108.562 33.7782 108.403 33.4766C108.244 33.1716 108.02 32.9313 107.732 32.7557C107.447 32.58 107.112 32.4922 106.728 32.4922C106.31 32.4922 105.946 32.5949 105.634 32.8004C105.326 33.0026 105.087 33.2678 104.918 33.5959C104.773 33.8808 104.691 34.1874 104.673 34.5156ZM96.5959 39V34.4659C96.5959 34.0616 96.6738 33.7169 96.8296 33.4318C96.9886 33.1435 97.2057 32.9247 97.4808 32.7756C97.7592 32.6264 98.0741 32.5518 98.4254 32.5518C98.9392 32.5518 99.3402 32.7076 99.6286 33.0192C99.9169 33.3274 100.061 33.7616 100.061 34.3217V39H101.548V34.1428C101.548 33.5064 101.438 32.9761 101.219 32.5518C101.004 32.1243 100.699 31.8028 100.305 31.5874C99.9136 31.3719 99.4562 31.2642 98.9325 31.2642C98.3393 31.2642 97.8587 31.3852 97.4908 31.6271C97.1229 31.8691 96.8494 32.1955 96.6705 32.6065H96.576V28.8182H95.1094V39H96.5959ZM93.3006 31.3636V32.5568H91.7345V36.7578C91.7345 37.0462 91.7776 37.2633 91.8638 37.4091C91.95 37.5516 92.061 37.6494 92.1969 37.7024C92.3361 37.7521 92.4869 37.777 92.6493 37.777C92.7686 37.777 92.873 37.7687 92.9625 37.7521C93.052 37.7356 93.1216 37.7223 93.1713 37.7124L93.4398 38.9403C93.3536 38.9735 93.231 39.0066 93.0719 39.0398C92.9128 39.0762 92.7139 39.0961 92.4753 39.0994C92.0842 39.1061 91.7196 39.0365 91.3815 38.8906C91.0435 38.7448 90.77 38.5194 90.5612 38.2145C90.3524 37.9096 90.248 37.5267 90.248 37.066V32.5568H89.1294V31.3636H90.248V29.5341H91.7345V31.3636H93.3006ZM81.4199 28.8182V39H87.8631V37.6776H82.9562V34.5604H87.4704V33.2429H82.9562V30.1406H87.8035V28.8182H81.4199Z" fill="#FF6C5C"/>
</svg>
