<svg width="178" height="68" viewBox="0 0 178 68" fill="none" xmlns="http://www.w3.org/2000/svg">
<path fill-rule="evenodd" clip-rule="evenodd" d="M45.9858 12L32.3521 12.015L10.3682 33.999L17.1508 40.79L23.1121 34.862L45.9858 12ZM32.7433 32.281C32.5498 32.272 32.3504 32.2628 32.2252 32.4281L27.3089 37.3427L27.309 37.3428L20.5131 44.1304L27.3107 50.9297L34.1551 44.1487L34.1268 44.1187L34.1267 44.1186L45.9742 32.2828L32.9748 32.2795C32.9024 32.2883 32.8234 32.2847 32.7433 32.281ZM80.0112 21.5555L65.1488 21.5505L65.1221 22.0229L65.1237 47.3005C65.5558 47.3099 65.9876 47.3083 66.4193 47.3068C66.9867 47.3048 67.554 47.3028 68.1219 47.3255L68.157 36.2142C68.5217 36.1514 68.8928 36.1571 69.2626 36.1627L69.2629 36.1627C69.3551 36.1641 69.4473 36.1655 69.5392 36.1658C72.6409 36.1641 75.7409 36.1641 78.8426 36.1658V33.2427L68.8665 33.2477C68.8001 33.2372 68.7219 33.2414 68.6417 33.2457C68.4436 33.2565 68.2338 33.2678 68.1637 33.0574L68.152 25.1864C68.1614 25.1219 68.157 25.0461 68.1525 24.9682C68.1411 24.7696 68.1288 24.5576 68.3423 24.4869C71.0974 24.4751 73.8525 24.4775 76.607 24.4799H76.6073H76.6075H76.6078H76.6081C77.742 24.4809 78.8758 24.4819 80.0095 24.4819L80.0112 21.5555ZM86.667 21.5555H83.6153L83.612 46.0501C83.612 46.1429 83.6104 46.2358 83.6088 46.3287V46.3289V46.3291V46.3292C83.6032 46.6478 83.5976 46.967 83.6571 47.2821C84.6487 47.2554 85.642 47.2604 86.6352 47.2788L86.6686 39.0438L86.667 21.5555ZM116.545 23.7257L113.484 23.724L113.474 28.8656C112.791 28.9177 112.106 28.9096 111.421 28.9016C111.029 28.897 110.637 28.8923 110.245 28.899C110.205 29.5346 110.211 30.1709 110.218 30.8074V30.8075V30.8076C110.221 31.1157 110.224 31.4238 110.222 31.732C110.704 31.7487 111.186 31.7443 111.668 31.7399H111.668C112.245 31.7347 112.821 31.7294 113.397 31.7603L113.472 31.8455L113.479 41.8834C113.48 42.0428 113.479 42.2031 113.477 42.3638C113.471 43.1591 113.465 43.9642 113.744 44.7197C114.25 46.3773 115.853 47.5175 117.525 47.7729C118.712 47.9349 119.973 47.8748 121.078 47.374V44.3758C120.074 44.9567 118.772 45.2405 117.712 44.6379C116.784 44.1454 116.58 42.9919 116.549 42.037L116.56 31.7303C117.75 31.7476 118.94 31.7436 120.131 31.7396L120.135 31.7396C120.432 31.7386 120.728 31.7376 121.024 31.737C121.031 31.3633 121.029 30.9896 121.028 30.6159C121.025 30.0614 121.023 29.5069 121.048 28.9525C120.132 28.8798 119.212 28.8906 118.292 28.9013C117.711 28.9081 117.13 28.9149 116.55 28.9007L116.545 23.7257ZM127.945 23.7257C127.436 23.7286 126.927 23.7315 126.418 23.714C126.389 24.4857 126.396 25.259 126.404 26.0323V26.0323V26.0324C126.413 26.9954 126.422 27.9582 126.361 28.9174C125.816 28.899 125.27 28.9004 124.725 28.9017H124.725C124.23 28.903 123.736 28.9042 123.241 28.8907L123.235 31.7403C123.82 31.7422 124.406 31.7414 124.993 31.7407H124.993H124.993C125.462 31.7401 125.932 31.7396 126.401 31.7403V43.0553C126.433 43.8516 126.623 44.6495 126.964 45.3707C127.67 46.7479 129.142 47.5976 130.647 47.798C131.805 47.9315 133.015 47.838 134.089 47.3539L134.092 44.339C133.085 44.9434 131.772 45.2472 130.688 44.6562C129.805 44.2072 129.541 43.1271 129.543 42.2139L129.56 31.7286C129.881 31.7305 130.202 31.7335 130.524 31.7366L130.525 31.7366C131.664 31.7474 132.804 31.7582 133.942 31.7153L133.932 28.9007C133.377 28.9039 132.822 28.9027 132.267 28.9015H132.267H132.267H132.266H132.266C131.372 28.8995 130.476 28.8976 129.581 28.9141C129.528 27.9201 129.536 26.9233 129.545 25.9263C129.551 25.222 129.557 24.5177 129.541 23.8141L129.471 23.7373C128.963 23.7198 128.454 23.7227 127.945 23.7257ZM147.99 28.8389C145.831 28.1044 143.392 28.1211 141.279 28.9975C139.119 29.9441 137.441 31.8421 136.611 34.034C135.82 36.0306 135.708 38.2559 136.067 40.3593C136.561 43.097 138.294 45.6428 140.811 46.8932C142.751 47.9382 145.065 47.9282 147.18 47.5325C149.756 47.0384 151.948 45.2138 153.153 42.9167C152.754 42.7331 152.359 42.5403 151.965 42.3475C151.488 42.1143 151.011 41.8813 150.527 41.6647C149.727 43.0419 148.512 44.2405 146.955 44.6996C144.734 45.3991 142.105 44.738 140.578 42.9568C139.503 41.7949 139.04 40.2174 138.92 38.6699L153.452 38.6548C153.517 37.2125 153.535 35.7384 153.076 34.3512C152.375 31.8488 150.462 29.692 147.99 28.8389ZM139.149 36.1658C139.506 34.2828 140.651 32.4581 142.429 31.6368C144.499 30.737 147.198 31.0675 148.778 32.7603C149.679 33.6501 150.116 34.9004 150.293 36.1307L139.149 36.1658ZM167.631 28.7521C164.805 27.5685 161.231 29.0526 160.067 31.8789C159.977 31.3378 159.998 30.7941 160.02 30.2501C160.036 29.8173 160.053 29.3844 160.014 28.9525C159.541 28.9411 159.069 28.9423 158.596 28.9436C158.094 28.9449 157.592 28.9462 157.091 28.9324L157.068 35.5415C157.074 37.0321 157.07 38.5227 157.067 40.0132V40.0159C157.061 42.4506 157.055 44.8851 157.093 47.3189C157.57 47.3027 158.049 47.3053 158.527 47.308H158.527C159.086 47.3111 159.646 47.3141 160.206 47.2871C160.148 46.5962 160.162 45.9057 160.177 45.2154C160.19 44.6049 160.204 43.9945 160.166 43.3842C160.213 42.6698 160.193 41.9551 160.174 41.2404V41.2401C160.152 40.4483 160.131 39.6565 160.199 38.8652C160.197 38.6377 160.19 38.4093 160.183 38.1807C160.155 37.24 160.126 36.2944 160.395 35.3812C160.88 33.7001 162.148 32.1727 163.86 31.6635C165.114 31.2946 166.444 31.5834 167.631 32.0508V28.7521ZM92.2915 28.9001C91.8753 28.9066 91.459 28.9131 91.044 28.8957L91.0073 40.3676C91.0541 41.9235 91.2577 43.5377 92.064 44.9033C92.7435 46.1453 93.9237 47.0952 95.2792 47.5042C97.381 48.1101 99.7615 47.9532 101.638 46.7696C102.554 46.2638 103.225 45.4508 103.865 44.6479L103.876 47.2621C104.33 47.2675 104.783 47.2668 105.236 47.2662C105.77 47.2655 106.304 47.2648 106.838 47.2738L106.856 28.9024L103.74 28.8957L103.706 39.3677C103.795 41.6781 102.272 43.9885 100.09 44.7697C98.4577 45.2922 96.4361 45.0502 95.2425 43.728C94.3177 42.6897 94.1274 41.229 94.1374 39.8918L94.1524 28.9508C93.5354 28.8808 92.9135 28.8905 92.2915 28.9001ZM34.1553 44.1487L27.3108 50.9297L32.0485 55.6724C32.0801 55.7004 32.1115 55.7318 32.1435 55.7637C32.2754 55.8955 32.4169 56.0369 32.6211 55.9912C34.8472 55.9862 37.0733 55.9871 39.2995 55.9879C41.5259 55.9887 43.7524 55.9896 45.9794 55.9846L34.1553 44.1487Z" fill="#FF6C5C"/>
</svg>
