<svg width="76" height="68" viewBox="0 0 76 68" fill="none" xmlns="http://www.w3.org/2000/svg">
<path fill-rule="evenodd" clip-rule="evenodd" d="M28.5754 12C32.3328 12 35.3789 15.0451 35.3789 18.8019C35.3789 22.494 32.4357 25.497 28.7671 25.5988C28.7671 25.9113 28.781 26.5015 28.9577 26.8578C29.203 27.3521 30.6743 28.2724 32.1171 28.2724H32.6354C32.9612 25.9534 34.9526 24.1687 37.362 24.1687C39.7616 24.1687 41.7472 25.9388 42.0849 28.2441H44.7667C45.1045 25.9388 47.09 24.1687 49.4896 24.1687C52.1264 24.1687 54.264 26.3056 54.264 28.9419C54.264 31.578 52.1264 33.7149 49.4896 33.7149C47.09 33.7149 45.1044 31.9447 44.7667 29.6394H42.085C41.7473 31.9447 39.7617 33.7149 37.362 33.7149C34.9669 33.7149 32.984 31.9515 32.6406 29.6525L32.0676 29.6696C31.1239 29.6625 30.127 29.4105 29.3262 28.8665C29.2401 28.808 29.1545 28.7483 29.0686 28.6883L29.0656 28.6862L29.0647 28.6855L29.0643 28.6853L29.0639 28.685L29.0635 28.6847L29.063 28.6844C28.933 28.5938 28.8024 28.5027 28.6685 28.4146L28.6685 28.7245C28.6672 28.8247 28.6492 30.331 28.6477 32.0033L28.6476 32.3574C28.6483 33.4542 28.657 34.5842 28.6828 35.4085C28.7395 37.2168 30.2103 38.6762 31.8334 39.0178C32.0444 39.0621 32.4071 39.0678 32.6357 39.048C32.962 36.7298 34.9532 34.9459 37.362 34.9459C39.9987 34.9459 42.1363 37.0829 42.1363 39.719C42.1363 42.3551 39.9987 44.4922 37.362 44.4922C34.9798 44.4922 33.0056 42.7478 32.6465 40.467H32.2335C29.132 40.2977 27.2037 37.453 27.2374 35.146C27.2672 33.1054 27.2602 31.0643 27.2533 29.0232C27.2504 28.1599 27.2475 27.2965 27.2473 26.4332V25.4731C24.1257 24.8555 21.7718 22.1038 21.7718 18.8019C21.7718 15.0451 24.8178 12 28.5754 12ZM37.362 36.3411C35.4961 36.3411 33.9834 37.8535 33.9834 39.719C33.9834 41.5846 35.4961 43.0969 37.362 43.0969C39.228 43.0969 40.7407 41.5846 40.7407 39.719C40.7407 37.8535 39.228 36.3411 37.362 36.3411ZM37.362 25.564C35.4961 25.564 33.9834 27.0763 33.9834 28.9419C33.9834 30.8073 35.4961 32.3197 37.362 32.3197C39.228 32.3197 40.7407 30.8073 40.7407 28.9419C40.7407 27.0763 39.228 25.564 37.362 25.564ZM49.4896 25.564C47.6236 25.564 46.111 27.0763 46.111 28.9419C46.111 30.8073 47.6236 32.3197 49.4896 32.3197C51.3556 32.3197 52.8684 30.8073 52.8684 28.9419C52.8684 27.0763 51.3556 25.564 49.4896 25.564ZM51.4138 27.5196C51.6797 27.7849 51.687 28.211 51.4355 28.4849L51.4151 28.5063L49.3451 30.5808C49.0813 30.8452 48.6579 30.8541 48.3834 30.606L48.3616 30.5853L47.3481 29.5877C47.0736 29.3173 47.07 28.8756 47.3404 28.6011C47.604 28.3335 48.0301 28.3234 48.3058 28.5732L48.3272 28.5935L48.8466 29.1047L50.427 27.5209C50.6992 27.248 51.141 27.2476 51.4138 27.5196ZM39.2306 27.5094C39.4964 27.7746 39.5037 28.2008 39.2522 28.4748L39.2319 28.4961L37.1618 30.5706C36.8981 30.835 36.4746 30.8439 36.2001 30.5957L36.1783 30.575L35.1648 29.5774C34.8902 29.3071 34.8867 28.8654 35.1571 28.5909C35.4206 28.3233 35.8468 28.3132 36.1226 28.5631L36.144 28.5833L36.6634 29.0944L38.2438 27.5107C38.5159 27.2379 38.9578 27.2374 39.2306 27.5094ZM28.5754 13.3953C25.5887 13.3953 23.1674 15.8158 23.1674 18.8019C23.1674 21.7878 25.5887 24.2085 28.5754 24.2085C31.5621 24.2085 33.9834 21.7878 33.9834 18.8019C33.9834 15.8158 31.5621 13.3953 28.5754 13.3953ZM28.0127 15.5704C29.1504 16.2539 30.2729 16.961 31.38 17.6914C32.3075 18.3032 32.3052 19.4128 31.3674 20.026C30.2404 20.7634 29.0955 21.4704 27.933 22.1471C26.9868 22.6979 25.9277 22.0646 25.902 20.9612C25.8908 20.4809 25.8933 20.0003 25.8959 19.5196V19.5196V19.5196V19.5196V19.5196V19.5195V19.5195V19.5195V19.5195V19.5195V19.5195V19.5194V19.5194V19.5194C25.8971 19.2885 25.8983 19.0576 25.898 18.8267C25.8977 18.6215 25.8964 18.4163 25.895 18.211C25.8918 17.7239 25.8886 17.2367 25.9003 16.7498C25.9286 15.5761 27.0091 14.9645 28.0127 15.5704ZM27.2627 16.6964V17.1874L27.2624 17.9076L27.2623 18.3785V19.0741L27.2624 19.3025C27.2625 19.5296 27.2625 19.7553 27.2627 19.9804C27.2629 20.21 27.2632 20.439 27.2636 20.6679C27.2641 20.9166 27.3935 20.9065 27.561 20.8028C28.5262 20.2045 29.492 19.6069 30.4582 19.0098C30.6179 18.9113 30.6224 18.8084 30.4658 18.7096C29.6761 18.2119 28.8857 17.7156 28.0525 17.1924L28.0515 17.1918C27.7931 17.0295 27.5306 16.8646 27.2627 16.6964ZM38.6814 40.4153C39.0667 40.4153 39.3792 40.103 39.3792 39.7177C39.3792 39.3325 39.0667 39.0201 38.6814 39.0201C38.2961 39.0201 37.9836 39.3325 37.9836 39.7177C37.9836 40.103 38.2961 40.4153 38.6814 40.4153ZM36.7077 39.7177C36.7077 40.103 36.3952 40.4153 36.0099 40.4153C35.6245 40.4153 35.3121 40.103 35.3121 39.7177C35.3121 39.3325 35.6245 39.0201 36.0099 39.0201C36.3952 39.0201 36.7077 39.3325 36.7077 39.7177ZM49.4897 43.0969C47.6236 43.0969 46.111 41.5846 46.111 39.719C46.111 37.8535 47.6236 36.3411 49.4897 36.3411C51.3556 36.3411 52.8684 37.8535 52.8684 39.719C52.8684 41.5846 51.3556 43.0969 49.4897 43.0969ZM49.4897 34.9459C47.09 34.9459 45.1045 36.7161 44.7667 39.0214H43.9859C43.645 39.0214 43.3684 39.3338 43.3684 39.719C43.3684 40.1044 43.645 40.4167 43.9859 40.4167H44.7667C45.1045 42.722 47.09 44.4922 49.4897 44.4922C52.1264 44.4922 54.264 42.3551 54.264 39.719C54.264 37.0829 52.1264 34.9459 49.4897 34.9459ZM64.1935 52.8719L64.9345 52.7406C64.8506 52.4125 64.6784 52.1509 64.4177 51.9559C64.157 51.759 63.7997 51.6606 63.3458 51.6606C63.0305 51.6606 62.7506 51.7134 62.5064 51.8192C62.2621 51.9231 62.0707 52.068 61.9322 52.2539C61.7936 52.4399 61.7243 52.6568 61.7243 52.9047C61.7243 53.2037 61.8173 53.4507 62.0033 53.6457C62.191 53.8408 62.4809 53.983 62.8728 54.0723L63.5837 54.2281C63.7842 54.2737 63.9328 54.3412 64.0294 54.4305C64.1279 54.5198 64.1771 54.6301 64.1771 54.7613C64.1771 54.9236 64.0969 55.0612 63.9364 55.1742C63.776 55.2854 63.5618 55.341 63.2939 55.341C63.0478 55.341 62.8482 55.2891 62.695 55.1852C62.5419 55.0794 62.4407 54.9236 62.3915 54.7176L61.6013 54.8379C61.6687 55.2098 61.851 55.4969 62.1482 55.6992C62.4453 55.8997 62.829 56 63.2993 56C63.6384 56 63.9365 55.9444 64.1935 55.8332C64.4523 55.722 64.6538 55.5689 64.7978 55.3738C64.9436 55.177 65.0165 54.9527 65.0165 54.7012C65.0165 54.404 64.9217 54.1625 64.7321 53.9766C64.5426 53.7906 64.2545 53.653 63.8681 53.5637L63.2009 53.4106C62.9694 53.3559 62.8017 53.2857 62.6978 53.2C62.5939 53.1143 62.5419 53.0013 62.5419 52.8609C62.5419 52.6987 62.6194 52.5665 62.7743 52.4645C62.9293 52.3606 63.1225 52.3086 63.354 52.3086C63.5236 52.3086 63.6648 52.336 63.7779 52.3906C63.8909 52.4453 63.9802 52.5155 64.0458 52.6012C64.1133 52.6869 64.1625 52.7771 64.1935 52.8719ZM58.0029 53.4215V55.9152H57.1853V51.7153H57.97V52.3988H58.022C58.1186 52.1764 58.2699 51.9978 58.4759 51.8629C58.6837 51.728 58.9453 51.6606 59.2607 51.6606C59.5469 51.6606 59.7975 51.7207 60.0126 51.841C60.2277 51.9595 60.3945 52.1363 60.513 52.3715C60.6315 52.6067 60.6907 52.8974 60.6907 53.2438V55.9152H59.8732V53.3422C59.8732 53.0378 59.7939 52.7999 59.6353 52.6285C59.4767 52.4554 59.2588 52.3688 58.9818 52.3688C58.7922 52.3688 58.6236 52.4098 58.4759 52.4918C58.3301 52.5738 58.2143 52.6942 58.1286 52.8527C58.0448 53.0095 58.0029 53.1991 58.0029 53.4215ZM53.284 55.7293C53.5775 55.9098 53.9211 56 54.3149 56C54.7086 56 55.0523 55.9098 55.3457 55.7293C55.6392 55.5488 55.8671 55.2964 56.0293 54.9719C56.1916 54.6474 56.2727 54.2682 56.2727 53.8344C56.2727 53.3987 56.1916 53.0177 56.0293 52.6914C55.8671 52.3651 55.6392 52.1117 55.3457 51.9313C55.0523 51.7508 54.7086 51.6606 54.3149 51.6606C53.9211 51.6606 53.5775 51.7508 53.284 51.9313C52.9905 52.1117 52.7627 52.3651 52.6004 52.6914C52.4382 53.0177 52.3571 53.3987 52.3571 53.8344C52.3571 54.2682 52.4382 54.6474 52.6004 54.9719C52.7627 55.2964 52.9905 55.5488 53.284 55.7293ZM54.952 55.1113C54.7843 55.2462 54.5728 55.3137 54.3176 55.3137C54.0606 55.3137 53.8473 55.2462 53.6778 55.1113C53.5101 54.9764 53.3852 54.7969 53.3032 54.5727C53.223 54.3484 53.1829 54.1014 53.1829 53.8316C53.1829 53.5637 53.223 53.3176 53.3032 53.0934C53.3852 52.8673 53.5101 52.686 53.6778 52.5492C53.8473 52.4125 54.0606 52.3442 54.3176 52.3442C54.5728 52.3442 54.7843 52.4125 54.952 52.5492C55.1197 52.686 55.2437 52.8673 55.3239 53.0934C55.4059 53.3176 55.4469 53.5637 55.4469 53.8316C55.4469 54.1014 55.4059 54.3484 55.3239 54.5727C55.2437 54.7969 55.1197 54.9764 54.952 55.1113ZM50.6283 55.9152V51.7153H51.4459V55.9152H50.6283ZM51.0412 51.0672C50.899 51.0672 50.7769 51.0198 50.6748 50.925C50.5745 50.8284 50.5244 50.7136 50.5244 50.5805C50.5244 50.4456 50.5745 50.3307 50.6748 50.236C50.7769 50.1393 50.899 50.091 51.0412 50.091C51.1834 50.091 51.3046 50.1393 51.4049 50.236C51.5069 50.3307 51.558 50.4456 51.558 50.5805C51.558 50.7136 51.5069 50.8284 51.4049 50.925C51.3046 51.0198 51.1834 51.0672 51.0412 51.0672ZM49.7239 52.3715V51.7153H48.8626V50.709H48.045V51.7153H47.4298V52.3715H48.045V54.8516C48.045 55.105 48.1024 55.3155 48.2173 55.4832C48.3321 55.6509 48.4825 55.7749 48.6684 55.8551C48.8544 55.9353 49.0549 55.9736 49.27 55.9699C49.4013 55.9681 49.5106 55.9572 49.5981 55.9371C49.6856 55.9189 49.7531 55.9007 49.8005 55.8824L49.6528 55.207C49.6255 55.2125 49.5872 55.2198 49.538 55.2289C49.4888 55.238 49.4313 55.2426 49.3657 55.2426C49.2764 55.2426 49.1934 55.2289 49.1169 55.2016C49.0421 55.1724 48.9811 55.1186 48.9337 55.0402C48.8863 54.96 48.8626 54.8406 48.8626 54.682V52.3715H49.7239ZM45.1637 56C44.7572 56 44.4072 55.9079 44.1137 55.7238C43.822 55.5379 43.5978 55.2818 43.441 54.9555C43.2843 54.6292 43.2059 54.2555 43.2059 53.8344C43.2059 53.4078 43.2861 53.0314 43.4465 52.7051C43.6069 52.377 43.833 52.1208 44.1246 51.9367C44.4163 51.7526 44.7599 51.6606 45.1555 51.6606C45.4745 51.6606 45.7589 51.7198 46.0086 51.8383C46.2583 51.955 46.4598 52.119 46.6129 52.3305C46.7679 52.5419 46.8599 52.7889 46.8891 53.0715H46.0934C46.0496 52.8746 45.9494 52.7051 45.7926 52.5629C45.6376 52.4207 45.4298 52.3496 45.1692 52.3496C44.9413 52.3496 44.7417 52.4098 44.5703 52.5301C44.4008 52.6486 44.2686 52.8181 44.1739 53.0387C44.0791 53.2574 44.0317 53.5163 44.0317 53.8152C44.0317 54.1215 44.0781 54.3858 44.1711 54.6082C44.2641 54.8306 44.3953 55.0029 44.5649 55.125C44.7362 55.2471 44.9376 55.3082 45.1692 55.3082C45.3241 55.3082 45.4645 55.2799 45.5902 55.2234C45.7179 55.1651 45.8245 55.0822 45.9102 54.9746C45.9977 54.8671 46.0587 54.7376 46.0934 54.5863H46.8891C46.8599 54.8579 46.7715 55.1004 46.6238 55.3137C46.4762 55.527 46.2784 55.6947 46.0305 55.8168C45.7844 55.9389 45.4955 56 45.1637 56ZM37.7125 55.9152H38.6094L39.1223 54.4332H41.3103L41.8223 55.9152H42.7191L40.7039 50.3153H39.7277L37.7125 55.9152ZM41.0647 53.7223L40.2391 51.3324H40.1953L39.3683 53.7223H41.0647ZM31.2786 55.9152V50.3153H32.0961V52.3961H32.1454C32.1928 52.3086 32.2611 52.2074 32.3504 52.0926C32.4398 51.9777 32.5637 51.8775 32.7223 51.7918C32.8809 51.7043 33.0905 51.6606 33.3512 51.6606C33.6903 51.6606 33.9929 51.7462 34.259 51.9176C34.5252 52.0889 34.7339 52.336 34.8852 52.6586C35.0383 52.9813 35.1149 53.3695 35.1149 53.8234C35.1149 54.2774 35.0392 54.6665 34.8879 54.991C34.7366 55.3137 34.5288 55.5625 34.2645 55.7375C34.0002 55.9107 33.6985 55.9973 33.3594 55.9973C33.1042 55.9973 32.8955 55.9544 32.7332 55.8688C32.5728 55.7831 32.4471 55.6828 32.3559 55.568C32.2648 55.4531 32.1946 55.351 32.1454 55.2617H32.077V55.9152H31.2786ZM32.0797 53.8152C32.0797 54.1106 32.1226 54.3694 32.2082 54.5918C32.2939 54.8142 32.4179 54.9883 32.5801 55.1141C32.7424 55.238 32.9411 55.3 33.1762 55.3C33.4205 55.3 33.6246 55.2353 33.7887 55.1059C33.9528 54.9746 34.0767 54.7969 34.1606 54.5727C34.2463 54.3484 34.2891 54.096 34.2891 53.8152C34.2891 53.5382 34.2472 53.2893 34.1633 53.0688C34.0813 52.8482 33.9573 52.6741 33.7914 52.5465C33.6274 52.4189 33.4223 52.3551 33.1762 52.3551C32.9392 52.3551 32.7387 52.4162 32.5747 52.5383C32.4124 52.6604 32.2894 52.8309 32.2055 53.0496C32.1217 53.2684 32.0797 53.5236 32.0797 53.8152ZM29.2941 51.7153V54.1734C29.2959 54.4123 29.2458 54.6091 29.1437 54.7641C29.0434 54.919 28.9167 55.0348 28.7636 55.1113C28.6123 55.1879 28.4601 55.2262 28.307 55.2262C28.0536 55.2262 27.8476 55.1414 27.689 54.9719C27.5304 54.8024 27.4511 54.5745 27.4511 54.2883V51.7153H26.6336V54.3867C26.6336 54.7331 26.6919 55.0238 26.8086 55.259C26.927 55.4941 27.0893 55.6719 27.2953 55.7922C27.5031 55.9107 27.7419 55.9699 28.0117 55.9699C28.327 55.9699 28.5905 55.8961 28.8019 55.7484C29.0152 55.599 29.1701 55.4121 29.2667 55.1879H29.3105V55.9152H30.1144V51.7153H29.2941ZM22.8191 53.4215V55.9152H22.0016V50.3153H22.8082V52.3988H22.8602C22.9586 52.1728 23.109 51.9932 23.3113 51.8602C23.5137 51.7271 23.778 51.6606 24.1043 51.6606C24.3923 51.6606 24.6439 51.7198 24.859 51.8383C25.0759 51.9568 25.2436 52.1336 25.3621 52.3688C25.4824 52.6021 25.5426 52.8938 25.5426 53.2438V55.9152H24.725V53.3422C24.725 53.0341 24.6457 52.7953 24.4871 52.6258C24.3285 52.4544 24.1079 52.3688 23.8254 52.3688C23.6322 52.3688 23.459 52.4098 23.3059 52.4918C23.1546 52.5738 23.0352 52.6942 22.9477 52.8527C22.862 53.0095 22.8191 53.1991 22.8191 53.4215ZM21.0069 52.3715V51.7153H20.1456V50.709H19.328V51.7153H18.7128V52.3715H19.328V54.8516C19.328 55.105 19.3854 55.3155 19.5003 55.4832C19.6151 55.6509 19.7655 55.7749 19.9515 55.8551C20.1374 55.9353 20.3379 55.9736 20.553 55.9699C20.6843 55.9681 20.7936 55.9572 20.8811 55.9371C20.9686 55.9189 21.0361 55.9007 21.0835 55.8824L20.9358 55.207C20.9085 55.2125 20.8702 55.2198 20.821 55.2289C20.7718 55.238 20.7143 55.2426 20.6487 55.2426C20.5594 55.2426 20.4765 55.2289 20.3999 55.2016C20.3252 55.1724 20.2641 55.1186 20.2167 55.0402C20.1693 54.96 20.1456 54.8406 20.1456 54.682V52.3715H21.0069ZM17.1289 55.9152V51.7153H17.9465V55.9152H17.1289ZM17.5418 51.0672C17.3996 51.0672 17.2775 51.0198 17.1754 50.925C17.0751 50.8284 17.025 50.7136 17.025 50.5805C17.025 50.4456 17.0751 50.3307 17.1754 50.236C17.2775 50.1393 17.3996 50.091 17.5418 50.091C17.684 50.091 17.8052 50.1393 17.9055 50.236C18.0075 50.3307 18.0586 50.4456 18.0586 50.5805C18.0586 50.7136 18.0075 50.8284 17.9055 50.925C17.8052 51.0198 17.684 51.0672 17.5418 51.0672ZM14.7404 51.6387C14.8297 51.7699 14.9008 51.9185 14.9537 52.0844H15.8205C15.7731 51.811 15.682 51.5621 15.5471 51.3379C15.4122 51.1119 15.2417 50.9168 15.0357 50.7528C14.8316 50.5887 14.5982 50.462 14.3357 50.3727C14.0751 50.2834 13.7934 50.2387 13.4908 50.2387C13.1281 50.2387 12.7935 50.3052 12.4873 50.4383C12.1829 50.5696 11.9176 50.76 11.6916 51.0098C11.4674 51.2577 11.2933 51.5594 11.1693 51.9149C11.0454 52.2703 10.9834 52.6714 10.9834 53.118C10.9834 53.7086 11.09 54.219 11.3033 54.6492C11.5166 55.0776 11.8137 55.4085 12.1947 55.6418C12.5775 55.8751 13.0223 55.9918 13.5291 55.9918C13.9812 55.9918 14.3822 55.8979 14.7322 55.7102C15.084 55.5224 15.3593 55.2563 15.558 54.9117C15.7585 54.5654 15.8588 54.157 15.8588 53.6867V53.0496H13.6576V53.7469H15.0408C15.0355 54.0378 14.9727 54.2921 14.8525 54.5098C14.7286 54.7358 14.5527 54.9108 14.3248 55.0348C14.0988 55.1587 13.8335 55.2207 13.5291 55.2207C13.201 55.2207 12.9084 55.1396 12.6514 54.9774C12.3943 54.8151 12.192 54.5772 12.0443 54.2637C11.8967 53.9501 11.8228 53.5664 11.8228 53.1125C11.8228 52.6604 11.8958 52.2785 12.0416 51.9668C12.1893 51.6533 12.3898 51.4154 12.6432 51.2531C12.8965 51.0909 13.1809 51.0098 13.4963 51.0098C13.6822 51.0098 13.8527 51.0344 14.0076 51.0836C14.1644 51.1328 14.3038 51.2048 14.426 51.2996C14.5481 51.3926 14.6529 51.5056 14.7404 51.6387Z" fill="#FF6C5C"/>
</svg>
