<svg width="138" height="68" viewBox="0 0 138 68" fill="none" xmlns="http://www.w3.org/2000/svg">
<path fill-rule="evenodd" clip-rule="evenodd" d="M78.3967 25.6863L78.3908 25.6879C77.0471 26.0447 75.6842 26.4066 74.107 26.8136L74.0121 26.839C73.2416 27.046 73.1613 27.0676 72.4442 26.2402C71.5841 25.2654 70.9533 24.6346 69.7491 24.0612C66.1367 22.2837 62.6389 22.7997 59.3706 24.9213C55.4713 27.4443 53.4644 31.1715 53.5218 35.8161C53.5792 40.4033 56.7329 44.1878 61.2628 44.8186C65.1618 45.3346 68.4304 43.9585 71.0107 41.0341C71.3937 40.5659 71.7454 40.0662 72.1354 39.5114C72.2709 39.3187 72.4112 39.1194 72.559 38.9125H61.4921C60.2879 38.9125 60.0012 38.167 60.4027 37.1923C61.148 35.4147 62.5244 32.433 63.3271 30.9421C63.499 30.5981 63.9005 30.0247 64.7606 30.0247H83.2135C84.0423 27.399 85.387 24.9179 87.1809 22.5704C91.3666 17.0657 96.4125 14.1986 103.236 12.9945C109.085 11.9623 114.59 12.5357 119.578 15.9189C124.108 19.0152 126.918 23.2011 127.663 28.7058C128.638 36.4468 126.402 42.7543 121.069 48.1443C117.285 51.9862 112.64 54.3945 107.307 55.4839C106.29 55.6723 105.273 55.7617 104.272 55.8496C103.749 55.8955 103.231 55.941 102.72 56C97.5022 55.8853 92.7428 54.3945 88.7289 50.954C85.9058 48.5138 83.9613 45.5146 82.9951 42.0231C82.3246 43.3773 81.5227 44.6742 80.5867 45.908C76.4581 51.3554 71.0681 54.7385 64.2446 55.656C58.625 56.4014 53.407 55.3119 48.8197 51.8715C44.5766 48.6604 42.1684 44.4172 41.5376 39.1418C40.792 32.8917 42.627 27.2723 46.4116 22.341C50.4828 17.0083 55.8728 13.6252 62.467 12.4211C67.857 11.4463 73.0176 12.077 77.6623 15.2308C80.7012 17.2377 82.8803 19.99 84.3139 23.3158C84.6577 23.8319 84.4284 24.1186 83.7404 24.2906C81.733 24.8004 80.0797 25.2394 78.3967 25.6863ZM19.0026 25.3227C18.7733 25.3227 18.7159 25.208 18.8307 25.036L20.0349 23.4878C20.1494 23.3158 20.4361 23.2011 20.6654 23.2011H41.1361C41.3654 23.2011 41.4228 23.3731 41.308 23.5452L40.3334 25.036C40.2186 25.208 39.9319 25.3801 39.76 25.3801L19.0026 25.3227ZM10.3441 30.5981C10.1148 30.5981 10.0574 30.4834 10.1722 30.3114L11.3764 28.7632C11.4909 28.5911 11.7776 28.4765 12.0069 28.4765H38.1543C38.3836 28.4765 38.4984 28.6485 38.441 28.8205L37.9824 30.1967C37.925 30.4261 37.6957 30.5407 37.4664 30.5407L10.3441 30.5981ZM24.0487 35.5294C23.9339 35.7014 23.9913 35.8734 24.2206 35.8734L36.7211 35.9308C36.893 35.9308 37.1223 35.7587 37.1223 35.5294L37.2371 34.1532C37.2371 33.9238 37.1223 33.7518 36.893 33.7518H25.4248C25.1955 33.7518 24.9662 33.9238 24.8514 34.0959L24.0487 35.5294ZM116.327 32.2211C116.339 32.4137 116.35 32.6167 116.367 32.8344C116.081 37.7657 113.615 41.4355 109.085 43.7864C106.046 45.3346 102.892 45.5067 99.7384 44.1305C95.6098 42.2956 93.431 37.7657 94.463 33.2931C95.7246 27.9031 99.165 24.52 104.498 23.3158C109.945 22.0543 115.163 25.2654 116.195 30.9421C116.276 31.3481 116.3 31.7541 116.327 32.2211Z" fill="#FF6C5C"/>
</svg>
