<svg width="302" height="68" viewBox="0 0 302 68" fill="none" xmlns="http://www.w3.org/2000/svg">
<path fill-rule="evenodd" clip-rule="evenodd" d="M45.1955 23.5376H45.0675C42.8283 21.7255 39.9813 20.8378 37.1086 21.0562C34.2367 21.2747 31.5564 22.5827 29.6172 24.7126C29.5785 24.7049 29.5343 24.7187 29.4862 24.7472C30.7531 24.9948 31.9851 25.4091 33.1513 25.9825C35.1842 26.9824 36.9582 28.4391 38.3344 30.2386L31.7766 36.7966C31.4005 35.9632 30.8268 35.2336 30.1065 34.6704C29.3862 34.1072 28.5395 33.7272 27.6401 33.563C26.7407 33.3988 25.8142 33.4553 24.9411 33.7277C24.0681 34.0001 23.2749 34.4802 22.6283 35.1268C21.9817 35.7735 21.5009 36.5674 21.2288 37.4404C20.9567 38.3133 20.9001 39.2394 21.0644 40.139C21.228 41.0387 21.6079 41.885 22.1716 42.6055C22.7345 43.326 23.4641 43.8991 24.2976 44.2756H24.2821C25.0148 44.6103 25.8103 44.7836 26.6159 44.7838H37.922V44.863L37.9375 44.8473H49.2435C49.9855 44.8473 50.7206 44.7011 51.4067 44.417C52.0929 44.1329 52.7155 43.7165 53.2404 43.1916C53.7653 42.6667 54.1817 42.0435 54.4663 41.3576C54.75 40.6718 54.8966 39.9367 54.8966 39.1944C54.8966 38.452 54.75 37.7169 54.4663 37.0311C54.1817 36.3452 53.7653 35.722 53.2404 35.1971C52.7155 34.6722 52.0929 34.2558 51.4067 33.9717C50.7206 33.6876 49.9855 33.5414 49.2435 33.5414V32.414C49.2753 30.7048 48.9194 29.0107 48.2015 27.4593C47.5013 25.9457 46.474 24.6065 45.1955 23.5376ZM17.7398 50.8337V50.8813C20.2953 52.8111 23.4137 53.8487 26.6159 53.8348H37.8739L37.9375 53.8983H49.2435C52.4007 53.9229 55.482 52.9307 58.0313 51.0683C60.5806 49.206 62.4632 46.5725 63.3998 43.5575C64.3364 40.5424 64.2782 37.3059 63.2323 34.3267C62.1871 31.3476 60.2108 28.784 57.5955 27.0151C56.5558 23.1845 54.4197 19.7408 51.4509 17.1066L51.3587 17.199L51.3711 17.0907C48.7791 14.8025 45.6459 13.2129 42.2678 12.4722C38.8904 11.7314 35.3796 11.864 32.0673 12.8573C28.7551 13.8507 25.7514 15.672 23.3385 18.1492C20.9256 20.6265 19.185 23.6778 18.2794 27.0151C18.3414 26.9897 18.4042 26.9669 18.4678 26.9467C18.5112 26.9328 18.5554 26.9201 18.5996 26.9087L18.467 26.9974L18.291 27.1184L18.0887 27.2622C15.6068 29.057 13.7467 31.5824 12.769 34.4856C11.7913 37.3888 11.7448 40.5249 12.6357 43.4558C13.5273 46.3867 15.3114 48.9661 17.7398 50.8337ZM94.1654 47.515C92.2193 47.5398 90.2872 47.1714 88.4868 46.432C86.6857 45.6926 85.0528 44.5973 83.6851 43.2118C82.2747 41.885 81.1552 40.2796 80.3984 38.4973C79.6409 36.7151 79.2625 34.7949 79.2866 32.8586C79.2633 30.9225 79.6425 29.0026 80.4 27.2205C81.1567 25.4384 82.2755 23.8328 83.6851 22.5055C85.0458 21.1056 86.6764 19.9956 88.4775 19.2424C90.2786 18.4892 92.2131 18.1084 94.1654 18.1228C96.0255 18.0981 97.8723 18.4433 99.5975 19.1384C101.323 19.8335 102.893 20.8647 104.217 22.172L101.391 25.0461C99.4548 23.1755 96.8574 22.1478 94.1654 22.1879C92.769 22.1708 91.385 22.4442 90.1003 22.991C88.8156 23.5377 87.658 24.3457 86.7027 25.3637C85.7087 26.3491 84.9257 27.5254 84.3992 28.8216C83.872 30.1179 83.613 31.5073 83.6378 32.9063C83.6262 34.2892 83.8913 35.6606 84.4178 36.9396C84.9443 38.2185 85.7204 39.3793 86.7027 40.3535C88.669 42.3132 91.3222 43.4279 94.098 43.4605C96.8745 43.4932 99.5533 42.4411 101.565 40.5282C102.811 39.1642 103.575 37.4295 103.741 35.5898H94.2135V31.5248H107.694C107.827 32.3435 107.88 33.173 107.853 34.0019C107.937 35.7175 107.672 37.4323 107.074 39.0426C106.477 40.6528 105.558 42.1252 104.376 43.3706C103.061 44.7399 101.471 45.8167 99.7122 46.5308C97.953 47.2449 96.0635 47.5802 94.1654 47.515ZM125.511 44.8156C123.701 46.5498 121.292 47.5181 118.786 47.5181C116.28 47.5181 113.871 46.5498 112.061 44.8156C111.161 43.9424 110.452 42.8916 109.979 41.7299C109.506 40.5681 109.279 39.3208 109.314 38.067C109.281 36.8132 109.507 35.5662 109.98 34.4046C110.453 33.243 111.162 32.1921 112.061 31.3184C113.872 29.5877 116.281 28.6219 118.786 28.6219C121.291 28.6219 123.7 29.5877 125.511 31.3184C126.41 32.1921 127.119 33.243 127.592 34.4046C128.065 35.5662 128.291 36.8132 128.258 38.067C128.291 39.3219 128.062 40.57 127.586 41.7318C127.111 42.8936 126.398 43.9438 125.495 44.8156H125.511ZM115.031 42.1637C115.512 42.6777 116.094 43.0873 116.74 43.3674C117.385 43.6475 118.082 43.792 118.786 43.792C119.49 43.792 120.187 43.6475 120.833 43.3674C121.478 43.0873 122.06 42.6777 122.541 42.1637C123.066 41.6214 123.477 40.9795 123.749 40.2759C124.022 39.5723 124.152 38.8212 124.129 38.067C124.153 37.3101 124.024 36.5563 123.752 35.8499C123.479 35.1436 123.067 34.499 122.541 33.9543C122.054 33.4456 121.468 33.0409 120.82 32.7644C120.172 32.4878 119.475 32.3453 118.77 32.3453C118.065 32.3453 117.368 32.4878 116.72 32.7644C116.072 33.0409 115.487 33.4456 114.999 33.9543C114.473 34.499 114.062 35.1436 113.789 35.8499C113.516 36.5563 113.388 37.3101 113.411 38.067C113.391 38.8223 113.523 39.5741 113.798 40.2778C114.073 40.9814 114.487 41.6227 115.014 42.1637H115.031ZM146.186 44.8156C144.376 46.5498 141.967 47.5181 139.46 47.5181C136.954 47.5181 134.545 46.5498 132.736 44.8156C131.836 43.9424 131.126 42.8916 130.653 41.7299C130.18 40.5681 129.954 39.3208 129.989 38.067C129.955 36.8132 130.182 35.5662 130.655 34.4046C131.128 33.243 131.836 32.1921 132.736 31.3184C134.545 29.5841 136.954 28.6158 139.46 28.6158C141.967 28.6158 144.376 29.5841 146.186 31.3184C147.085 32.1921 147.794 33.243 148.267 34.4046C148.74 35.5662 148.966 36.8132 148.933 38.067C148.967 39.3208 148.741 40.5681 148.268 41.7299C147.795 42.8916 147.086 43.9424 146.186 44.8156ZM135.705 42.1637C136.187 42.6777 136.768 43.0873 137.414 43.3674C138.06 43.6475 138.756 43.792 139.46 43.792C140.164 43.792 140.861 43.6475 141.507 43.3674C142.153 43.0873 142.735 42.6777 143.216 42.1637C143.741 41.6214 144.152 40.9795 144.424 40.2759C144.697 39.5723 144.826 38.8212 144.804 38.067C144.827 37.3101 144.698 36.5563 144.426 35.8499C144.153 35.1436 143.742 34.499 143.216 33.9543C142.728 33.4456 142.143 33.0409 141.495 32.7644C140.847 32.4878 140.15 32.3453 139.445 32.3453C138.74 32.3453 138.043 32.4878 137.395 32.7644C136.747 33.0409 136.161 33.4456 135.673 33.9543C135.148 34.499 134.736 35.1436 134.463 35.8499C134.19 36.5563 134.062 37.3101 134.086 38.067C134.065 38.8223 134.197 39.5741 134.472 40.2778C134.748 40.9814 135.162 41.6227 135.689 42.1637H135.705ZM159.778 55.9944C157.875 56.0549 156.008 55.4608 154.49 54.3112C153.142 53.2979 152.081 51.9519 151.41 50.405L155.03 48.8965C155.424 49.8209 156.04 50.6337 156.824 51.2624C157.663 51.9389 158.717 52.2936 159.794 52.2628C160.477 52.3044 161.161 52.1982 161.799 51.9516C162.438 51.705 163.016 51.3237 163.494 50.8337C164.45 49.6797 164.923 48.2 164.812 46.7051V45.3396H164.668C164.063 46.0582 163.299 46.6261 162.437 46.9982C161.574 47.3703 160.636 47.5364 159.698 47.4832C158.506 47.4868 157.327 47.2432 156.233 46.7676C155.14 46.292 154.157 45.5949 153.347 44.7203C152.467 43.8526 151.773 42.8156 151.307 41.672C150.84 40.5284 150.61 39.302 150.631 38.067C150.61 36.8247 150.838 35.5909 151.305 34.4394C151.772 33.2879 152.467 32.2425 153.347 31.366C154.155 30.4877 155.137 29.7871 156.23 29.3087C157.324 28.8303 158.505 28.5846 159.698 28.5872C160.709 28.5854 161.706 28.8077 162.62 29.2382C163.411 29.5834 164.115 30.0984 164.685 30.7467H164.827V29.2382H168.765V46.1494C168.869 47.4872 168.698 48.832 168.264 50.1016C167.83 51.3713 167.142 52.5389 166.241 53.5331C165.382 54.3542 164.368 54.995 163.258 55.4178C162.148 55.8405 160.964 56.0366 159.778 55.9944ZM160.063 43.7993C160.742 43.8142 161.415 43.6796 162.035 43.4052C162.655 43.1308 163.207 42.7232 163.653 42.2114C164.632 41.0886 165.148 39.6356 165.097 38.1463C165.156 36.632 164.64 35.1514 163.653 34.0019C163.208 33.4892 162.656 33.0811 162.035 32.8065C161.415 32.532 160.742 32.398 160.063 32.414C159.367 32.3997 158.676 32.5339 158.034 32.8077C157.394 33.0815 156.819 33.4886 156.348 34.0019C155.297 35.1101 154.727 36.5881 154.76 38.1146C154.744 38.8634 154.876 39.6079 155.149 40.3055C155.421 41.0032 155.829 41.6401 156.348 42.1796C156.817 42.6979 157.391 43.1104 158.031 43.3896C158.672 43.6689 159.365 43.8085 160.063 43.7993ZM175.768 19.1868V46.9433H171.624V19.1868H175.768ZM187.138 47.515C185.896 47.5469 184.662 47.3222 183.511 46.8549C182.361 46.3877 181.32 45.688 180.452 44.7997C179.572 43.9178 178.88 42.8663 178.419 41.7089C177.958 40.5515 177.737 39.3124 177.768 38.067C177.722 36.8184 177.927 35.5731 178.372 34.4055C178.816 33.2379 179.491 32.1717 180.357 31.2707C181.173 30.4108 182.159 29.7307 183.252 29.2741C184.346 28.8175 185.523 28.5943 186.709 28.6189C187.798 28.6074 188.879 28.8181 189.885 29.2382C190.79 29.6038 191.615 30.1432 192.314 30.8261C192.913 31.405 193.446 32.0495 193.902 32.7475C194.27 33.3368 194.584 33.9586 194.838 34.6053L195.267 35.6851L182.564 40.9093C182.949 41.792 183.591 42.5376 184.408 43.0479C185.223 43.5581 186.176 43.809 187.138 43.7675C188.074 43.7701 188.994 43.5301 189.809 43.0709C190.624 42.6117 191.307 41.949 191.79 41.1475L194.966 43.2912C194.155 44.4507 193.118 45.4338 191.917 46.1811C190.489 47.0836 188.826 47.5474 187.138 47.515ZM181.834 37.7811L190.282 34.2719C190.021 33.6531 189.556 33.1428 188.964 32.8269C188.3 32.4523 187.549 32.2606 186.788 32.2711C185.496 32.3046 184.269 32.8467 183.374 33.7796C182.838 34.292 182.423 34.9164 182.157 35.6082C181.89 36.2999 181.78 37.0419 181.834 37.7811ZM211.827 46.5564C213.461 47.2194 215.211 47.5454 216.974 47.515C218.99 47.5448 220.986 47.1215 222.817 46.2764C224.516 45.5025 226.018 44.3576 227.215 42.9259L224.929 40.6394C223.97 41.8155 222.758 42.7603 221.383 43.4036C220.009 44.0468 218.507 44.3721 216.989 44.355C215.682 44.3845 214.382 44.1493 213.168 43.6636C211.953 43.1779 210.85 42.4516 209.924 41.5286C208.96 40.5599 208.208 39.4026 207.713 38.1292C207.218 36.8558 206.992 35.4938 207.049 34.1289C206.992 32.764 207.218 31.4021 207.713 30.1287C208.208 28.8553 208.96 27.6979 209.924 26.7293C210.85 25.8062 211.953 25.08 213.168 24.5943C214.382 24.1086 215.682 23.8734 216.989 23.9028C218.348 23.8474 219.7 24.1133 220.936 24.6789C222.172 25.2446 223.257 26.094 224.103 27.158L226.39 24.935C225.237 23.572 223.792 22.487 222.162 21.7611C220.531 21.0352 218.758 20.6871 216.974 20.7429C215.211 20.7125 213.461 21.0385 211.827 21.7015C210.193 22.3644 208.711 23.3506 207.468 24.6008C206.225 25.851 205.248 27.3395 204.595 28.9768C203.942 30.6142 203.626 32.3666 203.667 34.1289C203.626 35.8913 203.942 37.6437 204.595 39.2811C205.248 40.9184 206.225 42.4068 207.468 43.6571C208.711 44.9073 210.193 45.8934 211.827 46.5564ZM233.361 46.9433H230.074V21.2987H233.361V46.9433ZM245.207 28.8384C242.78 28.8384 240.451 29.7984 238.728 31.5089C237.886 32.3981 237.228 33.4452 236.792 34.5898C236.357 35.7343 236.151 36.9538 236.188 38.1781C236.151 39.4023 236.357 40.6218 236.792 41.7664C237.228 42.911 237.886 43.958 238.728 44.8473C240.451 46.5578 242.78 47.5177 245.207 47.5177C247.635 47.5177 249.964 46.5578 251.686 44.8473C252.528 43.958 253.186 42.911 253.622 41.7664C254.058 40.6218 254.264 39.4023 254.227 38.1781C254.264 36.9538 254.058 35.7343 253.622 34.5898C253.186 33.4452 252.528 32.3981 251.686 31.5089C249.964 29.7984 247.635 28.8384 245.207 28.8384ZM243.008 44.0642C242.316 43.7663 241.692 43.3303 241.174 42.783L241.19 42.7671C240.615 42.1538 240.167 41.4324 239.872 40.6446C239.577 39.8568 239.442 39.0184 239.475 38.1781C239.439 37.3362 239.57 36.4955 239.862 35.7049C240.153 34.9143 240.599 34.1896 241.174 33.5732C241.692 33.0258 242.316 32.5899 243.008 32.2919C243.7 31.994 244.446 31.8403 245.199 31.8403C245.953 31.8403 246.698 31.994 247.39 32.2919C248.083 32.5899 248.707 33.0258 249.225 33.5732C249.799 34.1896 250.245 34.9143 250.537 35.7049C250.828 36.4955 250.96 37.3362 250.924 38.1781C250.96 39.02 250.828 39.8607 250.537 40.6513C250.245 41.4419 249.799 42.1665 249.225 42.783C248.707 43.3303 248.083 43.7663 247.39 44.0642C246.698 44.3622 245.953 44.5159 245.199 44.5159C244.446 44.5159 243.7 44.3622 243.008 44.0642ZM272.439 46.9433H269.263V44.5138H269.168C268.603 45.4366 267.803 46.1928 266.849 46.7051C265.861 47.2783 264.737 47.5797 263.594 47.5785C262.666 47.642 261.736 47.495 260.872 47.1486C260.009 46.8021 259.235 46.2652 258.608 45.5777C257.406 44.0563 256.801 42.1471 256.909 40.2106V29.4129H260.196V39.6072C260.196 42.8783 261.641 44.5138 264.531 44.5138C265.174 44.5339 265.811 44.4002 266.391 44.124C266.971 43.8478 267.477 43.437 267.866 42.9259C268.718 41.8462 269.172 40.506 269.152 39.1308V29.4129H272.439V46.9433ZM280.371 46.8174C281.385 47.2807 282.487 47.5187 283.603 47.515C284.841 47.5294 286.064 47.2346 287.159 46.6575C288.131 46.1687 288.954 45.4285 289.541 44.5138H289.684V46.9433H292.86V21.2987H289.573V29.4129L289.716 31.8423H289.573C288.985 30.9277 288.163 30.1874 287.191 29.6987C286.086 29.1164 284.852 28.8215 283.603 28.8412C282.487 28.8375 281.385 29.0755 280.371 29.5387C279.356 30.002 278.455 30.6796 277.727 31.5248C276.081 33.343 275.2 35.7262 275.266 38.1781C275.2 40.63 276.081 43.0131 277.727 44.8314C278.455 45.6766 279.356 46.3542 280.371 46.8174ZM286.304 44.0817C285.622 44.3773 284.885 44.5247 284.143 44.5138C283.392 44.5252 282.648 44.3751 281.96 44.0738C281.272 43.7724 280.657 43.3268 280.157 42.7671C279.602 42.1418 279.176 41.4131 278.904 40.6229C278.631 39.8327 278.517 38.9965 278.569 38.1622C278.517 37.3279 278.631 36.4917 278.904 35.7015C279.176 34.9113 279.602 34.1826 280.157 33.5573C280.66 33.0045 281.273 32.5628 281.956 32.2605C282.64 31.9583 283.379 31.8022 284.126 31.8022C284.874 31.8022 285.613 31.9583 286.296 32.2605C286.98 32.5628 287.594 33.0045 288.096 33.5573C289.213 34.8287 289.783 36.4889 289.684 38.1781C289.783 39.8673 289.213 41.5275 288.096 42.7989C287.597 43.3487 286.986 43.786 286.304 44.0817Z" fill="#FF6C5C"/>
</svg>
