<svg width="68" height="68" viewBox="0 0 68 68" fill="none" xmlns="http://www.w3.org/2000/svg">
<path fill-rule="evenodd" clip-rule="evenodd" d="M48.8077 25.1154C48.989 25.8407 49.0797 26.5055 49.1401 27.0797C49.1544 27.2933 49.1619 27.4935 49.1691 27.6834C49.1771 27.8965 49.1846 28.0967 49.2006 28.2885C49.2006 28.4396 49.1099 28.5604 48.9588 28.5604C48.8379 28.5604 48.7171 28.4698 48.6868 28.3489C48.6611 28.2631 48.6354 28.1724 48.6082 28.0769C48.5398 27.8359 48.4626 27.564 48.3544 27.261C48.2638 26.989 48.1731 26.717 48.0522 26.4451C48.0371 26.4148 48.022 26.3771 48.0069 26.3393C47.9918 26.3015 47.9767 26.2637 47.9616 26.2335C47.9465 26.2033 47.9313 26.1655 47.9162 26.1277C47.9011 26.09 47.886 26.0522 47.8709 26.022C47.8247 25.9758 47.7962 25.912 47.7718 25.8575C47.7643 25.8407 47.7572 25.8247 47.75 25.8104C47.7385 25.7874 47.7313 25.7687 47.7253 25.7527C47.7154 25.7269 47.7083 25.7082 47.6896 25.6896C47.678 25.6665 47.6709 25.6478 47.6648 25.6318C47.655 25.606 47.6478 25.5874 47.6291 25.5687C47.3269 24.9643 46.9341 24.3297 46.4506 23.6951C46.2088 23.3929 45.9368 23.0604 45.6346 22.7582C45.6044 22.7129 45.5666 22.6751 45.5289 22.6374C45.4911 22.5996 45.4533 22.5618 45.4231 22.5165C45.3778 22.4863 45.34 22.4485 45.3022 22.4107C45.2645 22.3729 45.2267 22.3352 45.1813 22.3049C45.136 22.2747 45.0982 22.2369 45.0605 22.1992C45.0227 22.1614 44.9849 22.1236 44.9396 22.0934C44.9185 22.0513 44.8827 22.0238 44.8528 22.0008C44.8398 21.9908 44.8279 21.9817 44.8187 21.9725C44.7976 21.9304 44.7619 21.9029 44.7319 21.8799C44.7189 21.8699 44.707 21.8608 44.6978 21.8516C44.033 21.2775 43.2171 20.7335 42.3407 20.3104C41.4643 19.8571 40.467 19.5247 39.4396 19.3434C38.9258 19.2527 38.3819 19.1923 37.8379 19.1621H37.022H36.8104H36.75H36.7198H36.5989C36.5082 19.1923 36.4478 19.1923 36.3571 19.1923H36.2967H36.2363H36.1456C36.0852 19.2225 36.055 19.2225 35.9945 19.2225C35.9643 19.2225 35.919 19.2301 35.8736 19.2376C35.8283 19.2452 35.783 19.2527 35.7528 19.2527C35.7074 19.2527 35.6697 19.2603 35.6319 19.2679C35.5941 19.2754 35.5563 19.283 35.511 19.283C35.4808 19.283 35.443 19.2905 35.4052 19.2981C35.3675 19.3056 35.3297 19.3132 35.2995 19.3132L35.1786 19.3434L35.0577 19.3736C35.0275 19.3736 34.9897 19.3812 34.9519 19.3887C34.9142 19.3963 34.8764 19.4038 34.8462 19.4038C34.8159 19.4038 34.7782 19.4114 34.7404 19.419C34.7026 19.4265 34.6648 19.4341 34.6346 19.4341C34.6044 19.4492 34.5666 19.4567 34.5289 19.4643C34.4911 19.4718 34.4533 19.4794 34.4231 19.4945C34.272 19.5549 34.1511 19.5852 34 19.6154C33.9698 19.6305 33.932 19.638 33.8942 19.6456C33.8565 19.6532 33.8187 19.6607 33.7885 19.6758C33.7582 19.6909 33.7205 19.6985 33.6827 19.706C33.6449 19.7136 33.6071 19.7212 33.5769 19.7363C33.3049 19.8269 33.033 19.9176 32.761 20.0385C32.6703 20.0687 32.6099 20.0989 32.5495 20.1291L32.5495 20.1291C32.4588 20.1593 32.3984 20.1896 32.3379 20.2198C32.1868 20.2802 32.0659 20.3407 31.9451 20.4011C31.6731 20.522 31.4313 20.6731 31.1896 20.8242C30.9478 20.9753 30.7363 21.1566 30.6456 21.2473C30.4038 21.4286 30.1923 21.6099 29.9808 21.8214C29.1648 22.6374 28.4698 23.6648 27.9258 24.8132C27.6538 25.3874 27.4423 25.9918 27.261 26.6264C27.2448 26.6857 27.2286 26.744 27.2126 26.8017C27.1389 27.0675 27.0689 27.3203 27.0192 27.5934C27.0111 27.6381 27.003 27.6823 26.9949 27.7261C26.9431 28.0077 26.8943 28.2728 26.8681 28.5604C26.8077 28.8929 26.7775 29.2253 26.7775 29.5275V29.7692V29.8297V29.8599V30.011V30.0714V30.1016V30.1319V30.2225V30.283V30.3132V30.3434V30.4643C26.8077 31.0989 26.8983 31.7335 27.0797 32.3379C27.261 32.9423 27.4725 33.5467 27.7747 34.1209C28.0769 34.6951 28.4396 35.239 28.8324 35.7527C29.6483 36.75 30.6758 37.6264 31.8242 38.2308C32.3984 38.533 33.0027 38.7747 33.6374 38.956C34.272 39.1374 34.9066 39.2582 35.5714 39.3187C35.7225 39.3489 35.9039 39.3489 36.055 39.3489H36.0852H36.1758H36.3269H36.4176H36.478H36.5385C36.8407 39.3489 37.1429 39.3187 37.4451 39.2582C38.0495 39.1676 38.6236 38.956 39.1978 38.7143C40.3159 38.2005 41.3132 37.3846 42.0385 36.3874C42.4011 35.9038 42.7033 35.3599 42.9149 34.7857C42.9479 34.6755 42.985 34.5693 43.0217 34.4641C43.0857 34.2811 43.1484 34.1013 43.1868 33.9093L43.2775 33.456C43.2926 33.3805 43.3002 33.3049 43.3077 33.2294C43.3153 33.1538 43.3228 33.0783 43.3379 33.0027C43.3379 32.9272 43.3455 32.8516 43.353 32.7761C43.3606 32.7005 43.3681 32.625 43.3681 32.5494V32.3077V32.217V32.1264V32.0357V31.9451V31.8544V31.7637C43.353 31.6882 43.3455 31.6202 43.3379 31.5522C43.3304 31.4842 43.3228 31.4162 43.3077 31.3407C43.217 30.7665 43.0357 30.2225 42.794 29.739C42.3105 28.7418 41.4945 27.9258 40.5275 27.3819C40.044 27.1099 39.5302 26.9286 39.0165 26.8077C38.7747 26.7473 38.5028 26.717 38.2308 26.6868H38.1401H38.1099H38.0495H37.9588H37.8681C37.8077 26.6868 37.7473 26.6944 37.6868 26.7019C37.6264 26.7095 37.5659 26.717 37.5055 26.717C37.2637 26.717 37.022 26.7775 36.7802 26.8379C36.5385 26.8984 36.2967 26.989 36.0852 27.0797C35.8736 27.1703 35.6621 27.2912 35.4506 27.4423C35.239 27.5632 35.0577 27.7143 34.8764 27.8956C34.1813 28.5604 33.728 29.4368 33.5769 30.3434C33.5717 30.3641 33.5666 30.384 33.5615 30.4033C33.5372 30.4963 33.5165 30.5757 33.5165 30.6758V30.7665V30.7967V30.8269V31.0082C33.4863 31.2198 33.5165 31.4313 33.5467 31.6428L33.5467 31.6429C33.6071 32.0357 33.728 32.4286 33.9396 32.7912C34.1511 33.1538 34.3929 33.456 34.6951 33.728C34.967 34 35.2995 34.2115 35.6319 34.3626C35.9643 34.5137 36.3269 34.6044 36.6593 34.6648C36.6896 34.6951 36.75 34.6951 36.7802 34.6951H36.8407H36.8709H36.9011H37.0522H37.1731H37.294H37.4148C37.4602 34.6951 37.4979 34.6875 37.5357 34.6799C37.5735 34.6724 37.6113 34.6648 37.6566 34.6648C37.7322 34.6497 37.8077 34.6271 37.8833 34.6044C37.9588 34.5817 38.0344 34.5591 38.1099 34.544C38.2308 34.5137 38.3819 34.4533 38.5028 34.3929C38.5258 34.3813 38.5445 34.3742 38.5605 34.3681C38.5863 34.3582 38.605 34.3511 38.6236 34.3324C38.7747 34.272 38.9561 34.3022 39.0769 34.4231C39.1978 34.5742 39.1676 34.7857 39.0165 34.9066C39.0014 34.9217 38.9787 34.9368 38.9561 34.9519C38.9334 34.967 38.9107 34.9821 38.8956 34.9973C38.7747 35.0879 38.6236 35.1786 38.4423 35.2692C38.3517 35.2994 38.261 35.3372 38.1703 35.375C38.0797 35.4128 37.989 35.4505 37.8984 35.4808C37.853 35.4959 37.8001 35.511 37.7472 35.5261C37.6944 35.5412 37.6415 35.5563 37.5962 35.5714C37.5659 35.5714 37.5433 35.579 37.5206 35.5865C37.4979 35.5941 37.4753 35.6016 37.4451 35.6016C37.4325 35.6016 37.4148 35.6068 37.3941 35.6129C37.3648 35.6215 37.3294 35.6319 37.294 35.6319H37.2033H37.1731H37.1429H36.9918H36.9011H36.8104H36.6593C36.2363 35.6621 35.783 35.6016 35.2995 35.4505C34.8159 35.2994 34.3626 35.0879 33.9093 34.7857C33.456 34.4835 33.0632 34.1209 32.7006 33.6374C32.3379 33.1538 32.0659 32.6099 31.8846 32.0055C31.794 31.7033 31.7335 31.4011 31.7033 31.0687C31.6731 30.978 31.6731 30.9176 31.6731 30.8269V30.706V30.5852V30.1016C31.7033 29.467 31.8544 28.772 32.0962 28.1374C32.3379 27.4725 32.7006 26.8681 33.1841 26.294C33.6676 25.7198 34.2418 25.206 34.9066 24.8132C35.5714 24.4203 36.3269 24.1181 37.1429 23.967C37.3242 23.9368 37.5357 23.9066 37.7473 23.8764H37.8984H38.0495H38.1099H38.1703H38.2006H38.3517C38.7445 23.8764 39.1676 23.8764 39.5604 23.9368C40.3764 24.0275 41.1621 24.239 41.9478 24.6016C42.7335 24.9341 43.4588 25.4176 44.1236 25.9918C44.7885 26.5962 45.3627 27.261 45.8462 28.0467C46.2995 28.8022 46.6621 29.6786 46.8736 30.5852C46.8888 30.706 46.9114 30.8194 46.9341 30.9327C46.9568 31.046 46.9794 31.1593 46.9945 31.2802L47.0247 31.4615L47.055 31.6429C47.0852 31.7033 47.0852 31.7637 47.0852 31.8242V32.0055V32.1868V32.3379V32.3983V32.4286V32.5192V32.7005C47.0852 32.9423 47.0852 33.1538 47.055 33.3956C47.055 33.4754 47.0465 33.5467 47.0386 33.6141C47.0315 33.6743 47.0247 33.7314 47.0247 33.7885L47.055 33.8187L47.0852 33.8489L47.1154 33.8791C47.3572 34.0604 48.566 35.0879 48.8984 37.2033C48.8984 37.2033 47.478 38.5934 45.4533 38.4725C45.4231 38.5027 45.4004 38.5405 45.3778 38.5783C45.3551 38.6161 45.3324 38.6538 45.3022 38.6841C44.7583 39.4698 44.1539 40.2253 43.4286 40.8599C43.066 41.1621 42.7033 41.4341 42.3407 41.706V41.7967V41.8571V41.8874C42.3407 42.3104 42.2198 44.1538 40.4368 46.0577C40.4368 46.0577 37.8984 45.7857 36.478 43.7308H36.3269H36.1758H36.0852H35.9643H35.239C34.3022 43.7005 33.3352 43.5494 32.3984 43.3077L31.4918 43.0357C31.0687 43.3681 29.0742 44.8187 26.022 44.6978C26.022 44.6978 24.8736 42.3104 25.8709 39.4698C25.7925 39.3816 25.7141 39.2966 25.6368 39.2127C25.4755 39.0379 25.3188 38.8679 25.1758 38.6841C24.6621 38.0494 24.1786 37.3544 23.7857 36.6291C23.7857 36.6291 20.5824 36.4478 17.8626 33.3049C17.8626 33.3049 18.8297 29.9808 22.0934 28.3791C22.1085 28.3187 22.1161 28.2507 22.1236 28.1827C22.1312 28.1147 22.1387 28.0467 22.1538 27.9863C22.2747 27.0797 22.456 26.2033 22.728 25.3571C22.7733 25.2363 22.8111 25.1229 22.8489 25.0096C22.8867 24.8963 22.9244 24.783 22.9698 24.6621C22.6373 24.239 20.945 21.8819 21.217 18.1044C21.217 18.1044 24.3599 16.4725 27.8956 17.8324C27.8956 17.8324 27.9258 17.8626 27.9863 17.8929C28.3187 17.6511 28.6813 17.4396 29.0439 17.228L29.044 17.228C29.4368 17.0165 29.7994 16.8352 30.1923 16.6538C30.283 16.6085 30.3812 16.5707 30.4794 16.533C30.5776 16.4952 30.6758 16.4574 30.7665 16.4121C30.9122 16.3392 31.0775 16.2859 31.2309 16.2363C31.2684 16.2243 31.3051 16.2124 31.3407 16.2005C31.4162 16.1854 31.4842 16.1628 31.5522 16.1401C31.6202 16.1174 31.6882 16.0948 31.7637 16.0797C31.794 16.0192 31.794 15.9588 31.794 15.9588C31.794 15.9588 32.3077 13.6923 34.9368 12C34.9368 12 37.2335 13.0879 38.0192 15.6264C38.0495 15.6264 38.0797 15.6339 38.1099 15.6415C38.1401 15.649 38.1703 15.6566 38.2006 15.6566C38.5632 15.717 38.9258 15.7775 39.2583 15.8681C39.4799 15.9084 39.7015 15.9756 39.9231 16.0427C40.0339 16.0763 40.1447 16.1099 40.2555 16.1401C40.5879 16.261 40.9203 16.3819 41.2225 16.5027C41.2528 16.5179 41.2905 16.533 41.3283 16.5481C41.3661 16.5632 41.4039 16.5783 41.4341 16.5934C41.8572 16.2912 43.0055 15.5962 44.8489 15.717C44.8489 15.717 45.9066 17.3791 45.4231 19.283C45.5216 19.3913 45.6201 19.4965 45.7176 19.6006C45.9191 19.8156 46.1162 20.026 46.2995 20.25C46.9945 21.0659 47.5083 21.9423 47.9313 22.7582C48.3242 23.6044 48.6264 24.3901 48.8077 25.1154ZM16.3214 56C18.6786 56 20.5824 54.1264 20.6731 51.739V51.1044H15.8077V52.1621H19.4039C19.1319 53.6731 17.8929 54.8214 16.3214 54.8214C14.5687 54.8214 13.1786 53.4011 13.1786 51.5577C13.1786 49.7445 14.6593 48.294 16.4423 48.294C17.2885 48.294 18.1346 48.717 18.8297 49.3214L19.5247 48.4451C18.6181 47.5989 17.5302 47.1154 16.4423 47.1154C13.9945 47.1154 12 49.1099 12 51.5577C12 54.0055 13.8434 56 16.3214 56ZM24.1181 51.1346H24.7829L25.2362 49.9863H23.967C23.3928 49.9863 22.9093 50.1374 22.5769 50.4698V49.9863H21.6098V55.9093H22.7884V52.4643C22.7884 51.739 23.3928 51.1346 24.1181 51.1346ZM31.25 55.9093H30.2225V55.1538C29.4368 55.9093 28.228 56.272 26.989 55.728C26.0824 55.3352 25.3874 54.489 25.2061 53.4918C24.8434 51.5879 26.3242 49.8956 28.1978 49.8956C28.9835 49.8956 29.7088 50.228 30.2225 50.7418V49.9863H31.25V55.9093ZM30.0412 53.4011C30.3132 52.1923 29.4066 51.1044 28.228 51.1044C27.2006 51.1044 26.3846 51.9505 26.3846 52.9478C26.3846 54.0961 27.3819 54.9725 28.5605 54.7912C29.2555 54.6703 29.8599 54.0961 30.0412 53.4011ZM33.6072 50.0165V49.6841C33.6072 49.1703 34.0303 48.7472 34.5743 48.7775H35.5111L35.9946 47.6593H34.5743C33.3957 47.6593 32.4589 48.4148 32.4589 49.7143V55.9093H33.6072V51.044H35.4809V50.0165H33.6072ZM41.7665 55.9093H40.7692V55.1538C39.9835 55.9093 38.7747 56.272 37.5357 55.728C36.6291 55.3352 35.9341 54.489 35.7527 53.4918C35.3901 51.5879 36.8709 49.8956 38.7445 49.8956C39.5302 49.8956 40.2555 50.228 40.7692 50.7418V49.9863H41.7967V55.9093H41.7665ZM40.5577 53.4011C40.8297 52.1923 39.9231 51.1044 38.7445 51.1044C37.717 51.1044 36.9011 51.9505 36.9011 52.9478C36.9011 54.0961 37.8984 54.9725 39.0769 54.7912C39.8022 54.6703 40.3764 54.0961 40.5577 53.4011ZM48.0824 55.9093V52.4341C48.0824 51.044 46.9945 49.9258 45.6044 49.8956C45.0302 49.8956 44.456 50.1071 44.033 50.5V49.9863H43.0659V55.9093H44.2445V52.4038C44.2445 51.6786 44.8187 51.0742 45.5742 51.0742C46.2994 51.0742 46.9038 51.6786 46.9038 52.4038V55.9093H48.0824ZM55.033 55.9093H54.0357V55.1538C53.25 55.9093 52.0412 56.272 50.8022 55.728C49.8956 55.3352 49.2005 54.489 49.0192 53.4918C48.6566 51.5879 50.1373 49.8956 52.011 49.8956C52.7967 49.8956 53.522 50.228 54.0357 50.7418V49.9863H55.0632V55.9093H55.033ZM53.8242 53.4011C54.0961 52.1923 53.1896 51.1044 52.011 51.1044C50.9835 51.1044 50.1676 51.9505 50.1676 52.9478C50.1676 54.0961 51.1648 54.9725 52.3434 54.7912C53.0687 54.6703 53.6429 54.0961 53.8242 53.4011Z" fill="#FF6C5C"/>
</svg>
