<svg width="164" height="68" viewBox="0 0 164 68" fill="none" xmlns="http://www.w3.org/2000/svg">
<path fill-rule="evenodd" clip-rule="evenodd" d="M51.1586 44.996C50.6379 45.8967 49.7809 46.5541 48.776 46.8236C47.771 47.0932 46.7002 46.953 45.7985 46.4338C45.4326 46.2223 45.1068 45.9553 44.8309 45.6454L35.8325 50.8404C35.9619 51.2296 36.0319 51.6461 36.0319 52.0791C36.0302 53.1184 35.6165 54.1147 34.8816 54.8496C34.1467 55.5846 33.1504 55.9982 32.1111 56C29.9428 56 28.1902 54.2474 28.1902 52.0791C28.1902 51.692 28.2462 51.3181 28.3505 50.9651L19.3077 45.7444C19.0557 46.0087 18.7624 46.2423 18.4303 46.4352C16.5418 47.5139 14.149 46.8737 13.0702 44.996C11.9915 43.1196 12.6317 40.7267 14.5094 39.6359C14.8403 39.4457 15.1871 39.3089 15.5401 39.2229V28.7718C15.1771 28.6847 14.8253 28.5457 14.496 28.3561C13.5952 27.8353 12.9379 26.9784 12.6683 25.9734C12.3987 24.9685 12.5389 23.8976 13.0581 22.996C13.5789 22.0952 14.4358 21.4379 15.4407 21.1683C16.4457 20.8987 17.5165 21.0389 18.4182 21.5581C18.7559 21.7517 19.0535 21.9889 19.3082 22.2586L28.3536 17.0464C28.2473 16.69 28.1902 16.3122 28.1902 15.9209C28.1902 13.7526 29.9468 12 32.1111 12C34.2753 12 36.0319 13.7526 36.0319 15.9209C36.0326 16.2994 35.9783 16.6754 35.8714 17.037L44.9226 22.2629C45.1775 21.9929 45.4754 21.7544 45.8133 21.5581C47.6897 20.4793 50.0826 21.1196 51.1734 22.9973C52.2522 24.8737 51.6119 27.2666 49.7342 28.3574C49.4039 28.5476 49.0509 28.6869 48.6867 28.7739V39.2226C49.0461 39.3098 49.3945 39.448 49.7207 39.6359C51.6092 40.7119 52.2481 43.133 51.1586 44.996ZM29.2979 18.6543L20.2278 23.8807C20.5093 24.8698 20.407 25.9668 19.8575 26.9182H19.8561C19.3353 27.819 18.4784 28.4763 17.4735 28.7459C17.45 28.7522 17.4265 28.7582 17.403 28.7641V39.226C17.4546 39.2386 17.5059 39.2523 17.5569 39.2671L29.4 18.7555C29.3654 18.7224 29.3313 18.6886 29.2979 18.6543ZM43.9599 44.0094C43.9568 43.9975 43.9538 43.9856 43.9509 43.9737H20.2782C20.2655 44.0252 20.2517 44.0765 20.2369 44.1274L29.2915 49.3539C30.0046 48.6164 31.0046 48.1582 32.1111 48.1582C33.2573 48.1582 34.2891 48.6498 35.0063 49.4344L44.023 44.2289C44.0043 44.1702 43.9869 44.111 43.9708 44.0512C43.9671 44.0373 43.9634 44.0234 43.9599 44.0094ZM44.3606 41.0737C44.5498 40.7465 44.7833 40.4514 45.0522 40.1954L33.2097 19.6864C32.8534 19.7899 32.4835 19.8424 32.1111 19.8418C31.7306 19.8418 31.3629 19.7878 31.0152 19.6871L19.1748 40.194C19.4407 40.4468 19.6757 40.7414 19.8696 41.0751C20.0602 41.4066 20.1971 41.7543 20.283 42.1081H43.9473C44.0345 41.7486 44.1727 41.4001 44.3606 41.0737ZM46.7433 39.246C46.7688 39.2392 46.7944 39.2326 46.8201 39.2263L46.8208 28.7638C46.7994 28.7585 46.778 28.7529 46.7567 28.7472C45.7518 28.4776 44.8948 27.819 44.3741 26.9182C43.8235 25.9605 43.7207 24.8683 44.0017 23.8833L34.9324 18.6476C34.9169 18.6636 34.9013 18.6796 34.8855 18.6953C34.8655 18.7154 34.8452 18.7352 34.8247 18.7548L46.6681 39.267C46.6811 39.2632 46.6942 39.2595 46.7072 39.2559C46.7192 39.2526 46.7312 39.2493 46.7433 39.246ZM66.0997 24.6544C65.3823 24.6544 64.7277 24.7499 64.1359 24.9409C63.562 25.1167 63.0589 25.4126 62.6267 25.8287C62.2115 26.2277 61.8761 26.7469 61.6206 27.3863C61.3811 28.0247 61.2453 28.7869 61.213 29.6729C61.1628 31.1103 61.1628 32.5478 61.213 33.9852C61.2453 34.8792 61.3811 35.6414 61.6206 36.2718C61.8761 36.9103 62.2115 37.4375 62.6267 37.8536C63.0571 38.2527 63.5602 38.5486 64.1359 38.7414C64.7277 38.9171 65.3823 39.005 66.0997 39.005C66.8045 39.005 67.4591 38.9095 68.0635 38.7185C68.6678 38.5105 69.187 38.2083 69.6211 37.8119C70.0694 37.3967 70.4218 36.8695 70.6783 36.2301C70.9338 35.5917 71.0616 34.8411 71.0616 33.9785V32.7571H66.8879C66.5364 32.7571 66.3606 32.5778 66.3606 32.2191V31.8828C66.3606 31.5242 66.5364 31.3448 66.8879 31.3448H72.0126C72.3713 31.3448 72.5506 31.5242 72.5506 31.8828V33.9906C72.5506 34.9501 72.4071 35.8288 72.1202 36.6269C71.8333 37.4097 71.41 38.0895 70.8505 38.666C70.3079 39.2399 69.6282 39.687 68.8113 40.0071C68.0043 40.3102 67.0941 40.4617 66.0808 40.4617C65.0424 40.4617 64.1323 40.3102 63.3503 40.0071C62.5675 39.6879 61.9048 39.2485 61.3623 38.6889C60.835 38.1303 60.4279 37.4676 60.141 36.7009C59.8693 35.9181 59.7177 35.0554 59.6864 34.113C59.6541 33.3956 59.6379 32.637 59.6379 31.8371C59.6379 31.0301 59.6541 30.2715 59.6864 29.5613C59.7186 28.6197 59.8783 27.7651 60.1652 26.9975C60.4522 26.2147 60.8593 25.544 61.3865 24.9853C61.929 24.4267 62.5917 23.9953 63.3745 23.6914C64.1574 23.3721 65.0595 23.2125 66.0808 23.2125C67.1838 23.2125 68.1262 23.3802 68.9082 23.7156C69.691 24.0509 70.3299 24.4545 70.8249 24.9261C71.3199 25.3897 71.6875 25.8771 71.9279 26.3882C72.1673 26.8994 72.2951 27.3226 72.3112 27.658C72.3273 27.8014 72.287 27.9212 72.1901 28.0171C72.0942 28.0978 71.9664 28.1382 71.8068 28.1382H71.2795C71.1361 28.1382 71.032 28.1068 70.9675 28.044C70.9047 27.9633 70.841 27.8355 70.7765 27.6607C70.6491 27.302 70.4698 26.9433 70.2384 26.5846C70.0143 26.2259 69.7121 25.9067 69.3319 25.6269C68.949 25.34 68.4939 25.1082 67.9666 24.9315C67.4394 24.7558 66.8161 24.6679 66.097 24.6679L66.0997 24.6544ZM80.6668 27.7656C79.0701 27.7656 77.9846 28.3162 77.4104 29.4174V28.3157C77.4104 28.1561 77.3543 28.0283 77.2422 27.9324C77.1463 27.8203 77.0185 27.7642 76.8589 27.7642H76.4755C76.3159 27.7642 76.1881 27.8203 76.0922 27.9324C75.9963 28.0283 75.9483 28.1561 75.9483 28.3157V39.695C75.9483 40.0465 76.124 40.2223 76.4755 40.2223H76.8589C77.0185 40.2223 77.1463 40.1743 77.2422 40.0784C77.3543 39.9824 77.4104 39.8546 77.4104 39.695V32.2702C77.4104 31.3116 77.6897 30.553 78.2484 29.9944C78.8061 29.4357 79.5647 29.1564 80.5242 29.1564H81.5545C81.9061 29.1564 82.0818 28.9806 82.0818 28.6291V28.2929C82.0818 27.9413 81.9061 27.7656 81.5545 27.7656H80.6668ZM92.2048 40.229C91.8533 40.229 91.6775 40.0533 91.6775 39.7018V38.5759C91.5341 38.8001 91.3426 39.0243 91.1032 39.2485C90.879 39.4726 90.5997 39.6722 90.2652 39.847C89.9298 40.0228 89.5263 40.1662 89.0547 40.2774C88.591 40.4048 88.0485 40.4684 87.4271 40.4684C86.8532 40.4684 86.3017 40.3806 85.7727 40.2048C85.2616 40.0138 84.8065 39.7582 84.4074 39.4381C84.0245 39.1189 83.7134 38.7436 83.4739 38.3123C83.2498 37.8819 83.1377 37.4111 83.1377 36.9C83.1377 36.3575 83.2498 35.8701 83.4739 35.4379C83.7134 35.0075 84.0407 34.6322 84.4558 34.312C84.871 33.9767 85.366 33.7054 85.9408 33.4983C86.5326 33.2741 87.1796 33.1145 87.8818 33.0194L91.6668 32.4922V31.6542C91.6668 30.7915 91.4032 30.1208 90.8759 29.642C90.3648 29.1631 89.5425 28.9237 88.409 28.9237C87.515 28.9237 86.82 29.0994 86.3242 29.451C85.8453 29.7863 85.5431 30.154 85.4176 30.5539C85.3548 30.7449 85.275 30.8808 85.1782 30.9615C85.0975 31.0242 84.9854 31.0556 84.8419 31.0556H84.5056C84.3622 31.0556 84.2344 31.0077 84.1223 30.9117C84.0263 30.7996 83.9784 30.6718 83.9784 30.5284C83.9784 30.3042 84.0582 30.0249 84.2178 29.6904C84.3774 29.355 84.633 29.0277 84.9845 28.7085C85.3432 28.3892 85.8063 28.118 86.3739 27.8947C86.9326 27.6553 87.6123 27.5356 88.4131 27.5356C89.3546 27.5356 90.1294 27.6634 90.7373 27.9189C91.3597 28.1745 91.847 28.5099 92.1994 28.925C92.5509 29.3241 92.7904 29.7711 92.9177 30.2661C93.0612 30.7611 93.1329 31.2484 93.1329 31.7282V39.7044C93.1329 40.056 92.9572 40.2317 92.6056 40.2317H92.1981L92.2048 40.229ZM87.6773 39.079C88.2198 39.079 88.7309 38.9911 89.2107 38.8153C89.7057 38.6243 90.137 38.345 90.5046 37.9774C90.8633 37.6187 91.1503 37.1555 91.3655 36.5879C91.5735 36.0293 91.6775 35.3747 91.6775 34.6241V33.8103L88.5879 34.2408C85.9372 34.5994 84.6119 35.4459 84.6119 36.7803C84.6119 37.1793 84.6998 37.5227 84.8755 37.8106C85.0665 38.0975 85.3059 38.337 85.5938 38.5288C85.8807 38.7199 86.208 38.8633 86.5757 38.9593C86.9344 39.04 87.302 39.0803 87.6786 39.0803L87.6773 39.079ZM102.414 40.4684C101.408 40.4684 100.586 40.2891 99.947 39.9304C99.3086 39.5717 98.7894 39.1247 98.3895 38.5894V44.2656C98.3895 44.6171 98.2137 44.7929 97.8622 44.7929H97.4546C97.1031 44.7929 96.9274 44.6171 96.9274 44.2656V28.2929C96.9274 27.9413 97.1031 27.7656 97.4546 27.7656H97.8622C98.2137 27.7656 98.3895 27.9413 98.3895 28.2929V29.4187C98.7885 28.8762 99.3077 28.4292 99.947 28.0776C100.586 27.719 101.408 27.5396 102.414 27.5396C103.34 27.5396 104.123 27.7073 104.761 28.0427C105.416 28.3619 105.943 28.7932 106.343 29.3366C106.742 29.8639 107.029 30.471 107.204 31.1579C107.395 31.8286 107.507 32.5155 107.54 33.2185C107.556 33.4579 107.564 33.7216 107.564 34.0094C107.564 34.2964 107.556 34.56 107.54 34.8003C107.508 35.5051 107.396 36.2001 107.204 36.8852C107.028 37.5559 106.741 38.163 106.343 38.7064C105.944 39.2337 105.417 39.665 104.761 40.0004C104.123 40.3196 103.34 40.4792 102.414 40.4792V40.4684ZM98.3895 33.1378C98.3733 33.3772 98.3652 33.6884 98.3652 34.0713C98.3652 34.4542 98.3733 34.7653 98.3895 35.0048C98.4056 35.4836 98.4854 35.971 98.6289 36.4669C98.7885 36.9457 99.0279 37.377 99.3471 37.7608C99.6664 38.1437 100.07 38.4629 100.558 38.7185C101.037 38.9579 101.611 39.0776 102.282 39.0776C102.987 39.0776 103.57 38.9579 104.031 38.7185C104.51 38.4791 104.893 38.1599 105.181 37.7608C105.484 37.3456 105.699 36.8749 105.826 36.3485C105.97 35.806 106.058 35.2469 106.09 34.6712C106.106 34.2228 106.106 33.7758 106.09 33.3301C106.058 32.7562 105.97 32.2048 105.826 31.6757C105.699 31.1484 105.484 30.6853 105.181 30.2862C104.894 29.8711 104.51 29.5438 104.031 29.3043C103.567 29.0488 102.984 28.921 102.282 28.921C101.595 28.921 101.012 29.0488 100.533 29.3043C100.055 29.5599 99.6511 29.8953 99.3229 30.3105C99.0198 30.7095 98.788 31.1565 98.6275 31.6515C98.4841 32.1465 98.4043 32.6415 98.3881 33.1365L98.3895 33.1378ZM112.292 29.4148C112.722 28.8585 113.24 28.4052 113.846 28.0548C114.45 27.7033 115.272 27.5275 116.313 27.5275C117.127 27.5275 117.837 27.6634 118.444 27.9351C119.049 28.2068 119.552 28.582 119.954 29.0609C120.369 29.5397 120.68 30.1069 120.887 30.7624C121.095 31.417 121.199 32.1276 121.199 32.8943V39.6977C121.199 40.0492 121.023 40.225 120.672 40.225H120.268C119.917 40.225 119.741 40.0492 119.741 39.6977V33.0127C119.741 31.7349 119.43 30.7368 118.808 30.0186C118.185 29.2833 117.275 28.9156 116.077 28.9156C114.928 28.9156 114.009 29.2743 113.322 29.9917C112.636 30.709 112.292 31.7165 112.292 33.0141V39.6991C112.292 40.0506 112.116 40.2263 111.765 40.2263H111.357C111.006 40.2263 110.83 40.0506 110.83 39.6991V23.7398C110.83 23.3883 111.006 23.2125 111.357 23.2125H111.765C112.116 23.2125 112.292 23.3883 112.292 23.7398V29.4148ZM130.971 23.2165C131.897 23.2165 132.744 23.3524 133.511 23.6241C134.277 23.8958 134.932 24.311 135.474 24.8696C136.033 25.4122 136.464 26.099 136.768 26.9303C137.088 27.7445 137.263 28.7107 137.296 29.8289C137.328 30.5463 137.344 31.217 137.344 31.8412C137.344 32.4635 137.328 33.1342 137.296 33.8534C137.215 36.1373 136.632 37.8142 135.547 38.8839L137.08 41.0401L137.1 41.0784C137.11 41.0974 137.119 41.116 137.129 41.1343C137.145 41.1665 137.153 41.2226 137.153 41.3024C137.153 41.4297 137.105 41.5418 137.009 41.6387C136.913 41.7346 136.801 41.7826 136.673 41.7826H136.146C135.97 41.7826 135.818 41.7108 135.691 41.5674C135.564 41.44 135.46 41.3279 135.379 41.2311L134.322 39.769C133.362 40.2326 132.244 40.4644 130.967 40.4644C128.971 40.4644 127.43 39.9295 126.344 38.8597C125.274 37.79 124.707 36.1212 124.643 33.8534C124.61 33.136 124.594 32.4653 124.594 31.8412C124.594 31.2188 124.61 30.5481 124.643 29.8289C124.675 28.7107 124.843 27.7445 125.146 26.9303C125.465 26.0999 125.896 25.4131 126.44 24.8696C126.998 24.311 127.653 23.8958 128.403 23.6241C129.17 23.3524 130.025 23.2165 130.967 23.2165H130.971ZM130.966 24.6558C130.297 24.6563 129.676 24.7604 129.101 24.9678C128.528 25.1588 128.025 25.47 127.592 25.9013C127.162 26.3317 126.818 26.8832 126.562 27.5557C126.323 28.2265 126.187 29.0246 126.154 29.95C126.138 30.3087 126.122 30.644 126.106 30.9561V31.8438V32.7504C126.122 33.0535 126.138 33.3808 126.154 33.7323C126.187 34.6739 126.323 35.4809 126.562 36.1535C126.818 36.8081 127.153 37.3506 127.568 37.781C127.999 38.2114 128.502 38.5306 129.077 38.7387C129.651 38.9297 130.281 39.0252 130.966 39.0252C131.653 39.0252 132.282 38.9297 132.854 38.7387C133.428 38.5306 133.923 38.2114 134.339 37.781C134.77 37.3506 135.105 36.8081 135.345 36.1535C135.601 35.4827 135.744 34.6757 135.776 33.7323C135.792 33.3808 135.8 33.0535 135.8 32.7504V31.8438V30.9561C135.8 30.653 135.792 30.3176 135.776 29.95C135.743 29.0237 135.6 28.2256 135.345 27.5557C135.106 26.885 134.771 26.3335 134.339 25.9013C133.909 25.4709 133.406 25.1597 132.83 24.9678C132.258 24.7603 131.636 24.6563 130.966 24.6558ZM142.664 38.7871H150.928C151.287 38.7871 151.466 38.9664 151.466 39.3251V39.6843C151.466 40.0358 151.287 40.2115 150.928 40.2115H141.682C141.33 40.2115 141.155 40.0358 141.155 39.6843V23.9819C141.155 23.6304 141.33 23.4546 141.682 23.4546H142.137C142.488 23.4546 142.664 23.6304 142.664 23.9819V38.7871Z" fill="#FF6C5C"/>
</svg>
