<svg width="68" height="68" viewBox="0 0 68 68" fill="none" xmlns="http://www.w3.org/2000/svg">
<path fill-rule="evenodd" clip-rule="evenodd" d="M55.5187 34.9815L55.4868 37.8427C56.766 38.2094 57.4757 38.6147 57.4738 39.0407V39.2234L57.481 39.2245L57.4801 41.3419L57.4801 41.3429L57.48 41.4876C57.48 41.5113 57.4778 41.5349 57.4735 41.5584C57.4641 41.6094 57.4446 41.66 57.4152 41.7103C57.41 41.7193 57.4044 41.7283 57.3985 41.7373C57.3672 41.7851 57.327 41.8325 57.2781 41.8795C55.7642 43.3377 45.9199 44.4655 34.0021 44.4655C22.0736 44.4655 12.2223 43.3357 10.722 41.8756C10.7089 41.8629 10.6965 41.8501 10.6846 41.8373C10.6532 41.8032 10.6263 41.769 10.604 41.7346C10.5984 41.726 10.5931 41.7173 10.5881 41.7087C10.5596 41.6596 10.5405 41.6101 10.5311 41.5604C10.528 41.544 10.526 41.5275 10.525 41.5111C10.5174 41.4587 10.517 41.4052 10.5242 41.352V41.3449V41.3448V39.6393L10.5252 39.6391V39.0427C10.5252 38.6186 11.2244 38.2153 12.4844 37.8501V34.9815C12.4849 25.899 18.1865 17.7966 26.7304 14.7274L26.8152 14.1981C26.9119 13.5713 27.3607 13.0562 27.9683 12.8745C31.9416 11.7085 36.1662 11.7085 40.1396 12.8745C40.7476 13.0558 41.1969 13.5711 41.2937 14.1981L41.3859 14.7742C44.9077 16.0605 48.11 18.2705 50.6073 21.2977L50.6078 21.2994C53.7891 25.1486 55.526 29.9879 55.5187 34.9815ZM38.9494 27.4249L38.949 27.4242L38.9494 27.4239V27.4249ZM38.949 27.4242L34.0031 30.2838V30.2878L33.9997 30.2858L33.998 30.2868V30.2848L29.0517 27.4249L33.998 19.4249V19.4155L34.0009 19.4202L34.0031 19.4166V19.4239L38.949 27.4242ZM34.0031 36.2394L34.0005 36.2358L33.998 36.2394V36.2321L29.0517 29.2332L34.0005 32.2793L38.9494 29.2332L34.0031 36.2321V36.2394ZM46.3557 40.9196C44.7769 42.3648 42.7142 43.1662 40.5739 43.1662H27.4303C25.29 43.1664 23.2273 42.3649 21.6486 40.9197C20.8438 40.1844 19.7615 39.8312 18.6779 39.95L18.6764 39.9502L18.675 39.9503C16.6836 40.1363 14.7084 40.4671 12.765 40.9399L12.7631 40.9404L12.7611 40.9408C12.0834 41.0901 11.4422 41.3708 10.8734 41.7663C10.9357 41.8229 11.0186 41.8842 11.1273 41.9493C11.4289 42.13 11.8795 42.3103 12.4724 42.4854C13.6559 42.8347 15.3663 43.1515 17.4846 43.4184C21.7187 43.9517 27.5552 44.2821 34.0021 44.2821C40.4799 44.2821 46.3413 43.9486 50.5802 43.4107C52.701 43.1416 54.4085 42.8222 55.5822 42.4703C56.1705 42.294 56.6138 42.1126 56.9064 41.9314C57.0065 41.8693 57.083 41.8112 57.1405 41.7574C56.5767 41.3509 55.9308 41.0721 55.2479 40.9408L55.2435 40.9399L55.2391 40.9389C53.2962 40.466 51.3213 40.1353 49.3303 39.9493L49.3288 39.9492L49.3273 39.949C48.2432 39.8299 47.1604 40.1835 46.3557 40.9196ZM54.6567 50.7438V49.7953H53.4118V48.3409H52.2302V49.7953H51.341V50.7438H52.2302V54.3283C52.2302 54.6945 52.3132 54.9988 52.4792 55.2412C52.6451 55.4836 52.8625 55.6628 53.1313 55.7787C53.4 55.8946 53.6898 55.9499 54.0007 55.9447C54.1904 55.942 54.3485 55.9262 54.4749 55.8972C54.6014 55.8709 54.6989 55.8445 54.7674 55.8182L54.554 54.842C54.5145 54.8499 54.4591 54.8605 54.388 54.8737C54.3169 54.8868 54.2339 54.8934 54.139 54.8934C54.0099 54.8934 53.89 54.8737 53.7794 54.8341C53.6714 54.792 53.5831 54.7143 53.5146 54.601C53.4461 54.485 53.4118 54.3125 53.4118 54.0832V50.7438H54.6567ZM47.2536 56C46.8689 56 46.5211 55.9289 46.2102 55.7866C45.8993 55.6417 45.653 55.4322 45.4712 55.1582C45.292 54.8842 45.2024 54.5483 45.2024 54.1504C45.2024 53.8079 45.2683 53.526 45.4001 53.3047C45.5318 53.0834 45.7096 52.9082 45.9336 52.7791C46.1575 52.65 46.4078 52.5525 46.6845 52.4866C46.9611 52.4207 47.243 52.3707 47.5302 52.3364C47.8938 52.2943 48.1889 52.26 48.4155 52.2337C48.6421 52.2047 48.8067 52.1586 48.9095 52.0954C49.0122 52.0321 49.0636 51.9294 49.0636 51.7871V51.7594C49.0636 51.4143 48.9661 51.1469 48.7712 50.9572C48.5788 50.7675 48.2916 50.6726 47.9096 50.6726C47.5118 50.6726 47.1982 50.7609 46.969 50.9374C46.7424 51.1113 46.5857 51.3049 46.4987 51.5184L45.3882 51.2654C45.5199 50.8966 45.7123 50.5988 45.9652 50.3723C46.2208 50.143 46.5145 49.9771 46.8465 49.8743C47.1785 49.7689 47.5276 49.7162 47.8938 49.7162C48.1362 49.7162 48.3931 49.7452 48.6645 49.8032C48.9385 49.8585 49.194 49.9612 49.4312 50.1114C49.6709 50.2616 49.8672 50.4763 50.02 50.7556C50.1728 51.0323 50.2492 51.3919 50.2492 51.8345V55.8656H49.0952V55.0357H49.0478C48.9714 55.1885 48.8568 55.3387 48.704 55.4862C48.5512 55.6338 48.3549 55.7563 48.1151 55.8538C47.8754 55.9513 47.5882 56 47.2536 56ZM47.5105 55.0515C47.8372 55.0515 48.1164 54.987 48.3483 54.8579C48.5828 54.7288 48.7606 54.5601 48.8818 54.352C49.0057 54.1412 49.0676 53.9159 49.0676 53.6762V52.8937C49.0254 52.9358 48.9437 52.9754 48.8225 53.0122C48.704 53.0465 48.5683 53.0768 48.4155 53.1031C48.2627 53.1268 48.1138 53.1492 47.9689 53.1703C47.824 53.1888 47.7028 53.2046 47.6053 53.2177C47.3761 53.2467 47.1666 53.2955 46.9769 53.364C46.7899 53.4325 46.6397 53.5313 46.5264 53.6604C46.4157 53.7868 46.3604 53.9555 46.3604 54.1662C46.3604 54.4587 46.4684 54.68 46.6845 54.8302C46.9005 54.9777 47.1758 55.0515 47.5105 55.0515ZM39.9738 55.8656V52.2613C39.9738 51.9399 40.0358 51.6659 40.1596 51.4393C40.286 51.2101 40.4586 51.0362 40.6773 50.9176C40.8986 50.7991 41.1489 50.7398 41.4282 50.7398C41.8366 50.7398 42.1554 50.8636 42.3846 51.1113C42.6138 51.3563 42.7284 51.7015 42.7284 52.1467V55.8656H43.9101V52.0045C43.9101 51.4986 43.8231 51.077 43.6493 50.7398C43.478 50.3999 43.2356 50.1444 42.9221 49.9731C42.6112 49.8018 42.2476 49.7162 41.8313 49.7162C41.3597 49.7162 40.9777 49.8124 40.6852 50.0047C40.3928 50.1971 40.1754 50.4566 40.0331 50.7833H39.958V47.7718H38.7922V55.8656H39.9738ZM34.0981 55.9842C33.608 55.9842 33.1707 55.859 32.786 55.6087C32.404 55.3558 32.1036 54.9962 31.8849 54.5298C31.6689 54.0609 31.5609 53.4983 31.5609 52.8423C31.5609 52.1863 31.6702 51.6251 31.8889 51.1587C32.1102 50.6924 32.4132 50.3354 32.7979 50.0877C33.1825 49.84 33.6186 49.7162 34.106 49.7162C34.4828 49.7162 34.7857 49.7794 35.015 49.9059C35.2468 50.0297 35.426 50.1747 35.5524 50.3406C35.6815 50.5066 35.7817 50.6529 35.8528 50.7793H35.9239V47.7718H37.1056V55.8656H35.9516V54.9211H35.8528C35.7817 55.0502 35.6789 55.1977 35.5445 55.3637C35.4128 55.5297 35.231 55.6746 34.9992 55.7984C34.7673 55.9223 34.4669 55.9842 34.0981 55.9842ZM34.3589 54.9764C34.6988 54.9764 34.986 54.8868 35.2205 54.7077C35.4576 54.5259 35.6368 54.2743 35.758 53.9528C35.8818 53.6314 35.9437 53.2573 35.9437 52.8304C35.9437 52.4089 35.8831 52.04 35.7619 51.7239C35.6407 51.4077 35.4629 51.1614 35.2284 50.9848C34.9939 50.8083 34.7041 50.72 34.3589 50.72C34.0032 50.72 33.7068 50.8123 33.4697 50.9967C33.2326 51.1811 33.0534 51.4327 32.9322 51.7515C32.8137 52.0703 32.7544 52.43 32.7544 52.8304C32.7544 53.2362 32.815 53.6011 32.9362 53.9252C33.0574 54.2492 33.2365 54.5061 33.4737 54.6958C33.7134 54.8829 34.0085 54.9764 34.3589 54.9764ZM27.7718 49.7953V55.8656H28.9535V52.1586C28.9535 51.8951 29.0167 51.6606 29.1432 51.4551C29.2697 51.247 29.4409 51.0849 29.657 50.969C29.8757 50.8505 30.1246 50.7912 30.4039 50.7912C30.5251 50.7912 30.6463 50.8004 30.7675 50.8188C30.8887 50.8347 30.973 50.8491 31.0204 50.8623V49.732C30.9625 49.7241 30.8821 49.7175 30.7794 49.7123C30.6792 49.707 30.5923 49.7044 30.5185 49.7044C30.1628 49.7044 29.844 49.7992 29.5621 49.9889C29.2829 50.176 29.0879 50.4329 28.9772 50.7596H28.914V49.7953H27.7718ZM23.2023 56C22.8176 56 22.4698 55.9289 22.1589 55.7866C21.848 55.6417 21.6017 55.4322 21.4199 55.1582C21.2407 54.8842 21.1512 54.5483 21.1512 54.1504C21.1512 53.8079 21.217 53.526 21.3488 53.3047C21.4805 53.0834 21.6583 52.9082 21.8823 52.7791C22.1062 52.65 22.3565 52.5525 22.6332 52.4866C22.9098 52.4207 23.1917 52.3707 23.4789 52.3364C23.8425 52.2943 24.1376 52.26 24.3642 52.2337C24.5908 52.2047 24.7554 52.1586 24.8582 52.0954C24.9609 52.0321 25.0123 51.9294 25.0123 51.7871V51.7594C25.0123 51.4143 24.9148 51.1469 24.7199 50.9572C24.5275 50.7675 24.2404 50.6726 23.8583 50.6726C23.4605 50.6726 23.147 50.7609 22.9177 50.9374C22.6911 51.1113 22.5344 51.3049 22.4474 51.5184L21.3369 51.2654C21.4686 50.8966 21.661 50.5988 21.9139 50.3723C22.1695 50.143 22.4632 49.9771 22.7952 49.8743C23.1272 49.7689 23.4763 49.7162 23.8425 49.7162C24.0849 49.7162 24.3418 49.7452 24.6132 49.8032C24.8872 49.8585 25.1427 49.9612 25.3799 50.1114C25.6196 50.2616 25.8159 50.4763 25.9687 50.7556C26.1215 51.0323 26.1979 51.3919 26.1979 51.8345V55.8656H25.0439V55.0357H24.9965C24.9201 55.1885 24.8055 55.3387 24.6527 55.4862C24.4999 55.6338 24.3036 55.7563 24.0638 55.8538C23.8241 55.9513 23.5369 56 23.2023 56ZM23.4592 55.0515C23.7859 55.0515 24.0651 54.987 24.297 54.8579C24.5315 54.7288 24.7093 54.5601 24.8305 54.352C24.9544 54.1412 25.0163 53.9159 25.0163 53.6762V52.8937C24.9741 52.9358 24.8924 52.9754 24.7712 53.0122C24.6527 53.0465 24.517 53.0768 24.3642 53.1031C24.2114 53.1268 24.0625 53.1492 23.9176 53.1703C23.7727 53.1888 23.6515 53.2046 23.554 53.2177C23.3248 53.2467 23.1153 53.2955 22.9256 53.364C22.7386 53.4325 22.5884 53.5313 22.4751 53.6604C22.3644 53.7868 22.3091 53.9555 22.3091 54.1662C22.3091 54.4587 22.4171 54.68 22.6332 54.8302C22.8492 54.9777 23.1246 55.0515 23.4592 55.0515ZM13.2707 47.7718V55.8656H14.4919V52.3364H18.527V55.8656H19.7521V47.7718H18.527V51.2891H14.4919V47.7718H13.2707Z" fill="#FF6C5C"/>
</svg>
