<svg width="118" height="68" viewBox="0 0 118 68" fill="none" xmlns="http://www.w3.org/2000/svg">
<path fill-rule="evenodd" clip-rule="evenodd" d="M18.245 15.1256C18.9977 15.1256 19.6729 15.4266 20.1595 15.9152H20.1652C20.6524 16.4004 20.9496 17.0775 20.9496 17.8255C20.9496 18.5777 20.6524 19.2506 20.1652 19.7311L20.1595 19.7443C19.6729 20.2286 18.9977 20.5254 18.245 20.5254C17.4942 20.5254 16.8241 20.2286 16.3436 19.7443L16.3313 19.7311C15.8461 19.2506 15.5451 18.5777 15.5451 17.8255C15.5451 17.0775 15.8461 16.4004 16.3313 15.9152H16.3436C16.8241 15.4266 17.4942 15.1256 18.245 15.1256ZM20.1595 52.0881C19.6729 52.5677 18.9977 52.8744 18.245 52.8744C17.4942 52.8744 16.8241 52.5677 16.3436 52.0881L16.3313 52.074C15.8461 51.5953 15.5451 50.9182 15.5451 50.174C15.5451 49.4218 15.8461 48.748 16.3313 48.2604H16.3436C16.8241 47.7671 17.4942 47.4689 18.245 47.4689C18.9977 47.4689 19.6729 47.7671 20.1595 48.2604H20.1652C20.6524 48.748 20.9496 49.4218 20.9496 50.174C20.9496 50.9182 20.6524 51.5953 20.1652 52.074L20.1595 52.0881ZM34.5993 43.4399C34.2293 44.0891 33.624 44.5182 32.9554 44.6939C32.2778 44.8692 31.5483 44.8026 30.9029 44.4317H30.8991C30.2551 44.0556 29.8246 43.4541 29.6408 42.7883C29.4627 42.1117 29.5402 41.3765 29.9125 40.7367C30.2801 40.0932 30.8835 39.6462 31.5549 39.4784C32.2155 39.2984 32.9337 39.374 33.5649 39.7208L33.6032 39.7464C34.251 40.1182 34.6848 40.7155 34.862 41.3888C35.0377 42.0196 34.9777 42.7302 34.6489 43.3449L34.5993 43.4399ZM18.245 30.0832C19.3275 30.0832 20.3055 30.5264 21.0143 31.2333C21.7212 31.9392 22.1559 32.913 22.1559 33.9955C22.1559 35.078 21.7212 36.0561 21.0143 36.7701C20.3055 37.4727 19.3275 37.9116 18.245 37.9116C17.1639 37.9116 16.1886 37.4727 15.4813 36.7701C14.7763 36.0561 14.3416 35.078 14.3416 33.9955C14.3416 32.913 14.7763 31.9392 15.4813 31.2333C16.1886 30.5264 17.1639 30.0832 18.245 30.0832ZM23.5181 28.7295C22.4394 27.6432 21.0285 26.8905 19.4569 26.6315V23.53C20.5768 23.2881 21.5794 22.7282 22.3647 21.9467L22.369 21.9382C23.4217 20.8807 24.0738 19.4306 24.0738 17.8255C24.0738 16.2289 23.4217 14.766 22.369 13.7128H22.3647V13.7086C21.3044 12.6516 19.8501 12 18.245 12C16.6484 12 15.1902 12.6516 14.1323 13.7086L14.128 13.7128C13.0744 14.766 12.4209 16.2289 12.4209 17.8255C12.4209 19.4306 13.0744 20.8807 14.128 21.9382V21.9467H14.1323C14.9171 22.7282 15.9217 23.2881 17.0372 23.53V26.6315C15.4662 26.8905 14.0576 27.6432 12.9808 28.7295H12.9695C11.6247 30.0794 10.7827 31.9392 10.7827 33.9955C10.7827 36.0561 11.6247 37.9159 12.9695 39.2653L12.9808 39.2738C14.0576 40.3564 15.4662 41.1086 17.0372 41.359V44.4738C15.9217 44.7076 14.9171 45.2676 14.1323 46.0533H14.128V46.0614C13.0744 47.1094 12.4209 48.5694 12.4209 50.174C12.4209 51.7739 13.0744 53.2255 14.128 54.2787V54.2952H14.1323C15.1902 55.3479 16.6484 56 18.245 56C19.8501 56 21.3044 55.3479 22.3647 54.2952L22.369 54.2787C23.4217 53.2255 24.0738 51.7739 24.0738 50.174C24.0738 48.5694 23.4217 47.1094 22.369 46.0614L22.3647 46.0533C21.5794 45.2676 20.5768 44.7076 19.4569 44.4738V41.359C21.0285 41.1086 22.4394 40.3564 23.5181 39.2738L23.5261 39.2653C23.6977 39.0943 23.8644 38.9143 24.0199 38.7262L26.7155 40.2817C26.3531 41.3765 26.3361 42.5214 26.6276 43.5906C27.0118 45.0256 27.944 46.3156 29.3417 47.1236V47.1344C30.7313 47.9339 32.3242 48.096 33.7629 47.7165C35.1658 47.3324 36.4368 46.4242 37.2429 45.0838L37.2486 45.0918L37.2972 44.9949C38.1 43.6043 38.2626 42.0111 37.8798 40.586C37.5018 39.1652 36.5994 37.9074 35.2551 37.0923V37.088L35.1658 37.0465C33.7743 36.2352 32.1819 36.0684 30.745 36.461C29.6744 36.7455 28.6925 37.33 27.9233 38.1913L25.2314 36.6406C25.5409 35.818 25.7119 34.923 25.7119 33.9955C25.7119 33.0633 25.5409 32.1811 25.2314 31.3627L27.9233 29.8077C28.6925 30.6559 29.6744 31.254 30.745 31.5375C32.0492 31.8811 33.469 31.7847 34.7604 31.1699H34.7977L35.1658 30.9526C36.562 30.1508 37.4976 28.8547 37.8798 27.4173C38.2626 25.9837 38.1 24.3914 37.2972 23.0037V22.9994C36.4907 21.6041 35.1951 20.6676 33.7587 20.2825C32.3407 19.8984 30.7696 20.0614 29.3871 20.8434L29.3417 20.8722C27.944 21.6788 27.0118 22.9659 26.6276 24.4037C26.3361 25.4777 26.3531 26.6226 26.7155 27.7178L24.0199 29.2771C23.8644 29.089 23.6977 28.9005 23.5261 28.7295H23.5181ZM34.5761 24.5289L34.5993 24.5629C34.9692 25.2065 35.0406 25.9417 34.862 26.6145C34.6871 27.2666 34.2676 27.8601 33.6377 28.2362L33.6032 28.2527C32.9634 28.625 32.2211 28.7049 31.5549 28.5164C30.892 28.3448 30.2981 27.9186 29.9253 27.2831L29.9125 27.2666C29.5402 26.6226 29.4627 25.8836 29.6408 25.215C29.8218 24.5412 30.2551 23.9402 30.9029 23.5726H30.8991C31.5483 23.2002 32.2778 23.1246 32.9554 23.3046C33.6112 23.4847 34.2047 23.9024 34.5761 24.5289ZM49.5679 25.4739H46.56V42.4623H49.5679V36.1686L54.0898 42.4623H57.5339L52.2754 35.4163L57.5121 29.8578H53.9055L49.5679 34.6556V25.4739ZM64.8402 40.0511C62.1308 40.0511 61.0063 37.7779 61.0063 36.2144V36.1936C61.0063 34.2417 62.3855 32.2695 64.818 32.2695C66.6319 32.2695 67.8023 33.3019 68.3296 34.4926C68.5838 35.0449 68.6967 35.6668 68.676 36.2649C68.6297 36.883 68.4917 37.4769 68.1921 38.0326C67.6199 39.1775 66.5166 40.0511 64.8402 40.0511ZM68.6504 42.4623H71.6598V29.8578H68.6504V31.6968C68.1 30.6856 66.6999 29.4689 64.4041 29.4689C60.8683 29.4689 57.9988 32.1773 57.9988 36.1478C57.9988 39.7043 60.3627 42.8516 64.4041 42.8516C66.1726 42.8516 67.8496 42.1155 68.6504 40.6488V42.4623ZM73.5068 32.1773H75.0656V42.4623H78.075V32.1773H80.0727V29.8578H78.075V29.2388C78.075 27.4669 79.3134 27.4669 80.0727 27.4669V25.1517C77.9134 25.1767 75.0656 25.4026 75.0656 29.1476V29.8578H73.5068V32.1773ZM85.1252 25.4739H82.1182V42.4623H85.1252V36.1686L89.6471 42.4623H93.0912L87.8336 35.4163L93.0704 29.8578H89.4638L85.1252 34.6556V25.4739ZM100.398 40.0511C97.6886 40.0511 96.5645 37.7779 96.5645 36.2144V36.1936C96.5645 34.2417 97.9433 32.2695 100.376 32.2695C102.19 32.2695 103.36 33.3019 103.886 34.4926C104.141 35.0449 104.254 35.6668 104.233 36.2649C104.188 36.883 104.049 37.4769 103.749 38.0326C103.176 39.1775 102.073 40.0511 100.398 40.0511ZM104.209 42.4623H107.217V29.8578H104.209V31.6968C103.658 30.6856 102.257 29.4689 99.9623 29.4689C96.4275 29.4689 93.5589 32.1773 93.5589 36.1478C93.5589 39.7043 95.921 42.8516 99.9623 42.8516C101.73 42.8516 103.405 42.1155 104.209 40.6488V42.4623Z" fill="#FF6C5C"/>
</svg>
