<svg width="167" height="68" viewBox="0 0 167 68" fill="none" xmlns="http://www.w3.org/2000/svg">
<path fill-rule="evenodd" clip-rule="evenodd" d="M10.1807 12H54.8041V56H10.1807V12ZM26.7759 45.9607V37.7913L30.1418 34.484L38.5827 46.782L42.4473 46.8113L43.1585 45.374L33.3394 31.3307L42.3811 22.2667L41.8827 20.8293H38.0251L26.7831 31.91V21.6727L25.962 20.8293H23.168L22.3465 21.6727V45.924L23.212 46.7893H25.9033L26.7759 45.9607ZM71.8978 20.8293H68.5684V46.7967H71.8978V38.5613L76.437 33.296L84.3057 46.7967H88.0383L78.5271 30.722L86.7549 20.8293H82.9783L72.0152 33.8533H71.8978V20.8293ZM90.5025 32.966C89.989 34.3227 89.7398 35.7673 89.7617 37.2193L89.747 37.212C89.7251 38.6567 89.9743 40.094 90.4731 41.4507C90.9136 42.6242 91.59 43.6949 92.4604 44.5967C93.3037 45.4547 94.3156 46.1293 95.4303 46.5767C96.5965 47.0387 97.843 47.2733 99.1045 47.266C100.322 47.288 101.532 47.0827 102.676 46.672C103.673 46.298 104.626 45.836 105.528 45.286L104.362 43.152C103.651 43.592 102.888 43.9587 102.097 44.2373C101.26 44.5233 100.388 44.6627 99.5077 44.6553C98.6637 44.6882 97.8219 44.5433 97.0373 44.23C96.2528 43.9167 95.5431 43.442 94.9537 42.8367C93.7291 41.4727 93.0323 39.72 93.0029 37.8867H106.174C106.262 37.3 106.299 36.6987 106.291 36.1047C106.306 34.8507 106.13 33.5967 105.77 32.3867C105.462 31.3453 104.949 30.3773 104.267 29.534C103.607 28.742 102.771 28.1187 101.818 27.7154C100.769 27.2827 99.6398 27.0627 98.5029 27.0847C97.3883 27.0773 96.2811 27.3193 95.2545 27.774C94.2003 28.2469 93.2525 28.9279 92.4676 29.776C91.6172 30.7073 90.9497 31.7853 90.5025 32.966ZM102.148 31.2207C103.072 32.5407 103.519 34.1393 103.409 35.7527L103.416 35.76H92.9811C93.0617 34.8654 93.289 33.9853 93.641 33.164C93.9411 32.4587 94.3686 31.8149 94.9025 31.2647C95.3938 30.766 95.9731 30.3627 96.6112 30.0767C97.2343 29.798 97.9164 29.6587 98.5985 29.6587C99.271 29.6232 99.9424 29.7461 100.559 30.0174C101.175 30.2887 101.719 30.7008 102.148 31.2207ZM113.852 27.5613H111.124L111.116 27.5687V46.804H114.409V34.4547C114.865 33.1147 115.676 31.9235 116.756 31.008C117.489 30.4067 118.399 30.062 119.345 30.018C119.682 30.0107 120.019 30.04 120.349 30.0987C120.642 30.1573 120.943 30.238 121.229 30.3333L121.874 27.4807C121.207 27.2093 120.503 27.07 119.784 27.0847C118.658 27.0876 117.565 27.4642 116.675 28.1553C115.67 28.9349 114.842 29.9199 114.248 31.0447H114.13L113.852 27.5613ZM123.823 38.9755C123.317 39.8325 123.061 40.8146 123.084 41.81L123.077 41.8027C123.032 42.5547 123.155 43.3072 123.437 44.006C123.718 44.7048 124.152 45.3323 124.705 45.8433C125.849 46.8113 127.316 47.3247 128.819 47.266C130.007 47.266 131.188 46.9873 132.251 46.452C133.331 45.9146 134.346 45.2578 135.28 44.494H135.36L135.639 46.7893H138.367V34.99C138.47 32.9513 137.905 30.9273 136.761 29.2333C135.69 27.796 133.967 27.0773 131.584 27.0773C130.103 27.0627 128.628 27.3413 127.25 27.8913C126.099 28.3533 124.976 28.9107 123.92 29.5707L125.248 31.8293C126.084 31.272 126.964 30.7953 127.88 30.4067C128.885 29.9813 129.978 29.7687 131.07 29.776C131.745 29.754 132.427 29.8933 133.036 30.194C133.527 30.4507 133.945 30.8247 134.26 31.2793C134.576 31.7487 134.796 32.2767 134.906 32.8267C135.03 33.4133 135.089 34.0073 135.089 34.6087C130.909 35.056 127.866 35.8407 125.952 36.9627C125.068 37.4211 124.33 38.1185 123.823 38.9755ZM127.316 43.9513C126.612 43.372 126.245 42.4847 126.333 41.5753L126.326 41.568C126.318 40.9813 126.472 40.402 126.766 39.8887C127.126 39.3128 127.632 38.8423 128.232 38.5247C129.09 38.0627 130 37.718 130.946 37.498C132.31 37.1607 133.688 36.9113 135.082 36.7427V42.0887C134.275 42.844 133.38 43.4893 132.412 44.01C131.591 44.4427 130.674 44.6627 129.743 44.6627C128.878 44.692 128.027 44.4427 127.316 43.9513ZM146.705 44.1127C145.766 43.6653 144.886 43.1007 144.08 42.448H144.043L142.401 44.626C143.395 45.4237 144.505 46.0643 145.693 46.5253C146.954 47.0313 148.304 47.2807 149.668 47.2807C150.709 47.2953 151.751 47.1413 152.74 46.826C153.569 46.562 154.332 46.1367 154.992 45.5793C155.571 45.0807 156.04 44.4573 156.356 43.7607C156.664 43.064 156.818 42.3087 156.818 41.546C156.84 40.7467 156.656 39.9547 156.275 39.2507C155.923 38.6273 155.454 38.0847 154.889 37.6447C154.303 37.1973 153.664 36.8307 152.982 36.5593C152.286 36.2733 151.582 36.002 150.878 35.7307C150.313 35.518 149.77 35.3127 149.25 35.1147C148.766 34.9313 148.304 34.7113 147.864 34.44C147.49 34.2127 147.167 33.9193 146.903 33.5673C146.661 33.23 146.536 32.8193 146.544 32.4013C146.544 31.668 146.859 30.964 147.409 30.4654C148.172 29.8493 149.147 29.556 150.122 29.6367C150.937 29.6295 151.743 29.7918 152.491 30.1133C153.232 30.436 153.936 30.8467 154.581 31.338L156.151 29.2773C155.344 28.632 154.442 28.1113 153.481 27.73C151.494 26.9673 149.308 26.8867 147.277 27.51C146.509 27.7572 145.795 28.1479 145.172 28.6613C144.605 29.1336 144.152 29.7277 143.845 30.3993C143.537 31.074 143.383 31.8147 143.383 32.5553C143.363 33.2888 143.543 34.0139 143.904 34.6527C144.256 35.2371 144.711 35.7537 145.246 36.178C145.818 36.6253 146.449 36.9993 147.116 37.2853C147.805 37.586 148.502 37.8573 149.206 38.0993L150.812 38.73C151.31 38.9207 151.787 39.17 152.234 39.4633C152.633 39.7207 152.981 40.0487 153.261 40.4313C153.532 40.8127 153.672 41.2673 153.664 41.7367C153.679 42.5507 153.327 43.3353 152.704 43.8707C151.882 44.5087 150.856 44.824 149.814 44.7433C148.744 44.7653 147.68 44.5527 146.705 44.1127Z" fill="#FF6C5C"/>
</svg>
