<svg width="218" height="68" viewBox="0 0 218 68" fill="none" xmlns="http://www.w3.org/2000/svg">
<path fill-rule="evenodd" clip-rule="evenodd" d="M155.748 12H164.761L164.761 55.2874H155.748L155.748 12ZM66.8712 13.7792H76.0033L76.0033 31.9248L92.8444 13.7792H103.874L86.974 31.3911L104.645 55.289L93.6747 55.289L80.8066 37.618L76.0033 42.599L76.0032 55.289H66.8711L66.8712 13.7792ZM99.7896 39.5744V39.4562C99.7896 30.3241 107.143 22.9112 117.046 22.9112C126.89 22.9112 134.184 30.2051 134.184 39.3372V39.4559C134.184 48.588 126.83 56 116.927 56C107.083 56 99.7896 48.7065 99.7896 39.5744ZM125.289 39.5744V39.4562C125.289 34.7714 121.909 30.6797 116.927 30.6797C111.768 30.6797 108.685 34.6527 108.685 39.3376V39.4563C108.685 44.1407 112.065 48.2323 117.046 48.2323C122.205 48.2323 125.289 44.2593 125.289 39.5744ZM136.673 31.2135V46.2754C136.673 53.6284 140.409 55.8228 145.923 55.8228C148.948 55.8228 151.142 55.1112 153.039 53.9845V46.7497C151.735 47.4618 150.252 47.8769 148.592 47.8769C146.576 47.8769 145.686 46.8684 145.686 44.7933V31.2135H153.158V23.5045H145.686V15.3803H136.673L136.673 23.5045H132.878V31.2135H136.673ZM177.506 12H168.019V20.0056H177.506V12ZM177.27 23.5041H168.256L168.256 55.2886L177.27 55.2886L177.27 23.5041ZM180.698 23.504L189.711 23.504V28.0108C191.787 25.3423 194.456 22.9113 199.022 22.9113C205.841 22.9113 209.814 27.418 209.814 34.7119V55.2886L200.801 55.2886V37.5581C200.801 33.2888 198.784 31.0945 195.345 31.0945C191.905 31.0945 189.712 33.2888 189.712 37.5581L189.712 55.2886H180.698L180.698 23.504ZM52.5024 14.7582L32.8074 34.417L53.5043 55.2589L12 55.2589V53.8435V35.6714V13.7583H32.8371L32.8372 13.7582H52.0888H53.5043L52.5024 14.7582ZM32.0997 33.7104L13 52.8418V36.0709L33.2662 14.7582H51.0869L32.101 33.7092L32.0997 33.7104Z" fill="#FF6C5C"/>
</svg>
