<svg width="282" height="68" viewBox="0 0 282 68" fill="none" xmlns="http://www.w3.org/2000/svg">
<path fill-rule="evenodd" clip-rule="evenodd" d="M52.2459 21.7858C51.9857 20.953 51.361 20.2763 50.5802 19.8599L34.7043 12.2603C34.2879 12.0521 33.8194 12 33.403 12C32.9865 12 32.5181 12 32.1017 12.1041L16.2257 19.7558C15.4449 20.1202 14.8723 20.7968 14.6641 21.6817L10.7602 38.807C10.604 39.6918 10.8122 40.5767 11.3328 41.3055L22.3158 54.8911C22.9404 55.5158 23.8253 55.9322 24.7102 55.9842H42.1998C43.1368 56.0883 44.0216 55.6719 44.5942 54.8911L55.5773 41.3055C56.0978 40.5767 56.306 39.6918 56.2019 38.807L52.2459 21.7858ZM49.7995 38.1303C49.7475 38.1303 49.6954 38.1303 49.6954 38.0782C49.6954 38.0262 49.5913 38.0262 49.4872 38.0262C49.279 37.9741 49.0708 37.9741 48.8626 37.9741C48.7585 37.9741 48.6544 37.9741 48.5503 37.9221H48.4982C47.9256 37.87 47.301 37.7659 46.7284 37.6097C46.5723 37.5577 46.4161 37.4015 46.3641 37.2454L45.9476 37.1413C46.1559 35.6318 46.0518 34.0702 45.7394 32.5607C45.3751 31.0511 44.7504 29.5937 43.9176 28.2924L44.2299 27.9801V27.928C44.2299 27.7719 44.282 27.5636 44.3861 27.4595C44.8545 27.0431 45.323 26.7308 45.8435 26.4185L46.1559 26.2623C46.2599 26.2103 46.351 26.1582 46.4421 26.1062L46.4421 26.1062C46.5332 26.0541 46.6243 26.0021 46.7284 25.95C46.7545 25.924 46.7805 25.911 46.8065 25.898C46.8325 25.885 46.8586 25.8719 46.8846 25.8459C46.9168 25.8137 46.9092 25.8015 46.8987 25.7845C46.8922 25.774 46.8846 25.7617 46.8846 25.7418C47.3531 25.3774 47.4572 24.7528 47.0928 24.2843C46.9366 24.0761 46.6243 23.92 46.3641 23.92C46.1038 23.92 45.8435 24.0241 45.6353 24.1802L45.5833 24.2323C45.5312 24.2843 45.4792 24.3364 45.4271 24.3364C45.271 24.4926 45.1148 24.6487 45.0107 24.8049C44.9744 24.8775 44.9128 24.9247 44.8612 24.9643C44.8388 24.9816 44.8183 24.9973 44.8025 25.0131C44.4381 25.4295 43.9697 25.8459 43.5012 26.1582C43.3971 26.2103 43.293 26.2623 43.1889 26.2623C43.1368 26.2623 43.0327 26.2623 42.9807 26.2103H42.9286L42.5122 26.4705C42.304 26.2623 42.0827 26.0541 41.8615 25.8459L41.8614 25.8458C41.6402 25.6376 41.419 25.4294 41.2109 25.2213C39.2849 23.7118 36.8905 22.7748 34.4441 22.5146L34.392 22.0981V22.1502C34.2359 22.0461 34.1838 21.8899 34.1318 21.7338C34.1318 21.1612 34.1318 20.5886 34.2359 19.964V19.9119C34.2359 19.8599 34.2489 19.8079 34.2619 19.7558L34.2619 19.7558C34.2749 19.7037 34.2879 19.6517 34.2879 19.5996C34.3139 19.4955 34.327 19.3914 34.34 19.2873L34.34 19.2873C34.353 19.1832 34.366 19.0791 34.392 18.975V18.6627C34.4441 18.1422 34.0277 17.6216 33.5071 17.5696C33.1948 17.5175 32.8825 17.6737 32.6222 17.934C32.414 18.1422 32.3099 18.4024 32.3099 18.6627V18.923C32.3099 19.1312 32.362 19.3394 32.414 19.5476C32.4661 19.6517 32.4661 19.7558 32.4661 19.8599V19.9119C32.5702 20.4845 32.5702 21.0571 32.5702 21.6817C32.5181 21.8379 32.4661 21.994 32.3099 22.0981V22.2023L32.2579 22.6187C31.768 22.6632 31.2781 22.7458 30.7556 22.834L30.7555 22.834C30.6674 22.8489 30.5783 22.8639 30.4881 22.8789C28.0416 23.3995 25.8034 24.7008 24.0857 26.5226L23.7733 26.3144H23.7213C23.6997 26.3144 23.6782 26.3233 23.6529 26.3338C23.6172 26.3486 23.5741 26.3664 23.5131 26.3664C23.409 26.3664 23.3049 26.3144 23.2008 26.2623C22.7323 25.898 22.2638 25.4815 21.8995 25.0651C21.8632 24.9925 21.8016 24.9453 21.75 24.9056C21.7275 24.8884 21.707 24.8727 21.6913 24.8569C21.6132 24.7788 21.5481 24.7008 21.483 24.6227C21.418 24.5446 21.3529 24.4665 21.2748 24.3884C21.2488 24.3624 21.2228 24.3494 21.1968 24.3364C21.1707 24.3234 21.1447 24.3104 21.1187 24.2843L21.0666 24.2323C20.8584 24.0761 20.5982 23.972 20.3379 23.972C20.0256 23.972 19.7653 24.0761 19.6092 24.3364C19.2968 24.8049 19.4009 25.4295 19.8174 25.7939C19.8694 25.7939 19.8694 25.8459 19.8694 25.8459C19.8694 25.8459 19.9735 25.95 20.0256 25.95C20.1817 26.0541 20.3899 26.1582 20.5982 26.2623L20.9105 26.4185C21.431 26.7308 21.9515 27.0431 22.3679 27.4595C22.463 27.5546 22.558 27.7364 22.5342 27.8861L22.5241 27.876V27.928C22.5286 27.9144 22.532 27.9004 22.5342 27.8861L22.8364 28.1883C22.8104 28.2403 22.7843 28.2794 22.7583 28.3184C22.7323 28.3574 22.7063 28.3965 22.6802 28.4485C21.0666 30.9991 20.3899 34.0181 20.8584 36.9851L20.442 37.0892C20.442 37.1413 20.3899 37.1413 20.3899 37.1413C20.3379 37.2974 20.1817 37.4015 20.0256 37.5056C19.453 37.6618 18.8804 37.7659 18.2558 37.818C18.1517 37.818 18.0476 37.818 17.9435 37.87C17.8394 37.87 17.7353 37.883 17.6312 37.896L17.6312 37.896C17.5271 37.909 17.423 37.9221 17.3189 37.9221C17.2973 37.9221 17.2757 37.931 17.2505 37.9415C17.2147 37.9562 17.1716 37.9741 17.1106 37.9741C17.0586 37.9741 17.0586 37.9741 17.0065 38.0262C16.434 38.1303 16.0696 38.6508 16.1737 39.2234C16.2778 39.6918 16.7463 40.0042 17.2147 39.9521C17.3189 39.9521 17.3709 39.9521 17.475 39.9C17.5271 39.9 17.5271 39.9 17.5271 39.848C17.5271 39.8117 17.603 39.826 17.6666 39.838C17.6942 39.8432 17.7195 39.848 17.7353 39.848C17.866 39.8153 17.9967 39.7621 18.1145 39.7142L18.1145 39.7142C18.1844 39.6857 18.2497 39.6592 18.3078 39.6398C18.412 39.5877 18.5161 39.5357 18.6202 39.5357H18.6722C19.2448 39.3275 19.7653 39.1713 20.3899 39.0672H20.442C20.5981 39.0672 20.7543 39.1193 20.8584 39.2234C20.9105 39.2234 20.9105 39.2754 20.9105 39.2754L21.3789 39.2234C22.1597 41.6178 23.6172 43.7519 25.6472 45.3135C26.1157 45.6779 26.5321 45.9902 27.0526 46.2504L26.7924 46.6148C26.7924 46.6669 26.8444 46.6668 26.8444 46.6668C26.9485 46.823 26.9485 47.0312 26.8965 47.1874C26.6883 47.7079 26.376 48.2284 26.0636 48.6969V48.7489C26.0116 48.853 25.9595 48.9051 25.8554 49.0092C25.797 49.0677 25.7385 49.159 25.6708 49.2646L25.6708 49.2647C25.618 49.3472 25.5595 49.4384 25.4911 49.5297C25.465 49.5558 25.452 49.5818 25.439 49.6078C25.426 49.6338 25.413 49.6599 25.387 49.6859C25.387 49.6859 25.387 49.7379 25.3349 49.7379C25.0747 50.2585 25.2829 50.8831 25.7513 51.1434C25.8554 51.1954 26.0116 51.2475 26.1157 51.2475C26.5321 51.2475 26.8965 50.9872 27.1047 50.6228C27.1047 50.6228 27.1047 50.5708 27.1567 50.5708C27.1567 50.5187 27.2088 50.4667 27.2609 50.4146C27.2869 50.3105 27.3259 50.2194 27.365 50.1283C27.404 50.0372 27.443 49.9461 27.4691 49.842L27.5732 49.5297C27.7293 48.9572 27.9896 48.4367 28.2498 47.9162L28.2498 47.9161C28.354 47.7599 28.5101 47.6558 28.6663 47.6038C28.6923 47.6038 28.7053 47.6038 28.7118 47.5973C28.7183 47.5908 28.7183 47.5778 28.7183 47.5517L28.9265 47.1353C30.384 47.7079 31.8935 47.9682 33.4551 47.9682C34.392 47.9682 35.329 47.8641 36.2659 47.6038C36.6928 47.5262 37.1197 47.3907 37.525 47.2621C37.6633 47.2182 37.7991 47.1751 37.9316 47.1353L38.1398 47.4997C38.1918 47.4997 38.1918 47.4997 38.1918 47.5517C38.348 47.6038 38.5042 47.7079 38.6083 47.8641C38.8685 48.3846 39.1288 48.9051 39.2849 49.4777V49.5297L39.389 49.842C39.4411 50.0503 39.4932 50.2585 39.5973 50.4146C39.6233 50.4406 39.6363 50.4667 39.6493 50.4927C39.6623 50.5187 39.6753 50.5448 39.7014 50.5708C39.7014 50.5708 39.7014 50.6228 39.7534 50.6228C39.9616 50.9872 40.326 51.2475 40.7424 51.2475C40.866 51.2475 40.9569 51.2149 41.0669 51.1755L41.0671 51.1754C41.096 51.165 41.1263 51.1542 41.1588 51.1434C41.367 51.0392 41.5753 50.831 41.6273 50.5708C41.6794 50.3105 41.6794 50.0503 41.5753 49.79C41.5753 49.7379 41.5232 49.7379 41.5232 49.7379C41.5232 49.6859 41.4711 49.6338 41.4191 49.5818C41.315 49.3736 41.2109 49.2174 41.0547 49.0613C41.0027 48.9572 40.9506 48.9051 40.8465 48.801V48.6969C40.4822 48.2284 40.2219 47.7079 40.0137 47.1874C39.9616 47.0312 39.9616 46.823 40.0657 46.6668C40.0657 46.6148 40.1178 46.6148 40.1178 46.6148L39.9616 46.1984C42.6163 44.5848 44.6463 42.0862 45.5833 39.1193L45.9997 39.1713C46.0518 39.1713 46.0518 39.1193 46.0518 39.1193C46.1559 39.0152 46.312 38.9631 46.4682 38.9631H46.5202C47.0928 39.0672 47.6654 39.2234 48.1859 39.4316H48.2379C48.3421 39.4836 48.4462 39.5357 48.5503 39.5357C48.604 39.5626 48.6544 39.5895 48.703 39.6155C48.8426 39.6901 48.9684 39.7573 49.1228 39.7959C49.1444 39.7959 49.166 39.8049 49.1912 39.8153C49.2269 39.8301 49.2701 39.848 49.331 39.848C49.3831 39.848 49.3831 39.848 49.4352 39.9C49.5393 39.9521 49.5913 39.9521 49.6954 39.9521C50.1639 39.9521 50.5803 39.6398 50.7365 39.2234C50.6844 38.6508 50.268 38.2344 49.7995 38.1303ZM34.7564 36.5166L33.351 37.1933L31.9456 36.5166L31.5812 35.0071L32.5702 33.7579H34.1318L35.1208 35.0071L34.7564 36.5166ZM43.2409 33.1332C43.5012 34.2263 43.5532 35.3194 43.4491 36.4125L38.5042 35.0071C38.0357 34.903 37.7754 34.4346 37.8795 33.9661C37.9316 33.8099 37.9836 33.7058 38.0877 33.6017L41.9917 30.0622C42.5642 30.9991 42.9807 32.0401 43.2409 33.1332ZM40.4301 28.1362L36.1618 31.1553C35.7974 31.3635 35.2769 31.3114 35.0167 30.947C34.9125 30.8429 34.8605 30.7388 34.8605 30.5827L34.5482 25.3254C36.8385 25.5857 38.8685 26.5746 40.4301 28.1362ZM31.0086 25.4815L32.0497 25.2733L31.7894 30.4786C31.7894 30.947 31.373 31.3114 30.9045 31.3114C30.781 31.3114 30.69 31.2788 30.58 31.2394L30.58 31.2394C30.551 31.229 30.5207 31.2182 30.4881 31.2073L26.1678 28.1362C27.5211 26.8349 29.1868 25.898 31.0086 25.4815ZM24.6582 30.0622L28.5101 33.4976C28.8745 33.8099 28.9265 34.3304 28.6142 34.6948C28.5101 34.851 28.406 34.903 28.1978 34.9551L23.1487 36.4125C22.9926 34.2263 23.5131 31.9881 24.6582 30.0622ZM23.7733 38.859L28.9265 37.9741C29.3429 37.9741 29.7594 38.2344 29.8114 38.6508C29.8635 38.8069 29.8635 39.0152 29.7594 39.1713L27.7814 43.9601C25.9595 42.7629 24.5021 40.9411 23.7733 38.859ZM35.5892 45.3135C34.8605 45.4696 34.1318 45.5737 33.351 45.5737C32.2579 45.5737 31.1127 45.3655 30.0717 45.0532L32.6222 40.4206C32.8825 40.1083 33.2989 40.0042 33.6633 40.2124C33.8195 40.3165 33.9236 40.4206 34.0797 40.5767L36.5782 45.1053L36.5781 45.1053C36.2659 45.1573 35.9536 45.2094 35.5892 45.3135ZM41.9396 40.7849C41.1588 42.0342 40.0657 43.1273 38.8165 43.9081L36.7864 39.0152C36.6823 38.5987 36.8905 38.1823 37.2549 38.0262C37.4111 37.9741 37.5672 37.9221 37.7234 37.9221L42.9286 38.8069C42.6683 39.5357 42.356 40.2124 41.9396 40.7849ZM265.088 44.2204C264.411 44.4807 263.63 44.5848 262.902 44.5327C262.215 44.5327 261.551 44.4874 260.88 44.4417C260.534 44.418 260.185 44.3943 259.831 44.3766C258.842 44.1683 257.853 43.856 256.916 43.4917L255.979 48.0723C256.76 48.3325 257.54 48.5928 258.373 48.801C259.831 49.1654 261.288 49.3215 262.798 49.2695C265.504 49.2695 267.586 48.7489 269.044 47.76C270.553 46.771 271.386 45.0532 271.282 43.2835C271.282 42.5547 271.178 41.826 270.97 41.0973C270.762 40.4206 270.449 39.848 269.981 39.3795C269.46 38.7549 268.836 38.2864 268.107 37.9221C267.17 37.4015 266.129 36.9331 265.088 36.5687C264.463 36.3605 263.943 36.1523 263.578 35.9441C263.474 35.8842 263.373 35.8286 263.278 35.776C263.043 35.646 262.842 35.5348 262.694 35.4236C262.485 35.2674 262.329 35.1112 262.225 34.903C262.173 34.6948 262.121 34.4866 262.121 34.2784C262.121 33.2894 263.006 32.8209 264.776 32.8209C265.608 32.8209 266.493 32.873 267.326 33.0812C267.542 33.143 267.754 33.2002 267.964 33.2569C268.461 33.3912 268.948 33.5228 269.46 33.7058L270.449 29.2814C269.564 28.9691 268.68 28.7609 267.795 28.6047C266.649 28.3444 265.452 28.2403 264.307 28.2403C261.913 28.2403 260.039 28.7609 258.633 29.854C257.28 30.895 256.499 32.5607 256.551 34.2784C256.551 35.1112 256.655 35.9441 256.968 36.7249C257.228 37.4015 257.592 37.9741 258.113 38.4946C258.685 39.0152 259.258 39.4316 259.935 39.7439C260.663 40.1083 261.444 40.4726 262.329 40.7849C263.214 41.0452 264.099 41.4616 264.88 41.9301C265.348 42.0863 265.66 42.5547 265.713 43.0752C265.765 43.5437 265.504 44.0122 265.088 44.2204ZM235.002 34.2263C234.481 35.6838 234.169 37.2454 234.221 38.807C234.221 40.1603 234.429 41.5657 234.793 42.9711C235.21 44.1683 235.835 45.3135 236.719 46.2504C237.656 47.1874 238.749 47.9161 239.999 48.3846C241.508 48.9572 243.07 49.2174 244.683 49.1654C245.412 49.1654 246.141 49.1133 246.818 49.0613C247.546 48.9572 248.171 48.8531 248.796 48.749C249.368 48.6969 249.941 48.5407 250.513 48.3846C250.638 48.3378 250.763 48.2957 250.886 48.2541C251.175 48.1567 251.455 48.0619 251.71 47.9161L250.93 43.3355C250.149 43.6999 249.316 43.9601 248.483 44.1163C247.494 44.2724 246.453 44.3766 245.464 44.3766C244.111 44.4286 242.757 44.0642 241.612 43.3355C240.675 42.7109 240.103 41.6698 239.999 40.5767H252.699C252.699 40.4318 252.711 40.2868 252.723 40.1315C252.737 39.9521 252.752 39.7588 252.752 39.5357C252.804 39.1193 252.804 38.7549 252.804 38.4426C252.804 35.1112 251.971 32.5607 250.357 30.8429C248.743 29.1252 246.505 28.2403 243.694 28.2403C242.497 28.2403 241.3 28.4485 240.155 28.917C239.01 29.3334 238.021 30.0101 237.136 30.895C236.199 31.884 235.47 32.9771 235.002 34.2263ZM247.13 35.2674C247.286 35.7359 247.39 36.2043 247.39 36.6728H239.999C240.051 36.2043 240.155 35.7359 240.311 35.2674C240.467 34.7989 240.727 34.3825 241.04 34.0181C241.352 33.6538 241.768 33.3935 242.185 33.1853C242.705 32.925 243.226 32.8209 243.799 32.8209C244.371 32.8209 244.892 32.925 245.412 33.1853C245.829 33.3935 246.193 33.7058 246.505 34.0702C246.766 34.4346 247.026 34.7989 247.13 35.2674ZM224.591 22.8789L218.97 23.7638V40.4726C218.917 41.6178 219.022 42.815 219.282 43.9601C219.542 44.9491 219.959 45.8861 220.583 46.6669C221.208 47.3956 222.041 48.0202 222.978 48.3846C224.175 48.8531 225.476 49.0613 226.777 49.0092C227.818 49.0092 228.86 48.9051 229.848 48.6969C230.629 48.4887 231.41 48.2805 232.139 47.9682L231.358 43.5958C230.785 43.804 230.213 43.9601 229.588 44.0642C229.016 44.1683 228.391 44.2204 227.766 44.2204C226.465 44.2204 225.632 43.856 225.216 43.1794C224.747 42.3465 224.539 41.3575 224.591 40.3685V33.3935H231.358V28.7088H224.591V22.8789ZM197.003 34.2263C196.483 35.6838 196.171 37.2454 196.223 38.807C196.171 40.1603 196.379 41.5657 196.795 42.9711C197.212 44.1683 197.836 45.3135 198.721 46.2504C199.658 47.1874 200.751 47.9161 202 48.3846C203.51 48.9572 205.072 49.2174 206.685 49.1654C207.414 49.1654 208.143 49.1133 208.819 49.0613C209.548 48.9572 210.173 48.8531 210.797 48.749L210.797 48.749C211.37 48.6969 211.943 48.5407 212.515 48.3846C212.64 48.3378 212.765 48.2957 212.888 48.2541C213.176 48.1567 213.457 48.0619 213.712 47.9161L212.931 43.3355C212.099 43.6999 211.266 43.9601 210.433 44.1163C209.444 44.2724 208.403 44.3766 207.414 44.3766C206.061 44.4286 204.707 44.0642 203.562 43.3355C202.625 42.7109 202.053 41.6698 201.948 40.5767H214.701C214.701 40.2644 214.701 39.9521 214.753 39.5357C214.805 39.1194 214.805 38.7551 214.805 38.4429V38.4426C214.805 35.1112 213.973 32.5607 212.359 30.8429C210.745 29.1252 208.507 28.2403 205.696 28.2403C204.499 28.2403 203.302 28.4485 202.157 28.917C201.012 29.3334 200.022 30.0101 199.138 30.895C198.201 31.884 197.472 32.9771 197.003 34.2263ZM209.132 35.2674C209.288 35.7359 209.392 36.2043 209.392 36.6728H202.053C202.105 36.2043 202.209 35.7359 202.365 35.2674C202.521 34.7989 202.781 34.3825 203.094 34.0181C203.406 33.6538 203.77 33.3935 204.187 33.1853C204.707 32.925 205.228 32.8209 205.8 32.8209C206.373 32.8209 206.893 32.925 207.414 33.1853C207.83 33.3935 208.195 33.7058 208.507 34.0702C208.767 34.4346 209.028 34.7989 209.132 35.2674ZM178.577 28.6047C177.328 28.8129 176.078 29.0732 174.881 29.3855V48.4887H180.503V33.1853C180.867 33.1332 181.232 33.0812 181.7 33.0812C182.169 33.0291 182.585 33.0291 183.001 33.0291C184.303 33.0291 185.188 33.4456 185.656 34.1743C186.125 34.9551 186.385 36.2043 186.385 38.0262V48.4887H191.954V37.2974C191.954 36.0482 191.85 34.7989 191.538 33.6017C191.278 32.5607 190.809 31.5717 190.133 30.7388C189.456 29.906 188.519 29.2814 187.478 28.917C186.125 28.4485 184.719 28.1883 183.314 28.2403C181.752 28.2403 180.139 28.3444 178.577 28.6047ZM170.362 33.5829C170.558 33.6273 170.745 33.6697 170.925 33.7058L171.862 29.0211C171.498 28.865 171.133 28.7609 170.769 28.7088C170.301 28.6047 169.884 28.5526 169.468 28.5006C168.999 28.3965 168.583 28.3444 168.166 28.3444C167.984 28.3444 167.802 28.3314 167.62 28.3184C167.438 28.3054 167.256 28.2924 167.073 28.2924C165.564 28.2403 164.002 28.3965 162.493 28.7609C161.296 29.0211 160.098 29.3334 158.953 29.7498V48.5928H164.575V33.4456C164.939 33.3415 165.304 33.2894 165.668 33.2374C165.715 33.2321 165.762 33.2268 165.808 33.2216C166.221 33.1753 166.595 33.1332 166.969 33.1332C167.698 33.1332 168.427 33.1853 169.155 33.3415C169.597 33.4094 169.995 33.4996 170.362 33.5829ZM136.779 34.2263C136.258 35.6838 135.946 37.2454 135.998 38.807C135.998 40.2124 136.206 41.5657 136.519 42.9711C136.935 44.1683 137.56 45.3135 138.445 46.2504C139.382 47.1874 140.475 47.9161 141.724 48.3846C143.233 48.9572 144.795 49.2174 146.409 49.1654C147.137 49.1654 147.866 49.1133 148.543 49.0613C149.271 48.9572 149.896 48.8531 150.521 48.749C151.093 48.6969 151.666 48.5407 152.238 48.3846C152.363 48.3378 152.488 48.2957 152.611 48.254C152.9 48.1567 153.18 48.0619 153.436 47.9161L152.655 43.3355C151.874 43.6478 151.041 43.9081 150.208 44.0642C149.219 44.2204 148.178 44.3245 147.189 44.3245C145.836 44.3766 144.483 44.0122 143.338 43.2835C142.401 42.6588 141.828 41.6178 141.724 40.5247H154.477C154.477 40.2124 154.477 39.9001 154.529 39.4836C154.581 39.0672 154.581 38.7029 154.581 38.3905C154.581 35.1112 153.748 32.5607 152.134 30.8429C150.521 29.1252 148.282 28.2403 145.472 28.2403C144.274 28.2403 143.077 28.4485 141.932 28.917C140.787 29.3334 139.798 30.0101 138.913 30.895C137.976 31.884 137.247 32.9771 136.779 34.2263ZM148.959 35.2674C149.115 35.7359 149.219 36.2043 149.219 36.6728H141.828C141.88 36.2043 141.984 35.7359 142.14 35.2674C142.296 34.7989 142.557 34.3825 142.869 34.0181C143.181 33.6538 143.598 33.3935 144.014 33.1853C144.535 32.925 145.055 32.8209 145.628 32.8209C146.2 32.8209 146.721 32.925 147.241 33.1853C147.658 33.3935 148.022 33.7058 148.335 34.0702C148.595 34.4346 148.855 34.7989 148.959 35.2674ZM122.881 33.0812C125.536 33.0812 126.889 34.851 126.889 38.4946C126.941 40.0042 126.525 41.4616 125.744 42.7109C124.911 43.804 123.61 44.3766 122.256 44.2724C121.736 44.2724 121.267 44.2724 120.851 44.2204C120.434 44.1683 120.07 44.1163 119.81 44.0642V33.862C120.226 33.6017 120.695 33.3935 121.163 33.2894C121.736 33.1332 122.308 33.0812 122.881 33.0812ZM131.886 43.0232C132.407 41.6178 132.615 40.1603 132.615 38.7028C132.615 37.2454 132.459 35.7879 132.146 34.4866C131.834 33.2894 131.261 32.1963 130.481 31.2073C129.752 30.3224 128.815 29.5937 127.774 29.1252C126.577 28.5526 125.327 28.3444 124.026 28.3444C123.297 28.3444 122.569 28.3965 121.84 28.5526C121.163 28.7088 120.487 28.917 119.862 29.1773V19.2873L114.24 20.1722V48.0202C114.709 48.2284 115.281 48.3846 115.958 48.4887C116.635 48.6448 117.311 48.749 117.988 48.8531C118.352 48.8791 118.717 48.9181 119.081 48.9572C119.445 48.9962 119.81 49.0352 120.174 49.0613L120.174 49.0613C120.903 49.1133 121.632 49.1654 122.308 49.1654C123.818 49.1654 125.275 48.9572 126.681 48.4366C127.878 47.9682 128.971 47.2394 129.908 46.3025C130.793 45.3656 131.47 44.2724 131.886 43.0232ZM105.183 48.5928C106.432 48.4366 107.682 48.1764 108.879 47.8641V28.7088H103.257V43.9601C103 44.0337 102.743 44.0553 102.449 44.0799C102.326 44.0902 102.198 44.101 102.06 44.1163C101.592 44.1683 101.175 44.1683 100.759 44.1683C99.4574 44.1683 98.5725 43.7519 98.104 42.9711C97.6355 42.1904 97.3753 40.889 97.3753 39.0672V28.7088H91.7536V39.6918C91.7536 40.9411 91.8577 42.2424 92.17 43.4396C92.4303 44.5327 92.8988 45.5217 93.5755 46.4066C94.3042 47.2394 95.1891 47.8641 96.2301 48.2805C97.5835 48.7489 98.9889 49.0092 100.446 48.9572C102.008 48.9572 103.622 48.8531 105.183 48.5928ZM76.6469 35.2674C76.4618 35.4756 76.2767 35.6838 76.0859 35.892V19.2873L70.4642 20.1722V48.6969H76.0859V40.0042C76.7626 40.5247 77.3872 41.1493 77.9597 41.826C78.6364 42.5547 79.2611 43.3355 79.8336 44.1163C80.1607 44.6397 80.5084 45.1425 80.8508 45.6376C81.0532 45.9304 81.2538 46.2206 81.4473 46.5107C81.5808 46.711 81.7109 46.9044 81.8376 47.0928C82.2047 47.6387 82.5431 48.1418 82.8527 48.6448H89.3072C88.8907 47.812 88.3702 46.8751 87.7456 45.8861C87.121 44.8971 86.3922 43.856 85.6635 42.867C84.8827 41.826 84.1019 40.889 83.3211 39.9521C82.5924 39.0672 81.8116 38.2864 80.9788 37.5056C82.4883 36.0482 83.8417 34.5907 85.143 33.1853C85.6799 32.5813 86.2264 31.9581 86.7825 31.3239C87.5204 30.4824 88.2752 29.6216 89.0469 28.7609H82.3842C82.3069 28.8492 82.2249 28.9423 82.1392 29.0395C81.821 29.4005 81.452 29.8193 81.0829 30.2704C80.8138 30.5993 80.5275 30.9282 80.2241 31.2768C79.9992 31.5351 79.765 31.8042 79.5213 32.0922C78.9487 32.7168 78.3762 33.3415 77.8036 34.0181C77.3872 34.4346 77.017 34.851 76.6469 35.2674Z" fill="#FF6C5C"/>
</svg>
