<svg width="186" height="68" viewBox="0 0 186 68" fill="none" xmlns="http://www.w3.org/2000/svg">
<path fill-rule="evenodd" clip-rule="evenodd" d="M20.6192 14.4247C20.6607 14.4954 20.7027 14.5658 20.7452 14.636C21.0214 15.0676 21.4785 15.5393 22.0477 16.1265L22.0479 16.1268C23.6217 17.7506 26.0512 20.258 27.8814 25.2453C28.3245 26.4524 28.7323 27.8047 29.0846 29.3249C29.0989 29.3864 29.113 29.4481 29.127 29.5101H29.1316C29.4977 31.6588 29.5583 33.6799 29.3882 35.56C28.7289 42.9037 24.5457 48.0907 21.2946 50.3395C20.8632 52.206 20.5412 54.096 20.3303 56H19.4461C19.1963 53.2959 18.8405 50.7432 18.8405 50.7432L18.8407 50.7425L18.836 50.7402C17.7156 50.0498 9.23531 43.3697 9.75163 32.5367C10.285 21.3532 16.4053 15.963 18.2459 14.342V14.3419C18.3176 14.2788 18.3827 14.2214 18.4408 14.1696C19.213 13.4807 19.3325 12.9084 19.3977 12C19.4333 12.0832 19.4695 12.1662 19.5061 12.2489L19.5021 12.2301C19.6243 12.5109 19.7526 12.7888 19.8872 13.0636C20.1151 13.5257 20.3592 13.9797 20.6192 14.4247ZM173.759 46.6431C173.263 46.6431 172.779 46.4966 172.367 46.2221C171.955 45.9476 171.633 45.5574 171.442 45.1004C171.251 44.6435 171.199 44.1402 171.293 43.6539C171.387 43.1677 171.623 42.7201 171.971 42.3675C172.318 42.0148 172.763 41.7729 173.248 41.6721C173.733 41.5713 174.237 41.6161 174.696 41.8008C175.156 41.9856 175.55 42.3022 175.83 42.7106C176.111 43.1191 176.264 43.6012 176.271 44.0965C176.28 44.4304 176.221 44.7627 176.098 45.0735C175.976 45.3842 175.792 45.667 175.557 45.9049C175.323 46.1427 175.042 46.3307 174.733 46.4576C174.424 46.5844 174.093 46.6475 173.759 46.6431ZM173.759 41.8466C173.306 41.8436 172.863 41.975 172.485 42.2241C172.107 42.4732 171.812 42.8289 171.636 43.246C171.461 43.6631 171.413 44.123 171.499 44.5673C171.585 45.0116 171.801 45.4204 172.119 45.7419C172.438 46.0633 172.845 46.2831 173.288 46.3732C173.732 46.4633 174.192 46.4198 174.611 46.2482C175.029 46.0765 175.388 45.7844 175.64 45.4089C175.893 45.0335 176.029 44.5914 176.03 44.1389C176.036 43.838 175.981 43.539 175.869 43.2597C175.758 42.9803 175.591 42.7262 175.379 42.5124C175.167 42.2987 174.915 42.1296 174.636 42.0152C174.358 41.9008 174.06 41.8435 173.759 41.8466ZM174.364 45.7196L173.716 44.3221H173.194V45.7196H172.814V42.54H173.751C174.449 42.54 174.74 42.8429 174.74 43.4288C174.74 43.8951 174.52 44.1858 174.111 44.2752L174.781 45.715L174.364 45.7196ZM173.209 43.9935H173.759C174.204 43.9935 174.373 43.8421 174.373 43.4364C174.373 43.0306 174.211 42.8928 173.71 42.8928H173.209V43.9935ZM139.611 45.1215C138.413 45.1215 137.055 44.8974 136.375 44.3539V44.3599C135.956 44.0768 135.762 43.4015 135.729 43.017C135.665 42.5627 135.665 38.8594 135.665 36.2037C135.665 33.6132 135.665 29.2315 135.729 28.6561C135.773 28.4764 135.876 28.3166 136.021 28.2019C136.375 28.0414 136.999 28.0096 137.605 28.0096C139.708 28.0096 141.552 28.3624 142.975 29.2572C145.497 30.7925 146.727 33.4148 146.727 36.6458C146.727 40.0085 145.685 42.1146 144.171 43.4909C142.684 44.8338 141.163 45.1215 139.611 45.1215ZM131.268 26.6089C130.675 26.5889 130.155 26.5713 129.919 26.5713H129.906C129.744 26.759 129.247 27.6266 129.311 27.8189C129.921 27.883 130.527 27.979 131.128 28.1065C131.974 28.2988 132.392 28.5547 132.49 29.5449C132.539 30.4567 132.532 32.8858 132.526 34.8307C132.524 35.4114 132.522 35.9489 132.522 36.3899C132.522 36.936 132.523 37.4688 132.525 37.9878C132.53 40.0232 132.534 41.8469 132.457 43.4273C132.392 44.4826 132.254 44.7824 131.666 45.0231C131.318 45.1669 131.118 45.1972 130.361 45.282C130.134 45.3077 129.766 46.3055 129.897 46.5614H129.954C130.939 46.5726 131.993 46.5879 133.029 46.6029C134.921 46.6302 136.755 46.6568 138.009 46.6568C141.656 46.6568 144.216 45.8255 146.185 44.3539C148.164 42.9473 150.132 40.4522 150.132 36.1341C150.132 33.0954 149.024 30.6017 146.952 28.8091C145.24 27.3389 142.845 26.5713 139.998 26.5713C138.037 26.5713 136.79 26.6031 135.736 26.63C134.965 26.6496 134.298 26.6667 133.53 26.6667C132.975 26.6667 132.057 26.6356 131.268 26.6089ZM158.149 28.1944C158.02 28.2261 157.858 28.5471 157.858 28.7061C157.825 29.8583 157.793 32.8637 157.793 34.9425C157.801 34.9822 157.821 35.0187 157.85 35.0472C157.879 35.0758 157.915 35.0952 157.955 35.103C158.374 35.1348 159.41 35.1681 160.284 35.1681C161.513 35.1681 162.225 35.0076 162.612 34.8153C163.648 34.3036 164.126 33.1832 164.126 31.9689C164.126 29.1861 162.185 28.1308 159.307 28.1308C158.918 28.1258 158.529 28.1471 158.143 28.1944H158.149ZM165.486 40.9881C165.486 38.1735 163.415 36.5747 159.63 36.5747C159.604 36.5747 159.551 36.5738 159.479 36.5727C159.106 36.5669 158.221 36.5531 157.981 36.6065C157.884 36.6382 157.787 36.7018 157.787 36.7669C157.787 36.9086 157.787 37.0563 157.787 37.2089C157.786 37.4714 157.785 37.7484 157.785 38.0343C157.779 39.9461 157.773 42.2563 157.852 43.291C157.917 43.8346 158.306 44.6022 158.789 44.8263C159.307 45.1139 160.471 45.1775 161.28 45.1775C163.512 45.1775 165.486 43.9315 165.486 40.9881ZM152.306 26.6273C152.384 26.6274 152.502 26.6342 152.675 26.6441C153.152 26.6715 154.044 26.7227 155.657 26.7227C156.7 26.7227 157.645 26.7065 158.582 26.6905C159.504 26.6747 160.418 26.6591 161.41 26.6591C163.901 26.6591 167.329 27.5554 167.329 31.2649C167.329 33.0817 166.036 34.5594 164.353 35.2635C164.257 35.2953 164.257 35.3589 164.353 35.3907C166.747 35.9963 168.849 37.4695 168.849 40.2841C168.849 43.0351 167.135 44.7627 164.644 45.8498C163.13 46.522 161.248 46.7446 159.345 46.7446C158.755 46.7446 157.764 46.7197 156.649 46.6917C155.013 46.6507 153.111 46.603 151.822 46.6174C151.594 46.522 152.029 45.497 152.223 45.338C152.72 45.3227 153.212 45.2454 153.69 45.1079C154.465 44.9171 154.557 44.6673 154.654 43.5151C154.72 42.5234 154.72 38.9729 154.72 36.446C154.72 35.1494 154.724 34.0108 154.728 33.0333L154.729 33.0077V32.9856V32.9766C154.735 31.3786 154.74 30.2169 154.72 29.5055C154.688 28.6107 154.364 28.3215 153.749 28.1626C153.422 28.0972 152.948 28.0326 152.476 27.9682L152.473 27.9677C152.246 27.9367 152.019 27.9058 151.809 27.8749C151.647 27.7144 152.146 26.7545 152.306 26.6273ZM36.1916 45.9966C36.173 46.2169 36.2067 46.4384 36.29 46.6431H36.293C36.6216 46.6416 36.9501 46.6265 37.3301 46.6083C37.8948 46.5811 38.5989 46.5477 39.6103 46.5477C40.4658 46.5477 41.2228 46.5811 41.8284 46.6083L42.0541 46.6181C42.3574 46.6313 42.6265 46.6431 42.8534 46.6431C42.9683 46.2944 42.998 45.9231 42.9397 45.5606L42.8393 45.5426L42.7392 45.5253L42.643 45.509L42.4173 45.4713L42.3733 45.4639C42.1105 45.4202 41.8861 45.3828 41.7527 45.3441C41.1122 45.1957 40.9911 44.7899 40.9609 44.4478C40.9196 43.5348 40.9217 41.6345 40.9236 39.842V39.838V39.8342V39.8304V39.8268V39.8116V39.7963V39.7811L40.9243 39.1366L40.9245 38.717V37.0228C40.9213 36.9005 40.9435 36.7788 40.9896 36.6655C41.0358 36.5521 41.1048 36.4496 41.1925 36.3642C42.1039 35.6814 43.2198 35.2559 44.1025 35.2559C45.6105 35.2559 46.5477 36.0917 46.8899 37.739C47.0912 38.7655 47.0186 42.8671 46.9247 44.2903C46.8899 44.9005 46.7097 45.1609 46.2312 45.3123C45.9679 45.3789 45.6879 45.4288 45.3674 45.486L45.3667 45.4861L45.3228 45.494L44.9337 45.5651C44.8519 45.7259 44.8168 45.9063 44.8323 46.086C44.8215 46.2767 44.8547 46.4673 44.9292 46.6431C45.1758 46.6418 45.5896 46.6307 46.0416 46.6187L46.2025 46.6144C46.8354 46.5977 47.5515 46.5795 47.9906 46.5795C49.4395 46.5795 50.4434 46.6083 51.4215 46.6416C51.4801 46.5603 51.519 46.4665 51.535 46.3676C51.603 46.104 51.6082 45.8281 51.5502 45.5621C51.158 45.5 50.8946 45.4364 50.6417 45.3744C50.51 45.3441 50.3798 45.3123 50.2147 45.2759C49.9104 45.1563 49.5334 45.0064 49.5334 44.3826C49.5123 43.4666 49.5182 42.2554 49.5259 40.9715C49.5334 40.3401 49.5334 39.7088 49.5334 39.1031C49.5334 38.0509 49.5334 37.3544 49.4062 36.7579V36.7351C49.4078 36.6341 49.4453 36.5369 49.5123 36.4611C50.5902 35.6435 51.7212 35.3513 52.4222 35.3513C54.3103 35.3513 55.1733 36.6928 55.3398 37.8389C55.52 38.9442 55.4185 43.5999 55.4049 44.1283C55.3701 44.8717 55.2081 45.126 54.6479 45.3108C54.2935 45.4102 53.9335 45.4886 53.5699 45.5454C53.4897 45.6938 53.5124 46.4024 53.579 46.6219C54.4571 46.5644 55.3762 46.5311 57.1355 46.5311C58.0029 46.5311 58.7501 46.5681 59.2982 46.5953L59.3158 46.5962L59.5013 46.6057C59.7189 46.6171 59.8983 46.6265 60.0364 46.6265C60.1439 46.4751 60.256 45.7347 60.203 45.5439H60.1757C59.4687 45.4228 58.91 45.3259 58.5224 45.1366C58.209 45.0503 58 44.6143 58 44.4629C58 43.88 58.0063 43.0613 58.0131 42.1744L58.0151 41.9026C58.0242 40.7746 58.0333 39.5649 58.0333 38.6111C58.0333 35.2938 56.4511 33.3119 53.8045 33.3119C52.6842 33.3119 51.0112 34.0765 49.323 35.3574C49.3034 35.386 49.2772 35.4095 49.2467 35.4258C49.2338 35.4328 49.2202 35.4383 49.2062 35.4425C49.1871 35.4481 49.1673 35.451 49.1473 35.4512C49.1092 35.4504 49.0719 35.4399 49.039 35.4205C49.0061 35.4011 48.9788 35.3737 48.9596 35.3407C48.1223 33.975 47.0413 33.3119 45.6529 33.3119C44.8096 33.3119 43.1638 33.8251 41.3273 35.265C41.2956 35.2964 41.2559 35.3184 41.2125 35.3284C41.1691 35.3385 41.1238 35.3362 41.0817 35.3219C41.0394 35.3076 41.0021 35.2818 40.9738 35.2474C40.9456 35.213 40.9274 35.1714 40.9215 35.1272C40.9215 34.7638 40.9518 34.399 40.979 34.078L40.9811 34.0569L40.9844 34.0253L40.9874 33.9974C40.9962 33.9167 41.0047 33.8382 41.0047 33.7631C41.0214 33.6008 40.9754 33.4383 40.8761 33.3088C39.9116 33.754 37.4558 34.3399 36.5186 34.4353C36.1658 34.5049 35.9947 34.7018 35.9872 34.8683C35.9796 35.0349 36.1295 35.1772 36.4005 35.2574C37.0059 35.4256 37.5837 35.6805 38.1159 36.0145C38.4188 36.2491 38.4188 36.5822 38.4188 36.8275V36.8941C38.452 39.1682 38.446 42.4038 38.3521 44.1283C38.3188 44.8581 38.1038 45.17 37.5315 45.3123C37.1229 45.4204 36.7083 45.5048 36.29 45.5651C36.2183 45.6973 36.1843 45.8465 36.1916 45.9966ZM68.7589 34.6806C68.2125 34.6692 67.6749 34.8205 67.2146 35.1151C66.0911 35.7979 65.5188 37.1621 65.5188 39.1667C65.5188 42.9186 67.3978 45.5394 70.0883 45.5394C70.8097 45.5623 71.5132 45.3131 72.0596 44.8414C72.8862 44.1677 73.3253 42.7899 73.3253 40.8609C73.3253 37.1651 71.4888 34.6806 68.7559 34.6806H68.7589ZM69.2736 46.9308C64.4136 46.9308 62.683 43.3652 62.683 40.0297C62.683 37.6996 63.6353 35.8782 65.5143 34.614C66.8303 33.7992 68.3409 33.3527 69.8884 33.3209C73.5963 33.3209 76.1869 35.9872 76.1869 39.8072C76.1869 42.4023 75.1527 44.4523 73.1951 45.7332C72.2549 46.3085 70.6212 46.9308 69.2736 46.9308ZM116.691 35.1151C117.152 34.8195 117.691 34.6682 118.238 34.6806C120.971 34.6806 122.806 37.1651 122.806 40.8609C122.806 42.7899 122.369 44.1677 121.542 44.8414C120.994 45.3146 120.288 45.5638 119.565 45.5394C116.874 45.5394 114.995 42.9186 114.995 39.1667C114.995 37.1621 115.568 35.7979 116.691 35.1151ZM112.165 40.0312C112.165 43.3652 113.896 46.9308 118.756 46.9308C120.104 46.9308 121.737 46.3085 122.678 45.7317C124.635 44.4523 125.669 42.4038 125.669 39.8057C125.669 35.9887 123.079 33.3209 119.371 33.3209C117.824 33.3521 116.313 33.7987 114.998 34.614C113.118 35.8782 112.165 37.6981 112.165 40.0312ZM101.874 34.5534C100.377 34.5534 99.408 35.7359 99.408 37.5664C99.408 39.3969 100.242 41.5726 102.587 41.5726C102.99 41.5726 103.72 41.3939 104.082 40.9957C104.627 40.4945 104.99 39.4589 104.99 38.3658C104.99 35.9781 103.827 34.5534 101.882 34.5534H101.874ZM101.688 47.1867C101.265 47.1821 100.848 47.2863 100.477 47.4895C99.2914 48.2465 98.7418 49.0035 98.7418 49.8832C98.7418 50.7069 99.0612 51.3624 99.7486 51.9438C100.581 52.6494 101.705 52.9931 103.181 52.9931C106.086 52.9931 107.389 51.4306 107.389 49.8832C107.389 48.8052 106.848 48.083 105.735 47.6742C104.878 47.3608 103.446 47.1882 101.693 47.1882L101.688 47.1867ZM101.886 54.6071C100.142 54.6071 98.8856 54.2392 97.8121 53.4125C96.7674 52.607 96.2981 51.4109 96.2981 50.5842C96.3094 50.0515 96.5126 49.5407 96.8704 49.1459C97.1732 48.8007 97.8773 48.1542 99.5049 47.0353C99.5142 47.0313 99.523 47.0264 99.5312 47.0205C99.5451 47.0106 99.5571 46.9981 99.5667 46.9837C99.574 46.9726 99.5797 46.9605 99.5836 46.9479C99.5877 46.9346 99.5897 46.9206 99.5897 46.9066C99.5902 46.876 99.5802 46.8461 99.5615 46.8219C99.5428 46.7977 99.5164 46.7806 99.4867 46.7733C98.1467 46.2601 97.7425 45.4107 97.6198 44.9565C97.6198 44.9398 97.6198 44.9141 97.6062 44.8853L97.606 44.8845C97.5682 44.7061 97.5324 44.5368 97.7758 44.363C97.9635 44.2297 98.2633 44.0511 98.5843 43.8618C99.0374 43.611 99.472 43.3282 99.8849 43.0155C99.907 42.9916 99.9235 42.963 99.9329 42.9318C99.9424 42.9006 99.9445 42.8677 99.9393 42.8355C99.934 42.8034 99.9215 42.7729 99.9026 42.7463C99.8837 42.7198 99.859 42.6979 99.8304 42.6824C97.847 42.0162 96.8477 40.543 96.8477 38.2916C96.8416 37.5895 97.0049 36.8964 97.3238 36.2709C97.6428 35.6454 98.1079 35.1061 98.6797 34.6987C99.4776 34.0674 101.481 33.3088 102.778 33.3088H102.854C104.181 33.3405 104.933 33.618 105.967 33.9997L105.982 34.0053C106.575 34.2196 107.202 34.3192 107.832 34.299C108.936 34.299 109.419 33.9493 109.834 33.542C109.901 33.7255 109.937 33.9189 109.94 34.1143C109.965 34.5798 109.839 35.041 109.579 35.4285C109.354 35.7419 108.822 35.969 108.336 35.969C108.286 35.969 108.238 35.969 108.185 35.9615C107.929 35.9435 107.676 35.9014 107.428 35.8358L107.304 35.8797C107.265 35.9362 107.289 35.9985 107.32 36.0781L107.32 36.0787L107.322 36.0826L107.326 36.0921C107.328 36.0959 107.33 36.0997 107.331 36.1035C107.335 36.113 107.338 36.1227 107.34 36.1326C107.429 36.5366 107.489 36.9464 107.52 37.3589C107.52 39.7133 106.592 40.7383 105.588 41.4984C104.618 42.2266 103.465 42.6729 102.257 42.7883C102.232 42.7883 102.106 42.7989 101.87 42.8201L101.809 42.8256C101.67 42.8382 101.518 42.8519 101.493 42.8519H101.464C101.246 42.9125 100.677 43.1835 100.677 43.6877C100.677 44.1056 100.934 44.6249 102.165 44.7188L102.961 44.7748L102.981 44.7761C104.601 44.8895 106.616 45.0304 107.566 45.3516C108.198 45.5741 108.745 45.9905 109.127 46.5415C109.51 47.0925 109.709 47.75 109.696 48.4206C109.696 50.5327 108.194 52.5192 105.679 53.7335C104.493 54.2999 103.195 54.5913 101.88 54.5859L101.886 54.6071ZM92.6023 45.0367C93.2155 45.3244 93.7348 45.4213 94.4464 45.5167L94.4524 45.5152C94.5812 45.7347 94.516 46.5705 94.3223 46.7945C94.1705 46.7945 93.9422 46.7838 93.6388 46.7696C93.0373 46.7413 92.1405 46.6992 90.958 46.6992C90.1573 46.6992 89.4974 46.7296 88.9231 46.7561C88.4809 46.7765 88.0896 46.7945 87.724 46.7945C87.5938 46.6023 87.5302 45.7074 87.724 45.5152C88.3387 45.4516 88.8565 45.3547 89.0503 45.2593C89.4712 45.1321 89.5666 44.8429 89.5666 43.6907C89.5666 43.3332 89.5675 42.9662 89.5685 42.5973C89.5732 40.7929 89.578 38.9429 89.4712 37.9373C89.4053 37.2383 89.0737 36.5912 88.5446 36.1295C88.0904 35.7465 87.4848 35.4588 86.5763 35.4588C85.6391 35.4588 84.5702 35.8419 83.9237 36.4172C83.7299 36.5822 83.5694 36.8714 83.5694 37.477C83.5694 39.6527 83.5694 42.8504 83.633 44.3554C83.6648 44.9292 83.7951 45.1866 84.3113 45.3138C84.7465 45.4214 85.1913 45.4858 85.6391 45.5061C85.7678 45.6984 85.7043 46.5614 85.5089 46.7855C85.345 46.7855 85.1258 46.7746 84.8355 46.7602C84.2652 46.7319 83.42 46.6901 82.178 46.6901C81.262 46.6901 80.2188 46.7332 79.5349 46.7614C79.2014 46.7752 78.9533 46.7855 78.8471 46.7855C78.6851 46.5932 78.6851 45.6651 78.8471 45.5061C79.2505 45.4556 79.6504 45.3808 80.0447 45.282L79.9962 45.2986C80.514 45.17 80.7094 44.9141 80.7411 44.21C80.8381 42.4189 80.8381 39.1243 80.8063 36.9819C80.8063 36.9594 80.8065 36.9363 80.8067 36.9128C80.8094 36.6704 80.8124 36.3868 80.5474 36.1825C80.0308 35.8587 79.4697 35.6118 78.8819 35.4497H78.8713C78.137 35.2211 78.3111 34.5594 78.9985 34.4262C79.9418 34.3339 82.4899 33.7282 83.3984 33.274C83.4775 33.3495 83.538 33.4425 83.5748 33.5456C83.6116 33.6487 83.6238 33.7589 83.6103 33.8675L83.6057 33.9291C83.5753 34.338 83.5314 34.9306 83.5271 35.2302C83.5225 35.5451 83.736 35.3422 83.7693 35.3104C85.1592 34.1264 86.8413 33.2634 88.1025 33.2634C89.5257 33.2634 90.6249 33.9023 91.4016 34.991C92.0527 35.9524 92.3101 37.2923 92.3101 38.8291C92.3101 40.7126 92.3101 43.5908 92.3752 44.5825C92.4027 44.7536 92.482 44.9121 92.6023 45.0367Z" fill="#FF6C5C"/>
</svg>
