<svg width="170" height="68" viewBox="0 0 170 68" fill="none" xmlns="http://www.w3.org/2000/svg">
<path fill-rule="evenodd" clip-rule="evenodd" d="M148.437 46.9655H132.098V12.4806H137.596V42.7366H148.437V46.9655ZM107.301 40.0839C105.909 37.8349 105.21 34.2403 105.21 29.2425C105.21 20.554 107.843 16.2097 113.091 16.2097C115.844 16.2097 117.858 17.2477 119.165 19.3237C120.557 21.5727 121.257 25.1673 121.257 30.0498C121.257 38.8152 118.623 43.1979 113.375 43.1979C110.623 43.1979 108.608 42.1599 107.301 40.08V40.0839ZM127.792 47.8074L121.487 44.6819C122.049 44.2205 122.587 43.7208 123.067 43.1402C125.751 39.9762 127.104 35.2975 127.104 29.1079C127.104 17.6898 122.644 12 113.687 12C109.304 12 105.882 13.4455 103.46 16.3443C100.773 19.5121 99.4238 24.187 99.4238 30.3381C99.4238 36.4124 100.612 40.8336 102.991 43.6785C105.16 46.2312 108.451 47.5114 112.833 47.5114C114.471 47.5114 115.97 47.3092 117.331 46.904L125.559 51.7096L127.804 47.8266L127.792 47.8074ZM97.0479 37.4466C97.0479 40.3722 95.9753 42.7904 93.8378 44.6357C91.7002 46.508 88.8399 47.4422 85.2261 47.4422C81.8622 47.4422 78.6136 46.3619 75.4227 44.2205L76.899 41.2564C79.6171 42.6174 82.089 43.2979 84.2804 43.2979C86.3526 43.2979 87.9749 42.8365 89.1629 41.9215C90.3316 41.0027 91.0351 39.7187 91.0351 38.0924C91.0351 36.0433 89.6088 34.2941 86.9984 32.8255C84.5841 31.4992 79.7708 28.7119 79.7708 28.7119C77.1566 26.8012 75.8495 24.7521 75.8495 21.369C75.8495 18.574 76.826 16.3327 78.779 14.6027C80.7358 12.8804 83.2385 12.0192 86.3526 12.0192C89.5473 12.0192 92.4653 12.8727 95.0795 14.5758L93.7493 17.536C91.5118 16.5865 89.2897 16.1059 87.1368 16.1059C85.3722 16.1059 84.0113 16.5326 83.0617 17.3861C82.1083 18.2319 81.5201 19.3237 81.5201 20.6539C81.5201 22.6953 82.9771 24.4676 85.6721 25.9593C88.1133 27.2895 93.0535 30.1113 93.0535 30.1113C95.7408 32.0182 97.0902 34.0711 97.0902 37.4158L97.0479 37.4466ZM71.5475 21.5151C69.2024 34.2787 66.1268 43.5439 62.2823 49.3106C59.2913 53.7702 56.0159 56 52.4405 56C51.4909 56 50.3183 55.7128 48.9266 55.1427V52.0671C49.6071 52.1671 50.4029 52.2201 51.3218 52.2201C52.9864 52.2201 54.3281 51.7588 55.3584 50.84C56.581 49.7174 57.1923 48.4564 57.1923 47.0608C57.1923 46.1074 56.7155 44.1467 55.766 41.1788L49.461 21.4951H55.1124L59.6489 36.2194C60.6677 39.5603 61.0944 41.9092 60.9214 43.2164C63.4011 36.5654 65.1503 29.3378 66.1114 21.4951H71.5706L71.5475 21.5151ZM46.5534 46.9455H40.8148C40.6122 37.219 40.0498 28.0307 39.1348 19.4575H39.084L30.3186 46.9455H25.9359L17.209 19.4575H17.1574C16.5116 27.6847 16.1041 36.873 15.9349 46.9455H10.668C11.0071 34.6816 11.8559 23.1866 13.213 12.4606H20.3637L28.6678 37.7956H28.7189L37.0614 12.4606H43.9046C45.4001 25.032 46.2843 36.527 46.5534 46.9455ZM152.424 46.9655H151.513L151.509 43.4555H150.271V42.7404H153.616V43.4555H152.424V46.9655ZM159.332 46.9655H158.475V43.7477L157.275 46.9655H156.656L155.457 43.7477H155.411V46.9655H154.596V42.7366H155.841L156.987 45.6161L158.041 42.7366H159.332V46.9655Z" fill="#FF6C5C"/>
</svg>
