<svg width="92" height="68" viewBox="0 0 92 68" fill="none" xmlns="http://www.w3.org/2000/svg">
<path fill-rule="evenodd" clip-rule="evenodd" d="M25.0811 25.9837C25.339 26.1323 25.4966 26.4068 25.4966 26.7056L25.4832 37.3642C25.4832 37.5119 25.4033 37.65 25.2773 37.7231C25.1495 37.7994 24.9899 37.7994 24.8616 37.7231L20.7748 35.3828C20.5179 35.2302 20.3583 34.9573 20.3583 34.6618V29.682C20.3583 29.3848 20.2001 29.1103 19.9425 28.9625L18.2024 27.9602C18.0767 27.8853 17.9315 27.8486 17.7892 27.8486C17.6447 27.8486 17.5027 27.8856 17.3735 27.9603L15.6325 28.963C15.3751 29.1108 15.2176 29.3853 15.2176 29.6825V34.6626C15.2176 34.9585 15.06 35.23 14.8018 35.3836L10.7125 37.7255C10.5858 37.8035 10.4266 37.8035 10.3 37.7255C10.17 37.6524 10.0937 37.5144 10.0937 37.3666L10.0786 26.7064C10.0786 26.4076 10.2384 26.1331 10.4947 25.9837L17.3731 22.0259C17.4912 21.9577 17.6213 21.922 17.7532 21.9171H17.8243C17.9562 21.922 18.0862 21.9577 18.2024 22.0259L25.0811 25.9837ZM57.8519 32.4355C57.9164 32.3988 57.9558 32.3301 57.9558 32.2559L57.955 29.5282C57.955 29.4538 57.916 29.3853 57.8511 29.3479L55.4881 27.9837C55.4232 27.9464 55.3436 27.9464 55.2786 27.9837L52.9173 29.3479C52.8539 29.3853 52.815 29.4538 52.815 29.5282V32.2559C52.815 32.33 52.8539 32.3987 52.9189 32.4355L55.2819 33.7974C55.3459 33.8343 55.4251 33.8343 55.4893 33.7974L57.8519 32.4355ZM58.1809 12.057C58.3083 11.9828 58.4651 11.9808 58.5941 12.0526L62.6875 14.3374C62.9506 14.4847 63.1146 14.762 63.1146 15.0634V34.8636C63.1146 35.1608 62.9554 35.4337 62.6988 35.5831L55.8178 39.5587C55.5601 39.7065 55.2437 39.7065 54.9868 39.5587L48.1057 35.5847C47.8487 35.4353 47.69 35.1624 47.69 34.8652V26.9205C47.69 26.6249 47.8487 26.3504 48.1057 26.2026L54.9868 22.2314C55.2444 22.083 55.5604 22.083 55.817 22.2314L57.5401 23.2238C57.6302 23.2758 57.7415 23.2758 57.8308 23.2238C57.9208 23.1719 57.976 23.0761 57.976 22.9721V12.4159C57.976 12.2681 58.0543 12.1317 58.1809 12.057ZM81.9211 28.7383C81.9211 29.0338 81.7637 29.308 81.5081 29.4564L77.3808 31.8536C77.2525 31.9283 77.0933 31.9283 76.965 31.8553C76.8367 31.7806 76.7571 31.6425 76.7571 31.4947V29.5361C76.7571 29.3884 76.6776 29.2503 76.5493 29.1772L74.3942 27.9348C74.2659 27.8601 74.1083 27.8601 73.98 27.9348L71.8266 29.1772C71.6967 29.2513 71.6187 29.3884 71.6187 29.5371V32.0284C71.6187 32.1762 71.6983 32.3142 71.8282 32.3873L78.7498 36.3597C78.8798 36.4328 78.9593 36.5724 78.9593 36.7218C78.9593 36.8713 78.8765 37.0093 78.7466 37.0824L74.6118 39.3804C74.3568 39.5217 74.0483 39.5201 73.7965 39.3755L66.961 35.4795C66.7027 35.3317 66.542 35.0556 66.542 34.7568V26.8152C66.542 26.518 66.6995 26.2452 66.9577 26.0958L73.8371 22.125C74.0953 21.9756 74.412 21.9756 74.6702 22.125L81.5074 26.0942C81.7636 26.2432 81.9211 26.5166 81.9211 26.8128V28.7383ZM45.5877 56C45.3506 56 45.1151 55.9378 44.9072 55.8181L42.7412 54.5358C42.4177 54.3549 42.5756 54.2909 42.6823 54.254C43.1136 54.103 43.2012 54.0689 43.6616 53.8074C43.71 53.7798 43.7733 53.7895 43.8228 53.8188L45.4868 54.8062C45.5469 54.8387 45.6322 54.8387 45.6879 54.8062L52.1759 51.0611C52.236 51.027 52.275 50.9572 52.275 50.8857V43.3989C52.275 43.3242 52.236 43.2577 52.1746 43.2203L45.6892 39.4785C45.6291 39.4428 45.5495 39.4428 45.4894 39.4785L39.0053 43.2203C38.9424 43.256 38.9025 43.3259 38.9025 43.3973V50.8841C38.9025 50.9556 38.9415 51.0238 39.0032 51.0579L40.7799 52.0843C41.7446 52.5666 42.3341 51.9982 42.3341 51.4266V44.0372C42.3341 43.9316 42.4169 43.8504 42.5225 43.8504H43.3442C43.4465 43.8504 43.531 43.9316 43.531 44.0372V51.4298C43.531 52.716 42.8294 53.455 41.6098 53.455C41.2346 53.455 40.939 53.455 40.114 53.049L38.412 52.068C37.9914 51.8244 37.7316 51.3697 37.7316 50.8841V43.3973C37.7316 42.9101 37.9914 42.4554 38.412 42.215L44.9066 38.4684C45.3174 38.2361 45.8631 38.2361 46.2707 38.4684L52.7571 42.2166C53.1761 42.4586 53.4376 42.9117 53.4376 43.3989V50.8857C53.4376 51.3713 53.1761 51.8244 52.7571 52.068L46.2707 55.8147C46.0629 55.9349 45.8274 55.9966 45.587 55.9966L45.5877 56ZM47.5918 50.8411C44.7529 50.8411 44.1577 49.538 44.1577 48.445C44.1577 48.341 44.2415 48.2582 44.3456 48.2582H45.1836C45.2762 48.2582 45.3542 48.3256 45.3688 48.417C45.4955 49.271 45.8722 49.7017 47.5888 49.7017C48.9563 49.7017 49.5377 49.3928 49.5377 48.6676C49.5377 48.2503 49.372 47.9401 47.2478 47.7322C45.4711 47.5568 44.3732 47.1654 44.3732 45.7444C44.3732 44.4354 45.4776 43.6559 47.3274 43.6559C49.4045 43.6559 50.4342 44.3769 50.5641 45.9263C50.5689 45.9799 50.5495 46.0318 50.5137 46.0708C50.478 46.1082 50.4277 46.1309 50.3757 46.1309H49.5328C49.4451 46.1309 49.3688 46.0692 49.3509 45.9847C49.1479 45.0866 48.6575 44.7992 47.3241 44.7992C45.8316 44.7992 45.6579 45.3189 45.6579 45.7086C45.6579 46.1812 45.8625 46.3193 47.8763 46.5856C49.8706 46.8503 50.8174 47.2239 50.8174 48.6254C50.8174 50.0383 49.6384 50.8487 47.5823 50.8487L47.5918 50.8411ZM55.4849 42.9088H55.7025C55.8812 42.9088 55.9153 42.7838 55.9153 42.7107C55.9153 42.519 55.7837 42.519 55.7106 42.519H55.4865L55.4849 42.9088ZM55.2202 42.2949H55.7025C55.8682 42.2949 56.193 42.2949 56.193 42.6652C56.193 42.9227 56.0282 42.9767 55.9291 43.0092L55.9283 43.0095C56.1163 43.0221 56.1337 43.1424 56.1584 43.3134L56.1605 43.3278L56.162 43.3406L56.162 43.3406C56.1751 43.4541 56.1961 43.6355 56.2336 43.6981H55.9364L55.9308 43.6537C55.9161 43.5372 55.8828 43.273 55.8828 43.2564C55.8633 43.1768 55.8357 43.1378 55.7366 43.1378H55.4914V43.6997H55.2202V42.2949ZM54.6404 42.9933C54.6404 43.5747 55.1098 44.0456 55.6863 44.0456C56.2677 44.0456 56.737 43.5649 56.737 42.9933C56.737 42.4102 56.2612 41.9474 55.6847 41.9474C55.1162 41.9474 54.6388 42.4037 54.6388 42.9916L54.6404 42.9933ZM56.9384 42.9965C56.9384 43.6851 56.3749 44.247 55.6879 44.247C55.0058 44.247 54.4374 43.6916 54.4374 42.9965C54.4374 42.2884 55.0188 41.746 55.6879 41.746C56.3619 41.746 56.9368 42.29 56.9368 42.9965H56.9384ZM74.153 29.0849C74.2017 29.0561 74.2628 29.0561 74.3122 29.0849L75.6325 29.8465C75.6819 29.8751 75.7121 29.9277 75.7121 29.9846V31.5095C75.7121 31.5664 75.6819 31.619 75.6325 31.6476L74.3122 32.4093C74.2628 32.438 74.2017 32.438 74.153 32.4093L72.8335 31.6476C72.7831 31.619 72.7523 31.5664 72.7523 31.5095V29.9846C72.7523 29.9277 72.7815 29.8751 72.8319 29.8465L74.153 29.0849ZM29.3387 26.1138L36.1808 22.1647H36.179C36.3073 22.0911 36.4502 22.0542 36.5931 22.0542C36.736 22.0542 36.879 22.0911 37.0072 22.1647L43.8477 26.1138C44.1043 26.2616 44.2618 26.5345 44.2618 26.8294V34.7333C44.2618 35.0282 44.1043 35.301 43.8493 35.4488L37.0079 39.4011C36.7524 39.5484 36.4371 39.5484 36.1813 39.4011L29.3387 35.4488C29.0824 35.301 28.9252 35.0283 28.9252 34.7333V26.8294C28.9252 26.5345 29.0824 26.2616 29.3387 26.1138Z" fill="#FF6C5C"/>
</svg>
