<svg width="68" height="68" viewBox="0 0 68 68" fill="none" xmlns="http://www.w3.org/2000/svg">
<path fill-rule="evenodd" clip-rule="evenodd" d="M59.5962 46.7895C59.5223 47.2319 59.3557 47.6536 59.1072 48.0272L59.1077 48.0279C59.1515 48.0962 59.1933 48.1674 59.2313 48.2412C59.6461 49.028 59.6726 49.9174 59.3065 50.7458C58.7505 52.0016 57.3728 52.9907 54.6944 54.0522C53.081 54.6924 51.5995 55.1085 51.4977 55.1371L51.4923 55.1387C49.2906 55.7098 47.2988 56 45.5746 56C42.72 56 40.5944 55.2121 39.2472 53.6562C36.9685 54.0442 34.6416 54.0574 32.359 53.6952C31.0111 55.2255 28.8986 56 26.0663 56C24.3437 56 22.3509 55.7098 20.1486 55.1387L20.1368 55.1353C19.9913 55.0941 18.5324 54.6814 16.9465 54.0522C14.2682 52.9902 12.8892 52.0011 12.3344 50.7458C11.9683 49.9177 11.9951 49.0283 12.4097 48.2412C12.4479 48.1682 12.4886 48.0967 12.533 48.0279C12.2844 47.6546 12.1176 47.2326 12.0436 46.7903C11.9696 46.3477 11.99 45.8944 12.1036 45.4605C12.2682 44.8342 12.6088 44.3135 13.071 43.9394C12.8484 43.5735 12.7023 43.1664 12.6416 42.7424C12.5085 41.8195 12.8148 40.8984 13.5029 40.1485C14.0388 39.5644 14.7967 39.2429 15.6357 39.2429H15.658C15.0253 37.2149 14.7045 35.1018 14.7066 32.9777C14.7066 21.3904 24.0995 12 35.6842 12C47.269 12 56.6619 21.3929 56.6619 32.9777C56.6639 35.1075 56.3415 37.2253 55.7057 39.2578C55.8071 39.2476 55.906 39.2427 56.0036 39.2427C56.8427 39.2427 57.6007 39.5641 58.1366 40.1482C58.8252 40.8996 59.1311 41.8203 58.998 42.7422C58.9371 43.1662 58.791 43.5733 58.5686 43.9391C59.0307 44.3132 59.3713 44.834 59.5361 45.46C59.6496 45.8939 59.6702 46.3469 59.5962 46.7895ZM31.032 51.8933C31.1645 51.7005 31.2889 51.5021 31.405 51.2988L31.409 51.2981C32.4895 49.4016 32.2306 47.8797 30.3757 46.0257C28.331 43.9828 27.1413 40.9942 27.1413 40.9942C27.1413 40.9942 26.7351 39.408 25.8148 39.408C25.7713 39.4083 25.7276 39.4117 25.6844 39.4184C24.6724 39.5773 23.9282 42.1705 26.0488 43.7574C27.4597 44.8119 26.8071 45.6417 25.9723 45.6417C25.5516 45.6417 25.0847 45.4307 24.8111 44.9313C23.9945 43.4419 21.7654 39.6123 20.6111 38.8795C20.239 38.6435 19.9019 38.5261 19.6259 38.5261C19.0449 38.5261 18.7308 39.0441 18.9153 40.0673C19.0508 40.8162 20.3079 42.0944 21.4826 43.289L21.4832 43.2895C22.6759 44.5022 23.7837 45.6286 23.5471 46.0272C23.4596 46.1759 23.3305 46.2357 23.1781 46.2357C22.516 46.2357 21.4214 45.0974 21.4214 45.0974C21.4214 45.0974 21.3811 45.061 21.3068 44.9951C21.2377 44.9338 21.1391 44.8469 21.0163 44.7399C20.1499 43.9918 18.0812 42.2743 16.5879 41.6445C16.2344 41.4958 15.9134 41.407 15.6481 41.407C15.4244 41.407 15.2405 41.4698 15.1106 41.6118C14.0703 42.7435 15.6731 43.7057 18.1417 45.188L18.2922 45.2784C18.4562 45.3769 18.6237 45.4777 18.7944 45.5809L19.0412 45.7311C21.6108 47.3051 21.8258 47.7554 21.4509 48.3747L21.4405 48.3918C21.4166 48.4296 21.3727 48.4474 21.3114 48.4474C20.9864 48.4474 20.1619 47.9525 19.1834 47.3651C17.7553 46.5079 15.9991 45.4537 14.9891 45.4538C14.5946 45.4538 14.3144 45.6139 14.2108 46.0086C13.8913 47.2254 15.8155 47.9712 17.5611 48.6476C19.0156 49.2113 20.3462 49.727 20.151 50.4271C20.0861 50.6606 19.9273 50.7567 19.7023 50.7567C19.2293 50.7567 18.4618 50.3342 17.6473 49.8859C16.7267 49.3792 15.7462 48.8394 15.0631 48.8394C14.7443 48.8394 14.4909 48.9561 14.3369 49.248C13.4235 50.9856 20.6456 53.0257 20.7039 53.0409C21.8905 53.3492 24.0109 53.833 26.0781 53.833C27.3863 53.833 28.6743 53.6389 29.6923 53.0841C30.2245 52.7939 30.6832 52.4039 31.032 51.8933ZM37.9093 51.6615L38.0153 51.6488L38.0168 51.6501C36.8993 49.1306 37.4782 46.7769 39.7688 44.4937C41.2733 42.9894 42.2737 40.773 42.4819 40.2862C42.9014 38.8448 44.0138 37.243 45.8604 37.243C46.0165 37.2432 46.1724 37.2556 46.3264 37.2797C47.1345 37.407 47.8414 37.8725 48.3466 38.5732C48.892 37.8953 49.4214 37.3562 49.9007 37.0518C50.6228 36.5939 51.3442 36.3618 52.0459 36.3618C52.8193 36.3618 53.5203 36.642 54.0498 37.1566L54.0627 37.0997L54.0782 37.0305C54.1146 36.8617 54.1491 36.6926 54.1821 36.5231C54.1896 36.485 54.1968 36.4469 54.2038 36.4088C54.2124 36.3617 54.2208 36.3146 54.229 36.2674C54.2315 36.253 54.2339 36.2387 54.2362 36.2244C54.241 36.1959 54.2458 36.1675 54.2514 36.1391C54.2596 36.0962 54.2665 36.0535 54.2735 36.0105L54.2938 35.8814L54.3112 35.7678C54.3181 35.7196 54.3253 35.6714 54.3321 35.623C54.3383 35.5798 54.3443 35.5367 54.3497 35.4932L54.3653 35.3746L54.378 35.2735L54.3865 35.1981L54.4112 34.9719C54.4147 34.9397 54.4181 34.9073 54.4213 34.8749L54.4244 34.8421V34.8389C54.4465 34.6083 54.4646 34.3772 54.4785 34.1461L54.4845 34.0485L54.4909 33.9254L54.4925 33.8981L54.4951 33.8363L54.5026 33.6509V33.6476L54.5041 33.6111L54.5054 33.5749C54.5058 33.5612 54.5061 33.5476 54.5061 33.534C54.5073 33.5049 54.5086 33.4751 54.5086 33.4451L54.5091 33.4253C54.51 33.3983 54.5108 33.3717 54.5108 33.3446C54.5118 33.3043 54.5127 33.2636 54.5127 33.2232V32.9802C54.5127 22.5919 46.0904 14.1695 35.6996 14.1695C25.3088 14.1695 16.8865 22.5919 16.8865 32.9802L16.8862 33.0208C16.886 33.0479 16.8857 33.0749 16.8865 33.102L16.8872 33.142L16.8873 33.1747L16.8874 33.2053L16.8875 33.2232L16.8895 33.3446L16.8905 33.3858L16.8908 33.394C16.8914 33.4161 16.892 33.4382 16.892 33.4602L16.8947 33.5565L16.8984 33.6702L16.8999 33.7075L16.9049 33.8303C16.9061 33.8621 16.9077 33.8937 16.9094 33.9252L16.9118 33.9711L16.9139 34.0133C16.9157 34.0461 16.9174 34.079 16.9195 34.1118L16.9277 34.2414C16.9282 34.2484 16.9291 34.256 16.9291 34.2635C16.9312 34.296 16.9334 34.3283 16.9359 34.3603L16.9446 34.4772C16.9606 34.6793 16.9798 34.8811 17.0022 35.0826L17.0036 35.0938L17.0112 35.1596L17.0188 35.2249L17.0256 35.2823L17.0357 35.3629C17.0394 35.3942 17.0436 35.4255 17.0478 35.4568L17.0536 35.5004L17.0615 35.5597L17.0724 35.6379C17.0803 35.693 17.0884 35.7484 17.0968 35.8035L17.1122 35.9055C17.1136 35.9085 17.1136 35.9115 17.1136 35.9147C17.1841 36.3655 17.2714 36.8138 17.3752 37.2581L17.3765 37.2636L17.4072 37.3929L17.421 37.3763C17.967 36.7234 18.7507 36.3635 19.6269 36.3635C20.3294 36.3635 21.05 36.5958 21.7723 37.0536C22.2515 37.3581 22.7814 37.897 23.3263 38.575C23.8307 37.8745 24.5376 37.4088 25.3465 37.2817C25.5007 37.2574 25.6563 37.245 25.8125 37.2447C27.659 37.2447 28.7709 38.847 29.1909 40.288C29.3969 40.7745 30.3983 42.9917 31.9015 44.4929C34.1938 46.7816 34.7676 49.1447 33.6332 51.6766H33.6369C33.7146 51.6853 33.7922 51.6933 33.8699 51.7005L34.0092 51.7134L34.1283 51.7235L34.2227 51.731C34.2678 51.7345 34.313 51.7378 34.3581 51.741L34.426 51.7457L34.493 51.7501L34.5648 51.7543L34.5876 51.7557L34.6261 51.7579L34.6568 51.7595L34.7678 51.7655L34.7981 51.7667L34.9145 51.7717L35.0441 51.7767L35.148 51.7799C35.1758 51.7806 35.2039 51.7821 35.2317 51.7821L35.33 51.7844C35.3936 51.7855 35.4571 51.7864 35.5207 51.787C35.5786 51.7876 35.6366 51.7878 35.6947 51.7878H35.8501L35.9611 51.7866C35.9884 51.7851 36.0154 51.7851 36.0427 51.7851H36.0862L36.0976 51.7849L36.1345 51.7839C36.1455 51.7836 36.1567 51.7834 36.1678 51.7834H36.2119L36.2993 51.7809L36.4305 51.7764L36.5747 51.7705L36.6987 51.7643L36.7432 51.762L36.8479 51.7558L36.8772 51.7541L37.0102 51.7451C37.0438 51.7431 37.0773 51.7406 37.1108 51.7381L37.1435 51.7357L37.2644 51.726L37.3494 51.7188L37.4427 51.7104L37.5032 51.7047L37.5959 51.6956L37.7284 51.6823L37.9093 51.6615ZM57.4292 46.6046L57.4366 46.5833C57.4989 46.3981 57.5042 46.199 57.4515 46.0108L57.451 46.0093C57.4459 45.9917 57.4409 45.975 57.4355 45.9582L57.4295 45.9396C57.4215 45.916 57.4131 45.8942 57.4038 45.8731C57.3885 45.8363 57.3696 45.8013 57.3478 45.7681L57.3406 45.7564L57.3336 45.7457C57.2745 45.6603 57.1954 45.5911 57.1027 45.5442L57.0881 45.5366L57.0784 45.5319L57.0634 45.5252C57.0549 45.5215 57.0461 45.5181 57.0372 45.5149C57.0089 45.5035 56.9797 45.4943 56.9498 45.4871H56.9461C56.9258 45.4819 56.9057 45.4774 56.8833 45.4734H56.8814C56.8124 45.4615 56.7426 45.4558 56.6726 45.4563C56.3494 45.4563 55.95 45.5643 55.5097 45.7388L55.4995 45.7428L55.4163 45.7765C55.2646 45.8398 55.1145 45.9066 54.9658 45.9771C54.8891 46.0138 54.8114 46.0516 54.7329 46.0903L54.615 46.1501C54.3521 46.2844 54.092 46.4246 53.8354 46.5706C53.792 46.5949 53.7488 46.6194 53.7056 46.6441L53.6547 46.6734L53.534 46.7503C53.4739 46.7851 53.4138 46.8198 53.3543 46.8548C53.057 47.0287 52.764 47.2046 52.4835 47.373L52.4771 47.3769L52.4704 47.381C52.1537 47.5712 51.8533 47.7515 51.581 47.9083L51.5023 47.9527L51.4709 47.9707C51.4387 47.9893 51.4069 48.0076 51.3757 48.0245L51.3173 48.0567L51.1985 48.1215L51.1282 48.1588C50.7373 48.3653 50.4428 48.4839 50.2996 48.4517L50.292 48.4496L50.2817 48.4464L50.2725 48.4427L50.2658 48.4397L50.2579 48.4352L50.2517 48.4311L50.245 48.4258L50.239 48.4204L50.2334 48.4144C50.2297 48.4102 50.2263 48.406 50.2234 48.4013L50.2062 48.373L50.1899 48.3447L50.1743 48.3166C50.1688 48.3066 50.1634 48.2965 50.1583 48.2863L50.152 48.2738C50.1496 48.269 50.1474 48.2642 50.1451 48.2593L50.139 48.2462L50.1335 48.2337C50.1319 48.2303 50.1304 48.2267 50.1289 48.2232L50.1246 48.2134C50.1239 48.2114 50.1221 48.2091 50.1221 48.2072C50.111 48.1801 50.1012 48.1523 50.0933 48.1242C50.0914 48.1177 50.0897 48.1109 50.0882 48.1044L50.0861 48.0967C50.0839 48.088 50.0821 48.0793 50.0805 48.0706V48.0694L50.0757 48.0421C50.075 48.0354 50.0732 48.0289 50.0732 48.0225C50.0729 48.0196 50.0725 48.0166 50.0723 48.0137L50.072 48.0106C50.0705 48.0039 50.0705 47.9972 50.0705 47.9907V47.9128L50.0717 47.8981L50.0737 47.883L50.0762 47.8663C50.0811 47.8353 50.0887 47.8048 50.0988 47.7752L50.1011 47.767L50.1045 47.7573L50.106 47.7529L50.1117 47.7378L50.116 47.7268L50.1211 47.7142L50.1296 47.6961C50.1381 47.6779 50.1472 47.66 50.1567 47.6423C50.1744 47.6096 50.1938 47.5778 50.2147 47.5471L50.2271 47.5292C50.2414 47.5093 50.2565 47.489 50.2728 47.4684C50.2885 47.4483 50.3054 47.4279 50.3235 47.4071L50.3398 47.3883C50.3734 47.3508 50.4078 47.3143 50.4433 47.2788L50.4595 47.2629C50.4712 47.252 50.4818 47.2408 50.4935 47.2299L50.5199 47.2047L50.5449 47.1817L50.5756 47.1534L50.6119 47.1212C50.6278 47.1073 50.6441 47.0932 50.6607 47.0789C50.6999 47.0454 50.7415 47.0109 50.7853 46.9757L50.8311 46.9392C50.8661 46.9117 50.9024 46.8834 50.9398 46.8551L50.973 46.8297L51.0242 46.7918C51.0525 46.7709 51.081 46.7501 51.1096 46.7294C51.1601 46.6928 51.2108 46.6565 51.2618 46.6207L51.3233 46.5778L51.3901 46.5314L51.4469 46.4927C51.4816 46.4688 51.5174 46.4447 51.5542 46.4202L51.5889 46.3981C51.6247 46.374 51.6604 46.3504 51.6964 46.3268L51.7704 46.2782C51.8078 46.2536 51.846 46.2288 51.8853 46.2037C51.9372 46.17 51.9905 46.1357 52.0454 46.101L52.1839 46.0121L52.2571 45.9659C52.3373 45.9159 52.4203 45.8644 52.5061 45.8115L52.6139 45.7452L52.7203 45.6802L52.8698 45.5894C53.0824 45.4607 53.2902 45.3359 53.4922 45.2145L53.5048 45.2069L53.5104 45.2034C53.8504 44.9993 54.1738 44.8049 54.4768 44.6185C54.5071 44.6001 54.5372 44.5816 54.5671 44.5631L54.6339 44.5217C54.8137 44.4105 54.9916 44.2971 55.1684 44.1812C55.2632 44.1189 55.355 44.0575 55.4438 43.9967C55.5948 43.8932 55.743 43.786 55.8885 43.6748C55.9306 43.6425 55.9714 43.6102 56.0108 43.5785C56.016 43.574 56.0213 43.5696 56.0265 43.5653L56.0406 43.5541C56.0972 43.508 56.153 43.4608 56.2077 43.4124L56.2339 43.3886C56.2514 43.3729 56.2685 43.3573 56.2851 43.3417C56.3375 43.2933 56.3884 43.2429 56.4372 43.191L56.4596 43.1674C56.5636 43.0577 56.655 42.9368 56.7324 42.807L56.7528 42.7702C56.7833 42.7127 56.8091 42.6526 56.8302 42.5908C56.8791 42.4488 56.8878 42.2959 56.8555 42.1492C56.8438 42.0965 56.8273 42.0452 56.8061 41.9955L56.7965 41.9734C56.7344 41.8429 56.652 41.723 56.5525 41.6182L56.54 41.6051L56.5273 41.5926L56.5209 41.5862C56.4487 41.5197 56.3616 41.4715 56.2667 41.4459L56.2573 41.4434L56.2458 41.4402L56.2328 41.437H56.2288C56.2174 41.4343 56.2055 41.4325 56.1938 41.4301C56.1821 41.4276 56.17 41.4256 56.158 41.4243H56.153L56.1469 41.4234C56.137 41.4219 56.127 41.4204 56.1168 41.4204C56.0902 41.4176 56.0634 41.4159 56.0356 41.4159H56.0147C55.9874 41.4159 55.9599 41.4167 55.9326 41.4186C55.8894 41.4216 55.8463 41.4261 55.8033 41.4325L55.7784 41.4363L55.7589 41.4395C55.7351 41.4435 55.711 41.4481 55.6866 41.4532L55.6596 41.4591L55.6231 41.4675H55.6206C55.6046 41.4713 55.5886 41.4753 55.5727 41.4795C55.5573 41.4835 55.5419 41.4877 55.5265 41.4921L55.522 41.4934C55.5066 41.4973 55.4913 41.5018 55.4759 41.5065L55.4662 41.5095C55.4374 41.5184 55.4079 41.5279 55.3773 41.538L55.3639 41.5428C55.3347 41.5532 55.3053 41.5637 55.2753 41.5738C55.2408 41.5857 55.206 41.5991 55.1711 41.6137L55.1432 41.6256L55.118 41.6361C54.9874 41.6897 54.8591 41.7483 54.7329 41.8116L54.6778 41.8396L54.6208 41.8689C54.5828 41.8885 54.5443 41.9086 54.5061 41.9295L54.4137 41.9799L54.3904 41.993C54.3517 42.0149 54.313 42.037 54.2739 42.0596L54.1551 42.1288L54.0957 42.1641L54.0475 42.1932L53.9881 42.2295L53.917 42.2733L53.8572 42.3105L53.7968 42.3485C53.7343 42.3881 53.6722 42.4281 53.6103 42.4687C53.5519 42.5069 53.4937 42.5455 53.4357 42.5846L53.3754 42.6255C53.3379 42.6508 53.3003 42.6764 53.2629 42.7022L53.1755 42.7625L53.08 42.8288C52.8579 42.9859 52.6382 43.147 52.4252 43.3079L52.3545 43.3613C52.3128 43.393 52.2711 43.4248 52.2295 43.4567L52.1462 43.5209L52.0979 43.5575C52.0767 43.5737 52.0559 43.59 52.0352 43.6063C51.9449 43.6773 51.8555 43.748 51.7686 43.817L51.6666 43.8989C51.5112 44.024 51.3642 44.1444 51.2277 44.2576L51.1235 44.345L51.0212 44.4306L50.9594 44.4828C50.8087 44.6106 50.6772 44.724 50.5692 44.8181L50.5417 44.8422L50.4892 44.8879L50.4537 44.9189L50.4413 44.9301L50.4357 44.935L50.4017 44.9648C50.3862 44.9795 50.3711 44.9931 50.3572 45.005L50.3289 45.0306L50.2785 45.075L50.269 45.0835L50.2656 45.0867L50.2593 45.0921L50.2549 45.0964L50.246 45.1043L50.244 45.1063C50.2202 45.1304 50.2202 45.1304 50.1963 45.1542L50.1936 45.1569L50.1839 45.1669L50.1558 45.1942L50.1089 45.2386L50.0896 45.2575C50.042 45.3019 49.9848 45.3555 49.9208 45.4129L49.8937 45.4369L49.8888 45.4414L49.8367 45.4873C49.7585 45.5556 49.6718 45.6281 49.5807 45.7001L49.5142 45.7517L49.5105 45.7544C49.4683 45.7864 49.4269 45.818 49.3824 45.8488L49.3347 45.882L49.3174 45.8942L49.2843 45.9163C49.2734 45.9245 49.2623 45.9317 49.2514 45.9386L49.2181 45.9607C49.2001 45.9723 49.182 45.9836 49.164 45.9947L49.1263 46.0173L49.115 46.024C49.0877 46.0401 49.0605 46.0555 49.0333 46.0701L49.0073 46.0839L48.9858 46.095L48.9527 46.1114C48.9469 46.1144 48.9411 46.1173 48.9351 46.1201L48.9199 46.1273C48.877 46.1479 48.8331 46.1662 48.7881 46.1821C48.7673 46.1898 48.747 46.1968 48.7266 46.203L48.6956 46.2122L48.6608 46.2211L48.6365 46.2263L48.6305 46.2278L48.6084 46.232C48.6052 46.2328 48.602 46.2335 48.5987 46.2338L48.5747 46.2372L48.5454 46.2407L48.5164 46.2427H48.4881C48.3974 46.2454 48.3081 46.2184 48.2344 46.1657C48.2194 46.1548 48.2058 46.1427 48.1926 46.1297C48.1644 46.101 48.1398 46.0687 48.1194 46.0337C48.1112 46.0198 48.1045 46.005 48.0994 45.9896C48.0977 45.9841 48.096 45.9785 48.0946 45.9728L48.093 45.9655L48.0916 45.9585C48.0772 45.8778 48.0985 45.778 48.1494 45.6613C48.16 45.6378 48.1711 45.6145 48.1828 45.5915C48.1928 45.5716 48.2035 45.552 48.2145 45.5325C48.5189 44.9881 49.328 44.1654 50.1808 43.2983C50.3336 43.1429 50.4878 42.9862 50.6406 42.8293L50.8515 42.6121C50.8771 42.5857 50.9026 42.5591 50.9279 42.5326L50.9557 42.5036L51.0591 42.3957L51.1614 42.2879L51.172 42.2768L51.2106 42.2357C51.2279 42.2174 51.2452 42.1989 51.2622 42.1805C51.2947 42.145 51.3288 42.1092 51.3613 42.074L51.4105 42.0208C51.4744 41.9511 51.538 41.8808 51.6013 41.8101L51.6477 41.758L51.7389 41.655C51.8535 41.5231 51.9657 41.3891 52.0752 41.2528L52.1139 41.2039C52.1651 41.1394 52.2134 41.0756 52.2594 41.013C52.2948 40.9661 52.3279 40.9197 52.3586 40.8743C52.3894 40.8289 52.419 40.7839 52.4473 40.7395L52.475 40.6953C52.4935 40.6663 52.5105 40.6372 52.5272 40.6092C52.5605 40.5521 52.5908 40.497 52.6176 40.4431C52.6305 40.417 52.6431 40.3905 52.655 40.3639C52.6826 40.3029 52.7059 40.2401 52.7251 40.176C52.7306 40.1573 52.7356 40.1385 52.7401 40.1194C52.7438 40.1035 52.7472 40.0876 52.7501 40.0715L52.7529 40.0555L52.7538 40.0504L52.7564 40.0345C52.7605 40.0129 52.7641 39.9913 52.7668 39.9697C52.771 39.9464 52.7744 39.9228 52.7769 39.8992C52.778 39.8967 52.7785 39.8943 52.7788 39.8919C52.7792 39.889 52.7792 39.8861 52.7792 39.8831C52.7814 39.8657 52.7837 39.8481 52.7853 39.8307L52.7859 39.8267L52.7871 39.8185L52.7874 39.8136C52.7896 39.794 52.7906 39.7771 52.7928 39.7548L52.7937 39.7451C52.7957 39.7262 52.7978 39.7071 52.7978 39.6882C52.799 39.6701 52.8005 39.652 52.8005 39.6344V39.615C52.802 39.5971 52.802 39.58 52.802 39.5626C52.807 39.1722 52.7133 38.8914 52.5438 38.7219C52.2643 38.4424 51.7783 38.467 51.1915 38.7998C51.1684 38.8125 51.1458 38.8259 51.1235 38.8398L51.0885 38.8621L51.054 38.8842C50.9043 38.9843 50.7655 39.0997 50.6397 39.2285C50.6273 39.2404 50.6152 39.2528 50.6029 39.2654L50.5964 39.2721L50.5751 39.2936C50.5419 39.3278 50.5091 39.3623 50.4768 39.3973L50.4433 39.4336L50.3768 39.5088C50.3649 39.5214 50.354 39.5343 50.3426 39.5475L50.2738 39.6272C50.2669 39.6346 50.2606 39.6421 50.2544 39.6496L50.2434 39.6633L50.239 39.6686L50.1688 39.7525C49.9923 39.9675 49.8223 40.1877 49.6591 40.4131L49.5843 40.5158C49.4343 40.7241 49.2827 40.943 49.1307 41.1679L49.055 41.2811C48.9537 41.433 48.8531 41.5864 48.7529 41.7416L48.6782 41.858L48.6407 41.9163C48.6037 41.9742 48.5668 42.0328 48.5297 42.0918L48.456 42.209L48.3831 42.3259C47.8511 43.1813 47.342 44.0516 46.8562 44.9348C46.8152 45.0097 46.7681 45.081 46.7149 45.148C46.6849 45.186 46.6526 45.2222 46.6184 45.2565C46.6158 45.2593 46.6131 45.262 46.6104 45.2647L46.602 45.2729L46.567 45.3061C46.5166 45.3518 46.4631 45.3938 46.4062 45.431C46.3654 45.458 46.323 45.4826 46.2794 45.5045C46.2705 45.5092 46.2612 45.5139 46.2519 45.5184C46.2397 45.5243 46.2271 45.5299 46.2145 45.5352C46.1098 45.5819 45.9991 45.6139 45.8854 45.6306C45.8779 45.6318 45.8705 45.6338 45.8633 45.6338L45.831 45.6378L45.7965 45.641L45.7682 45.6427L45.7436 45.644H45.6575L45.6302 45.6427H45.615L45.5887 45.6407L45.5729 45.6392L45.5473 45.6365L45.5329 45.6345C45.5182 45.6325 45.5034 45.6303 45.4888 45.6276L45.4691 45.6244L45.4485 45.6201L45.4279 45.6157L45.4085 45.611L45.3865 45.605L45.3701 45.6008C45.311 45.5841 45.2537 45.5623 45.1988 45.535L45.186 45.5288L45.1707 45.5206L45.1636 45.5166C45.1236 45.495 45.0854 45.4702 45.0491 45.4424L45.0342 45.4302C45.0196 45.4181 45.0051 45.4054 44.9915 45.3923L44.9783 45.3791C44.9302 45.3305 44.89 45.2746 44.859 45.2138C44.8456 45.1857 44.8339 45.1567 44.824 45.1272C44.7401 44.8653 44.827 44.52 45.2 44.1283C45.3296 43.995 45.4698 43.8724 45.6195 43.7619C45.7687 43.6505 45.9097 43.5286 46.0412 43.3968C46.1748 43.2642 46.2969 43.1207 46.4064 42.9678L46.4347 42.9276C46.4809 42.8606 46.5241 42.7931 46.5641 42.7251C46.6341 42.6059 46.6961 42.4823 46.7494 42.3547L46.7652 42.3154C46.7712 42.3007 46.7771 42.2862 46.7827 42.2718C46.889 41.9955 46.9532 41.7051 46.9736 41.41C46.9756 41.3834 46.9768 41.3568 46.9781 41.3305C46.9798 41.261 46.9798 41.1925 46.9781 41.1247C46.9731 40.9706 46.9558 40.8172 46.9257 40.666C46.8974 40.526 46.8572 40.3887 46.8053 40.2557L46.7924 40.2238C46.7885 40.2143 46.7846 40.205 46.7805 40.1958L46.777 40.1879L46.7693 40.1698L46.7624 40.1544C46.7558 40.1403 46.7492 40.1268 46.7425 40.113L46.7313 40.0899C46.7048 40.037 46.6767 39.9866 46.6469 39.9387C46.6073 39.8742 46.5625 39.8126 46.5134 39.755L46.4931 39.7312C46.3421 39.5619 46.1666 39.4522 45.9824 39.4231C45.971 39.4214 45.9596 39.4198 45.9482 39.4185C45.9378 39.4173 45.9273 39.4163 45.9169 39.4155C45.8951 39.4138 45.8732 39.4128 45.8514 39.4127C45.8425 39.4127 45.8337 39.4132 45.8251 39.4136C45.8165 39.414 45.808 39.4145 45.7995 39.4145H45.7965C45.7635 39.4167 45.731 39.4212 45.6985 39.4276L45.6915 39.4289L45.6672 39.4343L45.6454 39.4398L45.6338 39.4432L45.6213 39.447L45.6066 39.4517L45.5872 39.4579C45.4341 39.5113 45.2988 39.6111 45.1802 39.7332C45.1696 39.7439 45.1592 39.7549 45.149 39.766C45.1409 39.7749 45.1328 39.7839 45.1248 39.793C45.1097 39.8102 45.0949 39.8278 45.0806 39.8456C45.0401 39.8965 45.0017 39.9489 44.9654 40.003C44.9597 40.011 44.9543 40.019 44.9492 40.027L44.9345 40.0505L44.9304 40.0571C44.8816 40.1353 44.8366 40.2155 44.7952 40.2979L44.7857 40.3168C44.7535 40.3813 44.7234 40.4471 44.6953 40.5136C44.6708 40.5724 44.6475 40.632 44.6251 40.6918C44.5583 40.872 44.5264 40.9974 44.5264 40.9974C44.5264 40.9974 43.3358 43.9868 41.292 46.029C40.1444 47.1755 39.6074 48.1955 39.6214 49.2559L39.622 49.2893L39.6228 49.3166L39.6236 49.3349L39.6238 49.3432L39.6243 49.3538L39.6249 49.3648L39.6251 49.3746C39.6293 49.4543 39.6365 49.5337 39.6467 49.6129C39.6514 49.6526 39.6572 49.6926 39.6638 49.7325C39.67 49.773 39.6774 49.8132 39.6859 49.8532C39.6991 49.9209 39.7147 49.9884 39.7323 50.0552C39.7468 50.1125 39.7629 50.1694 39.7807 50.2257C39.7874 50.2488 39.7949 50.2716 39.8025 50.2945L39.8043 50.3C39.8319 50.3836 39.8619 50.4663 39.8939 50.5482C39.8993 50.5612 39.9044 50.5742 39.9096 50.5872L39.9276 50.6318L39.9412 50.6648C39.9488 50.6831 39.9567 50.7013 39.9648 50.7195L39.9821 50.7577C39.986 50.7672 39.9902 50.7766 39.9945 50.7861L39.9981 50.7942C40.0121 50.8242 40.026 50.8542 40.0407 50.8848C40.0473 50.8989 40.054 50.9131 40.0609 50.9272L40.1036 51.0134L40.1258 51.0558L40.1481 51.0985C40.1529 51.1068 40.1576 51.1152 40.1621 51.1235L40.1673 51.1329L40.1702 51.1382C40.1861 51.1688 40.2025 51.1988 40.2194 51.2283C40.2206 51.231 40.2215 51.233 40.2228 51.2353L40.2281 51.2445L40.2419 51.269L40.2487 51.281L40.2509 51.2847L40.2535 51.2893L40.2601 51.3007C40.2631 51.3057 40.2659 51.3107 40.2685 51.3157C40.2767 51.3306 40.2849 51.3455 40.2936 51.3601C40.309 51.3869 40.3251 51.414 40.3413 51.4413L40.3645 51.4798L40.3993 51.5369L40.4297 51.5861C40.4474 51.6142 40.4652 51.6421 40.4834 51.6699L40.542 51.76C40.5619 51.7903 40.582 51.8206 40.6024 51.8506L40.6331 51.8961C40.7108 52.0095 40.7948 52.1185 40.8844 52.2225L40.8903 52.2292C40.9077 52.249 40.925 52.2686 40.9429 52.288L40.9622 52.3093L40.9748 52.3228L40.9991 52.3486C41.0177 52.3682 41.037 52.3876 41.0561 52.4072C41.0755 52.4268 41.0948 52.4456 41.1147 52.4645L41.1166 52.467C41.1325 52.4823 41.1486 52.4974 41.1649 52.5124C41.1875 52.5332 41.2104 52.5537 41.2337 52.5737L41.2353 52.5752C41.2763 52.6112 41.3178 52.6462 41.3602 52.6802C41.3793 52.6944 41.3984 52.7097 41.4177 52.7246C41.4402 52.7421 41.4627 52.7592 41.4854 52.7761C41.4998 52.7867 41.5144 52.7973 41.529 52.8078L41.5648 52.8331C41.5844 52.8473 41.6045 52.8609 41.6246 52.8743L41.6801 52.9113L41.7181 52.936C41.7264 52.9414 41.7347 52.9467 41.7434 52.952L41.7861 52.9781C41.8641 53.0262 41.9438 53.0714 42.0249 53.1136L42.0707 53.1377L42.08 53.1424L42.1136 53.1594L42.1448 53.1749L42.1754 53.1898C42.1918 53.1968 42.2079 53.2045 42.2243 53.2122L42.2319 53.2156L42.2781 53.2377C42.3474 53.2688 42.4174 53.2983 42.4877 53.3266L42.5242 53.3412L42.5683 53.3584C42.615 53.3762 42.6616 53.3936 42.7088 53.41L42.7577 53.4271C42.772 53.4317 42.7863 53.4366 42.8005 53.4414L42.8245 53.4495C42.8516 53.4582 42.8786 53.4671 42.9059 53.4755L42.9782 53.4976L42.9881 53.5006L43.025 53.5115L43.0713 53.5249L43.1479 53.547L43.1611 53.5505L43.1637 53.5512C43.1867 53.5574 43.2096 53.5636 43.233 53.5694L43.2624 53.5771C43.2851 53.5832 43.308 53.5889 43.3309 53.5943C43.3565 53.6004 43.3821 53.6062 43.4077 53.6119L43.4103 53.6126C43.4957 53.6322 43.5813 53.6503 43.6674 53.6667L43.674 53.6679C43.701 53.6734 43.7281 53.6783 43.7554 53.6833C43.8152 53.6937 43.8773 53.7039 43.9353 53.7136C44.0845 53.7369 44.2341 53.7568 44.3841 53.7729C44.4713 53.7826 44.5588 53.7908 44.6462 53.7975C44.6522 53.7987 44.6582 53.7987 44.6639 53.7987C44.9084 53.8176 45.1533 53.8285 45.3986 53.832H45.5838C45.7446 53.832 45.9052 53.8293 46.0661 53.8233H46.0728C46.5204 53.8082 46.9672 53.7722 47.4028 53.7225L47.4249 53.7203C47.6644 53.693 47.9034 53.6614 48.1417 53.6257L48.1671 53.622L48.3227 53.5979C49.3737 53.4318 50.3066 53.2097 50.9589 53.0406C50.9936 53.0319 53.4409 52.3406 55.3104 51.4227C55.3574 51.3999 55.4044 51.3763 55.4509 51.3527C56.0791 51.0352 56.6317 50.6924 56.9869 50.3429C57.3567 49.9788 57.5148 49.6072 57.3259 49.2487C57.3193 49.2362 57.3125 49.2238 57.3053 49.2115L57.2962 49.1961C57.287 49.1805 57.2765 49.1654 57.2661 49.1507L57.2641 49.1477C57.2167 49.0812 57.1586 49.0233 57.0918 48.9762L57.0698 48.9615C56.9379 48.8771 56.7793 48.8404 56.6001 48.8404C56.2176 48.8404 55.7422 49.0092 55.2363 49.247C55.1624 49.2816 55.0889 49.3172 55.0158 49.3535C54.9543 49.3841 54.893 49.4152 54.832 49.4468L54.8258 49.45L54.8226 49.4516C54.7441 49.4922 54.6651 49.5331 54.5863 49.5759C54.394 49.6784 54.2011 49.7846 54.0109 49.8893L54.0082 49.8907C53.671 50.0764 53.342 50.2575 53.0388 50.4057C53.0145 50.4186 52.9902 50.4295 52.9661 50.4407C52.8698 50.4866 52.7757 50.5286 52.6868 50.5663L52.6533 50.5805C52.631 50.5894 52.6088 50.5983 52.5865 50.6068C52.5647 50.6155 52.5428 50.6238 52.5213 50.6319L52.4903 50.6433C52.1018 50.7828 51.7937 50.8106 51.6244 50.6348C51.6171 50.6272 51.6101 50.6192 51.6034 50.6109C51.5975 50.6034 51.5917 50.5956 51.5863 50.5877L51.5799 50.578C51.5581 50.5442 51.5405 50.508 51.5276 50.4697C51.5226 50.4563 51.5181 50.4424 51.5142 50.4278C51.3702 49.9117 52.0553 49.496 53.008 49.0874C53.0326 49.0767 53.0574 49.0662 53.0822 49.0557L53.1331 49.0343L53.1969 49.0077L53.3263 48.9546L53.458 48.9015L53.5835 48.8515L53.7274 48.795L53.8644 48.7413L54.0027 48.6877C54.3266 48.5621 54.6585 48.4353 54.9824 48.302L55.1209 48.2446C55.1666 48.2258 55.2123 48.2067 55.2577 48.1873L55.2979 48.1705L55.3201 48.1609L55.3836 48.1332L55.3929 48.129L55.4595 48.0994C55.5265 48.0699 55.5925 48.0403 55.6579 48.0108C56.2337 47.7442 56.7431 47.454 57.0775 47.1227C57.0958 47.104 57.1144 47.0854 57.1318 47.0663C57.1448 47.0536 57.1557 47.041 57.1671 47.0281C57.2164 46.9725 57.2619 46.9134 57.3033 46.8516C57.3333 46.8059 57.3606 46.7583 57.3847 46.7091C57.3947 46.6885 57.4041 46.6679 57.4131 46.6468C57.4168 46.6376 57.4204 46.6284 57.4239 46.6191L57.4292 46.6046ZM42.5238 28.5703C42.3165 28.2703 42.0985 27.9549 41.8057 27.8513C41.535 27.7559 41.1809 27.8973 40.8401 28.0334L40.8395 28.0336L40.8387 28.034C40.4038 28.208 39.9917 28.3726 39.8061 28.0233C39.5548 27.5507 39.4493 27.014 39.5029 26.4813C39.5568 25.9489 39.7672 25.4443 40.1076 25.0312C40.4481 24.6182 40.9034 24.3153 41.416 24.1609C41.7993 24.0455 42.2034 24.0165 42.5993 24.076C42.995 24.1356 43.3728 24.2821 43.7052 24.5052C44.0373 24.7283 44.316 25.0225 44.5211 25.3663C44.7262 25.7101 44.8522 26.0951 44.8905 26.4935C44.9418 27.0264 44.8341 27.5624 44.5807 28.034C44.3273 28.5056 43.9398 28.8914 43.4669 29.1426C43.0662 29.3555 42.8051 28.9777 42.5246 28.5714L42.5238 28.5703ZM28.3327 28.5716C28.5402 28.2713 28.7587 27.9553 29.0518 27.8515V27.8513C29.3228 27.7555 29.6774 27.8973 30.0181 28.0335L30.0187 28.0337C30.4536 28.2077 30.8656 28.3726 31.0518 28.0233C31.3032 27.5507 31.4087 27.014 31.3551 26.4813C31.3013 25.9486 31.0908 25.444 30.7502 25.0309C30.4955 24.7224 30.1756 24.4739 29.8133 24.3036C29.4512 24.1334 29.0558 24.0456 28.6556 24.0465C28.2555 24.0475 27.8604 24.1368 27.4989 24.3088C27.1375 24.4809 26.8188 24.7306 26.5654 25.0404C26.3123 25.3504 26.1312 25.7126 26.0346 26.101C25.9383 26.4893 25.9293 26.8944 26.0083 27.2866C26.0872 27.679 26.2521 28.0489 26.4911 28.3698C26.7302 28.6908 27.0372 28.9549 27.3905 29.1428C27.791 29.3558 28.0522 28.9777 28.3327 28.5716ZM42.5951 33.6625C42.5951 35.2636 41.8536 37.8635 39.8323 39.4562L39.8331 39.4554C39.2564 38.3816 38.2856 37.5736 37.1249 37.201C37.0513 37.1775 36.9769 37.199 36.9017 37.2516C36.9729 37.2049 37.0434 37.1867 37.1131 37.209C38.2733 37.5818 39.2438 38.3898 39.8213 39.4634H39.82C38.7673 40.2929 37.368 40.8492 35.5455 40.8492C33.8335 40.8492 32.4948 40.3582 31.4672 39.6108L31.4732 39.5986C29.3086 38.0218 28.5201 35.3133 28.5201 33.6628C28.5201 32.3732 29.403 32.8106 30.8107 33.5079C32.0618 34.1277 33.7277 34.9531 35.5569 34.9531C37.3838 34.9531 39.0512 34.128 40.3029 33.5081L40.3797 33.4699C41.7432 32.795 42.5951 32.3966 42.5951 33.6625ZM23.5792 30.3703C23.8061 30.3246 24.0218 30.2345 24.2139 30.1052C24.6001 29.8453 24.8678 29.4427 24.9579 28.9857C25.048 28.5289 24.9531 28.0551 24.6945 27.6678C24.4358 27.2809 24.034 27.012 23.5775 26.9204C23.1209 26.8288 22.6466 26.9222 22.2586 27.1796C22.0657 27.3077 21.9 27.4724 21.7709 27.6646C21.6419 27.857 21.5521 28.0727 21.5065 28.2996C21.461 28.5267 21.4608 28.7605 21.5057 28.9877C21.5509 29.2146 21.6402 29.4308 21.7689 29.6231C21.8974 29.8158 22.0628 29.9808 22.2554 30.1094C22.448 30.2377 22.6642 30.3269 22.8914 30.3718C23.1185 30.4165 23.3522 30.416 23.5792 30.3703ZM48.7494 30.3703C48.9763 30.3246 49.1921 30.2345 49.3842 30.1052C49.7704 29.8453 50.038 29.4427 50.128 28.9857C50.2182 28.5289 50.1234 28.0551 49.8647 27.6678C49.6058 27.2809 49.2042 27.012 48.7477 26.9204C48.2912 26.8288 47.8168 26.9222 47.4289 27.1796C47.236 27.3077 47.0702 27.4724 46.9411 27.6646C46.812 27.857 46.7221 28.0727 46.6768 28.2996C46.6313 28.5267 46.6311 28.7605 46.676 28.9877C46.721 29.2146 46.8103 29.4308 46.9391 29.6231C47.0677 29.8158 47.2331 29.9808 47.4256 30.1094C47.6183 30.2377 47.8345 30.3269 48.0616 30.3718C48.2888 30.4165 48.5226 30.416 48.7494 30.3703Z" fill="#FF6C5C"/>
</svg>
