<svg width="180" height="68" viewBox="0 0 180 68" fill="none" xmlns="http://www.w3.org/2000/svg">
<path fill-rule="evenodd" clip-rule="evenodd" d="M49.753 21.0053C51.3494 23.7306 51.6932 27.0128 50.6949 30.009L50.6963 30.0062C53.9262 33.5813 54.479 38.8325 52.0631 43.0016C50.4997 45.7476 47.828 47.685 44.7328 48.3189C43.2505 52.9073 38.9741 56.0121 34.1533 55.9998C30.9949 56.0204 27.9808 54.677 25.8852 52.3147C21.1716 53.3267 16.3453 51.1762 13.9445 46.9961C12.3481 44.2708 12.0043 40.9886 13.0026 37.9924C9.77126 34.4173 9.21987 29.1619 11.6385 24.9929C13.202 22.2469 15.8736 20.3095 18.9688 19.6756C20.4511 15.0913 24.7261 11.9892 29.5442 12.0002C32.7026 11.981 35.7153 13.3244 37.8122 15.6867C42.5259 14.6746 47.3522 16.8252 49.753 21.0053ZM28.8773 51.216C30.3582 52.4522 32.2269 53.1273 34.156 53.1246C38.7046 53.115 42.3883 49.4271 42.3938 44.8785V34.6497C42.3883 34.6057 42.3622 34.5672 42.3223 34.5479L38.6194 32.4098V44.7617C38.6221 45.2773 38.3471 45.7544 37.8989 46.0088L29.1372 51.0689C29.0616 51.1157 28.9447 51.1803 28.8773 51.216ZM15.457 40.0329C15.1256 41.9318 15.4735 43.8885 16.4402 45.5578H16.4415C18.7227 49.4973 23.7608 50.8475 27.7058 48.576L36.5623 43.4623C36.5967 43.4347 36.6173 43.3921 36.6146 43.3481V39.0718L25.9182 45.2484C25.4727 45.5083 24.9227 45.5083 24.4786 45.2484L15.7169 40.1883C15.6627 40.1571 15.5938 40.1154 15.5348 40.0797C15.5054 40.062 15.4785 40.0457 15.457 40.0329ZM18.4257 22.8176C16.6162 23.4817 15.0967 24.7605 14.1342 26.4325L14.1329 26.4339C11.8641 30.3775 13.2143 35.4142 17.151 37.694L26.009 42.8119C26.0502 42.8297 26.097 42.8256 26.1341 42.8009L29.8371 40.6627L19.1407 34.4874C18.6938 34.2331 18.4188 33.7559 18.4216 33.2417V23.1201C18.4216 23.0708 18.4227 23.0106 18.4238 22.9535C18.4248 22.9021 18.4257 22.8534 18.4257 22.8176ZM33.8618 27.3359L44.5581 33.5125H44.5595C45.005 33.7683 45.2787 34.2441 45.2745 34.7583V45.1824C47.0827 44.5169 48.6007 43.2381 49.5646 41.5688C51.8431 37.6253 50.4914 32.5803 46.5478 30.3018L37.6899 25.1881C37.6486 25.1702 37.6019 25.1744 37.5647 25.1991L33.8618 27.3359ZM48.2407 27.9641C48.1757 27.924 48.0634 27.8564 47.9833 27.8103L39.2217 22.7502C38.7775 22.4903 38.2275 22.4903 37.782 22.7502L27.0856 28.9268V24.6505C27.0829 24.6065 27.1035 24.5638 27.1379 24.5363L35.9945 19.4267C39.9394 17.1511 44.983 18.5055 47.2573 22.4518C48.2182 24.1179 48.5662 26.0685 48.2407 27.9641ZM21.3683 33.4493L25.0726 35.5875V35.5847L25.0781 23.2383C25.0753 22.7227 25.3503 22.2469 25.7986 21.9925L34.5603 16.9324C34.6373 16.8857 34.7528 16.8211 34.8202 16.7853C33.3393 15.5533 31.4747 14.8768 29.5483 14.8768C24.9942 14.874 21.2995 18.5646 21.2968 23.1187V33.3475C21.3023 33.3915 21.3284 33.43 21.3683 33.4493ZM31.8487 28.4992L27.0843 31.2506V36.7507L31.8487 39.5008L36.6132 36.7507V31.2492L31.8487 28.4992ZM60.3724 33.1537C60.3724 40.3478 64.9925 45.3639 71.3947 45.3639C77.7968 45.3639 82.4169 40.3478 82.4169 33.1537C82.4169 25.9595 77.7968 20.9434 71.3947 20.9434C64.9925 20.9434 60.3724 25.9595 60.3724 33.1537ZM78.1928 33.1537C78.1928 38.3018 75.3878 41.6348 71.3947 41.6348C67.4016 41.6348 64.5965 38.3018 64.5965 33.1537C64.5965 28.0055 67.4016 24.6725 71.3947 24.6725C75.3878 24.6725 78.1928 28.0055 78.1928 33.1537ZM94.3124 45.3639C99.1635 45.3639 101.936 41.2718 101.936 36.3547C101.936 31.4376 99.1635 27.3455 94.3124 27.3455C92.0683 27.3455 90.4183 28.2366 89.3293 29.5236V27.6755H85.3692V50.941H89.3293V43.1859C90.4183 44.4729 92.0683 45.3639 94.3124 45.3639ZM89.2303 35.8597C89.2303 32.5926 91.0783 30.8106 93.5204 30.8106C96.3914 30.8106 97.9425 33.0547 97.9425 36.3547C97.9425 39.6548 96.3914 41.8988 93.5204 41.8988C91.0783 41.8988 89.2303 40.0838 89.2303 36.8827V35.8597ZM120.078 40.5128C118.856 43.5489 116.117 45.3639 112.652 45.3639C107.702 45.3639 104.237 41.7008 104.237 36.3547C104.237 31.2726 107.471 27.3455 112.487 27.3455C117.503 27.3455 120.177 31.1406 120.177 35.8927V37.2127H108.032C108.329 40.1828 110.111 41.9978 112.652 41.9978C114.599 41.9978 116.15 41.0078 116.678 39.2258L120.078 40.5128ZM116.183 34.2427C116.15 32.3286 114.962 30.6786 112.454 30.6786C110.408 30.6786 108.824 31.8996 108.23 34.2427H116.183ZM123.148 45.0009H127.108V34.8367C127.108 32.3616 128.923 31.0416 130.705 31.0416C132.883 31.0416 133.741 32.5926 133.741 34.7377V45.0009H137.701V33.5827C137.701 29.8536 135.523 27.3455 131.893 27.3455C129.649 27.3455 128.098 28.3686 127.108 29.5236V27.6755H123.148V45.0009ZM140.324 45.0009L149.3 21.3064H154.085L163.061 45.0009H158.804L156.758 39.5888H146.528L144.515 45.0009H140.324ZM155.372 35.8927L151.61 25.9925L147.914 35.8927H155.372ZM169.859 21.3752H165.635V45.0697H169.859V21.3752Z" fill="#FF6C5C"/>
</svg>
