<svg width="300" height="68" viewBox="0 0 300 68" fill="none" xmlns="http://www.w3.org/2000/svg">
<path fill-rule="evenodd" clip-rule="evenodd" d="M10.6665 23.4224V12H49.8001L43.0413 23.4224H10.6665ZM49.8004 44.5776V56H25.3333L29.321 49.2412C31.0783 46.3348 34.1874 44.5776 37.4992 44.5776H49.8004ZM26.6174 30.1137L10.7342 56H24.3195L43.3792 25.0445H35.8772C32.0245 25.0445 28.5098 27.0046 26.6174 30.1137ZM66.0889 34.4393C66.0889 41.063 70.9554 45.9293 77.579 45.9293C84.2025 45.9293 89.2043 40.9278 89.2043 34.4393C89.2043 27.9508 84.2701 22.9493 77.6466 22.9493C71.0228 22.9493 66.0889 27.9508 66.0889 34.4393ZM84.8784 34.4393C84.8784 38.6974 81.8369 41.874 77.6466 41.874C73.3884 41.874 70.4145 38.6974 70.4145 34.4393C70.4145 30.2489 73.3884 27.0046 77.6466 27.0046C81.9046 27.0046 84.8784 30.1813 84.8784 34.4393ZM93.5975 28.8971V52.7558H97.6528V43.361H97.8555C98.396 44.3073 99.9508 45.9293 102.857 45.9293C107.385 45.9293 110.495 42.3472 110.495 37.1429C110.495 31.9386 107.318 28.4916 102.722 28.4916C99.7478 28.4916 98.1934 30.3164 97.7878 30.9923H97.5852V28.8971H93.5975ZM106.439 37.1429C106.439 40.1167 104.682 42.1444 102.046 42.1444C99.4775 42.1444 97.5852 40.252 97.5852 37.1429C97.5852 34.3042 99.2749 32.1413 101.978 32.1413C104.682 32.1413 106.439 34.1014 106.439 37.1429ZM113.874 37.2781C113.874 42.2796 117.321 45.9293 122.187 45.9293C126.445 45.9293 129.419 43.699 130.23 40.3871H126.445C125.837 41.7389 124.35 42.6851 122.323 42.6851C119.686 42.6851 117.997 40.9278 117.862 38.427H130.366V37.1429C130.366 32.4117 127.459 28.4916 122.187 28.4916C117.321 28.4916 113.874 32.0061 113.874 37.2781ZM126.513 35.4532H117.929C118.2 33.3579 119.957 31.7358 122.255 31.7358C124.621 31.7358 126.31 33.2228 126.513 35.4532ZM138.611 28.8295H134.759V45.4562H138.814V35.9263C138.814 33.831 140.233 32.2765 142.193 32.2765C144.086 32.2765 145.37 33.6283 145.37 35.6559V45.4562H149.425V34.5745C149.425 31.0599 147.195 28.424 143.478 28.424C141.112 28.424 139.49 29.6405 138.814 30.8572H138.611V28.8295ZM153.481 41.6713V45.4562H170.107V41.8064H158.617V41.5361L170.04 27.0046V23.2873H153.886V26.937H164.903V27.1398L153.481 41.6713ZM172.879 37.2781C172.879 42.2796 176.326 45.9293 181.192 45.9293C185.45 45.9293 188.356 43.699 189.235 40.3871H185.45C184.842 41.7389 183.355 42.6851 181.327 42.6851C178.691 42.6851 177.001 40.9278 176.866 38.427H189.37V37.1429C189.37 32.4117 186.464 28.4916 181.192 28.4916C176.326 28.4916 172.879 32.0061 172.879 37.2781ZM185.45 35.4532H176.866C177.136 33.3579 178.894 31.7358 181.192 31.7358C183.557 31.7358 185.247 33.2228 185.45 35.4532ZM193.696 28.8971V52.7558H197.751V43.361H197.954C198.494 44.3073 200.049 45.9293 202.955 45.9293C207.484 45.9293 210.593 42.3472 210.593 37.1429C210.593 31.9386 207.416 28.4916 202.82 28.4916C199.846 28.4916 198.292 30.3164 197.886 30.9923H197.684V28.8971H193.696ZM206.47 37.1429C206.47 40.1167 204.713 42.1444 202.077 42.1444C199.576 42.1444 197.684 40.252 197.616 37.1429C197.616 34.3042 199.306 32.1413 202.009 32.1413C204.713 32.1413 206.47 34.1014 206.47 37.1429ZM215.054 28.8971V52.7558H219.109V43.361H219.312C219.852 44.3073 221.407 45.9293 224.313 45.9293C228.842 45.9293 231.951 42.3472 231.951 37.1429C231.951 31.9386 228.774 28.4916 224.178 28.4916C221.204 28.4916 219.65 30.3164 219.244 30.9923H219.041V28.8971H215.054ZM227.828 37.1429C227.828 40.1167 226.071 42.1444 223.434 42.1444C220.866 42.1444 219.041 40.252 218.974 37.1429C218.974 34.3042 220.664 32.1413 223.367 32.1413C226.071 32.1413 227.828 34.1014 227.828 37.1429ZM235.33 37.2781C235.33 42.2796 238.777 45.9293 243.644 45.9293C247.902 45.9293 250.808 43.699 251.687 40.3871H247.902C247.293 41.7389 245.806 42.6851 243.779 42.6851C241.143 42.6851 239.453 40.9278 239.318 38.427H251.822V37.1429C251.822 32.4117 248.915 28.4916 243.644 28.4916C238.777 28.4916 235.33 32.0061 235.33 37.2781ZM247.902 35.4532H239.318C239.588 33.3579 241.345 31.7358 243.644 31.7358C246.009 31.7358 247.699 33.2228 247.902 35.4532ZM255.674 40.7926C255.674 43.699 257.296 45.4562 260.203 45.4562V45.5238H261.69V41.9417H261.014C260.203 41.9417 259.73 41.4009 259.73 40.4547V21.8003H255.674V40.7926ZM265.137 24.2335C265.137 25.7204 266.15 26.6667 267.638 26.6667C269.124 26.6667 270.206 25.7204 270.138 24.2335C270.138 22.8141 269.124 21.8679 267.638 21.8679C266.15 21.8679 265.137 22.8141 265.137 24.2335ZM278.519 28.8295H274.667V45.4562H278.722V35.9263C278.722 33.831 280.141 32.2765 282.101 32.2765C283.994 32.2765 285.278 33.6283 285.278 35.6559V45.4562H289.333V34.5745C289.333 31.0599 287.103 28.424 283.385 28.424C281.02 28.424 279.398 29.6405 278.722 30.8572H278.519V28.8295ZM265.61 28.8295V45.4562H269.665V28.8295H265.61Z" fill="#FF6C5C"/>
</svg>
