<svg width="66" height="68" viewBox="0 0 66 68" fill="none" xmlns="http://www.w3.org/2000/svg">
<path d="M15.0984 50.3778C15.0984 50.8874 14.9472 51.2867 14.6448 51.5755C14.3423 51.8643 13.9278 52.0086 13.4012 52.0086H11.3014L11.3067 54.4195L10.7358 54.4285V48.7607L13.5594 48.7512C14.0453 48.7512 14.4225 48.8955 14.691 49.1841C14.9627 49.473 15.0986 49.8724 15.0987 50.3819M14.5227 50.4027C14.5227 49.6077 14.1421 49.2099 13.381 49.2099L11.3016 49.2011V51.5609H13.274C14.1065 51.5609 14.5227 51.1735 14.5227 50.3989M19.2315 52.5643C19.2315 53.1692 19.0735 53.6416 18.7574 53.9813C18.4039 54.3619 17.8893 54.5522 17.2131 54.5522C16.8903 54.5522 16.6082 54.5084 16.367 54.4197C16.1292 54.3279 15.9202 54.1852 15.7401 53.9916C15.4139 53.628 15.2508 53.1522 15.2508 52.5642C15.2508 51.9732 15.4088 51.5042 15.7248 51.1577C16.0748 50.7704 16.5708 50.5767 17.2131 50.5767C17.8926 50.5767 18.4057 50.7652 18.7523 51.1423C19.0718 51.4823 19.2315 51.9562 19.2315 52.5643ZM18.737 52.5643C18.737 51.5078 18.229 50.9795 17.2132 50.9795C16.7544 50.9795 16.3943 51.1204 16.1327 51.4023C16.0069 51.5384 15.9101 51.7048 15.8422 51.9018C15.7776 52.0955 15.7454 52.3164 15.7454 52.5643C15.7454 53.0502 15.8711 53.4376 16.1224 53.7265C16.3773 54.0121 16.7409 54.1548 17.2132 54.1548C17.7364 54.1548 18.1256 54.0069 18.3804 53.7113C18.5028 53.5787 18.5928 53.4173 18.6505 53.2271C18.7082 53.0366 18.737 52.8159 18.737 52.5643ZM23.2188 53.3952C23.2188 54.1598 22.6463 54.5419 21.5012 54.5419C21.1512 54.5419 20.8556 54.5149 20.6144 54.4605C20.3765 54.406 20.1829 54.3177 20.0334 54.1956C19.9178 54.1038 19.8261 53.9832 19.7582 53.8336C19.6903 53.6807 19.6461 53.492 19.6257 53.2678L20.1557 53.2588C20.1557 53.5579 20.2492 53.7789 20.4359 53.9217C20.6365 54.0915 20.9916 54.1764 21.5012 54.1764C22.3031 54.1764 22.7041 53.9369 22.7041 53.4577C22.7041 53.1791 22.5699 52.9872 22.3014 52.8818C22.247 52.8578 21.9226 52.804 21.3279 52.7187C20.7366 52.6302 20.368 52.5525 20.2219 52.4843C19.9059 52.3348 19.7479 52.0647 19.7479 51.674C19.7479 51.2933 19.8889 51.0097 20.171 50.8229C20.3103 50.745 20.4835 50.6853 20.6907 50.6444C20.9014 50.6007 21.1443 50.5784 21.4196 50.5784C22.5205 50.5784 23.0709 50.9911 23.0709 51.8168H22.5663C22.5663 51.2359 22.1789 50.9454 21.4043 50.9454C21.0101 50.9454 20.7162 51.0055 20.5226 51.1238C20.3289 51.2394 20.2321 51.4195 20.2321 51.664C20.2321 51.8916 20.3629 52.0546 20.6245 52.1532C20.7775 52.2078 21.1291 52.2686 21.6796 52.3367C22.1723 52.3912 22.5104 52.4659 22.6938 52.5611C23.0438 52.7241 23.2188 53.0011 23.2188 53.3917M25.5305 54.4351C25.449 54.4521 25.3759 54.4637 25.3113 54.4709C25.2502 54.4799 25.206 54.4806 25.1789 54.4806C24.8323 54.4806 24.5824 54.4206 24.4297 54.3024C24.2768 54.18 24.2003 53.9676 24.2003 53.6651V51.0911H23.5683V50.709H24.1952L24.2007 49.4806H24.6848V50.7142L25.5309 50.705V51.0924L24.6848 51.0835V53.586C24.6848 53.7728 24.7256 53.902 24.8072 53.9732C24.8922 54.0449 25.0417 54.0803 25.2557 54.0803C25.2863 54.0803 25.3204 54.0803 25.3577 54.0713C25.3951 54.0623 25.4512 54.0525 25.5259 54.0357L25.5311 54.423M29.4935 54.3077C29.4935 55.4354 28.8598 55.9996 27.5923 55.9996C26.9298 55.9996 26.4592 55.891 26.1806 55.6735C25.9394 55.4865 25.7915 55.1858 25.7371 54.7712L26.2366 54.7622C26.2944 55.0645 26.3997 55.2753 26.5526 55.3942C26.7565 55.5538 27.098 55.6337 27.5771 55.6337C28.0868 55.6337 28.452 55.518 28.6729 55.2871C28.8972 55.056 29.0093 54.7282 29.0093 54.3034L29.0039 53.6408C28.6981 54.12 28.18 54.3594 27.4493 54.3594C26.8413 54.3594 26.3705 54.193 26.0376 53.8599C25.8847 53.697 25.7675 53.4997 25.686 53.2686C25.6078 53.0341 25.5688 52.7674 25.5688 52.4684C25.5688 51.8704 25.7268 51.4135 26.0428 51.0974C26.3759 50.7509 26.8583 50.5773 27.4902 50.5773C27.9217 50.5773 28.2734 50.6674 28.5452 50.8475C28.637 50.9153 28.7899 51.0802 29.0039 51.3419L29.0093 50.6998H29.4935V54.3034M29.0093 52.4483C29.0093 52.0033 28.8852 51.6481 28.6373 51.3832C28.3927 51.1148 28.0325 50.9804 27.5567 50.9804C27.0846 50.9804 26.7175 51.1131 26.4559 51.3781C26.1977 51.6396 26.0686 52.0033 26.0686 52.4686C26.0686 53.4712 26.5765 53.9722 27.5925 53.9722C27.8135 53.9722 28.0088 53.9381 28.1786 53.8701C28.3486 53.8024 28.4997 53.702 28.6323 53.5692C28.8835 53.3079 29.0093 52.9342 29.0093 52.4483ZM32.3129 51.0863C32.1667 51.0593 32.0309 51.0452 31.9052 51.0452C31.1067 51.0452 30.7074 51.5667 30.7074 52.61L30.7128 54.4194H30.2286L30.2232 50.714L30.7074 50.705V51.3726H30.7329C30.8144 51.1111 30.9436 50.914 31.1202 50.7814C31.3139 50.6523 31.6027 50.5878 31.9867 50.5878C32.0648 50.5878 32.1294 50.5878 32.1803 50.5878C32.2348 50.5878 32.2789 50.5878 32.3129 50.5968V51.086M36.3031 52.6664H32.8423C32.8423 53.0913 32.9595 53.4376 33.1941 53.7063C33.4659 54.0187 33.8549 54.175 34.3613 54.175C35.0784 54.175 35.5267 53.8542 35.7068 53.2118H36.2318C36.1536 53.5789 35.9685 53.8881 35.6762 54.1394C35.5098 54.2721 35.3142 54.3739 35.0899 54.4452C34.869 54.5204 34.6277 54.5573 34.3663 54.5573C33.7104 54.5573 33.2025 54.3604 32.8422 53.9663C32.5094 53.6128 32.3428 53.1352 32.3428 52.534C32.3428 51.9359 32.5161 51.4636 32.8627 51.1171C33.2091 50.7671 33.6969 50.5923 34.3253 50.5923C34.6619 50.5923 34.9557 50.6415 35.2075 50.7401C35.4586 50.8352 35.6696 50.9831 35.8392 51.1836C36.1485 51.5434 36.3031 52.0378 36.3031 52.6664ZM35.7933 52.33C35.7933 51.9733 35.6555 51.6537 35.3805 51.3717C35.1086 51.0896 34.7571 50.9486 34.3253 50.9486C34.1045 50.9486 33.9058 50.9829 33.7292 51.0507C33.5524 51.115 33.3945 51.2155 33.2551 51.3514C33.0411 51.5826 32.9035 51.9087 32.8423 52.33H35.7933ZM42.6417 52.9186C42.6417 54.2492 41.7459 54.9146 39.9543 54.9146C38.8809 54.9146 38.097 54.6862 37.6033 54.2289C37.1994 53.8536 36.9973 53.282 36.9973 52.5148H37.7199C37.7199 53.7514 38.4647 54.3697 39.9544 54.3697C40.6686 54.3697 41.185 54.2411 41.5031 53.9841C41.7724 53.7636 41.9071 53.4147 41.9071 52.9373C41.9071 52.464 41.7235 52.1315 41.3562 51.9393C41.148 51.8373 40.64 51.7086 39.8317 51.5538C38.8155 51.3702 38.1563 51.1846 37.8544 50.9967C37.4175 50.7233 37.199 50.262 37.199 49.6131C37.199 49.001 37.3848 48.5479 37.7562 48.254C38.1562 47.9276 38.8419 47.7641 39.8132 47.7641C41.5683 47.7641 42.4458 48.4602 42.4458 49.852H41.7173C41.7173 48.8112 41.0662 48.2908 39.7645 48.2908C39.1114 48.2908 38.6338 48.3949 38.3318 48.603C38.0459 48.8274 37.903 49.1562 37.903 49.5887C37.903 50.0418 38.0869 50.3619 38.4539 50.5498C38.6498 50.656 39.2255 50.8031 40.1804 50.9905C41.0781 51.1538 41.6843 51.3415 41.9987 51.5538C42.4275 51.8188 42.6417 52.2737 42.6417 52.9186ZM49.796 54.8962L49.3551 55.3735L48.29 54.4858C48.0654 54.6287 47.7919 54.7369 47.4696 54.8102C47.1473 54.8835 46.7697 54.9204 46.337 54.9204C45.2311 54.9204 44.3576 54.5918 43.7166 53.9348C43.08 53.2736 42.7615 52.4062 42.7615 51.3328C42.7615 50.235 43.0778 49.3635 43.7105 48.7187C44.343 48.0738 45.2143 47.7514 46.3247 47.7514C46.896 47.7514 47.404 47.8373 47.849 48.0086C48.2938 48.18 48.6734 48.4414 48.9876 48.7923C49.5754 49.4291 49.8693 50.2759 49.8693 51.3332C49.8693 51.9249 49.7794 52.4473 49.6 52.9004C49.4202 53.3493 49.1428 53.7311 48.7674 54.0452L49.796 54.8962ZM49.1776 51.3331C49.1776 50.8678 49.1142 50.4535 48.9878 50.0903C48.8613 49.7231 48.6652 49.4025 48.4 49.1291C47.8981 48.5698 47.2082 48.2904 46.3307 48.2904C45.4654 48.2904 44.7696 48.5576 44.2429 49.0923C43.7205 49.6271 43.4593 50.3738 43.4593 51.3331C43.4593 52.2556 43.7223 52.9943 44.2488 53.5493C44.7795 54.1002 45.4733 54.3758 46.3304 54.3758C46.7508 54.3758 47.1305 54.3105 47.4692 54.18C47.8078 54.0493 48.1119 53.8555 48.3811 53.5982C48.9118 53.0432 49.1771 52.2882 49.1771 51.3331M55.258 54.7369L50.3295 54.746V47.938L51.0092 47.9257V54.1702H55.2641L55.2579 54.7394M28.4232 22.4123C28.5103 22.4678 28.609 22.5101 28.7151 22.5247C29.0895 22.577 29.41 22.2727 29.4303 22.1271C29.4506 21.9812 29.1633 21.8205 28.7881 21.7683C28.4135 21.7161 28.0928 21.792 28.073 21.9377H28.0729C28.0582 22.0423 28.2024 22.2716 28.4232 22.4123ZM28.1923 22.1742C28.126 22.0864 28.087 21.9973 28.0914 21.945L28.0921 21.9403C28.1057 21.8407 28.2969 21.7711 28.5573 21.7711C28.6311 21.7711 28.7079 21.7766 28.7856 21.7875C28.9646 21.8124 29.129 21.8628 29.2483 21.9294C29.3605 21.9921 29.4199 22.0632 29.4114 22.1244C29.3953 22.2395 29.1415 22.5115 28.8012 22.5115C28.7734 22.5115 28.7453 22.5096 28.7178 22.5058C28.6211 22.4924 28.5311 22.4547 28.4507 22.406C28.4342 22.3959 28.4177 22.3858 28.402 22.3749C28.3156 22.3144 28.2434 22.242 28.1923 22.1742ZM46.3875 30.6921C46.3264 30.5072 46.0517 29.9191 45.0896 30.1178C43.5659 30.4323 42.6693 30.401 42.1456 30.2803C45.5235 24.6731 47.295 17.4879 45.6734 15.4155C43.9507 13.2141 41.4211 12.0333 38.3581 12.0007C36.0971 11.9772 34.3156 12.5804 34.1047 12.6768C33.3711 12.4923 32.5707 12.379 31.6986 12.3645C30.2474 12.3414 28.9787 12.6588 27.907 13.3078C27.2513 13.0947 26.2228 12.8026 25.0335 12.6164C22.2858 12.1858 20.1116 12.5247 18.5712 13.6228C16.7643 14.9113 15.9299 17.1968 16.0908 20.4162C16.1447 21.4929 16.7988 24.8603 17.8407 28.1326C19.1914 32.3746 20.6308 34.7772 22.1189 35.2736C22.2904 35.3306 22.4882 35.3708 22.7061 35.3708C23.2067 35.3707 23.813 35.1583 24.4464 34.4563C24.5286 34.8987 25.1443 35.1192 25.8272 35.3215C25.8411 35.3256 25.8551 35.329 25.8694 35.3316C26.0435 35.3632 26.2141 35.3972 26.3816 35.4306C26.9686 35.547 27.5229 35.6571 28.0887 35.6571H28.0889C28.8107 35.6571 29.4437 35.4727 30.0485 35.0781C30.0524 37.9395 30.2761 40.3713 30.6413 41.2846C30.7994 41.6798 31.6305 43.4013 34.0882 43.4011C34.4913 43.4011 34.9377 43.3549 35.4323 43.2489C37.9279 42.7138 39.0507 41.6329 39.4369 39.3931C39.6624 38.0861 39.9585 35.639 40.0875 34.3554C40.4217 34.4385 40.8276 34.4769 41.2616 34.4769C42.3157 34.4767 43.5364 34.2515 44.3022 33.896C45.6266 33.2806 46.6988 31.6338 46.3875 30.6921ZM43.6679 33.1307C42.8807 33.496 41.8157 33.6672 40.9059 33.6672C40.3418 33.6672 39.8375 33.6014 39.4958 33.4751C39.3404 34.931 38.9806 37.8425 38.7737 39.0423C38.4008 41.2052 37.4813 42.1407 35.2597 42.6171C34.8888 42.6966 34.5517 42.7322 34.2453 42.7322C33.5053 42.7322 32.9449 42.524 32.517 42.2256C32.0514 41.9881 31.6403 41.6013 31.3934 40.9839C31.3425 40.8567 31.2926 40.6777 31.2448 40.4537C31.2376 40.4355 31.2303 40.4174 31.2235 40.4004C30.8822 39.5471 30.7699 36.5803 30.7997 33.7365C30.021 34.5219 29.0164 34.9336 27.8556 34.9336C27.4082 34.9336 26.9372 34.8725 26.4556 34.7519C26.2261 34.6948 25.9227 34.583 25.6674 34.4207C25.6261 34.3991 25.6121 34.3833 25.5729 34.3562C25.3346 34.1828 25.1582 33.9597 25.1638 33.6877C25.1759 33.1069 25.9476 32.8811 26.5268 32.7616C27.9339 32.4719 28.0371 32.341 28.4712 31.7899C28.5631 31.673 28.6722 31.5347 28.8072 31.376C28.8009 31.3174 28.7963 31.2585 28.795 31.1988C28.1384 31.1974 27.4949 31.0241 26.9163 30.6992C26.5955 31.0394 25.5415 32.1703 24.4088 33.5329C24.0044 34.019 23.6123 34.282 23.2547 34.4077C22.816 34.6521 22.5051 34.5487 22.3753 34.5054C22.2981 34.4796 22.2213 34.445 22.1446 34.4046C19.0228 33.2891 16.8499 22.5563 16.7507 20.5718C16.5996 17.5503 17.3746 15.4149 19.0541 14.225C20.4445 13.2399 22.4819 12.9289 24.9459 13.3259C26.4534 13.5687 27.6747 13.9983 28.0926 14.1563C29.1478 13.4224 30.4272 13.0615 31.9136 13.0871C32.7119 13.1002 33.4454 13.2023 34.1186 13.3689V13.3346C34.1856 13.3467 34.2524 13.3586 34.318 13.3716C34.7386 13.2203 36.205 12.791 38.0351 12.791C38.5443 12.791 39.1056 12.826 39.6929 12.9199C41.5295 13.173 43.5124 13.9684 45.0357 15.9146C45.2402 16.1761 45.3717 16.5955 45.4309 17.1401C45.6461 18.3097 45.4876 20.0239 44.9555 22.0845C44.2081 24.9787 42.8238 28.0805 41.14 30.6486C41.14 30.6486 41.1151 30.6916 41.0893 30.7318C41.3818 30.9786 42.285 31.2607 44.4227 30.8194C45.0995 30.6795 45.5027 30.7911 45.6216 31.1505C45.8472 31.8329 44.5768 32.7085 43.6679 33.1307ZM40.0959 30.6739C39.6114 30.8177 38.7917 31.159 38.8713 32.7311C38.8665 32.7916 38.8596 32.8692 38.8512 32.9589C38.851 32.9613 38.8505 32.9643 38.8502 32.9667C38.8463 33.0079 38.842 33.0517 38.8374 33.0983C38.8371 33.0998 38.8371 33.1012 38.8369 33.1028C38.7075 34.3885 38.3107 37.642 38.0895 38.9242C37.7677 40.792 37.0446 41.5243 35.1141 41.9383C33.0671 42.3769 32.3446 41.334 31.8679 40.1424C31.5663 39.3882 31.4172 36.019 31.5211 32.3051C31.5223 32.2616 31.5145 32.2203 31.501 32.1816C31.4899 32.0992 31.4746 32.016 31.4504 31.9319C31.3066 31.4294 30.9442 30.9928 30.527 30.8198C30.3933 30.7644 30.1909 30.6807 29.9483 30.6807C29.8039 30.6807 29.6648 30.7105 29.5295 30.7677C29.6041 30.3725 29.7725 29.9193 29.9581 29.4217L30.0247 29.243C30.1007 29.0387 30.1951 28.8289 30.2952 28.6067C30.826 27.4274 31.5529 25.8125 30.7623 22.1569C30.5673 21.2555 30.0608 20.6689 29.2991 20.4326C29.2741 20.4249 29.2484 20.4182 29.2228 20.4112C29.1833 20.4003 29.1433 20.3904 29.1025 20.3813C29.0764 20.3756 29.0503 20.3699 29.0237 20.3648C28.9709 20.355 28.9173 20.3465 28.8626 20.3396C28.8481 20.3378 28.8342 20.3351 28.8196 20.3335C28.7509 20.3258 28.6803 20.3209 28.6084 20.3179C28.585 20.3168 28.561 20.3166 28.5373 20.316C28.4828 20.3149 28.4276 20.3149 28.3713 20.3163C28.3477 20.3169 28.3241 20.3173 28.3003 20.3183C28.2219 20.3218 28.1425 20.3268 28.0611 20.3353C27.1705 20.4276 26.354 20.7878 25.9466 20.9943C25.7908 21.0733 25.6584 21.1473 25.5428 21.2171C25.5455 21.1774 25.5485 21.1365 25.5517 21.0945C25.5547 21.0551 25.5582 21.0143 25.5618 20.973C25.5619 20.9717 25.562 20.9703 25.5622 20.9691C25.5696 20.8827 25.5785 20.7918 25.5886 20.6973C25.5887 20.6966 25.5887 20.6959 25.5888 20.6952C25.7452 19.2392 26.2356 16.8789 27.766 15.3331C28.8131 14.2756 30.2051 13.7556 31.9022 13.7814C37.3123 13.87 39.7192 18.2902 40.3303 19.9661C40.3308 19.9674 40.3313 19.9685 40.3318 19.9698C40.3484 20.0155 40.3638 20.0593 40.3779 20.1009C40.3783 20.1025 40.3787 20.1039 40.3791 20.1056C40.3933 20.1475 40.4063 20.1876 40.4177 20.2247C40.3161 20.2128 40.2167 20.203 40.119 20.1948C40.0846 20.1918 40.0514 20.19 40.0175 20.1876C39.9556 20.183 39.8937 20.1785 39.8333 20.1756C39.7923 20.1735 39.7523 20.1725 39.7121 20.1712C39.661 20.1693 39.6103 20.1677 39.5605 20.1671C39.5168 20.1665 39.4742 20.1669 39.4315 20.1671C39.3875 20.1674 39.3435 20.1679 39.3005 20.1692C39.2554 20.1704 39.2111 20.1723 39.1673 20.1746C39.1291 20.1765 39.0916 20.1788 39.0543 20.1815C39.008 20.1849 38.9621 20.1888 38.9172 20.1933C38.8856 20.1964 38.8545 20.2001 38.8233 20.2039C38.7752 20.2097 38.7275 20.2157 38.6809 20.2228C38.6565 20.2266 38.6331 20.231 38.6092 20.235C38.558 20.2439 38.5069 20.2529 38.4576 20.2634C38.4449 20.266 38.4329 20.2692 38.4205 20.2721C38.0278 20.3603 37.6961 20.503 37.428 20.7014C37.3826 20.7349 37.3394 20.7699 37.2975 20.8065C37.2965 20.8074 37.2958 20.8082 37.295 20.809C37.2531 20.8455 37.2136 20.8836 37.1755 20.9233C37.1083 20.9934 37.0453 21.0668 36.9896 21.1466C35.7767 22.8805 37.6878 26.3075 38.6062 27.9545C38.778 28.2624 38.9262 28.5283 38.9745 28.6457C39.2715 29.3653 39.6576 29.8479 39.9398 30.2003C40.0696 30.3627 40.1867 30.5091 40.2543 30.629C40.2348 30.6344 40.216 30.6398 40.1989 30.6448C40.167 30.6537 40.1323 30.6635 40.0962 30.6742C40.0959 30.6739 40.0959 30.6739 40.0959 30.6739ZM44.5631 31.4993C44.6974 31.4716 44.7968 31.4594 44.8693 31.4553C44.6714 31.7065 44.1476 32.1426 43.3755 32.501C42.406 32.951 40.5098 33.1252 39.7524 32.8338C39.595 32.7732 39.5658 32.7197 39.5655 32.7197C39.4996 31.5619 39.9705 31.4297 40.3861 31.313C40.4471 31.2959 40.5314 31.2722 40.6181 31.2353C40.665 31.2771 40.719 31.319 40.7807 31.3597C41.4858 31.825 42.7583 31.872 44.5631 31.4993ZM29.3076 29.1789L29.3737 29.0012C29.4579 28.7748 29.5569 28.5547 29.662 28.3215C30.1806 27.1695 30.8259 25.7356 30.0837 22.3035C29.929 21.5887 29.5485 21.1791 28.9197 21.0513C28.8834 21.0439 28.8468 21.0378 28.8099 21.0325C28.7749 21.0272 28.7395 21.0233 28.7039 21.0197C28.7031 21.0196 28.7024 21.0194 28.7016 21.0194C27.418 20.8911 25.8109 21.7927 25.5183 22.0871C25.5212 22.1683 25.5279 22.2795 25.5356 22.4104C25.5811 23.1767 25.6656 24.6027 25.437 26.2381C25.2684 27.4429 25.6367 28.6189 26.4473 29.4648C27.0302 30.073 27.7814 30.4326 28.5651 30.4944C28.5658 30.4944 28.5663 30.4944 28.567 30.4945C28.6176 30.4984 28.6683 30.5013 28.7191 30.5028C28.7708 30.5045 28.8227 30.5048 28.8744 30.5037C28.9675 30.0909 29.1309 29.6528 29.3076 29.1789ZM28.396 22.4175C28.2746 22.3355 28.1929 22.2387 28.1616 22.1973C28.0853 22.096 28.0449 21.998 28.0539 21.9349L28.0575 21.9184C28.089 21.8049 28.2817 21.7326 28.5574 21.7326C28.6003 21.7326 28.6442 21.7349 28.6887 21.7385C28.7225 21.7412 28.7566 21.7445 28.7909 21.7493C28.7937 21.7497 28.7961 21.7502 28.7988 21.7507H28.7987C28.9794 21.7766 29.1455 21.8278 29.267 21.8958C29.3957 21.9677 29.4605 22.0508 29.4495 22.1297C29.429 22.2773 29.148 22.5499 28.8013 22.5499C28.7716 22.5499 28.7418 22.5479 28.7125 22.5438C28.5887 22.5266 28.4835 22.4762 28.3974 22.4183C28.3969 22.4181 28.3964 22.4177 28.396 22.4175ZM40.3436 22.2939C40.413 21.8443 40.4781 21.4149 40.4781 20.932C39.2923 20.7733 38.4341 20.8667 37.9127 21.208C37.9027 21.2145 37.8923 21.2208 37.8825 21.2276C37.8609 21.2425 37.8403 21.2582 37.8196 21.2739C37.8036 21.2864 37.7878 21.2989 37.7726 21.312C37.7563 21.3258 37.7403 21.3398 37.725 21.3542C37.7056 21.372 37.6879 21.3906 37.6702 21.4093C37.6592 21.4211 37.6476 21.4325 37.637 21.4446C37.6093 21.4766 37.5826 21.5096 37.5584 21.5443C36.5947 22.9219 38.429 26.2114 39.2122 27.6161C39.4096 27.9699 39.5522 28.2256 39.616 28.3807C39.7181 28.6281 39.832 28.8423 39.9493 29.0327C40.5882 27.8227 40.4445 26.6025 40.3023 25.4189C40.2331 24.8452 40.1681 24.303 40.1857 23.7612C40.2038 23.2026 40.275 22.7407 40.3436 22.2939ZM38.7494 22.243C38.4139 22.243 38.1302 21.972 38.1102 21.8311C38.0976 21.7372 38.1997 21.6404 38.3681 21.5669C38.3786 21.5623 38.3895 21.5578 38.4004 21.5535C38.5023 21.5128 38.6253 21.4803 38.7608 21.4614C38.8397 21.4504 38.9179 21.4449 38.9932 21.4449C39.2766 21.4449 39.4706 21.521 39.4872 21.6389C39.5002 21.7338 39.3936 21.9158 39.2243 22.0554C39.2121 22.0653 39.1997 22.075 39.1871 22.0844C39.0859 22.1599 38.9659 22.2191 38.8368 22.237C38.8082 22.241 38.7789 22.243 38.7494 22.243ZM25.8895 30.7847C25.7143 30.9758 25.5096 31.2017 25.2835 31.4552C24.8664 31.9229 24.3787 32.4827 23.8749 33.0888C23.1178 33.9991 22.5765 33.8183 22.3988 33.7591C19.7866 32.8879 17.5452 22.5622 17.4439 20.5372C17.3056 17.7692 17.9818 15.8363 19.4542 14.7924C21.7149 13.1894 25.3369 14.0103 27.04 14.5342C27.0511 14.5376 27.0615 14.5409 27.0724 14.5442C27.1308 14.5623 27.1865 14.5799 27.24 14.5972C27.252 14.6009 27.2638 14.6047 27.2754 14.6085C27.3392 14.6291 27.4006 14.6492 27.4566 14.6682C27.3945 14.7258 27.3326 14.7839 27.2726 14.8447C27.0399 15.0799 26.8293 15.3309 26.6385 15.5924C26.5998 15.6455 26.5632 15.6996 26.5261 15.7536C26.504 15.7857 26.4811 15.8176 26.4596 15.85C26.4249 15.9022 26.3919 15.955 26.3588 16.0078C26.3367 16.0429 26.3141 16.0779 26.2927 16.1133C26.2609 16.1658 26.2303 16.219 26.1999 16.272C26.1792 16.3082 26.1581 16.3444 26.1378 16.3809C26.1083 16.4342 26.0798 16.4879 26.0515 16.5417C26.0321 16.5785 26.013 16.6153 25.9944 16.6521C25.9669 16.7063 25.9403 16.7606 25.914 16.8151C25.8963 16.8519 25.8791 16.8887 25.862 16.9256C25.8364 16.9807 25.8112 17.0359 25.7869 17.0912C25.7712 17.1273 25.7559 17.1633 25.7406 17.1992C25.7166 17.2559 25.6927 17.3126 25.6698 17.3693C25.6563 17.403 25.6435 17.4368 25.6303 17.4705C25.6074 17.5296 25.5844 17.5888 25.5626 17.6479C25.5522 17.6765 25.5424 17.705 25.5322 17.7336C25.5093 17.7978 25.4862 17.862 25.4648 17.926C25.4621 17.9336 25.4599 17.9411 25.4574 17.9487C25.378 18.1873 25.3087 18.4241 25.2478 18.6568C25.2421 18.6787 25.2357 18.7007 25.2303 18.7224C25.2148 18.7831 25.2004 18.8431 25.1859 18.9032C25.1791 18.9322 25.1719 18.9613 25.1652 18.9901C25.1519 19.0469 25.1396 19.1032 25.1275 19.1593C25.1206 19.1902 25.1139 19.2212 25.1075 19.2519C25.096 19.3064 25.0852 19.3601 25.0747 19.4138C25.0684 19.4451 25.0624 19.4765 25.0565 19.5075C25.0465 19.5599 25.0371 19.6118 25.0279 19.6632C25.0225 19.6942 25.0172 19.725 25.012 19.7556C25.0034 19.8063 24.9951 19.8566 24.9871 19.9063C24.9824 19.9359 24.978 19.9651 24.9736 19.9943C24.9661 20.0438 24.9588 20.093 24.9519 20.1412C24.948 20.1689 24.9444 20.196 24.9408 20.2234C24.9344 20.2715 24.9278 20.3196 24.9221 20.3663C24.919 20.3911 24.9164 20.4149 24.9136 20.4393C24.9079 20.4873 24.9022 20.5356 24.8971 20.582C24.896 20.5922 24.8952 20.602 24.8941 20.6121C24.8819 20.7277 24.8714 20.8381 24.863 20.9424C24.8624 20.9498 24.8617 20.9578 24.8611 20.965C24.858 21.0048 24.8554 21.0422 24.8527 21.0801C24.851 21.1021 24.8492 21.125 24.8478 21.1464C24.8456 21.1801 24.8438 21.2119 24.8419 21.2439C24.8404 21.2673 24.839 21.2911 24.8378 21.3134C24.8362 21.3431 24.835 21.3713 24.8336 21.3992C24.8326 21.4215 24.8314 21.4439 24.8307 21.4652C24.8296 21.4911 24.8286 21.5159 24.8279 21.5402C24.8271 21.5608 24.8264 21.5813 24.8257 21.6007C24.8251 21.6228 24.8246 21.6443 24.8241 21.6647C24.8236 21.6841 24.8232 21.7027 24.8229 21.7205C24.8226 21.738 24.8223 21.7556 24.822 21.7717C24.8218 21.7893 24.8216 21.8056 24.8215 21.8213C24.8215 21.8351 24.8213 21.8491 24.8213 21.8615C24.8213 21.8768 24.8213 21.8904 24.8213 21.9036C24.8213 21.9129 24.8213 21.9231 24.8214 21.9313C24.8215 21.945 24.8215 21.9562 24.8217 21.9666C24.8217 21.9712 24.8218 21.9772 24.8218 21.9812C24.8221 21.9939 24.8223 22.0038 24.8225 22.0096C24.8225 22.1098 24.8308 22.2534 24.8426 22.4512C24.8865 23.1933 24.9684 24.5746 24.7493 26.1417C24.7381 26.2223 24.7295 26.3027 24.7223 26.3829C24.7195 26.4134 24.7178 26.4437 24.7157 26.4742C24.7123 26.5225 24.7094 26.5708 24.7075 26.6189C24.7059 26.658 24.7048 26.6972 24.7044 26.7363C24.7039 26.7729 24.704 26.8092 24.7042 26.8457C24.7046 26.8923 24.7051 26.9389 24.7068 26.9853C24.7076 27.0053 24.709 27.0252 24.71 27.0452C24.7237 27.312 24.7592 27.5747 24.8167 27.8311C24.8168 27.8321 24.8172 27.833 24.8172 27.8339C24.9952 28.6236 25.378 29.3522 25.9461 29.9449C26.0698 30.0738 26.2002 30.1924 26.3358 30.3026C26.3182 30.3214 26.2979 30.3431 26.2779 30.3646C26.2679 30.3753 26.2586 30.3853 26.248 30.3965C26.2331 30.4125 26.2164 30.4305 26.2003 30.4478C26.1818 30.4676 26.1637 30.4873 26.1438 30.5088C26.134 30.5191 26.1234 30.5307 26.1132 30.5415C26.085 30.5721 26.0562 30.6032 26.0253 30.6365C26.02 30.6424 26.0143 30.6486 26.0088 30.6544C25.9727 30.6936 25.9353 30.7344 25.8959 30.7772C25.8939 30.7799 25.8916 30.7824 25.8895 30.7847ZM36.1492 13.6409C36.1509 13.6406 36.1528 13.6403 36.1543 13.6399C36.6907 13.5524 37.3307 13.4853 38.0351 13.4853C40.7571 13.4853 42.9041 14.4647 44.4157 16.3963C45.0057 17.1502 44.9539 19.3149 44.2833 21.9109C43.6268 24.453 42.4659 27.1598 41.0423 29.5036C41.0372 29.5119 41.0323 29.5201 41.0273 29.5283C40.9202 29.7043 40.8119 29.8787 40.7017 30.0503C40.6341 29.9582 40.5598 29.8645 40.4815 29.7664C40.453 29.7308 40.4232 29.6938 40.3934 29.6563C41.33 28.1563 41.1505 26.6604 40.9914 25.3361C40.9256 24.7892 40.8635 24.2727 40.8793 23.7834C40.8958 23.2667 40.9639 22.826 41.0296 22.3996C41.1137 21.8534 41.1921 21.3349 41.1675 20.7018C41.1838 20.6432 41.1912 20.5725 41.1832 20.4859C41.1266 19.8862 40.4376 18.0867 39.0316 16.4499C38.2279 15.5145 37.0393 14.4626 35.4007 13.788C35.4704 13.7719 35.5441 13.7557 35.6206 13.7395C35.6249 13.7387 35.629 13.7377 35.6333 13.7368C35.7103 13.7207 35.7908 13.7048 35.8742 13.6891C35.8775 13.6885 35.8809 13.6878 35.8844 13.6872C35.9695 13.6713 36.0579 13.6558 36.1492 13.6409ZM30.7829 32.1227C30.8244 32.2677 30.8703 32.5439 30.7117 32.7662C30.6645 32.8321 30.6161 32.8953 30.5666 32.9567C30.5584 32.967 30.5497 32.9767 30.5413 32.9869C30.4983 33.0393 30.4545 33.0905 30.4098 33.1396C30.4045 33.1453 30.3991 33.1507 30.3938 33.1566C30.3445 33.2101 30.2941 33.2614 30.2426 33.3112C30.2411 33.3126 30.2396 33.3139 30.2381 33.3153C30.1834 33.3678 30.1274 33.4182 30.0703 33.4663C30.07 33.4665 30.0696 33.4669 30.0692 33.4672V33.4671C29.461 33.9794 28.7201 34.2393 27.8553 34.2393C27.4873 34.2393 27.0978 34.1897 26.6973 34.0948C26.6726 34.0891 26.6485 34.0848 26.6238 34.0786C26.2725 33.9908 25.9772 33.8185 25.8817 33.7132C25.9521 33.6598 26.1515 33.5477 26.6667 33.4414C28.2517 33.1151 28.4776 32.9034 29.0163 32.2194C29.1421 32.0598 29.2845 31.8789 29.4826 31.6577C29.7352 31.3749 29.8956 31.3749 29.9484 31.3749C30.0452 31.3749 30.1433 31.4123 30.2613 31.4613C30.4832 31.5531 30.6978 31.8251 30.7829 32.1227Z" fill="#FF6C5C"/>
</svg>
