<svg width="76" height="68" viewBox="0 0 76 68" fill="none" xmlns="http://www.w3.org/2000/svg">
<path fill-rule="evenodd" clip-rule="evenodd" d="M54.3497 28.1173C54.3661 19.2748 47.0014 12 38.0284 12C29.0308 12 21.6498 19.2013 21.6253 27.9948C21.6253 36.9842 28.8756 44.2672 37.8324 44.2754C47.0014 44.2754 54.3416 37.1067 54.3497 28.1173ZM32.7702 20.5322C33.0724 19.6014 33.2765 18.6625 33.0724 17.6582C34.4329 18.6237 34.5942 20.0676 34.7657 21.6024C34.7856 21.7808 34.8057 21.9604 34.8278 22.1407C35.4075 21.3405 35.6606 20.4995 35.832 19.6422C35.9709 18.8176 36.0606 17.9766 36.1178 17.1438C36.1831 16.1722 36.4444 15.2904 37.0976 14.5392C37.318 14.2861 37.6201 14.1147 37.9549 13.9351C37.4813 15.1586 37.9616 16.2142 38.4293 17.2421L38.4774 17.3479C39.2857 19.1442 39.6777 21.0384 39.7838 23.0061C39.7894 23.0484 39.7941 23.0916 39.7988 23.1351C39.8077 23.2178 39.8168 23.3015 39.8328 23.3817C39.8328 23.4125 39.8514 23.434 39.871 23.4568C39.8774 23.4642 39.8839 23.4717 39.8899 23.4797C39.9508 23.0703 40.0051 22.6628 40.0592 22.2568C40.1647 21.4645 40.2695 20.6781 40.4207 19.8953C40.6493 18.687 41.0085 17.5276 41.9393 16.6131C41.4984 18.5482 42.3149 20.1484 43.1967 21.7569C44.2989 23.7573 44.6092 25.8801 43.8499 28.0765C43.7032 28.5003 43.4769 28.906 43.2433 29.3249C43.1258 29.5355 43.0066 29.7494 42.8946 29.9707L43.808 29.7943C45.1987 29.5258 46.6046 29.2543 48.071 28.9664C47.573 30.534 46.781 31.7751 45.7278 32.861C45.6298 32.959 45.4338 32.9835 45.2787 32.9835C40.4043 32.9916 35.5381 32.9916 30.6637 32.9835C30.4923 32.9835 30.28 32.9182 30.182 32.812C29.2676 31.7261 28.4429 30.5994 27.9857 29.244C27.9816 29.2195 27.9816 29.1909 27.9816 29.1491C27.9816 29.1073 27.9816 29.0521 27.9775 28.9746C29.5273 29.3067 31.0464 29.6234 32.7054 29.9694L32.8682 30.0033C31.8068 28.6235 31.1863 27.2355 31.3578 25.6678C31.4593 24.7677 31.701 23.8788 31.9436 22.9871C31.9936 22.8031 32.0437 22.619 32.0926 22.4346C32.1909 22.0648 32.3321 21.703 32.4732 21.3416C32.5782 21.0727 32.6831 20.8039 32.7702 20.5322ZM30.3616 34.4695H45.6298H45.6379V37.1149H30.3616V34.4695ZM38.4039 42.177C35.6279 42.2995 33.3744 40.6584 33.3826 38.4621H42.5762C42.7476 40.2746 40.7064 42.0791 38.4039 42.177ZM12.9217 55.902V53.1832H14.1709C14.5464 53.1832 14.8894 53.1342 15.1751 53.0362C15.4691 52.9219 15.7222 52.7912 15.9263 52.6116C16.1304 52.432 16.2856 52.2279 16.3999 51.9748C16.5142 51.7217 16.5713 51.444 16.5713 51.1583C16.5713 50.5133 16.3672 50.0234 15.9671 49.6723C15.567 49.3212 14.9792 49.1497 14.179 49.1497H12.4399V55.902H12.9217ZM14.179 52.7994H12.9217C12.9217 52.7994 12.9217 49.5498 12.9298 49.5498H14.1872C14.8077 49.5498 15.2976 49.6968 15.6079 49.9744C15.9345 50.252 16.0896 50.6439 16.0896 51.1665C16.0896 51.4114 16.0406 51.6237 15.959 51.8196C15.8691 52.0319 15.7548 52.1952 15.5834 52.3422C15.4119 52.481 15.2078 52.5953 14.9792 52.6769C14.7424 52.7667 14.4811 52.7994 14.179 52.7994ZM18.1798 51.1665V55.9102C18.1798 55.9102 18.6452 55.8939 18.6288 55.8775V52.7912C18.7595 52.3748 18.9554 52.0482 19.1841 51.8278C19.4127 51.5992 19.7066 51.493 20.0658 51.493C20.1407 51.493 20.2155 51.5026 20.2794 51.5107C20.2992 51.5132 20.3179 51.5156 20.3353 51.5175C20.4088 51.542 20.4822 51.5584 20.5312 51.5665C20.5802 51.591 20.6292 51.6073 20.6619 51.6155C20.6945 51.6318 20.719 51.64 20.7435 51.64C20.8088 51.64 20.8333 51.6155 20.8415 51.5665L20.8987 51.2563C20.7925 51.1991 20.6864 51.1583 20.5639 51.1256C20.4414 51.0848 20.3108 51.0766 20.1638 51.0766C19.7882 51.0766 19.478 51.1828 19.2249 51.4032C18.9636 51.6237 18.7676 51.9258 18.6125 52.3095L18.5799 51.3053C18.5799 51.2563 18.5717 51.2236 18.5472 51.1991C18.5227 51.1746 18.4737 51.1665 18.4247 51.1665H18.1798ZM25.1933 51.2563C24.9157 51.142 24.6136 51.0848 24.2789 51.0848C23.9359 51.0848 23.6257 51.142 23.3644 51.2563C23.095 51.3787 22.8664 51.5339 22.6867 51.7543C22.5071 51.9748 22.3601 52.2279 22.2622 52.53C22.1642 52.8321 22.1152 53.1668 22.1152 53.5424C22.1152 53.9098 22.1642 54.2446 22.2622 54.5467C22.3601 54.8488 22.5071 55.1019 22.6867 55.3223C22.8664 55.5428 23.095 55.7142 23.3644 55.8204C23.642 55.9347 23.9441 55.9918 24.2789 55.9918C24.6299 55.9918 24.9239 55.9265 25.1933 55.8204C25.4628 55.6979 25.6914 55.5428 25.871 55.3223C26.0506 55.1019 26.1976 54.8488 26.2956 54.5467C26.3935 54.2527 26.4425 53.918 26.4425 53.5424C26.4425 53.1668 26.3935 52.8321 26.2956 52.53C26.1976 52.2279 26.0506 51.9748 25.871 51.7543C25.6914 51.5339 25.4628 51.3787 25.1933 51.2563ZM25.0137 55.4611C24.8096 55.5591 24.5565 55.6081 24.2789 55.6081C23.9849 55.6081 23.7482 55.5591 23.544 55.4611C23.3236 55.3631 23.1603 55.2162 23.0133 55.0366C22.8827 54.8569 22.7766 54.6365 22.7031 54.3834C22.6296 54.1303 22.5969 53.8363 22.5969 53.5261C22.5969 53.2158 22.6296 52.9219 22.7031 52.6688C22.7602 52.4075 22.8664 52.187 23.0133 52.0074C23.1603 51.8278 23.3236 51.6808 23.544 51.5829C23.7482 51.4849 24.0013 51.4359 24.2789 51.4359C24.5565 51.4359 24.7932 51.4849 25.0137 51.5829C25.2342 51.6808 25.3975 51.8278 25.5444 52.0074C25.6751 52.187 25.7812 52.4157 25.8547 52.6688C25.9282 52.9219 25.9608 53.2158 25.9608 53.5261C25.9608 53.8363 25.92 54.1303 25.8547 54.3834C25.7894 54.6365 25.6914 54.8569 25.5444 55.0366C25.3975 55.2162 25.2342 55.3631 25.0137 55.4611ZM28.002 51.1665V55.9102L28.4756 55.9347V52.3503C28.6552 52.0727 28.843 51.8686 29.0634 51.7135C29.2757 51.5584 29.5207 51.4849 29.7738 51.4849C30.1249 51.4849 30.4025 51.5992 30.5821 51.8441C30.7617 52.0972 30.8597 52.4483 30.8597 52.9055V55.9428H31.3169V52.9137C31.3169 52.6851 31.3414 52.481 31.4149 52.3013C31.4884 52.1217 31.57 51.9748 31.6925 51.8523C31.8068 51.7298 31.9456 51.6563 32.0926 51.5829C32.2395 51.5094 32.3947 51.4849 32.5661 51.4849C32.9417 51.4849 33.2193 51.5992 33.4234 51.8441C33.6275 52.0891 33.7255 52.4483 33.7255 52.9055V55.9347H34.1827V52.9055C34.1827 52.6198 34.1501 52.3667 34.0766 52.1462C34.0031 51.9176 33.9051 51.738 33.7745 51.5829C33.6439 51.4277 33.4887 51.3053 33.2928 51.2318C33.1132 51.142 32.8927 51.1093 32.6641 51.1093C32.5193 51.1093 32.3862 51.1384 32.2548 51.1671C32.2306 51.1724 32.2065 51.1777 32.1824 51.1828C32.0272 51.2154 31.8803 51.2889 31.7496 51.3869C31.619 51.4685 31.5047 51.591 31.3986 51.738C31.2842 51.8849 31.2108 52.0482 31.1536 52.2442C31.0801 51.885 30.9332 51.6073 30.729 51.4032C30.5249 51.1991 30.2473 51.1011 29.8962 51.1011C29.7493 51.1011 29.6023 51.1093 29.4717 51.1583C29.3329 51.2073 29.2104 51.2644 29.0879 51.3379C28.9736 51.4114 28.8593 51.5094 28.7532 51.6155C28.647 51.7217 28.549 51.8441 28.4511 51.9748L28.4021 51.2889C28.3857 51.1991 28.3368 51.1665 28.2551 51.1665H28.002ZM38.4856 51.2154C38.2733 51.1338 38.0202 51.0848 37.7508 51.0848C37.416 51.0848 37.1139 51.142 36.8282 51.2154C36.5587 51.3216 36.3301 51.493 36.1505 51.6972C35.9709 51.9176 35.8239 52.1626 35.7259 52.4483C35.6279 52.7341 35.5789 53.0525 35.5789 53.3873C35.5789 53.7873 35.6279 54.1548 35.734 54.465C35.8484 54.7834 35.9872 55.0447 36.1831 55.2652C36.3709 55.4856 36.5995 55.6571 36.869 55.7632C37.1384 55.8775 37.4242 55.9347 37.7508 55.9347C37.9304 55.9347 38.1018 55.9184 38.2815 55.8857C38.4692 55.8449 38.6244 55.7959 38.7795 55.7387C38.9347 55.6734 39.0816 55.5999 39.2041 55.5183C39.3265 55.4285 39.4327 55.3468 39.5062 55.2488L39.3837 55.0937C39.3592 55.0529 39.3184 55.0447 39.2857 55.0447C39.2531 55.0447 39.2041 55.0774 39.1306 55.1264C39.0653 55.1835 38.9673 55.2488 38.8448 55.306C38.7387 55.3795 38.5836 55.4366 38.4121 55.4856C38.2488 55.5428 38.0447 55.5673 37.7998 55.5673C37.5303 55.5673 37.2935 55.5346 37.0731 55.4366C36.8526 55.355 36.673 55.208 36.5179 55.0284C36.3709 54.8488 36.2484 54.6202 36.1668 54.3507C36.077 54.0731 36.0443 53.7629 36.0443 53.4118V53.3301H39.4735C39.5225 53.3301 39.547 53.3219 39.5715 53.2975C39.596 53.273 39.6042 53.224 39.6042 53.1505C39.6042 52.8239 39.5552 52.5218 39.4572 52.2687C39.3755 52.0156 39.2449 51.7951 39.0735 51.6155C38.9102 51.4441 38.7142 51.3134 38.4856 51.2154ZM37.0976 51.5257C37.2935 51.4522 37.5058 51.4196 37.7508 51.4196C37.9712 51.4196 38.1753 51.4604 38.3631 51.5339C38.5428 51.6155 38.6979 51.7298 38.8204 51.8605C38.9347 51.9911 39.0326 52.1626 39.1061 52.3667C39.1796 52.5708 39.2122 52.7994 39.2122 53.0525H36.0852C36.1096 52.7994 36.175 52.579 36.2566 52.3748C36.3383 52.1626 36.4444 51.9993 36.5913 51.8523C36.7383 51.7053 36.9016 51.5992 37.0976 51.5257ZM41.5556 55.7142C41.7433 55.902 41.9801 55.9837 42.3067 55.9837C42.5033 55.9837 42.6847 55.9382 42.8729 55.8911L42.8946 55.8857C43.0742 55.804 43.2293 55.6897 43.3518 55.5591L43.2293 55.355C43.2048 55.3142 43.1803 55.306 43.1559 55.306C43.1313 55.306 43.0905 55.3223 43.0579 55.355C43.017 55.3876 42.968 55.4285 42.9109 55.4611C42.895 55.4691 42.8786 55.4775 42.8618 55.4862C42.8093 55.5132 42.7522 55.5426 42.6905 55.5673C42.6088 55.6081 42.4945 55.6163 42.3883 55.6163C42.3067 55.6163 42.2169 55.5918 42.1353 55.5673C42.0617 55.5428 41.9801 55.4938 41.9311 55.4366C41.8821 55.3795 41.8331 55.306 41.8005 55.208C41.7597 55.1182 41.7515 55.0039 41.7515 54.8733V51.6482H43.2375V51.3134H41.7433V49.5008H41.5229C41.4902 49.5008 41.4657 49.509 41.4413 49.5335C41.4167 49.558 41.4086 49.5825 41.4086 49.607L41.3024 51.3053L40.4941 51.3624V51.542C40.4941 51.5747 40.5023 51.5992 40.5268 51.6237C40.5513 51.64 40.5758 51.6482 40.6084 51.6482H41.2861V54.8978C41.2861 55.257 41.3759 55.5346 41.5556 55.7142ZM44.7969 48.9701V55.9102H45.246V52.3503C45.4501 52.0727 45.6951 51.8523 45.9564 51.689C46.2177 51.5257 46.5116 51.444 46.8218 51.444C47.2301 51.444 47.5485 51.5665 47.7526 51.8196C47.9567 52.0727 48.0547 52.4238 48.0547 52.8729V55.902H48.5119V52.8729C48.5119 52.5953 48.4874 52.3422 48.414 52.1217C48.3568 51.8931 48.2588 51.7135 48.1282 51.5584C47.9894 51.4032 47.8179 51.2889 47.6301 51.1991C47.4424 51.1093 47.2137 51.0766 46.9443 51.0766C46.5932 51.0766 46.283 51.1664 46.0054 51.3216C45.7278 51.493 45.4746 51.7053 45.2542 51.9748V48.9701H44.7969ZM52.8638 51.2154C52.6515 51.1338 52.3984 51.0848 52.1289 51.0848C51.786 51.0848 51.4839 51.142 51.2226 51.2154C50.9532 51.3216 50.7246 51.493 50.545 51.6972C50.3653 51.9176 50.2184 52.1626 50.1204 52.4483C50.0224 52.7341 49.9734 53.0525 49.9734 53.3873C49.9734 53.7873 50.0224 54.1548 50.1286 54.465C50.2429 54.7834 50.3898 55.0447 50.5776 55.2652C50.7654 55.4856 50.994 55.6571 51.2635 55.7632C51.5329 55.8775 51.8187 55.9347 52.1452 55.9347C52.3249 55.9347 52.4964 55.9184 52.676 55.8857C52.8638 55.8449 53.0189 55.7959 53.174 55.7387C53.3291 55.6734 53.4761 55.5999 53.5986 55.5183C53.7211 55.4285 53.8272 55.3468 53.9007 55.2488L53.7782 55.0937C53.7537 55.0529 53.7129 55.0447 53.6803 55.0447C53.6476 55.0447 53.5986 55.0774 53.5251 55.1264C53.4598 55.1835 53.3618 55.2488 53.2394 55.306C53.1332 55.3795 52.9781 55.4366 52.8066 55.4856C52.6433 55.5428 52.4392 55.5673 52.1942 55.5673C51.9248 55.5673 51.6881 55.5346 51.4676 55.4366C51.2471 55.355 51.0675 55.208 50.9124 55.0284C50.7654 54.8488 50.6429 54.6202 50.5613 54.3507C50.4715 54.0731 50.4388 53.7629 50.4388 53.4118V53.3301H53.8517C53.9007 53.3301 53.9252 53.3219 53.9497 53.2975C53.9742 53.273 53.9823 53.224 53.9823 53.1505C53.9823 52.8239 53.9334 52.5218 53.8354 52.2687C53.7537 52.0156 53.6231 51.7951 53.4516 51.6155C53.2883 51.4441 53.0924 51.3134 52.8638 51.2154ZM51.4758 51.5257C51.6717 51.4522 51.884 51.4196 52.1289 51.4196C52.3412 51.4196 52.5372 51.4604 52.725 51.5339C52.9046 51.6155 53.0597 51.7298 53.1822 51.8605C53.2965 51.9911 53.3945 52.1626 53.468 52.3667C53.5414 52.5708 53.5741 52.7994 53.5741 53.0525H50.4633C50.4878 52.7994 50.5531 52.579 50.6348 52.3748C50.7164 52.1626 50.8226 51.9993 50.9695 51.8523C51.1165 51.7053 51.2798 51.5992 51.4758 51.5257ZM55.7296 54.1956V51.1665L55.2724 51.1746V54.2038C55.2724 54.4813 55.2969 54.7345 55.3703 54.9549C55.4439 55.1835 55.5336 55.3631 55.6725 55.5183C55.8113 55.6734 55.9827 55.7877 56.1705 55.8775C56.3583 55.9673 56.5869 56 56.8563 56C57.2156 56 57.534 55.9184 57.8198 55.7469C58.1055 55.5836 58.3587 55.3631 58.5791 55.0855L58.6281 55.7877C58.6281 55.8775 58.6771 55.9102 58.7587 55.9102H59.0118V51.1665H58.5546V54.7263C58.3342 55.0039 58.0974 55.2243 57.8279 55.3795C57.5667 55.5428 57.2728 55.6244 56.9625 55.6244C56.5542 55.6244 56.2358 55.5019 56.0317 55.2488C55.8276 54.9957 55.7296 54.6446 55.7296 54.1956ZM63.2412 51.836C63.2902 51.836 63.3229 51.8115 63.3473 51.7625C63.3473 51.7625 63.4517 51.6255 63.4681 51.6139C63.4687 51.6144 63.4692 51.615 63.4698 51.6155C63.4707 51.6129 63.47 51.6125 63.4681 51.6139C63.2889 51.4513 63.0853 51.3131 62.8575 51.2318C62.6289 51.142 62.3676 51.1093 62.0818 51.1093C61.8369 51.1093 61.6246 51.142 61.4286 51.2154C61.2327 51.2726 61.0612 51.3706 60.9306 51.493C60.7999 51.6155 60.6938 51.7462 60.6203 51.9013C60.5468 52.0564 60.5141 52.2115 60.5141 52.383C60.5141 52.579 60.5468 52.7504 60.6203 52.8811C60.6938 53.0117 60.7999 53.1178 60.9224 53.2158C61.0449 53.3138 61.1918 53.3791 61.347 53.4444C61.5021 53.5097 61.6572 53.5669 61.8287 53.6159C62.0002 53.673 62.1553 53.722 62.3104 53.771C62.4656 53.82 62.6125 53.8772 62.735 53.9506C62.8575 54.0241 62.9636 54.1139 63.0371 54.2201C63.1106 54.3344 63.1432 54.465 63.1432 54.6202C63.1432 54.759 63.1106 54.8978 63.0616 55.0284C63.0126 55.159 62.9309 55.2652 62.833 55.3631C62.7268 55.4611 62.6043 55.5346 62.4492 55.5918C62.2941 55.6489 62.1226 55.6734 61.9185 55.6734C61.7144 55.6734 61.5347 55.6489 61.3878 55.5999C61.3436 55.5791 61.301 55.56 61.2603 55.5417C61.1734 55.5026 61.0953 55.4674 61.0286 55.4285C60.9143 55.3631 60.8407 55.306 60.7836 55.257C60.7264 55.208 60.6611 55.1835 60.6285 55.1835C60.6053 55.1835 60.5863 55.1917 60.5684 55.1994C60.5611 55.2026 60.554 55.2056 60.5468 55.208C60.5305 55.2162 60.506 55.2407 60.4978 55.2652L60.3917 55.4203C60.5877 55.5999 60.7999 55.7387 61.0449 55.8449C61.2898 55.951 61.5674 56 61.9022 56C62.1553 56 62.392 55.9755 62.6043 55.8939C62.8166 55.8122 62.9799 55.7061 63.1269 55.5836C63.2739 55.4611 63.38 55.306 63.4535 55.1264C63.527 54.9467 63.5596 54.7508 63.5596 54.5467C63.5596 54.367 63.527 54.1956 63.4535 54.0649C63.38 53.9343 63.2739 53.8282 63.1514 53.7302C63.0289 53.6485 62.8819 53.5587 62.7268 53.5016C62.5717 53.4363 62.4166 53.3791 62.2451 53.3301C62.0736 53.273 61.9185 53.224 61.7634 53.175C61.6083 53.126 61.4613 53.0688 61.3388 52.9954C61.2163 52.9219 61.1102 52.8402 61.0367 52.7423C60.9632 52.6443 60.9306 52.5136 60.9306 52.3667C60.9306 52.2442 60.9551 52.1217 61.0122 52.0156C61.0612 51.9094 61.1429 51.8115 61.2408 51.7298C61.3306 51.6563 61.4531 51.5829 61.6001 51.5339C61.747 51.4849 61.9022 51.4604 62.0736 51.4604C62.2696 51.4604 62.4247 51.4849 62.5553 51.5175C62.686 51.5502 62.8085 51.5992 62.8901 51.6482C62.9452 51.6782 62.9942 51.7083 63.037 51.7346C63.064 51.7511 63.0885 51.7662 63.1106 51.7788C63.1596 51.8115 63.2085 51.836 63.2412 51.836Z" fill="#FF6C5C"/>
</svg>
