<svg width="200" height="68" viewBox="0 0 200 68" fill="none" xmlns="http://www.w3.org/2000/svg">
<path fill-rule="evenodd" clip-rule="evenodd" d="M73.0212 25.7953C76.1843 25.951 77.7657 28.7985 77.7657 34.3448C77.7657 39.5163 76.1059 42.2075 72.7911 42.4273C71.2242 42.5202 69.4276 41.9299 67.4044 40.66V27.4216C67.7422 27.08 68.3844 26.7417 69.3385 26.4005C70.5341 25.9362 71.7624 25.7359 73.0212 25.7953ZM79.6773 41.5913C81.0066 39.7315 81.6674 37.3925 81.6674 34.5748C81.6674 31.4158 80.999 28.832 79.6659 26.816C78.2365 24.6184 76.2026 23.5344 73.5628 23.5675L73.5148 23.5195C70.6262 23.5493 68.1726 24.1541 66.1528 25.331C65.2845 25.8288 64.5676 26.4153 64.0108 27.0982V53.8052L67.404 55.0156V42.9834C69.5015 44.2829 71.5399 44.9026 73.5186 44.8398C76.1432 44.7803 78.1961 43.6964 79.6773 41.5913ZM101.269 50.3232C102.026 48.8679 102.405 46.2509 102.405 42.4715L102.404 24.0314H99.0113V40.6147C97.2406 41.7916 95.5739 42.393 94.0184 42.4265C92.4629 42.4566 91.1931 42.0628 90.2131 41.2424C89.2331 40.422 88.7433 39.2523 88.7433 37.7342V23.5195L85.3501 24.6816V38.8044C85.3501 40.5679 86.0627 42.0228 87.4883 43.17C88.7581 44.2246 90.2317 44.748 91.9026 44.748C94.4454 44.748 96.8769 44.2246 99.1971 43.17V44.0536C99.1971 46.6855 98.9522 48.4638 98.4548 49.3954C97.8348 50.5392 96.7062 51.3927 95.0616 51.9495C94.2263 52.228 92.7859 52.5068 90.7402 52.7848L91.3012 54.923C93.313 54.8598 95.1881 54.4885 96.9218 53.8055C99.06 52.9402 100.508 51.7781 101.269 50.3232ZM114.533 44.7023C114.906 44.7017 115.279 44.6857 115.651 44.6543H115.65V42.8874C114.381 42.8242 113.449 42.5755 112.862 42.1413C112.179 41.6138 111.838 40.7118 111.838 39.4382V26.1662H115.651V24.0318H111.838V17.1563L108.449 18.3629V24.0318H106.124V26.1662H108.449V39.5311C108.449 41.1464 108.983 42.4121 110.049 43.3288C111.117 44.246 112.614 44.7023 114.533 44.7023ZM132.802 44.3759H136.195L136.196 30.2092C136.196 28.4123 135.639 26.9086 134.521 25.7023C133.407 24.4957 131.952 23.8905 130.155 23.8905C127.583 23.8905 125.214 24.6812 123.046 26.2592V12L119.653 13.0691V44.3759H123.046V28.6758C125.381 27.035 127.326 26.2146 128.882 26.2146C130.159 26.2146 131.154 26.7566 131.87 27.8409C132.491 28.7985 132.802 29.9457 132.802 31.2783V44.3759ZM153.02 28.5277C153.826 29.9198 154.23 31.6794 154.23 33.8104C154.23 39.6797 152.363 42.6273 148.628 42.6573C146.638 42.6909 145.145 41.7033 144.151 39.7021C143.371 38.1318 142.985 36.1752 142.985 33.8329C142.985 28.7242 144.841 26.0588 148.561 25.8436C150.573 25.9362 152.062 26.8313 153.02 28.5277ZM155.622 41.4058C157.17 39.3902 157.946 36.8658 157.946 33.8325C157.946 30.9816 157.126 28.5833 155.485 26.6305C153.717 24.559 151.423 23.5195 148.606 23.5195C145.788 23.5195 143.508 24.559 141.775 26.6305C140.134 28.5833 139.313 30.9816 139.313 33.8325C139.313 36.8658 140.071 39.3902 141.589 41.4058C143.264 43.6629 145.584 44.7952 148.561 44.7952C151.565 44.7952 153.918 43.6632 155.622 41.4058ZM174.006 44.3759H177.399V28.8171C177.399 27.5138 176.935 26.4005 176.003 25.4723C175.168 24.6332 174.084 24.0615 172.751 23.7534C172.039 23.5972 171.281 23.5195 170.476 23.5195C169.299 23.5195 167.932 23.7203 166.385 24.1248C164.744 24.559 162.947 25.4875 160.994 26.9089V44.3759H164.387V27.3283C165.842 26.3072 167.376 25.78 168.987 25.7503C170.505 25.7172 171.723 26.1293 172.636 26.9794C173.55 27.8333 174.006 29.0179 174.006 30.536V44.3759ZM25.6179 13.6111C27.0846 13.3513 28.7517 13.2024 30.4977 13.1944C32.2436 13.186 34.0634 13.319 35.8181 13.6107C38.5893 14.0727 40.9241 16.1519 40.9241 18.9193V28.6442C40.9241 31.4958 38.6575 33.8336 35.8181 33.8336H25.6179C22.1546 33.8336 19.2382 36.8067 19.2382 40.1775V44.8432H15.727C12.7592 44.8432 11.0255 42.689 10.2995 39.6656C9.32028 35.6039 9.36179 33.1766 10.2995 29.2868C11.1123 25.8932 13.7114 24.1091 16.6792 24.1091H30.7239V22.8119H20.5119V18.9197C20.5119 15.9725 21.2965 14.3748 25.6179 13.6111ZM26.8912 18.2764C26.8912 17.2001 26.03 16.3244 24.975 16.3244C23.9165 16.3244 23.0588 17.2001 23.0588 18.2764C23.0588 19.3494 23.9165 20.2166 24.975 20.2166C26.0296 20.2166 26.8912 19.349 26.8912 18.2764ZM42.1977 24.1088V28.6435C42.1977 32.1593 39.217 35.1183 35.8181 35.1183H25.6179C22.8238 35.1183 20.5119 37.5095 20.5119 40.3077V50.0318C20.5119 52.7997 22.9183 54.4275 25.6179 55.2213C28.8504 56.1719 31.9503 56.3437 35.8181 55.2213C38.389 54.477 40.9241 52.9787 40.9241 50.0318V46.1401H30.7239V44.8428H46.0301C48.9983 44.8428 50.1039 42.7724 51.1361 39.6652C52.2026 36.4666 52.1572 33.3899 51.1361 29.2864C50.4025 26.3319 49.0017 24.1088 46.0301 24.1088H42.1977ZM36.4606 48.7346C37.5191 48.7346 38.3768 49.6018 38.3768 50.6748C38.3768 51.7511 37.5191 52.6267 36.4606 52.6267C35.4056 52.6267 34.5445 51.7511 34.5445 50.6748C34.5445 49.6022 35.406 48.7346 36.4606 48.7346ZM184.602 21.0065H184.007L184.006 17.2755H182.597V16.8306H186.011V17.2755H184.602V21.0065ZM187.047 21.0065H186.539V16.831H187.359L188.43 20.4086L189.686 16.831H190.42V21.0065H189.865V17.6103L188.715 21.0062H188.15L187.047 17.5989V21.0065Z" fill="#FF6C5C"/>
</svg>
