<svg width="200" height="68" viewBox="0 0 200 68" fill="none" xmlns="http://www.w3.org/2000/svg">
<path fill-rule="evenodd" clip-rule="evenodd" d="M186.186 30.5745V44.6794V44.7161H189.264V29.8418C189.264 25.1157 186.626 22.368 182.449 22.368C180.031 22.368 177.174 23.4671 174.866 25.7752V12L171.898 12.6594V44.6794H174.866V28.1565C176.624 26.398 179.042 25.0791 181.57 25.0791C184.648 25.0791 186.186 26.7277 186.186 30.5745ZM33.6335 22.0383L31.2154 24.4563C35.1723 28.413 35.1723 34.7877 31.2154 38.6711C27.2588 42.6278 20.8842 42.6278 17.0007 38.6711C13.0439 34.7144 13.0439 28.3397 17.0007 24.4563L23.2655 18.1915L24.1447 17.3122V12.5862L14.6925 22.0383C9.41695 27.3139 9.41695 35.8135 14.6925 41.0891C19.9683 46.3647 28.4677 46.3647 33.6335 41.0891C38.909 35.7768 38.909 27.3139 33.6335 22.0383ZM30.6659 19.6936C30.6659 20.6648 29.8786 21.4521 28.9073 21.4521C27.9361 21.4521 27.1488 20.6648 27.1488 19.6936C27.1488 18.7224 27.9361 17.9351 28.9073 17.9351C29.8786 17.9351 30.6659 18.7224 30.6659 19.6936ZM54.003 34.1282H58.0697C65.4336 34.1282 70.0498 30.7211 69.9397 24.0899C69.9397 18.7044 66.203 14.8576 58.3994 14.8576H50.9256V44.5695H54.003V34.1282ZM54.113 17.8251H58.3994C63.8948 17.8251 66.9722 20.1332 66.9722 24.4563C66.9722 29.0724 63.8948 31.2706 58.2895 31.3805L54.113 31.4904V17.8251ZM83.715 44.4596L81.9565 49.1857C79.9782 54.4613 77.8898 56 74.9223 56C73.2737 56 72.0647 55.5604 70.7458 55.0108L71.625 52.2631C72.6143 52.8127 73.7134 53.2523 74.9223 53.2523C76.5709 53.2523 77.78 52.373 79.4286 48.1965L80.8574 44.3497L72.3944 22.8809H75.5818L82.396 40.8326L89.1005 22.8809H92.1779L83.715 44.4596ZM102.216 44.6794V17.8251H112.584V14.9675H88.6975V17.8251H99.1388V44.6794H102.216ZM121.267 45.229C115.222 45.229 110.826 40.7227 110.826 33.7985C110.826 26.8743 115.442 22.2581 121.597 22.2581C127.752 22.2581 132.038 26.7644 132.038 33.6886C131.928 40.6128 127.312 45.229 121.267 45.229ZM121.377 25.0058C116.761 25.0058 113.793 28.6328 113.793 33.7985C113.793 39.0741 116.871 42.7011 121.487 42.7011C126.103 42.7011 129.07 39.0741 129.07 33.9084C129.07 28.5229 125.993 25.0058 121.377 25.0058ZM136.434 44.6794H139.402V30.5745C141.16 26.7277 143.249 24.9692 145.557 24.9692C146.766 24.9692 147.865 25.4088 148.854 25.9584L149.623 23.2107C148.524 22.6611 147.205 22.2215 145.777 22.2215C142.919 22.2215 140.831 24.0899 139.402 26.8376V22.2215L136.434 22.8809V44.6794ZM161.2 45.229C154.606 45.229 150.539 40.5029 150.539 33.7985C150.539 26.9842 155.045 22.2581 161.2 22.2581C163.838 22.2581 166.146 22.9176 168.015 24.1266L167.245 26.7644C165.597 25.6653 163.508 25.0058 161.2 25.0058C156.474 25.0058 153.617 28.5229 153.617 33.6886C153.617 38.9642 156.694 42.4813 161.31 42.4813C163.508 42.4813 165.707 41.8218 167.355 40.7227L168.015 43.4704C166.036 44.5695 163.728 45.229 161.2 45.229Z" fill="#FF6C5C"/>
</svg>
