<svg width="140" height="68" viewBox="0 0 140 68" fill="none" xmlns="http://www.w3.org/2000/svg">
<path fill-rule="evenodd" clip-rule="evenodd" d="M50.298 29.8567C50.8644 29.8567 51.4078 30.0773 51.8093 30.4703C52.2108 30.8633 52.4377 31.3967 52.4405 31.9538V53.9011C52.4405 55.0568 51.4904 56 50.3085 56H12.2665C11.7006 56 11.1579 55.7789 10.7578 55.3853C10.3576 54.9916 10.1328 54.4578 10.1328 53.9011V14.0989C10.1328 12.9449 11.0829 12.0017 12.2683 12.0017H16.8923C18.0654 12.0017 19.0243 12.9346 19.0243 14.0989V27.8822C19.0557 28.3736 19.2595 28.8391 19.6009 29.1992C19.9423 29.5593 20.4001 29.7917 20.8963 29.8567H24.356C25.4044 29.7617 26.2772 28.9221 26.3352 27.8822V14.0971C26.3352 12.9432 27.2835 12 28.4671 12H33.0911C34.2642 12 35.2249 12.9328 35.2249 14.0971V27.7371C35.2249 28.815 36.0292 29.7306 37.0864 29.855H50.2997L50.298 29.8567ZM44.2094 44.908V40.6136C44.2094 39.4596 43.261 38.5147 42.0774 38.5147H37.4517C36.2786 38.5147 35.3179 39.4493 35.3179 40.6136V44.9063C35.3179 46.0602 36.268 47.0034 37.4517 47.0034H42.0756C43.2488 47.0034 44.2076 46.0706 44.2076 44.9063L44.2094 44.908ZM66.6859 32.816L65.6561 28.01C65.5288 27.3662 65.366 26.73 65.1686 26.1042C64.9928 25.5488 64.7433 25.0834 64.4325 24.7047C64.1168 24.3252 63.7054 24.0406 63.195 23.8418C62.6854 23.648 62.0172 23.5482 61.1911 23.5482H59.0277V32.8152H56.6713V12.0008H61.8274C62.6805 12.0008 63.5066 12.0908 64.3106 12.2666C65.1097 12.4433 65.8189 12.7369 66.4331 13.1435C67.0508 13.5557 67.5589 14.1121 67.9136 14.7646C68.2882 15.4377 68.4739 16.2638 68.4739 17.2486C68.4739 18.0027 68.3839 18.671 68.2072 19.2443C68.0464 19.7888 67.7759 20.2945 67.4122 20.7305C67.0605 21.146 66.618 21.4977 66.0945 21.7823C65.5711 22.067 64.9519 22.2976 64.2477 22.4735V22.5323C64.9339 22.7082 65.4844 22.9339 65.8958 23.2006C66.3064 23.4713 66.636 23.7919 66.8846 24.1674C67.1284 24.542 67.3181 24.9706 67.4531 25.454C67.5889 25.9373 67.7148 26.4927 67.8416 27.1119L69.0423 32.8152L66.6859 32.816ZM66.1125 17.4964C66.1125 16.6343 65.9587 15.9612 65.6561 15.4868C65.3664 15.0252 64.9471 14.6594 64.4505 14.4349C63.9491 14.2092 63.3807 14.0734 62.7435 14.0284C62.0915 13.9827 61.4382 13.9601 60.7846 13.9606H59.0318V21.5926H60.3274C61.0365 21.5926 61.7317 21.5435 62.427 21.4396C63.0756 21.3499 63.7036 21.1479 64.2828 20.8425C64.827 20.5511 65.2849 20.1214 65.6103 19.5968C65.9399 19.0595 66.1125 18.3593 66.1125 17.4964ZM79.8969 32.816V30.9144H79.8388C79.6405 31.2899 79.3703 31.6228 79.0438 31.8943C78.7093 32.174 78.3437 32.4095 77.9462 32.5944C77.546 32.7798 77.1266 32.9205 76.6956 33.014C76.2819 33.1054 75.8596 33.1522 75.436 33.1538C74.8176 33.1538 74.2664 33.059 73.7879 32.8651C73.3295 32.6915 72.9171 32.415 72.5823 32.057C72.2472 31.6912 71.9936 31.2586 71.838 30.7876C71.6662 30.2911 71.5803 29.7407 71.5803 29.1305C71.5803 28.5792 71.6883 28.0917 71.905 27.6582C72.1218 27.2248 72.4064 26.8452 72.7679 26.5156C73.1415 26.1759 73.5608 25.8901 74.0136 25.6666C74.488 25.427 74.9755 25.2372 75.481 25.0924C76.441 24.8151 77.4344 24.6707 78.4337 24.663C78.6782 24.663 78.917 24.6589 79.1428 24.6548C79.3685 24.6499 79.6033 24.623 79.8519 24.5731V24.2663C79.8519 23.738 79.8429 23.2096 79.829 22.6812C79.8231 22.195 79.7331 21.7136 79.5632 21.258C79.4068 20.8458 79.1297 20.4904 78.7682 20.2381C78.4026 19.9804 77.8562 19.8496 77.143 19.8496C76.7185 19.8496 76.339 19.8905 76.0003 19.9674C75.6861 20.0332 75.3883 20.162 75.1252 20.346C74.8735 20.5309 74.6689 20.7724 74.5281 21.0511C74.3751 21.3447 74.2713 21.7054 74.2124 22.1348H71.9279C71.9361 21.4069 72.0907 20.7935 72.3925 20.288C72.6834 19.792 73.0834 19.3688 73.5621 19.0505C74.0649 18.7226 74.6213 18.4856 75.2061 18.3503C75.8211 18.2019 76.4515 18.1278 77.0841 18.1295C78.7142 18.1295 79.9239 18.4992 80.714 19.2353C81.5049 19.9714 81.9016 21.1411 81.9016 22.7401V32.8152H79.8977L79.8969 32.816ZM78.6291 26.303C78.1678 26.303 77.6624 26.3528 77.1201 26.4567C76.59 26.5549 76.0763 26.7267 75.5938 26.9671C75.1194 27.2068 74.7268 27.5135 74.407 27.902C74.0864 28.2905 73.9277 28.769 73.9277 29.3383C73.9277 29.9476 74.1134 30.449 74.479 30.8416C74.8495 31.2342 75.337 31.4289 75.9464 31.4289C76.3079 31.4289 76.6596 31.3749 76.9933 31.2571C77.3251 31.1467 77.6398 30.9903 77.9282 30.7925C78.2218 30.5922 78.4875 30.3537 78.7183 30.0834C78.9538 29.8077 79.1477 29.5092 79.2925 29.1837C79.4094 28.9178 79.5043 28.6741 79.5812 28.4574C79.7278 28.0215 79.81 27.5666 79.8249 27.107C79.8339 26.8722 79.8388 26.6015 79.8388 26.2989H78.6283L78.6291 26.303ZM97.4208 25.7885C97.4208 26.7324 97.326 27.6452 97.1321 28.5293C96.9374 29.4151 96.6168 30.2003 96.1653 30.8874C95.7159 31.5724 95.1068 32.138 94.3904 32.5355C93.6592 32.9461 92.7472 33.1538 91.6586 33.1538C90.6476 33.1538 89.7986 32.996 89.1124 32.6844C88.4262 32.3686 87.8708 31.9351 87.4553 31.3749C87.0406 30.8146 86.738 30.1562 86.5572 29.3922C86.3706 28.5776 86.2798 27.7439 86.2865 26.9082V12.0008H88.3313V20.8384H88.4041C88.5229 20.4243 88.717 20.0356 88.9766 19.6917C89.2296 19.3628 89.5333 19.0762 89.8764 18.8427C90.2248 18.6099 90.6068 18.4317 91.0092 18.3143C91.4254 18.1908 91.8574 18.1282 92.2917 18.1287C92.9779 18.1287 93.5832 18.2375 94.1017 18.4583C94.6211 18.6799 95.0726 18.9818 95.4472 19.3662C95.8267 19.7506 96.1424 20.1923 96.396 20.6994C96.655 21.2132 96.8579 21.7534 97.0012 22.3107C97.1501 22.88 97.254 23.4623 97.317 24.0586C97.3889 24.6499 97.4208 25.2282 97.4208 25.7885ZM95.0636 25.7345C95.0613 25.3591 95.0449 24.984 95.0145 24.6099C94.9766 24.1811 94.9177 23.7544 94.8378 23.3315C94.7561 22.8939 94.6391 22.4686 94.4902 22.0539C94.3524 21.6582 94.1594 21.284 93.9169 20.9423C93.6898 20.6245 93.3993 20.3571 93.0638 20.1571C92.7292 19.9534 92.3407 19.8545 91.8982 19.8545C91.4287 19.8545 91.0092 19.9624 90.6476 20.1792C90.2812 20.4004 89.9609 20.6903 89.7046 21.0331C89.4379 21.3848 89.2163 21.7872 89.0404 22.2387C88.8652 22.688 88.7249 23.1501 88.6208 23.621C88.5201 24.0767 88.4464 24.538 88.4 25.0025C88.3573 25.403 88.3344 25.8053 88.3313 26.2081C88.3313 26.7594 88.3722 27.3368 88.4491 27.9421C88.526 28.5522 88.6838 29.1166 88.9137 29.636C89.1443 30.1554 89.4739 30.5848 89.9033 30.9234C90.3319 31.262 90.8963 31.4289 91.6046 31.4289C92.0749 31.4289 92.4904 31.3389 92.8511 31.1622C93.2031 30.989 93.5163 30.7464 93.7721 30.449C94.0297 30.1513 94.2375 29.8028 94.4044 29.4102C94.5712 29.0176 94.7029 28.6111 94.8019 28.1915C94.9008 27.7711 94.9687 27.3466 95.0096 26.9262C95.0456 26.5066 95.0636 26.1083 95.0636 25.7345ZM111.928 25.7885C111.928 26.7324 111.833 27.6452 111.639 28.5293C111.445 29.4151 111.124 30.2003 110.674 30.8874C110.224 31.5724 109.615 32.138 108.899 32.5355C108.167 32.9461 107.255 33.1538 106.167 33.1538C105.155 33.1538 104.306 32.996 103.62 32.6844C102.934 32.3686 102.378 31.9351 101.963 31.3749C101.547 30.8146 101.245 30.1562 101.065 29.3922C100.878 28.5776 100.787 27.7439 100.794 26.9082V12.0008H102.839V20.8384H102.912C103.03 20.4243 103.224 20.0356 103.484 19.6917C103.737 19.3628 104.041 19.0762 104.384 18.8427C104.732 18.6098 105.114 18.4316 105.517 18.3143C105.933 18.1908 106.365 18.1282 106.799 18.1287C107.485 18.1287 108.09 18.2375 108.609 18.4583C109.129 18.6799 109.58 18.9818 109.955 19.3662C110.334 19.7506 110.65 20.1923 110.903 20.6994C111.162 21.2132 111.365 21.7534 111.509 22.3107C111.658 22.88 111.761 23.4623 111.824 24.0586C111.896 24.6499 111.928 25.2282 111.928 25.7885ZM109.571 25.7345C109.569 25.3591 109.552 24.984 109.522 24.6099C109.484 24.1811 109.425 23.7544 109.345 23.3315C109.263 22.8939 109.147 22.4686 108.998 22.0539C108.86 21.6582 108.667 21.284 108.424 20.9423C108.197 20.6245 107.907 20.3571 107.571 20.1571C107.237 19.9534 106.848 19.8545 106.406 19.8545C105.936 19.8545 105.517 19.9624 105.155 20.1792C104.788 20.4003 104.468 20.6902 104.211 21.0331C103.945 21.3848 103.724 21.7872 103.548 22.2387C103.373 22.688 103.232 23.1501 103.128 23.621C103.028 24.0767 102.954 24.538 102.907 25.0025C102.865 25.403 102.842 25.8053 102.839 26.2081C102.839 26.7594 102.88 27.3368 102.957 27.9421C103.033 28.5522 103.191 29.1166 103.421 29.636C103.652 30.1554 103.981 30.5848 104.411 30.9234C104.839 31.262 105.404 31.4289 106.112 31.4289C106.582 31.4289 106.998 31.3389 107.359 31.1622C107.711 30.989 108.024 30.7464 108.28 30.449C108.537 30.1513 108.745 29.8028 108.912 29.4102C109.078 29.0159 109.211 28.6082 109.309 28.1915C109.408 27.7711 109.476 27.3466 109.517 26.9262C109.553 26.5066 109.571 26.1083 109.571 25.7345ZM115.55 14.7106V14.7098H118.258V12H115.55V14.7098H115.549L115.55 14.7106ZM115.875 32.8152V18.4542H117.92V32.8152H115.875ZM126.006 20.1751V29.0127C126.006 29.7807 126.192 30.3721 126.567 30.7966C126.941 31.2219 127.537 31.4289 128.355 31.4289C128.597 31.4331 128.839 31.4103 129.077 31.361C129.308 31.3046 129.536 31.2335 129.759 31.1483V32.9919C129.456 33.041 129.154 33.0819 128.851 33.1089C128.553 33.1408 128.251 33.1538 127.943 33.1538C127.266 33.1538 126.679 33.0909 126.183 32.9641C125.686 32.8381 125.27 32.6304 124.936 32.3367C124.602 32.048 124.354 31.6685 124.192 31.1941C124.029 30.7197 123.948 30.1374 123.948 29.4421V20.1751H121.604V18.4493H123.948V15.1081L125.992 13.8125V18.4501H129.867V20.1759L126.006 20.1751ZM73.1847 37.8718V55.8726H75.2581V35.4125H71.8276L66.0085 52.8183H65.9506L60.146 35.4125H56.6713V55.8678H58.7391V37.8718H58.8098L64.8195 55.8678H67.1051L73.1284 37.8718H73.1847ZM84.1298 55.4529C84.8623 55.7367 85.7096 55.879 86.6639 55.879H95.5944V53.8948L91.3816 54.1569L91.3245 54.099C91.7154 53.8509 92.052 53.5263 92.3142 53.1447C92.6068 52.7247 92.8521 52.2736 93.0458 51.7997C93.25 51.3069 93.4188 50.7787 93.5475 50.2191C93.6753 49.6694 93.7762 49.1137 93.8498 48.5541C93.9756 47.5796 94.0408 46.5982 94.0451 45.6156C94.0451 44.8036 94.0009 43.9779 93.9205 43.1386C93.8401 42.2993 93.6986 41.4921 93.4944 40.7155C93.2902 39.938 93.0104 39.2056 92.6599 38.5222C92.3094 37.8349 91.8656 37.2399 91.3285 36.7334C90.7695 36.2127 90.1155 35.8043 89.4022 35.5307C88.6521 35.2372 87.7822 35.0909 86.7885 35.0909C85.7675 35.0909 84.8711 35.2332 84.1033 35.517C83.3395 35.8008 82.6739 36.1916 82.1151 36.6892C81.5536 37.19 81.0835 37.7847 80.7259 38.4467C80.3617 39.126 80.0682 39.8496 79.8511 40.6351C79.6323 41.4353 79.478 42.2518 79.3897 43.0767C79.2964 43.9201 79.2522 44.7682 79.2522 45.6156C79.2522 46.4259 79.3027 47.2355 79.4033 48.0396C79.5028 48.8398 79.6706 49.63 79.905 50.4016C80.1284 51.1445 80.4334 51.8603 80.8143 52.5361C81.1803 53.1888 81.6494 53.7779 82.2035 54.2807C82.7683 54.7864 83.4212 55.1837 84.1298 55.4529ZM91.4797 43.8405C91.5102 44.4708 91.5279 45.052 91.5279 45.5851C91.5279 46.1712 91.515 46.7878 91.4925 47.4358C91.4708 48.0749 91.4081 48.7101 91.3068 49.3315C91.2039 49.953 91.0496 50.5431 90.8405 51.0978C90.6431 51.6341 90.353 52.1315 89.9835 52.5675C89.6075 52.9988 89.143 53.3441 88.6216 53.5797C88.0757 53.8329 87.41 53.9567 86.6286 53.9567C85.9355 53.9567 85.3286 53.8241 84.818 53.5572C84.3075 53.291 83.8726 52.9357 83.5132 52.4919C83.1431 52.028 82.8467 51.5098 82.6345 50.9555C82.4077 50.3791 82.2301 49.7801 82.1063 49.1627C81.9776 48.5412 81.8924 47.9246 81.8442 47.3071C81.7951 46.6905 81.7734 46.1173 81.7734 45.5851C81.7734 45.0255 81.7903 44.4257 81.8305 43.7826C81.8707 43.1434 81.9503 42.5043 82.0709 41.8643C82.1908 41.239 82.366 40.6256 82.5943 40.0313C82.8097 39.4699 83.114 38.9468 83.4955 38.482C83.8689 38.0335 84.3331 37.6691 84.8574 37.4128C85.3945 37.1459 86.0376 37.0132 86.7934 37.0132C87.5073 37.0132 88.1239 37.1507 88.6344 37.4256C89.1391 37.6975 89.5808 38.0728 89.9304 38.5271C90.2934 39.0065 90.5795 39.5395 90.7786 40.1069C90.9902 40.7051 91.1521 41.3198 91.2626 41.9447C91.3721 42.5718 91.4446 43.2048 91.4797 43.8405Z" fill="#FF6C5C"/>
</svg>
