<svg width="66" height="68" viewBox="0 0 66 68" fill="none" xmlns="http://www.w3.org/2000/svg">
<path d="M52.8265 29.7232C52.8265 27.0871 49.5253 24.5888 44.4637 23.0396C45.6318 17.8807 45.1127 13.7764 42.8252 12.4624C42.2979 12.1541 41.6816 12.0081 41.0083 12.0081V13.817C41.3814 13.817 41.6816 13.89 41.933 14.0278C43.0361 14.6605 43.5148 17.0696 43.1415 20.1681C43.0524 20.9306 42.9064 21.7336 42.728 22.5529C41.138 22.1635 39.4022 21.8634 37.5772 21.6687C36.4822 20.1681 35.3466 18.8054 34.2028 17.6131C36.8471 15.1553 39.3293 13.8088 41.0165 13.8088V12C38.7857 12 35.8657 13.5898 32.9132 16.3477C29.9606 13.606 27.0406 12.0324 24.81 12.0324V13.8413C26.489 13.8413 28.9791 15.1797 31.6235 17.6212C30.4878 18.8135 29.3522 20.1681 28.2734 21.6687C26.4402 21.8634 24.7044 22.1635 23.1147 22.561C22.928 21.7499 22.7902 20.963 22.6928 20.2087C22.3117 17.1102 22.782 14.7011 23.8772 14.0603C24.1204 13.9143 24.4367 13.8494 24.81 13.8494V12.0406C24.1286 12.0406 23.5121 12.1866 22.9768 12.4948C20.6974 13.8088 20.1865 17.9051 21.3625 23.0477C16.3173 24.6051 13.0322 27.0953 13.0322 29.7232C13.0322 32.3596 16.3335 34.8579 21.395 36.407C20.2269 41.566 20.746 45.6702 23.0336 46.9842C23.5608 47.2924 24.1772 47.4384 24.8586 47.4384C27.0892 47.4384 30.0094 45.8486 32.9618 43.0908C35.9143 45.8325 38.8345 47.4061 41.0651 47.4061C41.7463 47.4061 42.3628 47.2601 42.8983 46.9518C45.1775 45.6377 45.6886 41.5415 44.5123 36.399C49.5414 34.8497 52.8265 32.3514 52.8265 29.7232ZM42.2656 24.313C41.9654 25.3595 41.5923 26.4381 41.1705 27.517C40.838 26.8682 40.4892 26.2192 40.108 25.5702C39.7349 24.9214 39.3373 24.2887 38.9399 23.6722C40.0916 23.8426 41.2029 24.0535 42.2656 24.313ZM38.5505 32.9516C37.9178 34.0467 37.269 35.085 36.5957 36.0503C35.387 36.1556 34.1624 36.2124 32.9294 36.2124C31.7045 36.2124 30.4797 36.1556 29.2793 36.0582C28.6061 35.0929 27.9489 34.0629 27.3163 32.9759C26.6998 31.9134 26.1402 30.8345 25.6291 29.7477C26.1321 28.6607 26.6998 27.5737 27.3083 26.5112C27.9409 25.4162 28.5897 24.3779 29.263 23.4127C30.4717 23.3072 31.6964 23.2505 32.9294 23.2505C34.1542 23.2505 35.3791 23.3072 36.5794 23.4046C37.2527 24.3698 37.9098 25.3999 38.5425 26.4869C39.159 27.5494 39.7185 28.6283 40.2297 29.7153C39.7185 30.8021 39.159 31.8891 38.5505 32.9516ZM41.1705 31.8972C41.5963 32.9543 41.9699 34.0317 42.2899 35.1254C41.2272 35.385 40.108 35.6041 38.948 35.7744C39.3454 35.1499 39.7428 34.5091 40.1161 33.8519C40.4892 33.2032 40.838 32.546 41.1705 31.8972ZM32.9455 40.552C32.1912 39.7732 31.4368 38.9053 30.6906 37.9563C31.4207 37.9888 32.1669 38.0131 32.9212 38.0131C33.6837 38.0131 34.4381 37.997 35.1763 37.9563C34.48 38.8611 33.7353 39.7276 32.9455 40.552ZM26.9107 35.7744C25.759 35.6041 24.6477 35.3931 23.5852 35.1336C23.8852 34.0872 24.2584 33.0084 24.6801 31.9295C25.0128 32.5785 25.3616 33.2275 25.7426 33.8763C26.1239 34.5252 26.5133 35.1579 26.9107 35.7744ZM32.9051 18.8947C33.6594 19.6733 34.4138 20.5413 35.16 21.4903C34.4299 21.4578 33.6837 21.4335 32.9294 21.4335C32.1669 21.4335 31.4125 21.4497 30.6745 21.4903C31.3707 20.5855 32.1153 19.719 32.9051 18.8947ZM26.9026 23.6722C26.5052 24.2968 26.1078 24.9376 25.7347 25.5945C25.3616 26.2435 25.0128 26.8925 24.6801 27.5413C24.2543 26.4842 23.8807 25.4068 23.5608 24.313C24.6234 24.0616 25.7426 23.8426 26.9026 23.6722ZM19.5618 33.8276C16.6905 32.6028 14.8329 30.9969 14.8329 29.7232C14.8329 28.4498 16.6905 26.8357 19.5618 25.619C20.2594 25.3188 21.0219 25.0512 21.8087 24.7997C22.2711 26.3895 22.8794 28.0442 23.6338 29.7396C22.8876 31.4267 22.2872 33.0733 21.833 34.6551C21.0301 34.4035 20.2676 34.1278 19.5618 33.8276ZM23.9258 45.4188C22.8226 44.7861 22.344 42.3771 22.7173 39.2784C22.8065 38.5161 22.9523 37.7129 23.1308 36.8937C24.7208 37.2831 26.4565 37.5833 28.2816 37.7779C29.3765 39.2784 30.5122 40.6411 31.6559 41.8335C29.0116 44.2913 26.5295 45.6377 24.8423 45.6377C24.4774 45.6297 24.1692 45.5566 23.9258 45.4188ZM43.166 39.238C43.5471 42.3364 43.0767 44.7455 41.9816 45.3863C41.7384 45.5323 41.422 45.5973 41.0488 45.5973C39.3697 45.5973 36.8796 44.2589 34.2353 41.8173C35.3709 40.625 36.5065 39.2704 37.5853 37.7697C39.4185 37.5751 41.1543 37.2749 42.7441 36.8775C42.9307 37.6968 43.0767 38.4836 43.166 39.238ZM46.2888 33.8276C45.5912 34.1278 44.8287 34.3955 44.0419 34.6469C43.5795 33.0572 42.9712 31.4024 42.2168 29.7071C42.9632 28.0199 43.5634 26.3734 44.0175 24.7916C44.8207 25.0431 45.583 25.3188 46.2969 25.619C49.1683 26.8437 51.0258 28.4498 51.0258 29.7232C51.0176 30.9969 49.1602 32.611 46.2888 33.8276Z" fill="#FF6C5C"/>
<path d="M32.9215 33.4302C34.9689 33.4302 36.6285 31.7706 36.6285 29.7232C36.6285 27.676 34.9689 26.0164 32.9215 26.0164C30.8743 26.0164 29.2147 27.676 29.2147 29.7232C29.2147 31.7706 30.8743 33.4302 32.9215 33.4302ZM14.8395 53.8209H13.6158V55.9283H12.9253V50.7188H14.6499C15.2366 50.7188 15.6875 50.8524 16.0023 51.1196C16.3196 51.3866 16.4782 51.7755 16.4782 52.2859C16.4782 52.6103 16.39 52.8929 16.2134 53.134C16.0393 53.3748 15.796 53.555 15.4835 53.6741L16.7072 55.8853V55.9283H15.9701L14.8395 53.8209ZM13.6158 53.2591H14.6713C15.0124 53.2591 15.2832 53.1708 15.4835 52.9943C15.6863 52.8178 15.7877 52.5817 15.7877 52.2859C15.7877 51.9639 15.6911 51.7171 15.4978 51.5453C15.307 51.3735 15.0303 51.2865 14.6678 51.2841H13.6158V53.2591ZM18.9471 55.9999C18.4222 55.9999 17.9953 55.8282 17.6661 55.4846C17.3369 55.1387 17.1723 54.6771 17.1723 54.1V53.9783C17.1723 53.5943 17.2451 53.2521 17.3906 52.9515C17.5385 52.6484 17.7436 52.4123 18.006 52.2431C18.2708 52.0713 18.557 51.9853 18.8647 51.9853C19.3681 51.9853 19.7593 52.1511 20.0382 52.4827C20.3174 52.8142 20.4569 53.2889 20.4569 53.9066V54.1822H17.8342C17.8438 54.564 17.9547 54.8728 18.167 55.109C18.3817 55.3426 18.6536 55.4596 18.9828 55.4596C19.2166 55.4596 19.4145 55.4119 19.5766 55.3165C19.739 55.2211 19.8808 55.0947 20.0025 54.9372L20.4068 55.2521C20.0823 55.7505 19.5959 55.9999 18.9471 55.9999ZM18.8647 52.5293C18.5976 52.5293 18.3733 52.627 18.1921 52.8226C18.0108 53.0159 17.8987 53.2878 17.8557 53.6384H19.795V53.5883C19.776 53.2521 19.6853 52.992 19.5231 52.8082C19.3608 52.6223 19.1413 52.5293 18.8647 52.5293ZM23.6163 55.9283C23.578 55.8519 23.547 55.7161 23.5232 55.5204C23.2154 55.84 22.8481 55.9999 22.4212 55.9999C22.0396 55.9999 21.726 55.8926 21.4802 55.6778C21.237 55.4607 21.1153 55.1865 21.1153 54.8549C21.1153 54.4519 21.268 54.1394 21.5732 53.9175C21.8809 53.6932 22.3127 53.5811 22.8685 53.5811H23.5125V53.2771C23.5125 53.0456 23.4432 52.8619 23.305 52.7261C23.1666 52.5877 22.9626 52.5186 22.6931 52.5186C22.4569 52.5186 22.259 52.5781 22.0992 52.6974C21.9394 52.8166 21.8595 52.9609 21.8595 53.1304H21.194C21.194 52.9372 21.262 52.7511 21.3979 52.5721C21.5362 52.3909 21.7223 52.2478 21.9561 52.1427C22.1923 52.0379 22.4509 51.9853 22.7324 51.9853C23.1786 51.9853 23.528 52.0974 23.7808 52.3218C24.0336 52.5436 24.1648 52.8501 24.1744 53.2412V55.023C24.1744 55.3785 24.2197 55.6611 24.3104 55.871V55.9283H23.6163ZM22.5179 55.4239C22.7254 55.4239 22.9221 55.3702 23.1082 55.2628C23.2942 55.1554 23.4289 55.016 23.5125 54.8442V54.0499H22.9936C22.1827 54.0499 21.7771 54.2872 21.7771 54.7618C21.7771 54.9693 21.8464 55.1317 21.9846 55.2485C22.123 55.3653 22.3007 55.4239 22.5179 55.4239ZM26.7648 55.4596C27.001 55.4596 27.2074 55.388 27.3839 55.2449C27.5603 55.1017 27.6581 54.9229 27.6772 54.7082H28.3034C28.2915 54.93 28.2151 55.1411 28.0744 55.3415C27.9336 55.5419 27.7452 55.7017 27.509 55.8209C27.2752 55.9403 27.0273 55.9999 26.7648 55.9999C26.2377 55.9999 25.8178 55.8245 25.5053 55.4739C25.1954 55.1208 25.0403 54.6391 25.0403 54.0284V53.9175C25.0403 53.5406 25.1094 53.2054 25.2478 52.9122C25.3862 52.6187 25.5841 52.3909 25.8418 52.2287C26.1017 52.0664 26.4082 51.9853 26.7612 51.9853C27.1954 51.9853 27.5556 52.1154 27.8418 52.3755C28.1304 52.6354 28.2842 52.9729 28.3034 53.3879H27.6772C27.6581 53.1374 27.5627 52.9323 27.3909 52.7725C27.2217 52.6103 27.0117 52.5293 26.7612 52.5293C26.4249 52.5293 26.1637 52.6508 25.9776 52.8942C25.7941 53.1351 25.7021 53.4846 25.7021 53.9426V54.0677C25.7021 54.5137 25.7941 54.8572 25.9776 55.0981C26.1614 55.3392 26.4238 55.4596 26.7648 55.4596ZM29.9456 51.1196V52.057H30.6684V52.5686H29.9456V54.9693C29.9456 55.1244 29.9779 55.2412 30.0423 55.3199C30.1067 55.3963 30.2164 55.4346 30.3715 55.4346C30.4477 55.4346 30.5527 55.4202 30.6862 55.3916V55.9283C30.5121 55.976 30.3429 55.9999 30.1782 55.9999C29.8825 55.9999 29.6594 55.9103 29.5091 55.7315C29.3589 55.5527 29.2838 55.2985 29.2838 54.9693V52.5686H28.5788V52.057H29.2838V51.1196H29.9456ZM37.37 55.9283H36.6793L34.0568 51.9138V55.9283H33.3662V50.7188H34.0568L36.6866 54.7511V50.7188H37.37V55.9283ZM40.8764 55.9283C40.8381 55.8519 40.8071 55.7161 40.7833 55.5204C40.4755 55.84 40.1082 55.9999 39.6813 55.9999C39.2997 55.9999 38.9859 55.8926 38.7403 55.6778C38.4971 55.4607 38.3754 55.1865 38.3754 54.8549C38.3754 54.4519 38.5279 54.1394 38.8333 53.9175C39.141 53.6932 39.5728 53.5811 40.1286 53.5811H40.7726V53.2771C40.7726 53.0456 40.7033 52.8619 40.565 52.7261C40.4267 52.5877 40.2227 52.5186 39.9532 52.5186C39.717 52.5186 39.5191 52.5781 39.3593 52.6974C39.1995 52.8166 39.1196 52.9609 39.1196 53.1304H38.4541C38.4541 52.9372 38.5221 52.7511 38.6579 52.5721C38.7963 52.3909 38.9824 52.2478 39.2162 52.1427C39.4524 52.0379 39.711 51.9853 39.9925 51.9853C40.4385 51.9853 40.788 52.0974 41.0409 52.3218C41.2937 52.5436 41.4249 52.8501 41.4345 53.2412V55.023C41.4345 55.3785 41.4798 55.6611 41.5705 55.871V55.9283H40.8764ZM39.778 55.4239C39.9855 55.4239 40.1823 55.3702 40.3683 55.2628C40.5543 55.1554 40.689 55.016 40.7726 54.8442V54.0499H40.2537C39.4428 54.0499 39.0372 54.2872 39.0372 54.7618C39.0372 54.9693 39.1065 55.1317 39.2447 55.2485C39.3831 55.3653 39.5608 55.4239 39.778 55.4239ZM43.3701 51.1196V52.057H44.0929V52.5686H43.3701V54.9693C43.3701 55.1244 43.4024 55.2412 43.4668 55.3199C43.5312 55.3963 43.6409 55.4346 43.796 55.4346C43.8722 55.4346 43.9772 55.4202 44.1109 55.3916V55.9283C43.9366 55.976 43.7674 55.9999 43.6027 55.9999C43.307 55.9999 43.0839 55.9103 42.9336 55.7315C42.7834 55.5527 42.7083 55.2985 42.7083 54.9693V52.5686H42.0035V52.057H42.7083V51.1196H43.3701ZM45.5886 55.9283H44.9265V52.057H45.5886V55.9283ZM44.8729 51.03C44.8729 50.9228 44.9051 50.8321 44.9695 50.7581C45.0363 50.6841 45.134 50.6473 45.2628 50.6473C45.3918 50.6473 45.4895 50.6841 45.5563 50.7581C45.623 50.8321 45.6564 50.9228 45.6564 51.03C45.6564 51.1374 45.623 51.2268 45.5563 51.2984C45.4895 51.3699 45.3918 51.4058 45.2628 51.4058C45.134 51.4058 45.0363 51.3699 44.9695 51.2984C44.9051 51.2268 44.8729 51.1374 44.8729 51.03ZM47.9285 55.0303L48.8873 52.057H49.5637L48.1754 55.9283H47.6708L46.2684 52.057H46.9446L47.9285 55.0303ZM51.7569 55.9999C51.2321 55.9999 50.8052 55.8282 50.476 55.4846C50.1468 55.1387 49.9823 54.6771 49.9823 54.1V53.9783C49.9823 53.5943 50.055 53.2521 50.2005 52.9515C50.3483 52.6484 50.5534 52.4123 50.8159 52.2431C51.0807 52.0713 51.3669 51.9853 51.6745 51.9853C52.1778 51.9853 52.5691 52.1511 52.8482 52.4827C53.1272 52.8142 53.2668 53.2889 53.2668 53.9066V54.1822H50.6441C50.6537 54.564 50.7646 54.8728 50.9769 55.109C51.1915 55.3426 51.4636 55.4596 51.7926 55.4596C52.0264 55.4596 52.2245 55.4119 52.3866 55.3165C52.5488 55.2211 52.6908 55.0947 52.8125 54.9372L53.2168 55.2521C52.8923 55.7505 52.4057 55.9999 51.7569 55.9999ZM51.6745 52.5293C51.4075 52.5293 51.1832 52.627 51.002 52.8226C50.8206 53.0159 50.7085 53.2878 50.6657 53.6384H52.6048V53.5883C52.5858 53.2521 52.4951 52.992 52.3329 52.8082C52.1708 52.6223 51.9513 52.5293 51.6745 52.5293Z" fill="#FF6C5C"/>
</svg>
