<svg width="137" height="68" viewBox="0 0 137 68" fill="none" xmlns="http://www.w3.org/2000/svg">
<path d="M62.4204 34.005C62.4204 30.732 58.3216 27.6302 52.0373 25.7066C53.4875 19.3015 52.843 14.2056 50.0028 12.574C49.3482 12.1913 48.583 12.0101 47.747 12.0101V14.2559C48.2103 14.2559 48.583 14.3466 48.8951 14.5177C50.2647 15.3033 50.859 18.2944 50.3956 22.1415C50.285 23.0882 50.1037 24.0852 49.8821 25.1023C47.9081 24.6189 45.7529 24.2463 43.487 24.0046C42.1275 22.1415 40.7175 20.4495 39.2974 18.9691C42.5806 15.9176 45.6624 14.2458 47.7572 14.2458V12C44.9875 12 41.362 13.9739 37.6963 17.398C34.0303 13.9941 30.4048 12.0403 27.6354 12.0403V14.2861C29.72 14.2861 32.8118 15.9478 36.0949 18.9792C34.6849 20.4596 33.275 22.1415 31.9355 24.0046C29.6594 24.2463 27.5043 24.6189 25.5305 25.1124C25.2987 24.1053 25.1276 23.1284 25.0066 22.1918C24.5335 18.3447 25.1174 15.3536 26.4772 14.558C26.7792 14.3768 27.1719 14.2962 27.6354 14.2962V12.0504C26.7893 12.0504 26.0239 12.2316 25.3593 12.6143C22.5293 14.2458 21.8949 19.3317 23.3551 25.7167C17.091 27.6503 13.0122 30.7421 13.0122 34.005C13.0122 37.2782 17.1111 40.3801 23.3954 42.3035C21.9451 48.7088 22.5896 53.8046 25.4298 55.4361C26.0844 55.8187 26.8497 56 27.6957 56C30.4652 56 34.0909 54.0261 37.7566 50.602C41.4224 54.0061 45.0481 55.9599 47.8175 55.9599C48.6634 55.9599 49.4288 55.7786 50.0936 55.3958C52.9234 53.7642 53.558 48.6784 52.0976 42.2936C58.3417 40.37 62.4204 37.2681 62.4204 34.005ZM49.3081 27.2877C48.9354 28.587 48.4722 29.9262 47.9484 31.2657C47.5356 30.4602 47.1025 29.6544 46.6292 28.8487C46.1659 28.0431 45.6723 27.2575 45.1789 26.4921C46.6089 26.7036 47.9887 26.9655 49.3081 27.2877ZM44.6954 38.0133C43.9099 39.373 43.1044 40.6621 42.2684 41.8606C40.7677 41.9914 39.2472 42.0619 37.7163 42.0619C36.1956 42.0619 34.6748 41.9914 33.1845 41.8705C32.3485 40.672 31.5326 39.3931 30.7471 38.0435C29.9817 36.7243 29.287 35.3848 28.6524 34.0354C29.2768 32.6858 29.9817 31.3362 30.7372 30.017C31.5227 28.6575 32.3283 27.3683 33.1642 26.1699C34.6649 26.0389 36.1854 25.9685 37.7163 25.9685C39.2371 25.9685 40.7578 26.0389 42.2482 26.1598C43.0841 27.3583 43.9 28.6372 44.6855 29.9868C45.4509 31.306 46.1457 32.6455 46.7803 33.9951C46.1457 35.3445 45.4509 36.6941 44.6954 38.0133ZM47.9484 36.7042C48.477 38.0167 48.9409 39.3543 49.3383 40.7123C48.0189 41.0345 46.6292 41.3066 45.189 41.518C45.6824 40.7427 46.1758 39.9471 46.6393 39.1312C47.1025 38.3256 47.5356 37.5097 47.9484 36.7042ZM37.7364 47.4499C36.7998 46.483 35.8632 45.4054 34.9367 44.2271C35.8431 44.2675 36.7696 44.2976 37.7062 44.2976C38.6529 44.2976 39.5895 44.2776 40.5061 44.2271C39.6416 45.3505 38.717 46.4264 37.7364 47.4499ZM30.2436 41.518C28.8136 41.3066 27.4338 41.0447 26.1146 40.7224C26.4871 39.4233 26.9505 38.0838 27.4741 36.7443C27.8871 37.5501 28.3202 38.3558 28.7933 39.1613C29.2667 39.9671 29.7502 40.7526 30.2436 41.518ZM37.6861 20.5603C38.6227 21.5271 39.5593 22.6048 40.4858 23.783C39.5794 23.7428 38.6529 23.7126 37.7163 23.7126C36.7696 23.7126 35.833 23.7327 34.9167 23.783C35.7811 22.6597 36.7056 21.5839 37.6861 20.5603ZM30.2335 26.4921C29.7401 27.2676 29.2467 28.0632 28.7834 28.8789C28.3202 29.6846 27.8871 30.4904 27.4741 31.2959C26.9454 29.9835 26.4816 28.6458 26.0844 27.2877C27.4036 26.9756 28.7933 26.7036 30.2335 26.4921ZM21.1193 39.101C17.5542 37.5802 15.248 35.5863 15.248 34.005C15.248 32.4239 17.5542 30.4199 21.1193 28.9093C21.9854 28.5366 22.9321 28.2042 23.909 27.892C24.4831 29.8659 25.2384 31.9204 26.175 34.0253C25.2485 36.1201 24.5031 38.1644 23.9392 40.1283C22.9423 39.816 21.9955 39.4737 21.1193 39.101ZM26.5375 53.4924C25.1679 52.7069 24.5736 49.7159 25.037 45.8686C25.1478 44.9221 25.3289 43.9249 25.5505 42.9077C27.5246 43.3912 29.6797 43.7639 31.9456 44.0056C33.3052 45.8686 34.7151 47.5605 36.1352 49.041C32.8521 52.0926 29.7702 53.7642 27.6755 53.7642C27.2224 53.7543 26.8398 53.6636 26.5375 53.4924ZM50.426 45.8184C50.8991 49.6654 50.3152 52.6565 48.9554 53.4521C48.6535 53.6334 48.2607 53.714 47.7973 53.714C45.7126 53.714 42.6209 52.0523 39.3377 49.0209C40.7477 47.5405 42.1576 45.8587 43.4971 43.9954C45.7732 43.7538 47.9283 43.3811 49.9022 42.8877C50.1339 43.9049 50.3152 44.8818 50.426 45.8184ZM54.3032 39.101C53.4371 39.4737 52.4904 39.8061 51.5135 40.1182C50.9394 38.1444 50.1841 36.0899 49.2475 33.985C50.1742 31.8902 50.9194 29.8458 51.4833 27.8819C52.4805 28.1941 53.427 28.5366 54.3133 28.9093C57.8784 30.4298 60.1847 32.4239 60.1847 34.005C60.1745 35.5863 57.8683 37.5904 54.3032 39.101Z" fill="#FF6C5C"/>
<path d="M37.7068 38.6075C40.2489 38.6075 42.3094 36.547 42.3094 34.0049C42.3094 31.4631 40.2489 29.4026 37.7068 29.4026C35.165 29.4026 33.1045 31.4631 33.1045 34.0049C33.1045 36.547 35.165 38.6075 37.7068 38.6075Z" fill="#FF6C5C"/>
<path d="M75.5117 35.3982H71.8045V41.7829H69.7124V26H74.9372C76.7149 26 78.0808 26.405 79.0346 27.2144C79.9958 28.0233 80.4764 29.2014 80.4764 30.7477C80.4764 31.7308 80.209 32.5869 79.6742 33.3172C79.1467 34.0469 78.4096 34.5926 77.4629 34.9536L81.1701 41.6526V41.7829H78.9371L75.5117 35.3982ZM71.8045 33.6964H75.0023C76.0357 33.6964 76.8559 33.4288 77.4629 32.8941C78.0771 32.3594 78.3842 31.644 78.3842 30.7477C78.3842 29.7723 78.0916 29.0245 77.5062 28.5041C76.9281 27.9837 76.0898 27.7199 74.9914 27.7128H71.8045V33.6964ZM87.9561 41.9999C86.366 41.9999 85.0724 41.4796 84.0752 40.4388C83.0779 39.3909 82.5793 37.9924 82.5793 36.2439V35.8751C82.5793 34.7118 82.7997 33.6749 83.2405 32.7644C83.6886 31.8462 84.3101 31.1307 85.105 30.618C85.9071 30.0977 86.7743 29.8372 87.7065 29.8372C89.2315 29.8372 90.4168 30.3394 91.2619 31.3439C92.1076 32.3484 92.5301 33.7865 92.5301 35.6581V36.4928H84.5846C84.6135 37.6495 84.9496 38.5853 85.5928 39.3008C86.2432 40.0085 87.067 40.363 88.0643 40.363C88.7726 40.363 89.3721 40.2184 89.8634 39.9294C90.3552 39.6404 90.7849 39.2574 91.1536 38.7804L92.3785 39.7343C91.3954 41.2444 89.9216 41.9999 87.9561 41.9999ZM87.7065 31.4852C86.8972 31.4852 86.2179 31.7813 85.6686 32.3737C85.1194 32.9595 84.7798 33.7832 84.6497 34.8454H90.525V34.6937C90.4673 33.6749 90.1926 32.8869 89.7013 32.3303C89.2095 31.7671 88.5446 31.4852 87.7065 31.4852ZM102.102 41.7829C101.986 41.5515 101.892 41.14 101.82 40.547C100.888 41.5153 99.7748 41.9999 98.4813 41.9999C97.3251 41.9999 96.375 41.6746 95.6305 41.024C94.8936 40.3662 94.5249 39.5354 94.5249 38.5309C94.5249 37.3099 94.9875 36.3631 95.9124 35.6911C96.8443 35.0113 98.1527 34.6717 99.8364 34.6717H101.788V33.7508C101.788 33.0496 101.578 32.4929 101.159 32.0814C100.74 31.6621 100.122 31.4527 99.305 31.4527C98.5895 31.4527 97.99 31.633 97.5059 31.9946C97.0218 32.3556 96.7795 32.793 96.7795 33.3062H94.7633C94.7633 32.721 94.9694 32.1572 95.381 31.6148C95.8002 31.0659 96.364 30.6323 97.0724 30.3142C97.7878 29.9965 98.5714 29.8372 99.4242 29.8372C100.776 29.8372 101.834 30.1768 102.6 30.8565C103.366 31.5286 103.764 32.4572 103.793 33.642V39.0403C103.793 40.1173 103.93 40.9735 104.205 41.6092V41.7829H102.102ZM98.7742 40.2547C99.4028 40.2547 99.999 40.0921 100.563 39.7667C101.126 39.4414 101.534 39.0189 101.788 38.4985V36.0922H100.216C97.7587 36.0922 96.53 36.8109 96.53 38.249C96.53 38.8776 96.7399 39.3695 97.1586 39.7233C97.5779 40.0772 98.1164 40.2547 98.7742 40.2547ZM111.641 40.363C112.356 40.363 112.982 40.1459 113.516 39.7123C114.051 39.2788 114.347 38.737 114.405 38.0864H116.302C116.266 38.7584 116.035 39.398 115.608 40.0052C115.182 40.6124 114.611 41.0965 113.895 41.4576C113.187 41.8191 112.436 41.9999 111.641 41.9999C110.044 41.9999 108.772 41.4686 107.825 40.4064C106.886 39.3365 106.416 37.877 106.416 36.0268V35.6911C106.416 34.5492 106.625 33.5337 107.045 32.6452C107.464 31.7561 108.064 31.0659 108.844 30.5746C109.632 30.0828 110.561 29.8372 111.63 29.8372C112.945 29.8372 114.037 30.2312 114.904 31.0192C115.778 31.8066 116.244 32.8292 116.302 34.0865H114.405C114.347 33.3276 114.058 32.7062 113.538 32.222C113.025 31.7308 112.389 31.4852 111.63 31.4852C110.611 31.4852 109.82 31.8533 109.256 32.5908C108.7 33.3205 108.421 34.3794 108.421 35.7669V36.1461C108.421 37.4973 108.7 38.538 109.256 39.2678C109.813 39.9981 110.608 40.363 111.641 40.363ZM121.277 27.2144V30.0542H123.467V31.6044H121.277V38.8776C121.277 39.3475 121.375 39.7014 121.57 39.9398C121.765 40.1712 122.098 40.2871 122.568 40.2871C122.799 40.2871 123.117 40.2437 123.521 40.1569V41.7829C122.994 41.9274 122.481 41.9999 121.982 41.9999C121.086 41.9999 120.41 41.7285 119.955 41.1867C119.5 40.6448 119.272 39.875 119.272 38.8776V31.6044H117.136V30.0542H119.272V27.2144H121.277Z" fill="#FF6C5C"/>
</svg>
