<svg width="150" height="68" viewBox="0 0 150 68" fill="none" xmlns="http://www.w3.org/2000/svg">
<path fill-rule="evenodd" clip-rule="evenodd" d="M59.7829 40.7363C61.1114 40.0432 61.7643 39.4994 61.7803 39.0069V39.0053C61.7883 39.0053 61.7963 39.0053 61.7963 39.0133V44.1278C61.7963 44.638 61.1787 45.2059 59.7829 45.9246C58.441 46.6235 54.3569 48.3796 50.1818 50.1747L50.1752 50.1776C45.8222 52.0493 41.3719 53.9629 39.8286 54.7643C36.8028 56.343 35.1329 56.3269 32.7425 55.1815C31.6048 54.6388 27.5618 52.9629 23.3528 51.2183L23.3333 51.2102L23.3257 51.2071L23.3144 51.2024L23.3001 51.1966C18.7154 49.2965 13.9469 47.3203 12.5298 46.6417C11.1757 45.9888 10.457 45.4465 10.457 44.9284V39.74C10.4828 40.2582 11.1757 40.8021 12.5298 41.4534C13.9368 42.1222 18.6453 44.0755 23.1988 45.9644L23.2014 45.9654C27.4624 47.733 31.5869 49.4441 32.7425 49.9931C35.1329 51.1386 36.8045 51.1547 39.8286 49.576C41.3681 48.7769 45.7978 46.8724 50.1388 45.0061L50.1491 45.0017C54.3358 43.2016 58.4381 41.4378 59.7829 40.7363ZM59.7829 32.28C61.1114 31.5789 61.7547 31.0351 61.7803 30.5506H61.7963V35.6651C61.7963 36.1753 61.1787 36.7432 59.7829 37.4699C58.4502 38.1639 54.4134 39.8987 50.2686 41.6799C45.886 43.5632 41.3828 45.4983 39.8286 46.3097C36.8028 47.8803 35.1329 47.8626 32.7425 46.7268C31.5876 46.1741 27.4665 44.4647 23.2077 42.6982C18.6514 40.8084 13.9377 38.8532 12.5298 38.179C11.1757 37.5357 10.457 36.9838 10.457 36.4656V31.2773C10.4828 31.7955 11.1757 32.3474 12.5298 32.9907C13.931 33.6608 18.6066 35.6003 23.1425 37.4817C27.4244 39.2578 31.5816 40.9822 32.7425 41.5385C35.1329 42.6743 36.8045 42.6903 39.8286 41.1117C41.3829 40.3049 45.8829 38.3711 50.2635 36.4886C54.4105 34.7066 58.4504 32.9705 59.7829 32.28ZM59.7494 20.2895C61.129 20.7916 61.8061 21.2504 61.7803 21.7686L61.798 21.767V26.8896C61.798 27.3997 61.1803 27.9677 59.7927 28.6944C58.4661 29.3814 54.4577 31.1035 50.3317 32.8761L50.3276 32.8779L50.3215 32.8804L50.3153 32.883L50.3097 32.8854L50.3 32.8896C45.9088 34.7763 41.3913 36.7174 39.8383 37.5261C36.8126 39.1063 35.1329 39.0887 32.752 37.9528C31.6065 37.4046 27.5402 35.7182 23.3173 33.9669L23.3025 33.9608L23.2875 33.9546L23.2767 33.9501C18.7002 32.0523 13.9498 30.0823 12.5395 29.4051C11.1774 28.7522 10.4666 28.2099 10.4666 27.6917V22.5034C10.441 21.9852 11.0939 21.5007 12.4304 20.9745L13.799 20.439C18.389 18.6427 30.4832 13.9094 33.2942 12.8952C36.4692 11.7578 37.573 11.7161 40.2714 12.7027C41.6024 13.1931 45.7074 14.8064 49.8471 16.4333L49.8497 16.4343L49.8578 16.4376C54.1116 18.1094 58.3994 19.7945 59.7494 20.2895ZM40.7399 24.8617L28.8407 26.6826L37.1463 30.1254L40.7399 24.8617ZM47.3576 25.0189L55.1529 21.9355L48.1101 19.1616L40.3227 22.2371L47.3576 25.0189ZM33.344 14.7161L34.4975 16.8386L30.6616 18.2247L35.8002 18.6835L37.4046 21.3579L38.4072 18.9595L42.8527 18.5007L39.4019 17.206L40.3212 15.0161L36.9377 16.1199L33.344 14.7161ZM31.9915 22.2948C31.9915 20.9424 29.1503 19.8386 25.6322 19.8386C22.1219 19.8386 19.2726 20.9408 19.2726 22.2948C19.2726 23.6553 22.1219 24.759 25.6322 24.759C29.1423 24.759 31.9915 23.6569 31.9915 22.2948ZM80.382 24.9451C79.554 25.2835 78.8109 25.8011 78.2065 26.4606L78.217 26.2756C78.2063 25.7782 78.0037 25.3042 77.6516 24.9528C77.2995 24.6013 76.8252 24.3996 76.3278 24.3898C75.8168 24.4 75.3211 24.5657 74.9066 24.8648C74.7294 25.037 74.5882 25.2427 74.491 25.4698C74.394 25.697 74.3429 25.9412 74.3408 26.1882V40.1565C74.343 40.4035 74.3944 40.6476 74.4914 40.8748C74.5884 41.102 74.7296 41.3076 74.9066 41.48C75.0745 41.6712 75.2829 41.8228 75.5167 41.9236C75.7504 42.0245 76.0036 42.0721 76.258 42.0632C76.7553 42.05 77.2284 41.8468 77.5805 41.4954C77.9325 41.144 78.1366 40.6712 78.1507 40.174V33.4762C78.1507 30.5254 81.1747 28.3533 83.3539 28.1613C83.6026 28.1683 83.8499 28.121 84.0784 28.0227C84.307 27.9244 84.5115 27.7775 84.6774 27.5921C85.0209 27.2376 85.2116 26.7623 85.2082 26.2686C85.2177 26.023 85.1754 25.7782 85.084 25.5502C84.9925 25.3221 84.854 25.1159 84.6774 24.9451C84.439 24.7387 84.1616 24.5826 83.8616 24.486C83.5615 24.3894 83.2452 24.3543 82.9313 24.3829C82.0537 24.4084 81.1889 24.5991 80.382 24.9451ZM101.153 32.6067C101.155 33.063 100.987 33.5038 100.681 33.8429C100.319 34.179 99.8513 34.379 99.358 34.4086H88.1834C88.289 35.2961 88.7209 36.1126 89.3951 36.6994C90.2589 37.6283 91.4408 38.198 92.7055 38.2952C93.346 38.4041 94.0018 38.3848 94.6347 38.2385C95.2676 38.0923 95.8654 37.8219 96.3932 37.4432C96.5787 37.2563 96.8005 37.1093 97.0449 37.0114C97.2894 36.9135 97.5513 36.8667 97.8144 36.874C98.0406 36.8633 98.2664 36.9001 98.4775 36.9819C98.6886 37.0636 98.8802 37.1887 99.0402 37.3489C99.1894 37.4859 99.3103 37.6509 99.3957 37.8347C99.4809 38.0184 99.5294 38.2171 99.5377 38.4196C99.5463 38.622 99.5145 38.8241 99.4448 39.0143C99.3751 39.2045 99.2683 39.379 99.1309 39.5279C99.1031 39.5594 99.0716 39.5873 99.0402 39.6187C98.2156 40.382 97.2488 40.9754 96.1947 41.3649C95.1408 41.7543 94.0203 41.9323 92.8977 41.8886C91.7449 41.9136 90.6002 41.6902 89.5415 41.2334C88.4828 40.7767 87.5348 40.0973 86.762 39.2416C85.1606 37.5501 84.2509 35.3199 84.2129 32.9908C84.1887 31.8311 84.4023 30.6788 84.8409 29.6049C85.2793 28.531 85.9332 27.5584 86.762 26.747C87.5177 25.9238 88.4395 25.2706 89.4665 24.8305C90.4935 24.3905 91.6023 24.1736 92.7195 24.1943C93.806 24.1528 94.8887 24.3424 95.8965 24.7506C96.9042 25.1587 97.8139 25.7761 98.5653 26.5619C100.168 28.0975 101.119 30.1903 101.223 32.4076V32.5927L101.153 32.6067ZM92.7371 27.5956C91.5617 27.6156 90.4318 28.0525 89.5487 28.8283C88.7966 29.4606 88.2666 30.3173 88.0366 31.2727H97.9646C97.6863 30.3126 97.0843 29.4785 96.2605 28.9121C95.2663 28.1107 94.0439 27.6449 92.7684 27.5816L92.7371 27.5956ZM118.377 41.3044C118.728 40.9524 118.932 40.4791 118.945 39.9819H118.861V19.0854C118.858 18.8381 118.806 18.5939 118.709 18.3667C118.611 18.1395 118.469 17.934 118.292 17.7619C118.126 17.5769 117.921 17.4301 117.693 17.3319C117.464 17.2336 117.217 17.1861 116.968 17.1927C116.718 17.1933 116.471 17.244 116.24 17.3418C116.01 17.4395 115.802 17.5824 115.627 17.7619C115.442 17.9282 115.296 18.1326 115.197 18.3611C115.099 18.5896 115.051 18.8367 115.058 19.0854V25.6959C113.69 24.6899 112.031 24.1578 110.333 24.1803C109.197 24.1868 108.073 24.426 107.033 24.883C105.992 25.34 105.056 26.0053 104.282 26.8378C102.687 28.5224 101.805 30.7583 101.82 33.0781C101.781 34.2319 101.979 35.3815 102.402 36.4556C102.826 37.5296 103.466 38.5052 104.282 39.3219C105.061 40.14 106.001 40.7889 107.042 41.2281C108.083 41.6672 109.203 41.8873 110.333 41.8746C112.064 41.8975 113.756 41.3664 115.163 40.359C115.275 40.7807 115.52 41.1553 115.86 41.428C116.201 41.7007 116.62 41.8572 117.056 41.8746C117.553 41.8605 118.026 41.6564 118.377 41.3044ZM112.267 37.7121C111.695 37.9733 111.071 38.1022 110.442 38.0892V38.0752C109.814 38.0769 109.193 37.9429 108.622 37.6826C108.05 37.4222 107.542 37.0416 107.131 36.5667C106.227 35.6293 105.721 34.3774 105.721 33.0746C105.721 31.7718 106.227 30.5199 107.131 29.5825C107.527 29.0901 108.033 28.6968 108.607 28.4338C109.182 28.1707 109.81 28.0451 110.442 28.067C111.069 28.0797 111.686 28.2222 112.255 28.4854C112.824 28.7487 113.333 29.127 113.749 29.5965C114.653 30.5339 115.159 31.7858 115.159 33.0886C115.159 34.3913 114.653 35.6432 113.749 36.5806C113.346 37.0642 112.84 37.451 112.267 37.7121ZM124.536 19.0854V19.8467C124.544 20.1139 124.496 20.3798 124.396 20.6276C124.296 20.8753 124.145 21.0994 123.953 21.2854C123.781 21.4583 123.574 21.5904 123.345 21.672C123.115 21.7536 122.871 21.7826 122.629 21.7568C122.381 21.7652 122.135 21.7192 121.907 21.6221C121.679 21.5249 121.475 21.379 121.309 21.1946C121.121 21.0106 120.974 20.7895 120.876 20.5455C120.778 20.3014 120.731 20.0397 120.74 19.7768V19.0784C120.741 18.8309 120.792 18.5862 120.89 18.3588C120.988 18.1314 121.13 17.926 121.309 17.7549C121.48 17.5773 121.685 17.4355 121.912 17.3377C122.138 17.24 122.382 17.1883 122.629 17.1857C122.878 17.1818 123.125 17.2313 123.353 17.3306C123.581 17.43 123.786 17.5771 123.953 17.7619C124.14 17.9269 124.289 18.1308 124.389 18.3595C124.489 18.5881 124.538 18.8359 124.532 19.0854H124.536ZM121.344 24.8578C121.515 24.6789 121.721 24.5364 121.948 24.4386C122.175 24.3408 122.42 24.2898 122.668 24.2886C122.916 24.2803 123.164 24.327 123.393 24.4254C123.622 24.5238 123.826 24.6714 123.991 24.8578C124.17 25.0422 124.311 25.261 124.404 25.501C124.497 25.741 124.541 25.9973 124.532 26.2546V40.0867C124.547 40.3374 124.502 40.5881 124.402 40.8181C124.301 41.0482 124.147 41.2511 123.953 41.4102C123.781 41.5878 123.576 41.7296 123.35 41.8273C123.123 41.9251 122.879 41.9767 122.633 41.9794C122.384 41.9864 122.137 41.9391 121.908 41.8408C121.679 41.7425 121.475 41.5956 121.309 41.4102C121.13 41.2391 120.988 41.0337 120.89 40.8063C120.792 40.5789 120.741 40.3342 120.74 40.0867V26.2686C120.733 26.0091 120.78 25.751 120.878 25.5106C120.976 25.2703 121.123 25.0527 121.309 24.8717L121.344 24.8578ZM138.706 27.3127C138.607 26.8528 138.336 26.4482 137.949 26.1813L137.935 26.1498C136.045 24.9171 134.327 24.2606 132.735 24.1629C131.185 24.1515 129.668 24.6132 128.387 25.4863C127.747 25.9108 127.222 26.4874 126.86 27.1645C126.497 27.8415 126.308 28.598 126.31 29.366C126.306 30.1276 126.499 30.8772 126.872 31.5416C127.44 32.3905 128.223 33.0737 129.142 33.5216C130.144 34.0529 131.231 34.4073 132.354 34.5692C133.362 34.6935 134.33 35.0342 135.193 35.5679C135.476 35.6622 135.668 35.8473 135.668 35.9451C135.763 36.0394 135.763 36.1302 135.763 36.4165C135.763 36.6995 135.483 36.9791 135.112 37.3497L135.099 37.3629C134.399 37.8231 133.573 38.0549 132.735 38.0263C131.295 38.0501 129.903 37.5071 128.859 36.5143C128.58 36.2941 128.243 36.1606 127.889 36.1303C127.535 36.1 127.18 36.1742 126.867 36.3437C126.555 36.5132 126.299 36.7705 126.132 37.0839C125.965 37.3973 125.893 37.7529 125.925 38.1067C125.992 38.5837 126.228 39.021 126.589 39.3394C128.576 40.9352 130.654 41.7838 132.829 41.7838C134.455 41.8084 136.046 41.3115 137.369 40.366C137.892 40.0326 138.344 39.599 138.698 39.0902C139.053 38.5814 139.304 38.0074 139.435 37.4014C139.567 36.7953 139.578 36.1692 139.466 35.559C139.355 34.9489 139.124 34.3668 138.787 33.8463C138.267 32.9531 137.47 32.2542 136.517 31.8559C135.436 31.3545 134.292 31.0021 133.116 30.8082C132.208 30.7354 131.331 30.4443 130.559 29.9597C130.418 29.889 130.29 29.7932 130.182 29.6768C130.095 29.5348 130.062 29.3664 130.088 29.2019C130.088 29.0133 130.277 28.8248 130.654 28.5384C131.247 28.0672 131.993 27.8332 132.749 27.8819C133.605 27.8819 134.638 28.3533 135.962 29.2019C136.382 29.4744 136.891 29.5756 137.383 29.4848C137.842 29.3836 138.247 29.1146 138.518 28.7305C138.717 28.2863 138.783 27.7936 138.706 27.3127Z" fill="#FF6C5C"/>
</svg>
