<svg width="78" height="68" viewBox="0 0 78 68" fill="none" xmlns="http://www.w3.org/2000/svg">
<path fill-rule="evenodd" clip-rule="evenodd" d="M57.1365 15.1174L58.2724 16.6129C58.5706 17.0076 58.4961 17.5733 58.1014 17.8716L56.8953 18.7882C57.1146 19.3714 57.255 19.9942 57.312 20.6301L58.6847 20.8187C59.1758 20.8845 59.5179 21.3406 59.4521 21.8318L59.1978 23.6956C59.132 24.1868 58.6759 24.5333 58.1847 24.4631L56.6848 24.257C56.4173 24.8403 56.0752 25.3753 55.6717 25.8534L56.5138 26.9585C56.812 27.3532 56.7331 27.919 56.3384 28.2172L54.8429 29.3531C54.4482 29.6513 53.8824 29.5724 53.5842 29.182L52.6676 27.976C52.0799 28.1953 51.4616 28.3356 50.8213 28.3926L50.6327 29.7653C50.5669 30.2565 50.1108 30.5986 49.6196 30.5328L47.7557 30.2784C47.2646 30.2127 46.9225 29.7565 46.9883 29.2654L47.1944 27.7655C46.6155 27.498 46.0761 27.1559 45.598 26.7568L44.4929 27.5944C44.0981 27.8927 43.5324 27.8181 43.2342 27.4234L42.0983 25.9279C41.8001 25.5332 41.8746 24.9675 42.2693 24.6692L43.4754 23.7527C43.2561 23.165 43.1158 22.5466 43.0588 21.9107L41.6861 21.7221C41.1949 21.6563 40.8484 21.2002 40.9186 20.7091L41.1729 18.8452C41.2431 18.354 41.6948 18.0119 42.186 18.0777L43.6859 18.2838C43.9534 17.7049 44.2955 17.1655 44.6946 16.6875L43.8569 15.5823C43.5587 15.192 43.6333 14.6262 44.028 14.328L45.5235 13.1921C45.9182 12.8939 46.4839 12.9685 46.7821 13.3632L47.6987 14.5692C48.282 14.3499 48.9048 14.2096 49.5407 14.1526L49.7293 12.7799C49.795 12.2887 50.2511 11.9422 50.7423 12.008L52.6062 12.2624C53.0974 12.3282 53.4439 12.7843 53.3737 13.2755L53.1676 14.7753C53.7509 15.0429 54.2859 15.3849 54.7683 15.7884L55.8735 14.9508C56.2682 14.6481 56.8339 14.7227 57.1365 15.1174ZM25.069 41.4354V34.1992H28.7968C29.4897 34.1992 30.016 34.2562 30.38 34.379C30.744 34.4974 31.0422 34.7167 31.2615 35.0368C31.4852 35.3614 31.5992 35.7517 31.5992 36.2122C31.5992 36.6112 31.5115 36.9621 31.3404 37.2515C31.1694 37.5454 30.9326 37.7822 30.6343 37.962C30.4458 38.076 30.1826 38.1725 29.8493 38.2471C30.1168 38.3392 30.3098 38.4225 30.4282 38.5146C30.5115 38.576 30.63 38.7032 30.7835 38.8961C30.937 39.0891 31.0422 39.2426 31.0948 39.3479L32.1825 41.4398H29.6564L28.4635 39.2338C28.31 38.9488 28.1784 38.7602 28.06 38.6769C27.8977 38.5672 27.7135 38.5102 27.5118 38.5102H27.3144V41.4398H25.069V41.4354ZM32.9543 54.0352H28.7792L28.1784 56H24.4156L28.902 44.0755H32.9368L37.4057 56H33.5464L32.9543 54.0352ZM32.1737 51.4521L30.8712 47.163L29.5643 51.4521H32.1737ZM38.2741 44.0755H44.4051C45.7427 44.0755 46.7427 44.3913 47.4049 45.0272C48.0671 45.6631 48.4004 46.571 48.4004 47.7419C48.4004 48.9479 48.0364 49.8909 47.3128 50.5706C46.5892 51.2504 45.4796 51.5881 43.9929 51.5881H41.9711V56H38.2741V44.0755ZM41.9711 49.1716H42.8789C43.5938 49.1716 44.0981 49.0488 44.3876 48.7988C44.677 48.5532 44.8218 48.2331 44.8218 47.8515C44.8218 47.4788 44.6946 47.1586 44.4446 46.8999C44.1946 46.6411 43.721 46.5096 43.0281 46.5096H41.9711V49.1716ZM49.8915 44.0755H53.5886V56H49.8915V44.0755ZM27.3144 37.1375H28.2573C28.3582 37.1375 28.5556 37.1024 28.8494 37.0367C28.9985 37.006 29.1213 36.9314 29.2134 36.8086C29.3099 36.6858 29.3538 36.5455 29.3538 36.3876C29.3538 36.1551 29.2792 35.971 29.1301 35.8482C28.981 35.721 28.7047 35.6596 28.2968 35.6596H27.3144V37.1375ZM32.6123 34.1992H38.5986V35.7429H34.8577V36.8963H38.3267V38.3699H34.8577V39.7952H38.7082V41.431H32.6123V34.1992ZM39.2389 39.0409L41.3615 38.9093C41.4054 39.2558 41.5019 39.5145 41.6422 39.6943C41.8746 39.9838 42.2036 40.1329 42.629 40.1329C42.9447 40.1329 43.1947 40.0583 43.3657 39.9092C43.5368 39.7601 43.6245 39.5847 43.6245 39.3873C43.6245 39.1988 43.5412 39.0321 43.3789 38.883C43.2166 38.7339 42.8351 38.5979 42.2343 38.462C41.2563 38.2427 40.559 37.9489 40.1379 37.5849C39.7169 37.2208 39.5064 36.756 39.5064 36.1902C39.5064 35.8175 39.6161 35.4666 39.831 35.1377C40.0459 34.8088 40.3704 34.5456 40.8046 34.357C41.2387 34.1685 41.8308 34.0764 42.5851 34.0764C43.5105 34.0764 44.2122 34.2474 44.699 34.5939C45.1814 34.9403 45.4708 35.4841 45.5629 36.2385L43.4622 36.3657C43.4052 36.0367 43.2868 35.7955 43.1114 35.6508C42.9316 35.5017 42.6816 35.4271 42.3702 35.4271C42.1115 35.4271 41.9141 35.4841 41.7825 35.5938C41.651 35.7034 41.5852 35.8394 41.5852 35.9973C41.5852 36.1113 41.6422 36.2122 41.7475 36.3086C41.8527 36.4007 42.0983 36.4928 42.493 36.5762C43.471 36.7867 44.1727 37.0016 44.5937 37.2165C45.0147 37.4314 45.3261 37.6989 45.5147 38.019C45.7077 38.3348 45.8041 38.6944 45.8041 39.0891C45.8041 39.554 45.677 39.9794 45.4182 40.3697C45.1638 40.76 44.8042 41.0583 44.3437 41.26C43.8833 41.4617 43.3044 41.5626 42.6027 41.5626C41.3747 41.5626 40.5195 41.3258 40.0459 40.8521C39.5722 40.3697 39.3047 39.7689 39.2389 39.0409ZM46.1287 34.1992H52.9307V35.9885H50.6502V41.4354H48.4136V35.9885H46.1287V34.1992ZM38.603 17.0251C37.8004 16.9637 36.9891 16.9725 36.1865 17.0515C33.7174 17.2883 31.3185 18.1873 29.3362 19.7267C27.0425 21.5028 25.3015 24.1605 24.6305 27.6822L24.4199 28.7829L23.3235 28.9759C22.2491 29.1645 21.2886 29.4232 20.4466 29.7522C19.6309 30.0679 18.9029 30.4582 18.2669 30.9187C17.7582 31.2871 17.3197 31.6994 16.9469 32.1467C15.7935 33.5282 15.2584 35.2605 15.2716 37.0147C15.2847 38.7953 15.8636 40.5934 16.9337 42.0713C17.3328 42.6195 17.7933 43.1239 18.3196 43.5624C18.8546 44.0054 19.4554 44.3738 20.1308 44.6501C20.5124 44.8079 20.9202 44.9395 21.3456 45.0448V48.3296C20.4685 48.1717 19.6616 47.9349 18.9072 47.6235C17.9117 47.2113 17.0302 46.6806 16.254 46.0315C15.5172 45.4175 14.8725 44.7202 14.3243 43.9615C12.8639 41.9441 12.0745 39.4794 12.0569 37.0235C12.0394 34.5412 12.8113 32.0721 14.4778 30.0723C15.0172 29.4232 15.6531 28.8268 16.3811 28.3005C17.2276 27.6865 18.1968 27.169 19.2932 26.7436C20.0475 26.4498 20.8545 26.2042 21.7053 26.0069C22.6701 22.1738 24.7269 19.2223 27.3715 17.1743C29.8449 15.2577 32.8228 14.1394 35.8883 13.8456C37.4978 13.6921 39.1293 13.7623 40.7256 14.0605C40.6905 14.2052 40.6598 14.3499 40.6423 14.499L40.6379 14.5254C40.6072 14.7753 40.594 15.0253 40.6072 15.2797C40.2695 15.4112 39.9538 15.5911 39.6687 15.8103L39.6555 15.8191C39.2301 16.1393 38.8705 16.5515 38.603 17.0251ZM61.8072 25.4455C62.0528 25.6692 62.2896 25.9016 62.5221 26.1516C62.9913 26.6559 63.4343 27.2261 63.8509 27.862C65.2543 30.0197 65.9735 32.901 65.9428 35.721C65.9121 38.4883 65.1666 41.2424 63.6404 43.2686C62.6449 44.5887 61.3686 45.6675 59.8381 46.5227C58.7899 47.1104 57.6102 47.5972 56.3252 47.9919V44.593C57.0181 44.3343 57.6628 44.0448 58.2549 43.7159C59.4083 43.0712 60.3512 42.2862 61.0573 41.3433C62.1537 39.8829 62.6931 37.8173 62.715 35.699C62.7413 33.4755 62.1975 31.2433 61.1406 29.6206C60.838 29.1513 60.5047 28.7303 60.1538 28.3532C60.0179 28.2084 59.8819 28.0725 59.7416 27.9409C59.7635 27.7216 59.7723 27.498 59.7591 27.2743C60.0968 27.1427 60.4126 26.9629 60.6977 26.7436L60.7108 26.7349C61.1625 26.3884 61.5397 25.9498 61.8072 25.4455ZM50.6853 17.6128C52.7071 17.8891 54.1192 19.753 53.843 21.7748C53.5667 23.7965 51.7028 25.2131 49.681 24.9368C47.6593 24.6605 46.2427 22.7966 46.5234 20.7748C46.8041 18.7531 48.6636 17.3365 50.6853 17.6128Z" fill="#FF6C5C"/>
</svg>
