<svg width="74" height="68" viewBox="0 0 74 68" fill="none" xmlns="http://www.w3.org/2000/svg">
<path fill-rule="evenodd" clip-rule="evenodd" d="M42.6857 43.5313C42.6857 46.049 41.9805 48.247 40.57 50.1253C39.1596 52.0036 37.1122 53.4623 34.4279 54.5014C31.789 55.5005 28.5587 56 24.7369 56C23.0535 56 21.3928 55.9001 19.7549 55.7003C18.1625 55.5005 16.6156 55.2207 15.1142 54.861C13.6583 54.4614 12.2706 53.9818 10.9512 53.4223V44.97C13.2715 45.8492 15.6602 46.6685 18.117 47.4278C20.6194 48.1471 23.099 48.5068 25.5559 48.5068C27.2393 48.5068 28.5815 48.307 29.5824 47.9074C30.6288 47.5077 31.3796 46.9682 31.8345 46.2888C32.335 45.6094 32.5852 44.8302 32.5852 43.951C32.5852 42.8719 32.153 41.9528 31.2886 41.1935C30.4696 40.4342 29.3549 39.7348 27.9445 39.0954C26.5341 38.416 24.9189 37.6966 23.099 36.9373C21.9616 36.4578 20.7331 35.8983 19.4137 35.2589C18.0943 34.5795 16.8203 33.7602 15.5919 32.8011C14.409 31.802 13.4308 30.6031 12.6573 29.2044C11.8839 27.8056 11.4971 26.1272 11.4971 24.1689C11.4971 21.6113 12.1569 19.4332 13.4763 17.6349C14.8412 15.7965 16.7521 14.3978 19.209 13.4387C21.7113 12.4796 24.6459 12 28.0127 12C30.5606 12 32.972 12.2598 35.2468 12.7793C36.4779 13.0549 37.7346 13.3924 39.017 13.7918V22.0279C36.8357 21.2494 34.8737 20.6442 33.1312 20.2125C31.3568 19.7729 29.5369 19.5531 27.6715 19.5531C26.3976 19.5531 25.3056 19.733 24.3957 20.0926C23.4857 20.4523 22.7805 20.9519 22.2801 21.5913C21.8251 22.2307 21.5976 22.99 21.5976 23.8692C21.5976 24.8683 21.9388 25.7275 22.6213 26.4469C23.3037 27.1263 24.3274 27.7856 25.6924 28.4251C27.0573 29.0645 28.7634 29.8238 30.8108 30.703C33.3132 31.7421 35.4288 32.8211 37.1577 33.9401C38.9321 35.059 40.2971 36.3778 41.2525 37.8965C42.208 39.4151 42.6857 41.2934 42.6857 43.5313ZM56.6237 56C60.172 56 63.0485 53.1235 63.0485 49.5752C63.0485 46.0269 60.172 43.1504 56.6237 43.1504C53.0754 43.1504 50.199 46.0269 50.199 49.5752C50.199 53.1235 53.0754 56 56.6237 56Z" fill="#FF6C5C"/>
</svg>
