<svg width="220" height="68" viewBox="0 0 220 68" fill="none" xmlns="http://www.w3.org/2000/svg">
<path d="M39.0383 14.2578C38.194 12.8567 36.6777 12 35.0419 12C33.4061 12 31.8898 12.8567 31.0456 14.2578L24.4715 25.5175C34.691 30.6197 41.4401 40.7567 42.2054 52.1533H37.5896C36.8258 42.3848 30.95 33.7498 22.1437 29.454L16.0592 39.9744C21.0036 42.1919 24.4789 46.7741 25.2808 52.1333H14.6804C14.4251 52.1153 14.196 51.9697 14.0711 51.7462C13.9463 51.5227 13.9425 51.2513 14.061 51.0243L16.9983 46.0289C16.0032 45.1986 14.8658 44.5554 13.6414 44.1306L10.734 49.1261C10.1227 50.1747 9.95712 51.4247 10.2744 52.5963C10.5918 53.768 11.3655 54.7636 12.4225 55.3604C13.112 55.7489 13.8891 55.9552 14.6804 55.9598H29.1972C29.7456 49.1931 26.7136 42.6327 21.2045 38.6656L23.5124 34.6692C30.4673 39.446 34.3806 47.5423 33.803 55.9598H46.1019C46.6847 43.2055 40.4398 31.1037 29.7068 24.1887L34.3725 16.196C34.5889 15.8334 35.0571 15.7131 35.4216 15.9263C35.9511 16.216 55.6931 50.6647 56.0628 51.0643C56.1954 51.302 56.1906 51.5924 56.0502 51.8256C55.9099 52.0588 55.6555 52.1991 55.3834 52.1933H50.6277C50.6877 53.4654 50.6877 54.7343 50.6277 55.9999H55.4034C56.6283 56.0078 57.8055 55.5255 58.6726 54.6603C59.5396 53.795 60.0246 52.6189 60.0192 51.394C60.0198 50.593 59.8059 49.8065 59.3998 49.1161L39.0383 14.2578ZM134.272 40.2541L119.525 21.2115H115.848V46.7382H119.575V27.176L134.741 46.7382H137.998V21.2115H134.272V40.2541ZM97.1354 35.5184H110.353V32.2015H97.1254V24.5184H112.042V21.2015H93.3289V46.7382H112.232V43.4212H97.1254L97.1354 35.5184ZM81.5896 32.2814C76.4443 31.0425 75.0056 30.0634 75.0056 27.6856C75.0056 25.5475 76.8938 24.0988 79.7113 24.0988C82.2771 24.174 84.7518 25.0666 86.7748 26.6465L88.773 23.8191C86.2119 21.8114 83.0347 20.7523 79.7812 20.8218C74.7258 20.8218 71.199 23.8191 71.199 28.0852C71.199 32.681 74.1963 34.2696 79.6513 35.5984C84.5069 36.7173 85.9956 37.7564 85.9956 40.0843C85.9956 42.4122 83.9974 43.8509 80.9102 43.8509C77.8367 43.8368 74.8793 42.6752 72.6177 40.5938L70.3698 43.2814C73.2665 45.7704 76.9612 47.1355 80.7803 47.1279C86.2553 47.1279 89.7721 44.1806 89.7721 39.6247C89.7421 35.7682 87.4642 33.7001 81.5896 32.2814ZM205.587 21.2115L197.904 33.2005L190.271 21.2115H185.815L195.896 36.6474V46.7482H199.732V36.5275L209.883 21.2115H205.587ZM141.016 24.6683H149.378V46.7482H153.214V24.6683H161.577V21.2115H141.025L141.016 24.6683ZM179.321 36.7773C183.177 35.7083 185.315 33.0107 185.315 29.1542C185.315 24.2487 181.728 21.1615 175.944 21.1615H164.594V46.7282H168.391V37.5566H174.835L181.309 46.7482H185.745L178.751 36.9371L179.321 36.7773ZM168.381 34.2796V24.5884H175.544C179.281 24.5884 181.419 26.3568 181.419 29.424C181.419 32.4912 179.131 34.2796 175.584 34.2796H168.381Z" fill="#FF6C5C"/>
</svg>
