<svg width="169" height="68" viewBox="0 0 169 68" fill="none" xmlns="http://www.w3.org/2000/svg">
<path fill-rule="evenodd" clip-rule="evenodd" d="M55.9772 22.8593C55.9894 23.3023 55.9943 23.7446 55.9969 24.1871C56.0001 24.6914 56 25.1958 55.9999 25.7L55.9999 25.7637V42.2361L55.9999 42.3531C56 42.8399 56 43.3262 55.9968 43.8131C55.9942 44.2557 55.9893 44.6979 55.9771 45.1402C55.9513 46.1044 55.8944 47.0771 55.7231 48.03C55.5493 48.998 55.2652 49.899 54.8174 50.7784C54.3779 51.6423 53.8032 52.4325 53.1178 53.1177C52.4325 53.8034 51.6421 54.378 50.778 54.8179C49.8992 55.2652 48.9987 55.5489 48.0314 55.7228C47.0775 55.8943 46.105 55.9514 45.1406 55.9772C44.6978 55.9889 44.2554 55.9942 43.8127 55.9967C43.3441 56.0001 42.8751 56 42.4064 56L42.2364 56H25.7638L25.5935 56C25.1246 56 24.6561 56.0001 24.1875 55.9967C23.7447 55.9942 23.3018 55.9889 22.8597 55.9772C21.8955 55.9514 20.9223 55.8943 19.9689 55.7228C19.0014 55.5489 18.101 55.2653 17.2222 54.8179C16.358 54.3779 15.5673 53.8034 14.8822 53.1177C14.1967 52.4325 13.6221 51.6423 13.1825 50.7784C12.7347 49.899 12.451 48.9979 12.277 48.03C12.1058 47.0771 12.049 46.1044 12.0231 45.1402C12.0109 44.6979 12.0058 44.2556 12.0029 43.8131C11.9999 43.3485 12 42.8846 12 42.4202C12 42.3588 12 42.2975 12 42.2361V32.9365V25.7637C12 25.7084 12 25.653 12 25.5977C12 25.1276 11.9999 24.6573 12.0029 24.187C12.0058 23.7445 12.0109 23.3022 12.0231 22.8592C12.049 21.8955 12.1059 20.9231 12.277 19.9697C12.451 19.0014 12.7347 18.1012 13.1825 17.2216C13.6221 16.3579 14.1967 15.5674 14.8822 14.882C15.0535 14.7106 15.2314 14.5462 15.4154 14.3891C15.9672 13.9178 16.574 13.5122 17.2221 13.1823C17.4418 13.0705 17.6629 12.9689 17.886 12.8767C18.5553 12.6 19.2432 12.4077 19.9687 12.2773C20.6838 12.1485 21.4101 12.0844 22.1352 12.0494C22.3769 12.0378 22.6185 12.0293 22.8596 12.0228C23.3018 12.0108 23.7446 12.0058 24.1874 12.003C24.7127 12 25.2379 12 25.7637 12H30.5889H42.2364C42.7616 12 43.2874 12 43.8128 12.003C44.2555 12.0057 44.6978 12.0107 45.1406 12.0227C46.1051 12.0488 47.0775 12.1054 48.0315 12.2772C48.9988 12.451 49.8992 12.7351 50.778 13.1823C51.6422 13.6221 52.4326 14.1966 53.1179 14.8821C53.8033 15.5675 54.3779 16.3579 54.8175 17.2217C55.2652 18.1012 55.5493 19.0015 55.7232 19.9697C55.8944 20.9231 55.9514 21.8956 55.9772 22.8593ZM46.8629 39.1578C46.8636 39.1586 46.8643 39.1593 46.865 39.1602C50.6455 43.8119 49.6172 48.7981 49.1332 47.8572C47.1573 44.0127 43.476 44.9941 41.6122 45.9615C41.4576 46.0536 41.2995 46.1408 41.1402 46.2265C41.1317 46.2317 41.1223 46.2372 41.1129 46.2426C41.102 46.2489 41.0911 46.2552 41.0816 46.2612L41.0847 46.2568C37.2056 48.3181 31.9973 48.4707 26.7598 46.2199C22.368 44.3323 18.7595 41.0989 16.4165 37.3513C17.6079 38.2308 18.8949 39.0049 20.2639 39.6465C25.7989 42.2388 31.3581 42.0516 35.2923 39.644C29.6929 35.3378 25.019 29.7299 21.4352 25.1848C20.7458 24.3697 20.1187 23.5229 19.5914 22.6436C23.883 26.5715 30.6621 31.5039 33.0946 32.8691C27.9316 27.4143 23.3821 20.6967 23.5955 20.9118C31.727 29.1053 39.2296 33.7376 39.2296 33.7376C39.5121 33.8934 39.7225 34.0179 39.8895 34.1277C40.0434 33.7328 40.1826 33.3265 40.2984 32.9032C41.5968 28.1571 40.1354 22.7301 36.8303 18.2495C44.3725 22.7787 48.8296 31.3807 47.0034 38.6566C46.9679 38.7978 46.9273 38.9353 46.8866 39.0729C46.8783 39.1008 46.8701 39.1287 46.8619 39.1567C46.8622 39.1571 46.8626 39.1574 46.8629 39.1578Z" fill="#FF6C5C"/>
<path d="M75.9829 40.5201C76.3267 43.5726 79.2381 45.574 83.2814 45.574C87.123 45.574 89.8927 43.5726 89.8927 40.8034C89.8927 38.4176 88.2148 36.9613 84.3529 35.9913L80.6127 35.0412C75.2349 33.7067 72.8086 31.2803 72.8086 27.2776C72.8086 22.3447 77.1149 18.9276 83.2412 18.9276C89.1848 18.9276 93.4104 22.3645 93.552 27.3182H89.6098C89.3062 24.2856 86.8397 22.425 83.1401 22.425C79.4803 22.425 76.933 24.3054 76.933 27.0548C76.933 29.1978 78.5103 30.4719 82.3921 31.4627L85.5055 32.2711C91.5304 33.7474 93.9968 36.0925 93.9968 40.3181C93.9968 45.6959 89.7306 49.0724 82.9375 49.0724C76.6298 49.0724 72.3235 45.7158 72 40.5203L75.9829 40.5201Z" fill="#FF6C5C"/>
<path d="M119.04 48.5869H115.077L110.447 32.4534H110.366L105.757 48.5869H101.794L95.9312 27.459H99.7723L103.856 44.4219H103.937L108.547 27.459H112.267L116.917 44.4219H116.998L121.082 27.459H124.883L119.04 48.5869Z" fill="#FF6C5C"/>
<path d="M127.442 21.7779C127.442 20.5047 128.494 19.4734 129.768 19.4734C131.062 19.4734 132.113 20.5047 132.113 21.7779C132.113 23.0519 131.062 24.1032 129.768 24.1032C128.494 24.1032 127.442 23.052 127.442 21.7779ZM127.847 27.459H131.709V48.5869H127.847V27.459Z" fill="#FF6C5C"/>
<path d="M156.925 30.5729V27.4589H152.841V22.405H149V27.4589H145.866H141.618V25.5992C141.638 23.7188 142.366 22.9302 144.105 22.9302C144.671 22.9302 145.237 22.9915 145.702 23.0718V20.0391C145.015 19.9381 144.388 19.8776 143.66 19.8776C139.536 19.8776 137.797 21.5966 137.797 25.5388V27.4589H134.846V30.5729H137.797V48.5868H141.638V30.5729H145.866H149V43.0475C149 47.1314 150.557 48.7077 154.6 48.7077C155.47 48.7077 156.46 48.6473 156.905 48.5462V45.3926C156.642 45.4332 155.874 45.4937 155.449 45.4937C153.65 45.4937 152.842 44.6446 152.842 42.7443V30.5729H156.925Z" fill="#FF6C5C"/>
</svg>
