<svg width="260" height="68" viewBox="0 0 260 68" fill="none" xmlns="http://www.w3.org/2000/svg">
<path fill-rule="evenodd" clip-rule="evenodd" d="M29.7871 12L10.9658 22.7072V32.4943L22.2586 25.8859V51.6502L29.7871 56V12ZM31.4601 12L50.2814 22.7072V32.4943L38.9886 25.8859V30.8213L44.5934 34.0837L44.6767 42.5323L38.9886 39.27V51.6502L31.4601 56V12ZM84.3272 25.635H75.9622V48.8061H71.2777V25.635H62.9127V21.8707H84.3272V25.635ZM82.9887 46.4639C84.7451 48.2205 87.0875 49.1407 89.9315 49.1407C91.5208 49.2243 93.0267 48.8897 94.5323 48.0532C95.787 47.4677 96.8743 46.4639 97.7108 45.2928L95.2851 42.9506C94.114 44.5399 92.2736 45.5437 90.266 45.4601C88.8442 45.5437 87.5895 45.0418 86.5855 44.038C85.5816 42.9506 84.9962 41.6122 84.9125 40.1065H98.0458V38.2662C98.0458 35.0875 97.2926 32.6616 95.787 30.9049C94.2815 29.1483 92.1902 28.3118 89.4295 28.3118C87.7565 28.3118 86.1673 28.73 84.7451 29.6502C83.3232 30.5703 82.2355 31.8251 81.4828 33.3308C80.6463 35.0038 80.3118 36.8441 80.3118 38.6844V39.27C80.3118 42.2814 81.232 44.7072 82.9887 46.4639ZM86.4181 33.2472C87.1712 32.4107 88.2585 31.9088 89.4295 31.9924C90.5172 31.9088 91.6045 32.4107 92.441 33.0798C93.1101 33.8327 93.5283 35.0038 93.6121 36.5095V36.8441H84.9962C85.08 35.5057 85.5816 34.2509 86.4181 33.2472ZM105.825 31.0723L105.658 28.73L101.392 28.6464V48.7225H105.909V34.5019C106.662 32.9962 108.251 31.9924 110.008 32.076C111.262 32.076 112.099 32.4107 112.685 32.9962C113.27 33.6654 113.521 34.5855 113.521 35.8403V48.8061H118.038V35.5894C117.954 30.8213 115.863 28.3954 111.681 28.3954C109.422 28.3118 107.247 29.3156 105.825 31.0723ZM131.589 41.5285C132.259 41.9468 132.593 42.616 132.593 43.3688C132.593 44.038 132.259 44.7072 131.422 45.0418C130.836 45.4601 129.916 45.711 128.745 45.711C127.742 45.7947 126.654 45.4601 125.817 44.8745C125.065 44.289 124.646 43.3688 124.646 42.4487H120.296C120.296 43.6198 120.715 44.7909 121.384 45.7947C122.137 46.8821 123.224 47.7186 124.396 48.2205C125.734 48.8897 127.24 49.1407 128.745 49.1407C131.171 49.1407 133.095 48.5551 134.601 47.4677C136.023 46.4639 136.859 44.8745 136.859 43.1179C136.859 42.1141 136.608 41.1939 136.107 40.3574C135.521 39.5209 134.768 38.8517 133.848 38.4335C132.509 37.7643 131.088 37.2624 129.665 37.0114C127.909 36.5932 126.738 36.2585 126.152 35.8403C125.65 35.5057 125.315 34.9202 125.315 34.2509C125.315 33.4981 125.65 32.8289 126.236 32.4107C126.988 31.9088 127.825 31.7414 128.661 31.7414C129.665 31.6578 130.502 31.9924 131.255 32.5779C131.924 33.1635 132.259 33.9164 132.259 34.7529H136.776C136.859 32.9962 136.023 31.2395 134.601 30.1521C133.179 28.981 131.255 28.3954 128.829 28.3954C126.654 28.3954 124.73 28.981 123.308 30.1521C121.969 31.1559 121.133 32.8289 121.133 34.5019C121.133 36.5095 122.221 38.0989 124.479 39.1863C125.734 39.7719 126.988 40.1901 128.327 40.4411C129.415 40.6084 130.586 40.943 131.589 41.5285ZM140.54 33.3308C139.703 34.9202 139.369 36.7605 139.369 38.6008L139.285 38.8517C139.369 42.0304 140.205 44.5399 141.878 46.3802C143.551 48.3042 145.81 49.2243 148.654 49.2243C150.41 49.308 152.083 48.8061 153.589 47.9696C155.011 47.1331 156.183 45.8783 156.852 44.3726C157.688 42.6996 158.023 40.943 158.023 39.1027V38.0152C157.856 35.0875 156.935 32.8289 155.262 31.0723C153.589 29.3156 151.331 28.4791 148.654 28.4791C146.981 28.3954 145.308 28.8973 143.802 29.7338C142.38 30.5703 141.293 31.8251 140.54 33.3308ZM145.057 43.8707C144.22 42.6996 143.802 41.1103 143.802 39.019C143.802 36.6768 144.304 34.9202 144.973 33.749C145.224 33.4981 145.559 33.1635 145.893 32.9125C147.901 31.4905 150.662 31.9088 152.083 33.8327C153.004 35.0875 153.422 36.6768 153.422 38.6844C153.422 40.943 153.004 42.6996 152.167 43.8707C151.916 44.2053 151.665 44.4563 151.331 44.7072C149.323 46.2129 146.563 45.7947 145.057 43.8707ZM169.65 32.7453C170.236 32.7453 170.905 32.8289 171.49 32.9125L171.407 28.6464C170.905 28.4791 170.319 28.3954 169.817 28.3954C167.894 28.3954 166.388 29.2319 165.3 30.9886L165.217 28.73H160.95V48.8061H165.467V35.0875C166.221 33.4981 167.559 32.7453 169.65 32.7453ZM179.437 37.346H190.312V33.6654H179.437V25.635H191.901V21.8707H174.753V48.8061H179.437V37.346ZM194.745 48.8061H199.263V21.7871H194.745V48.8061ZM203.696 33.3308C202.859 34.9202 202.525 36.7605 202.525 38.6008V38.8517C202.525 42.0304 203.445 44.5399 205.118 46.3802C206.791 48.3042 209.049 49.2243 211.893 49.2243C213.65 49.308 215.323 48.8061 216.829 47.9696C218.251 47.1331 219.422 45.8783 220.091 44.3726C220.844 42.6996 221.179 40.943 221.179 39.1027V38.0152C221.012 35.0875 220.091 32.8289 218.418 31.0723C216.745 29.3156 214.487 28.4791 211.81 28.4791C210.137 28.3954 208.464 28.8973 206.958 29.7338C205.536 30.5703 204.449 31.8251 203.696 33.3308ZM208.297 43.8707C207.46 42.6996 207.042 41.1103 207.042 39.019C207.042 36.6768 207.46 34.9202 208.213 33.749C208.464 33.4981 208.799 33.1635 209.133 32.9125C211.141 31.4905 213.901 31.9088 215.323 33.8327C216.243 35.0875 216.662 36.6768 216.662 38.6844C216.662 40.943 216.243 42.6996 215.407 43.8707C214.654 45.0418 213.316 45.711 211.893 45.6274C210.472 45.711 209.133 45.0418 208.297 43.8707ZM244.684 28.8137L241.506 42.616L237.407 28.8137H233.977L229.878 42.5323L226.616 28.8137H222.183L227.704 48.8897H231.384L235.65 35.0875L239.916 48.8897H243.597L249.034 28.8137H244.684Z" fill="#FF6C5C"/>
</svg>
