<svg width="66" height="68" viewBox="0 0 66 68" fill="none" xmlns="http://www.w3.org/2000/svg">
<path fill-rule="evenodd" clip-rule="evenodd" d="M32.976 44.2126C41.332 44.2126 48.1844 37.7002 48.8446 29.4188C48.1048 31.705 46.5025 33.6832 44.0598 34.4886C39.4035 36.029 34.3157 34.323 30.5325 31.739C26.9349 29.2754 23.8792 25.161 24.3509 20.59C24.8225 15.9889 28.6057 13.1691 33.1065 12.853C35.9213 12.6523 38.2193 13.4802 40.4271 14.6643C43.3623 16.2348 45.6955 20.0632 44.2555 22.6974C41.4858 27.7752 32.1331 23.7059 32.8757 18.4576C32.961 17.8304 33.2169 17.158 33.7236 16.7466C34.406 16.1997 34.4311 16.9423 34.2605 17.424C33.7337 18.9242 34.7271 20.3793 35.9012 21.2222C37.4968 22.3662 41.0442 22.8881 41.9574 20.5449C43.5179 16.5208 34.6418 13.5002 31.8521 16.1947C27.542 20.3542 31.9123 24.6141 35.3995 26.5057C38.3297 28.1013 43.6985 28.7586 45.9062 25.4019C48.5103 21.2122 44.0849 16.4606 40.9539 14.2278C41.3715 14.4611 41.7783 14.7043 42.1733 14.9579C39.5759 13.095 36.4023 12 32.976 12C28.8253 12 25.0456 13.6069 22.2115 16.2394C19.5255 18.7817 17.9341 22.4666 18.0538 26.9372C18.1191 30.5699 19.6093 34.027 22.2034 36.5659C23.9796 38.3471 26.0117 39.8474 28.2344 41.0215C28.6931 41.2648 29.1167 41.4705 29.4849 41.6492L29.4849 41.6492C30.3693 42.0786 30.9342 42.3528 30.8988 42.6221C30.8084 43.3195 28.6208 42.607 27.9685 42.3862C25.821 41.6587 23.2269 40.4144 21.4557 39.0747C21.2939 38.9539 21.1361 38.8284 20.9822 38.6985C23.9006 42.0778 28.1919 44.2126 32.976 44.2126ZM43.2419 20.861C43.6885 17.8505 40.969 15.7882 38.4602 14.85C35.4998 13.7461 31.5861 14.2278 29.4286 16.6814C27.8531 18.4827 27.9534 21.0968 28.7663 23.2142C29.9956 26.4054 32.7753 28.7134 36.0066 29.7119C38.3046 30.4194 41.0793 30.7305 43.4075 29.9829C46.8044 28.8891 47.9082 25.3517 47.2058 22.1053C47.0552 21.4029 46.8244 20.7205 46.5184 20.0732C46.383 19.7882 46.1588 19.4098 45.9734 19.0969C45.5745 18.4237 45.3554 18.054 46.5886 19.5715C46.7793 19.8173 46.9549 20.0782 47.1104 20.3442C47.4817 20.9563 47.7778 21.6136 47.9935 22.301C48.982 25.3266 48.2042 28.8589 45.4697 30.6853C43.3724 32.0852 40.703 32.2508 38.2695 31.8996C35.0081 31.4279 31.9273 29.8474 29.7899 27.3135C27.838 25.0005 26.5034 21.6788 27.3062 18.6432C27.8932 16.4205 29.6995 14.7647 31.8571 14.0722C34.5917 13.1892 37.5972 13.6006 40.0558 15.0356C41.2901 15.7531 42.419 16.7466 43.0412 18.0512C43.3272 18.6382 43.4777 19.2805 43.4928 19.9327C43.4978 20.1987 43.4777 20.4596 43.4326 20.7205C43.4175 20.8158 43.2168 21.0818 43.2419 20.861ZM15.3832 49.8825H12.0767V51.0014H13.1404V55.8583H14.2944V51.0014H15.3832V49.8825ZM20.0545 52.2206H19.3772L19.3722 50.9863H20.0044C20.2201 50.9763 20.4309 50.9963 20.6366 51.0515C20.747 51.0917 20.8423 51.1669 20.9075 51.2623C20.9778 51.3626 21.0129 51.483 21.0079 51.6085C21.0229 51.7891 20.9477 51.9697 20.8022 52.0801C20.6667 52.1755 20.4158 52.2206 20.0545 52.2206ZM19.7685 49.8825H18.2432H18.2382V55.8583H19.3772V53.3295H19.8037L21.1434 55.8533H22.3927L20.9728 53.199C21.3089 53.0887 21.605 52.8829 21.8207 52.5969C22.0214 52.3109 22.1218 51.9647 22.1067 51.6135C22.1168 51.2723 22.0264 50.9361 21.8508 50.6451C21.6953 50.3842 21.4595 50.1785 21.1785 50.0581C20.8975 49.9427 20.4309 49.8825 19.7685 49.8825ZM25.2878 49.8825H26.4268V53.751C26.4118 53.9918 26.4419 54.2276 26.5171 54.4585C26.5723 54.5989 26.6777 54.7143 26.8082 54.7896C26.9537 54.8749 27.1243 54.9201 27.2949 54.915C27.4755 54.9201 27.6561 54.8749 27.8117 54.7796C27.9471 54.6993 28.0525 54.5739 28.1127 54.4283C28.183 54.1624 28.2131 53.8865 28.198 53.6155V49.8825H29.342V53.4449C29.3571 53.8664 29.327 54.2828 29.2417 54.6993C29.1664 54.9502 29.0309 55.181 28.8553 55.3716C28.6747 55.5774 28.4489 55.7379 28.193 55.8433C27.917 55.9537 27.621 56.0089 27.325 55.9988C26.9286 56.0089 26.5322 55.9035 26.191 55.6978C25.8899 55.5222 25.6541 55.2613 25.5036 54.9502C25.3681 54.6491 25.2979 54.1423 25.2979 53.4299L25.2878 49.8825ZM35.7444 49.8825H32.779V55.8583H33.908V53.1689H35.7444V52.0751H33.908V50.9913H35.7444V49.8825ZM38.8904 49.8825H41.8608V50.9913H40.0244V52.0751H41.8608V53.1689H40.0244V55.8583H38.8904V49.8825ZM46.1358 49.8825H45.0018V55.8583H47.7966V54.7746H46.1358V49.8825ZM50.6616 49.8825H53.923V50.9963H51.7905V52.0751H53.923V53.1689H51.7905V54.7445H53.923V55.8583H50.6616V49.8825Z" fill="#FF6C5C"/>
</svg>
