<svg width="144" height="68" viewBox="0 0 144 68" fill="none" xmlns="http://www.w3.org/2000/svg">
<path d="M26.91 56L37.4481 31.1602C38.8851 27.6703 39.4325 27.3282 42.375 27.3282V25.8911H31.7V27.3282C34.4372 27.3282 35.7373 27.465 35.7373 28.902C35.7373 29.4495 35.6005 30.1338 35.1899 31.1602L29.0997 46.3515L22.5305 30.9549C22.1884 29.9969 21.9831 29.3126 21.9831 28.8336C21.9831 27.465 23.2832 27.3282 25.6098 27.3282V25.8911H10.3501V27.3282C13.1557 27.3282 13.5663 27.8756 14.9349 30.8865L26.4994 56H26.91ZM44.7448 16.1742C44.7448 18.5008 46.7293 20.3484 49.0559 20.3484C51.3825 20.3484 53.2985 18.5008 53.2985 16.1742C53.2985 13.7792 51.3825 12 49.0559 12C46.7293 12 44.7448 13.7792 44.7448 16.1742ZM45.566 31.0233V50.1835C45.566 53.5365 44.8817 53.8787 41.8024 53.8787V55.3157H56.6515V53.8787C53.5722 53.8787 52.8879 53.5365 52.8879 50.1835V25.8911H41.8024V27.3282C44.8817 27.3282 45.566 27.6703 45.566 31.0233ZM70.1418 27.0544C73.7685 27.0544 75.4792 30.5443 75.6845 35.4028H63.4357C63.9831 29.9285 66.5834 27.0544 70.1418 27.0544ZM82.459 49.4308L81.5694 48.6096C79.7218 51.0731 77.4637 52.168 74.5897 52.168C67.952 52.168 63.2988 46.1462 63.2988 37.8663C63.2988 37.5925 63.2988 37.3188 63.2988 37.1135H81.98C81.98 31.4339 78.2164 25.2068 70.347 25.2068C63.2304 25.2068 56.3875 31.9813 56.3875 41.014C56.3875 49.8414 63.0251 56 71.0998 56C75.4792 56 79.7903 53.7418 82.459 49.4308ZM97.5193 53.8787C94.44 53.8787 93.7557 53.5365 93.7557 50.1835V32.7341C94.919 30.5443 96.835 29.1073 99.1616 29.1073C102.72 29.1073 104.499 31.4339 104.499 36.3608V50.1835C104.499 53.5365 103.815 53.8787 100.735 53.8787V55.3157H115.585V53.8787C112.437 53.8787 111.753 53.5365 111.753 50.1835V35.1975C111.753 34.5132 111.684 33.7605 111.616 33.1446C112.574 30.9549 114.627 29.1073 117.158 29.1073C120.785 29.1073 122.564 31.4339 122.564 36.3608V50.1835C122.564 53.5365 121.88 53.8787 118.801 53.8787V55.3157H133.65V53.8787C130.502 53.8787 129.818 53.5365 129.818 50.1835V35.1975C129.818 29.7232 127.218 25.2068 120.991 25.2068C115.995 25.2068 112.642 29.0389 111.41 31.8445C110.452 28.0124 107.852 25.2068 102.925 25.2068C98.3404 25.2068 95.1243 28.4914 93.7557 31.2286V25.8911H82.6701V27.3282C85.7495 27.3282 86.4338 27.6703 86.4338 31.0233V50.1835C86.4338 53.5365 85.7495 53.8787 82.6701 53.8787V55.3157H97.5193V53.8787Z" fill="#FF6C5C"/>
</svg>
