<svg width="146" height="68" viewBox="0 0 146 68" fill="none" xmlns="http://www.w3.org/2000/svg">
<path fill-rule="evenodd" clip-rule="evenodd" d="M32.0455 12H22.5806L22.5859 12.009H12.2666L37.9626 56L63.4905 12.009H53.436L53.4413 12H43.8262L37.9487 22.2169L32.0455 12ZM44.5153 13.1919L37.951 24.6034L31.3576 13.1919H24.6484L37.9527 36.1674L51.3653 13.1919H44.5153ZM70.0635 19.8733C69.7032 20.0897 69.5228 20.3601 69.5228 20.6846C69.5228 20.7279 69.5449 20.8145 69.5886 20.9443L76.303 42.5255C76.4997 43.1529 77.0567 43.4666 77.9733 43.4666C78.8905 43.4666 79.469 43.1529 79.7094 42.5255L86.3586 20.9442C86.3586 20.901 86.3639 20.8577 86.3749 20.8145C86.386 20.7712 86.3912 20.7387 86.3912 20.7171C86.3912 20.4142 86.2114 20.1438 85.8511 19.9058C85.4909 19.6678 85.1033 19.5488 84.6883 19.5488C84.1861 19.5488 83.8584 19.7543 83.7053 20.1654L77.9733 39.4424L72.2087 20.1654C72.0778 19.7543 71.739 19.5488 71.1931 19.5488C70.8003 19.5488 70.4237 19.657 70.0635 19.8733ZM86.6496 28.8628V37.3003C86.6496 38.9662 87.2881 40.4212 88.5655 41.6652C89.843 42.9092 91.3661 43.5312 93.1347 43.5312C94.8819 43.5312 96.3939 42.9092 97.6714 41.6652C98.9488 40.4212 99.5879 38.9662 99.5879 37.3003V28.8298C99.5879 28.5702 99.4621 28.3484 99.2107 28.1645C98.9599 27.9806 98.6375 27.8887 98.2446 27.8887C97.8733 27.8887 97.5515 27.986 97.2785 28.1807C97.0056 28.3755 96.8688 28.5918 96.8688 28.8298V37.3003C96.8688 38.2955 96.4975 39.1772 95.7554 39.9452C95.0128 40.7133 94.1393 41.0973 93.1347 41.0973C92.1087 41.0973 91.2241 40.7078 90.482 39.929C89.7394 39.1501 89.3681 38.2739 89.3681 37.3003V28.8627C89.3681 28.6248 89.2319 28.403 88.959 28.1975C88.686 27.9919 88.3746 27.8892 88.0255 27.8892C87.6541 27.8892 87.3317 27.9865 87.0588 28.1813C86.7858 28.376 86.6496 28.6031 86.6496 28.8628ZM101.81 33.8278V37.2354C101.81 39.1177 102.487 40.6376 103.841 41.7951C105.195 42.9526 106.942 43.5313 109.082 43.5313C110.545 43.5313 111.773 43.2717 112.767 42.7524C113.76 42.2332 114.257 41.7248 114.257 41.2272C114.257 40.9459 114.148 40.6701 113.929 40.3997C113.711 40.1292 113.449 39.994 113.144 39.994C112.947 39.994 112.685 40.0967 112.357 40.3023C112.03 40.5078 111.598 40.7188 111.064 40.9351C110.529 41.1515 109.901 41.2596 109.18 41.2596C107.804 41.2596 106.685 40.9027 105.823 40.1887C104.96 39.4747 104.529 38.5228 104.529 37.3328V36.3592H111.703C112.161 36.3592 112.527 36.3376 112.8 36.2943C113.073 36.2511 113.368 36.1483 113.684 35.986C114.001 35.8237 114.235 35.5533 114.388 35.1747C114.541 34.796 114.618 34.293 114.618 33.6656C114.618 31.9564 113.995 30.5339 112.751 29.3981C111.506 28.2622 110.032 27.6942 108.329 27.6942C106.538 27.6942 105.004 28.3 103.726 29.5116C102.45 30.7232 101.81 32.1619 101.81 33.8278ZM110.589 34.5418H104.529V33.3734C104.529 32.3782 104.9 31.5399 105.643 30.8584C106.385 30.1769 107.27 29.8361 108.296 29.8361C109.344 29.8361 110.228 30.204 110.949 30.9396C111.669 31.6752 112.03 32.5298 112.03 33.5034C112.03 33.9144 111.932 34.1902 111.735 34.3309C111.538 34.4715 111.157 34.5418 110.589 34.5418ZM116.481 40.5618C116.153 40.8971 115.99 41.3027 115.99 41.7787C115.99 42.2331 116.153 42.6279 116.481 42.9632C116.808 43.2986 117.212 43.4663 117.692 43.4663C118.151 43.4663 118.544 43.2986 118.872 42.9632C119.199 42.6279 119.363 42.2331 119.363 41.7787C119.363 41.3027 119.199 40.8971 118.872 40.5618C118.544 40.2264 118.151 40.0587 117.692 40.0587C117.212 40.0587 116.808 40.2264 116.481 40.5618ZM118.736 48.675C118.518 48.9022 118.409 49.1889 118.409 49.535C118.409 50.3139 118.879 50.7034 119.817 50.7034C121.324 50.7034 122.448 50.1517 123.191 49.0483C123.934 47.9449 124.305 46.452 124.305 44.5698V28.8301C124.305 28.5488 124.174 28.3216 123.912 28.1486C123.65 27.9755 123.322 27.8889 122.929 27.8889C122.536 27.8889 122.214 27.9755 121.963 28.1486C121.712 28.3216 121.586 28.5488 121.586 28.8301V44.5698C121.586 45.8247 121.455 46.7658 121.193 47.3932C120.931 48.0206 120.374 48.3343 119.523 48.3343C119.217 48.3343 118.955 48.4479 118.736 48.675ZM121.717 21.0413C121.39 21.3443 121.226 21.7012 121.226 22.1123C121.226 22.5234 121.395 22.8858 121.734 23.1995C122.072 23.5132 122.471 23.67 122.929 23.67C123.388 23.67 123.781 23.5132 124.108 23.1995C124.436 22.8858 124.599 22.5234 124.599 22.1123C124.599 21.7012 124.436 21.3443 124.108 21.0413C123.781 20.7384 123.388 20.587 122.929 20.587C122.448 20.587 122.045 20.7384 121.717 21.0413ZM126.61 40.237C126.424 40.5074 126.331 40.7833 126.331 41.0645C126.331 41.6487 126.855 42.2058 127.903 42.7358C128.952 43.2659 130.218 43.5309 131.703 43.5309C133.428 43.5309 134.771 43.1415 135.732 42.3627C136.693 41.5838 137.173 40.5237 137.173 39.1823C137.173 38.1005 136.9 37.2189 136.354 36.5374C135.808 35.8559 135.142 35.3745 134.356 35.0932C133.57 34.8119 132.778 34.5739 131.981 34.3792C131.185 34.1845 130.513 33.9141 129.967 33.5679C129.421 33.2218 129.148 32.7458 129.148 32.14C129.148 31.5559 129.394 31.0312 129.885 30.566C130.376 30.1008 131.124 29.8683 132.129 29.8683C132.871 29.8683 133.619 30.0252 134.372 30.3388C135.126 30.6526 135.546 30.8094 135.633 30.8094C135.94 30.8094 136.196 30.6472 136.403 30.3226C136.515 30.148 136.597 29.9827 136.648 29.8268C136.692 29.6931 136.714 29.5663 136.714 29.4464C136.714 28.9921 136.234 28.5864 135.273 28.2295C134.312 27.8725 133.254 27.694 132.096 27.694C130.284 27.694 128.935 28.1429 128.051 29.0408C127.167 29.9386 126.724 31.0042 126.724 32.2374C126.724 33.2326 126.997 34.0331 127.543 34.6388C128.089 35.2446 128.755 35.6774 129.541 35.937C130.327 36.1966 131.114 36.4346 131.899 36.651C132.686 36.8673 133.352 37.1864 133.898 37.6083C134.444 38.0302 134.717 38.5981 134.717 39.3121C134.717 39.8963 134.471 40.3831 133.979 40.7725C133.488 41.1619 132.697 41.3566 131.605 41.3566C130.775 41.3566 130.054 41.2322 129.443 40.9834C128.832 40.7346 128.362 40.4804 128.034 40.2208C127.707 39.9612 127.456 39.8314 127.281 39.8314C127.019 39.8314 126.795 39.9666 126.61 40.237Z" fill="#FF6C5C"/>
</svg>
