<svg width="207" height="68" viewBox="0 0 207 68" fill="none" xmlns="http://www.w3.org/2000/svg">
<path fill-rule="evenodd" clip-rule="evenodd" d="M195 20C197.209 20 199 18.2091 199 16C199 13.7909 197.209 12 195 12C192.791 12 191 13.7909 191 16C191 18.2091 192.791 20 195 20ZM18 38C18 39.6569 19.3431 41 21 41H27C28.6569 41 30 39.6569 30 38V26C30 24.3431 31.3431 23 33 23C34.6569 23 36 24.3431 36 26V38C36 39.6569 37.3431 41 39 41H45C46.6571 41 48 39.6569 48 38V26C48 24.3431 49.3429 23 51 23H96C97.6571 23 99 24.3431 99 26V44C99 45.657 97.6571 47 96 47H60C58.3429 47 57 45.657 57 44V35C57 33.3431 58.3429 32 60 32H91.5C92.3283 32 93 31.3284 93 30.5C93 29.6716 92.3283 29 91.5 29H57C55.3429 29 54 30.3431 54 32V44C54 45.657 52.6571 47 51 47H15C13.3431 47 12 45.657 12 44V26C12 24.3431 13.3431 23 15 23C16.6569 23 18 24.3431 18 26V38ZM91.5 41C92.3283 41 93 40.3284 93 39.5C93 38.6716 92.3283 38 91.5 38H64.5C63.6717 38 63 38.6716 63 39.5C63 40.3284 63.6717 41 64.5 41H91.5ZM153 44C153 45.657 151.657 47 150 47C148.343 47 147 45.657 147 44V26C147 24.3431 148.343 23 150 23H186C187.657 23 189 24.3431 189 26V39.5C189 40.3284 189.672 41 190.5 41C191.328 41 192 40.3284 192 39.5V26C192 24.3431 193.343 23 195 23C196.657 23 198 24.3431 198 26V44C198 45.657 196.657 47 195 47H186C184.343 47 183 45.657 183 44V32C183 30.3431 181.657 29 180 29H174C172.343 29 171 30.3431 171 32V44C171 45.657 169.657 47 168 47C166.343 47 165 45.657 165 44V32C165 30.3431 163.657 29 162 29H156C154.343 29 153 30.3431 153 32V44ZM102 44C102 45.657 103.343 47 105 47H136.5C137.328 47 138 47.6717 138 48.5C138 49.3283 137.328 50 136.5 50H105C103.343 50 102 51.343 102 53C102 54.657 103.343 56 105 56H141C142.657 56 144 54.657 144 53V26C144 24.3431 142.657 23 141 23H105C103.343 23 102 24.3431 102 26V44ZM111 29C109.343 29 108 30.3431 108 32V38C108 39.6569 109.343 41 111 41H135C136.657 41 138 39.6569 138 38V32C138 30.3431 136.657 29 135 29H111Z" fill="#FF6C5C"/>
</svg>
