<svg width="180" height="68" viewBox="0 0 180 68" fill="none" xmlns="http://www.w3.org/2000/svg">
<path fill-rule="evenodd" clip-rule="evenodd" d="M61.349 45.1296H54.07V30.6678L48.0011 24.5989L53.1482 19.4518L61.349 27.6526V45.1296ZM50.7667 48.7787H61.3682L68.6279 56H45.3699H32.9247L24.7239 47.7992L29.8518 42.6713L17.2529 30.0725V22.928H24.5318V27.0572L29.8518 32.3771L37.63 24.5989L32.3101 19.2789H17.2913H17.2529V19.2597L9.99316 12H22.8993H35.3446L47.9626 24.6757L45.4083 27.23L50.4018 32.2235V42.5369L40.242 32.3771L37.6492 34.9699L47.809 45.1488H37.4956L32.4829 40.1362L29.9094 42.7097L35.9784 48.7787H50.7667ZM166.013 38.1162V33.8224H168V31.98H166.013V29.785H163.754V31.98H162.697V33.8224H163.754V38.1001C163.754 39.9372 164.7 40.8558 166.59 40.8558H168V38.9653H166.959C166.617 38.9653 166.371 38.9012 166.222 38.773C166.083 38.6342 166.013 38.4152 166.013 38.1162ZM161.765 36.2256C161.765 36.5461 161.743 36.8344 161.701 37.0908H155.212C155.265 37.7316 155.49 38.2336 155.885 38.5968C156.28 38.9599 156.766 39.1415 157.343 39.1415C158.176 39.1415 158.769 38.7837 159.121 38.0681H161.54C161.284 38.9226 160.793 39.6275 160.067 40.1829C159.34 40.7276 158.448 41 157.391 41C156.536 41 155.767 40.8131 155.084 40.4393C154.411 40.0547 153.882 39.5154 153.498 38.8211C153.124 38.1268 152.937 37.3258 152.937 36.4179C152.937 35.4993 153.124 34.6929 153.498 33.9987C153.872 33.3044 154.395 32.7704 155.068 32.3965C155.741 32.0227 156.515 31.8358 157.391 31.8358C158.235 31.8358 158.988 32.0174 159.65 32.3805C160.323 32.7437 160.841 33.2617 161.204 33.9346C161.578 34.5968 161.765 35.3605 161.765 36.2256ZM159.442 35.5848C159.431 35.008 159.223 34.5487 158.817 34.2069C158.411 33.8545 157.914 33.6782 157.327 33.6782C156.771 33.6782 156.301 33.8491 155.917 34.1909C155.543 34.522 155.314 34.9866 155.228 35.5848H159.442ZM146.401 37.0748L149.413 40.8558H152.329L148.387 36.4339L152.297 31.98H149.381L146.401 35.745V29H144.158V40.8558H146.401V37.0748ZM133.943 36.4179C133.943 35.4993 134.13 34.6983 134.504 34.0147C134.878 33.3204 135.396 32.7864 136.058 32.4125C136.72 32.028 137.479 31.8358 138.333 31.8358C139.433 31.8358 140.341 32.1135 141.057 32.6689C141.783 33.2136 142.269 33.9826 142.515 34.976H140.095C139.967 34.5915 139.748 34.2924 139.438 34.0788C139.139 33.8545 138.766 33.7423 138.317 33.7423C137.676 33.7423 137.169 33.9773 136.795 34.4473C136.421 34.9065 136.234 35.5634 136.234 36.4179C136.234 37.2617 136.421 37.9186 136.795 38.3885C137.169 38.8478 137.676 39.0774 138.317 39.0774C139.225 39.0774 139.818 38.6716 140.095 37.8598H142.515C142.269 38.8211 141.783 39.5848 141.057 40.1509C140.33 40.717 139.422 41 138.333 41C137.479 41 136.72 40.8131 136.058 40.4393C135.396 40.0547 134.878 39.5207 134.504 38.8371C134.13 38.1429 133.943 37.3364 133.943 36.4179ZM125.937 40.4393C126.621 40.8131 127.39 41 128.244 41C129.11 41 129.889 40.8131 130.584 40.4393C131.288 40.0547 131.844 39.5154 132.25 38.8211C132.666 38.1268 132.875 37.3258 132.875 36.4179C132.875 35.51 132.672 34.7089 132.266 34.0147C131.871 33.3204 131.326 32.7864 130.632 32.4125C129.937 32.028 129.163 31.8358 128.309 31.8358C127.454 31.8358 126.68 32.028 125.985 32.4125C125.291 32.7864 124.741 33.3204 124.335 34.0147C123.94 34.7089 123.742 35.51 123.742 36.4179C123.742 37.3258 123.935 38.1268 124.319 38.8211C124.714 39.5154 125.254 40.0547 125.937 40.4393ZM129.382 38.757C129.029 38.9493 128.65 39.0454 128.244 39.0454C127.604 39.0454 127.07 38.8211 126.642 38.3725C126.226 37.9132 126.017 37.2617 126.017 36.4179C126.017 35.5741 126.231 34.9279 126.658 34.4793C127.096 34.02 127.636 33.7904 128.276 33.7904C128.917 33.7904 129.457 34.02 129.895 34.4793C130.343 34.9279 130.568 35.5741 130.568 36.4179C130.568 36.984 130.461 37.4646 130.247 37.8598C130.033 38.255 129.745 38.5541 129.382 38.757ZM118.401 40.968C117.621 40.968 116.916 40.8344 116.286 40.5674C115.666 40.3004 115.175 39.9159 114.812 39.4139C114.449 38.9119 114.262 38.3191 114.251 37.6355H116.654C116.686 38.0948 116.847 38.4579 117.135 38.725C117.434 38.992 117.84 39.1255 118.353 39.1255C118.876 39.1255 119.287 39.0027 119.586 38.757C119.885 38.5007 120.035 38.1696 120.035 37.7637C120.035 37.4326 119.933 37.1602 119.73 36.9466C119.527 36.733 119.271 36.5674 118.961 36.4499C118.662 36.3218 118.246 36.1829 117.712 36.0334C116.985 35.8198 116.393 35.6115 115.933 35.4085C115.485 35.1949 115.095 34.8798 114.764 34.4633C114.443 34.036 114.283 33.47 114.283 32.765C114.283 32.1028 114.449 31.526 114.78 31.0347C115.111 30.5434 115.576 30.1696 116.174 29.9132C116.772 29.6462 117.455 29.5127 118.224 29.5127C119.378 29.5127 120.313 29.7957 121.028 30.3618C121.754 30.9172 122.155 31.6969 122.23 32.7009H119.762C119.741 32.3164 119.576 32.0013 119.266 31.7557C118.967 31.4993 118.566 31.3712 118.064 31.3712C117.626 31.3712 117.274 31.4833 117.007 31.7076C116.75 31.9319 116.622 32.2577 116.622 32.6849C116.622 32.984 116.718 33.235 116.911 33.4379C117.114 33.6302 117.359 33.7904 117.648 33.9186C117.947 34.036 118.363 34.1749 118.897 34.3351C119.624 34.5487 120.216 34.7624 120.676 34.976C121.135 35.1896 121.53 35.51 121.861 35.9373C122.192 36.3645 122.358 36.9252 122.358 37.6195C122.358 38.2176 122.203 38.773 121.893 39.2857C121.584 39.7984 121.13 40.2096 120.531 40.5194C119.933 40.8184 119.223 40.968 118.401 40.968ZM107.11 32.2363C106.608 32.5033 106.213 32.8505 105.925 33.2777V29H103.682V40.8558H105.925V39.5901C106.224 40.0067 106.619 40.3485 107.11 40.6155C107.612 40.8718 108.194 41 108.857 41C109.615 41 110.299 40.8077 110.907 40.4232C111.527 40.0387 112.013 39.4993 112.365 38.8051C112.728 38.1001 112.91 37.2937 112.91 36.3858C112.91 35.478 112.728 34.6822 112.365 33.9987C112.013 33.3044 111.527 32.7704 110.907 32.3965C110.299 32.0227 109.615 31.8358 108.857 31.8358C108.205 31.8358 107.623 31.9693 107.11 32.2363ZM110.283 35.008C110.507 35.3925 110.619 35.8518 110.619 36.3858C110.619 36.9306 110.507 37.4005 110.283 37.7957C110.069 38.1909 109.78 38.4953 109.417 38.7089C109.065 38.9226 108.68 39.0294 108.264 39.0294C107.858 39.0294 107.473 38.9279 107.11 38.725C106.758 38.5113 106.469 38.2069 106.245 37.8117C106.031 37.4166 105.925 36.9519 105.925 36.4179C105.925 35.8838 106.031 35.4192 106.245 35.024C106.469 34.6288 106.758 34.3298 107.11 34.1268C107.473 33.9132 107.858 33.8064 108.264 33.8064C108.68 33.8064 109.065 33.9079 109.417 34.1108C109.78 34.3138 110.069 34.6128 110.283 35.008ZM102.045 36.2256C102.045 36.5461 102.023 36.8344 101.981 37.0908H95.4919C95.5453 37.7316 95.7696 38.2336 96.1648 38.5968C96.56 38.9599 97.0459 39.1415 97.6227 39.1415C98.4558 39.1415 99.0486 38.7837 99.4011 38.0681H101.82C101.564 38.9226 101.073 39.6275 100.346 40.1829C99.62 40.7276 98.7282 41 97.6708 41C96.8163 41 96.0473 40.8131 95.3637 40.4393C94.6908 40.0547 94.1621 39.5154 93.7776 38.8211C93.4037 38.1268 93.2168 37.3258 93.2168 36.4179C93.2168 35.4993 93.4037 34.6929 93.7776 33.9987C94.1514 33.3044 94.6748 32.7704 95.3477 32.3965C96.0206 32.0227 96.7949 31.8358 97.6708 31.8358C98.5146 31.8358 99.2676 32.0174 99.9298 32.3805C100.603 32.7437 101.121 33.2617 101.484 33.9346C101.858 34.5968 102.045 35.3605 102.045 36.2256ZM99.7215 35.5848C99.7108 35.008 99.5026 34.5487 99.0967 34.2069C98.6908 33.8545 98.1941 33.6782 97.6067 33.6782C97.0513 33.6782 96.5813 33.8491 96.1968 34.1909C95.823 34.522 95.5933 34.9866 95.5079 35.5848H99.7215ZM89.2048 40.8558L92.329 29.6729H89.9098L87.9231 38.3084L85.7762 29.6729H83.2769L81.0019 38.3565L79.0312 29.6729H76.628L79.6401 40.8718L82.2676 40.8558L84.4625 32.8932L86.5613 40.8558H89.2048Z" fill="#FF6C5C"/>
</svg>
