<svg width="72" height="72" viewBox="0 0 72 72" fill="none" xmlns="http://www.w3.org/2000/svg">
<path d="M44.8056 21.6111L26.8057 12.6111L12 18.9564V56.9007L27.1943 50.3889L45.1944 59.3889L60 53.0436V15.0992L44.8056 21.6111ZM6 15L27 6L45 15L63.909 6.8961C64.6707 6.56976 65.5524 6.92247 65.8788 7.68393C65.9586 7.87065 66 8.07168 66 8.27481V57L45 66L27 57L8.09088 65.1039C7.32942 65.4303 6.44763 65.0775 6.12129 64.3161C6.04125 64.1295 6 63.9282 6 63.7251V15ZM18 33H24V39H18V33ZM30 33H36V39H30V33ZM47.9943 32.8122L51.7065 29.1L54.8886 32.2821L51.1764 35.9943L54.8886 39.7065L51.7065 42.8886L47.9943 39.1764L44.2821 42.8886L41.1 39.7065L44.8122 35.9943L41.1 32.2821L44.2821 29.1L47.9943 32.8122Z" fill="white" fill-opacity="0.16"/>
</svg>
