<svg width="72" height="72" viewBox="0 0 72 72" fill="none" xmlns="http://www.w3.org/2000/svg">
<path d="M34.5 6C50.2401 6 63 18.7599 63 34.5C63 39.0873 61.9161 43.4217 59.9907 47.2608L67.3806 54.6525C68.5521 55.824 68.5521 57.7236 67.3806 58.8951L58.8951 67.3806C57.7236 68.5521 55.824 68.5521 54.6525 67.3806L47.2608 59.9907C43.4217 61.9161 39.0873 63 34.5 63C18.7599 63 6 50.2401 6 34.5C6 18.7599 18.7599 6 34.5 6ZM50.4099 46.1631L46.1673 50.4057L56.7738 61.0125L61.0164 56.7699L50.4099 46.1631ZM56.0007 27.8491L27.8491 56.0007C29.9511 56.6502 32.1846 57 34.5 57C37.4013 57 40.1742 56.451 42.7209 55.4508L39.8034 52.5312C38.6316 51.3597 38.6316 49.4601 39.8034 48.2886L48.2886 39.8034C49.4601 38.6316 51.3597 38.6316 52.5312 39.8034L55.4508 42.7209C56.451 40.1742 57 37.4013 57 34.5C57 32.1846 56.6502 29.9511 56.0007 27.8491ZM34.5 12C22.0736 12 12 22.0736 12 34.5C12 42.3405 16.0104 49.2444 22.0918 53.2722L53.2722 22.0918C49.2444 16.0104 42.3405 12 34.5 12Z" fill="white" fill-opacity="0.16"/>
</svg>
