<svg width="73" height="72" viewBox="0 0 73 72" fill="none" xmlns="http://www.w3.org/2000/svg">
<path d="M9.2002 55.5V15C9.2002 10.0294 13.2296 6 18.2002 6H60.2002C61.8571 6 63.2002 7.34316 63.2002 9V63C63.2002 64.6569 61.8571 66 60.2002 66H19.7002C13.9012 66 9.2002 61.299 9.2002 55.5ZM57.2002 60V51H19.7002C17.2149 51 15.2002 53.0148 15.2002 55.5C15.2002 57.9852 17.2149 60 19.7002 60H57.2002ZM15.2002 46.0104C16.5641 45.3624 18.0898 45 19.7002 45H57.2002V12H18.2002C16.5434 12 15.2002 13.3432 15.2002 15V46.0104Z" fill="white" fill-opacity="0.16"/>
</svg>
