<svg width="73" height="72" viewBox="0 0 73 72" fill="none" xmlns="http://www.w3.org/2000/svg">
<path d="M61.3284 14.2721C68.1165 21.0742 68.3496 31.911 62.0364 38.979L36.6003 64.455L11.1647 38.979C4.85173 31.911 5.08771 21.057 11.8727 14.2721C18.6653 7.47945 29.5362 7.25061 36.6036 13.5856C43.6506 7.26 54.5406 7.47 61.3284 14.2721ZM16.1153 18.5147C11.6461 22.9839 11.4217 30.1419 15.5404 34.8696L36.6003 55.9629L57.6609 34.8696C61.7811 30.1401 61.5576 22.9958 57.0816 18.5103C52.6197 14.0394 45.438 13.8242 40.7235 17.9513L28.1153 30.5607L23.8727 26.3179L32.3466 17.838L32.1012 17.631C27.3769 13.8359 20.4702 14.1598 16.1153 18.5147Z" fill="#050505"/>
</svg>
