<svg width="97" height="96" viewBox="0 0 97 96" fill="none" xmlns="http://www.w3.org/2000/svg">
<path d="M68.2006 48C70.4098 48 72.2006 49.7908 72.2006 52V88H64.2006V56H32.2008V88H24.2008V52C24.2008 49.7908 25.9916 48 28.2008 48H68.2006ZM48.2006 64V72H40.2006V64H48.2006ZM48.2006 24C57.5966 24 65.731 29.3991 69.6714 37.2641L62.515 40.8432C59.8882 35.5996 54.465 32 48.2006 32C41.9366 32 36.5135 35.5996 33.8867 40.8432L26.7301 37.2641C30.6704 29.3991 38.8051 24 48.2006 24ZM48.2006 8C63.8614 8 77.4198 16.9996 83.9866 30.1092L76.8306 33.6897C71.5774 23.2008 60.7302 16 48.2006 16C35.6715 16 24.824 23.2008 19.571 33.6897L12.415 30.1092C18.9818 16.9996 32.5403 8 48.2006 8Z" fill="white" fill-opacity="0.16"/>
</svg>
