<svg width="73" height="72" viewBox="0 0 73 72" fill="none" xmlns="http://www.w3.org/2000/svg">
<path d="M6.7998 66C6.7998 52.7451 17.545 42 30.7998 42C44.0547 42 54.7998 52.7451 54.7998 66H48.7998C48.7998 56.0589 40.7409 48 30.7998 48C20.8587 48 12.7998 56.0589 12.7998 66H6.7998ZM30.7998 39C20.8548 39 12.7998 30.945 12.7998 21C12.7998 11.055 20.8548 3 30.7998 3C40.7448 3 48.7998 11.055 48.7998 21C48.7998 30.945 40.7448 39 30.7998 39ZM30.7998 33C37.4298 33 42.7998 27.63 42.7998 21C42.7998 14.37 37.4298 9 30.7998 9C24.1698 9 18.7998 14.37 18.7998 21C18.7998 27.63 24.1698 33 30.7998 33ZM55.6509 44.1084C63.993 47.8683 69.7998 56.256 69.7998 66H63.7998C63.7998 58.692 59.4447 52.4013 53.1882 49.5813L55.6509 44.1084ZM53.5884 10.2396C59.583 12.7111 63.7998 18.6108 63.7998 25.5C63.7998 34.1106 57.2124 41.1756 48.7998 41.9328V35.8938C53.8899 35.1666 57.7998 30.792 57.7998 25.5C57.7998 21.358 55.4046 17.7781 51.9228 16.069L53.5884 10.2396Z" fill="white" fill-opacity="0.16"/>
</svg>
