<svg width="73" height="72" viewBox="0 0 73 72" fill="none" xmlns="http://www.w3.org/2000/svg">
<path d="M36.6006 66C20.032 66 6.60059 52.5684 6.60059 36C6.60059 19.4314 20.032 6 36.6006 6C53.169 6 66.6006 19.4314 66.6006 36C66.6006 52.5684 53.169 66 36.6006 66ZM29.7306 59.0022C26.8429 52.8777 25.0725 46.1226 24.6825 39H12.7863C13.9746 48.5295 20.7498 56.3241 29.7306 59.0022ZM30.6927 39C31.1439 46.3164 33.234 53.1891 36.6006 59.256C39.9672 53.1891 42.0573 46.3164 42.5085 39H30.6927ZM60.4149 39H48.5187C48.1287 46.1226 46.3584 52.8777 43.4706 59.0022C52.4514 56.3241 59.2266 48.5295 60.4149 39ZM12.7863 33H24.6825C25.0725 25.8773 26.8429 19.1222 29.7306 12.9977C20.7498 15.676 13.9746 23.4705 12.7863 33ZM30.6927 33H42.5085C42.0573 25.6837 39.9672 18.8108 36.6006 12.744C33.234 18.8108 31.1439 25.6837 30.6927 33ZM43.4706 12.9977C46.3584 19.1222 48.1287 25.8773 48.5187 33H60.4149C59.2266 23.4705 52.4514 15.676 43.4706 12.9977Z" fill="white" fill-opacity="0.16"/>
</svg>
