<svg width="56" height="56" viewBox="0 0 56 56" fill="none" xmlns="http://www.w3.org/2000/svg">
<path d="M46.6667 30.3333C46.6667 35.4879 44.5774 40.1546 41.1994 43.5328L44.4992 46.8326C48.7216 42.6099 51.3333 36.7766 51.3333 30.3333C51.3333 17.4467 40.8865 7 28 7C15.1133 7 4.66666 17.4467 4.66666 30.3333C4.66666 36.7766 7.27833 42.6099 11.5008 46.8326L14.8007 43.5328C11.4227 40.1546 9.33332 35.4879 9.33332 30.3333C9.33332 20.024 17.6907 11.6667 28 11.6667C38.3094 11.6667 46.6667 20.024 46.6667 30.3333ZM35.6837 19.3503L25.1837 29.8503L28.4835 33.1501L38.9835 22.6501L35.6837 19.3503Z" fill="#050505"/>
</svg>
