<svg width="24" height="25" viewBox="0 0 24 25" fill="none" xmlns="http://www.w3.org/2000/svg">
<g clip-path="url(#clip0_7077_1829)">
<path d="M12 2.5C14.2543 2.5 16.4163 3.39553 18.0104 4.98959C19.6045 6.58365 20.5 8.74566 20.5 11C20.5 17.5 15 23 12 23C9 23 3.5 17.5 3.5 11C3.5 8.74566 4.39553 6.58365 5.98959 4.98959C7.58365 3.39553 9.74566 2.5 12 2.5ZM12 4.5C10.2761 4.5 8.62279 5.18482 7.40381 6.40381C6.18482 7.62279 5.5 9.27609 5.5 11C5.5 15.794 9.665 21 12 21C14.335 21 18.5 15.794 18.5 11C18.5 9.27609 17.8152 7.62279 16.5962 6.40381C15.3772 5.18482 13.7239 4.5 12 4.5ZM17.5 11.5C17.66 11.5 17.819 11.508 17.975 11.525C18.0459 12.1924 17.9665 12.8672 17.7428 13.5C17.5191 14.1328 17.1567 14.7075 16.6821 15.1821C16.2075 15.6567 15.6328 16.0191 15 16.2428C14.3672 16.4665 13.6924 16.5459 13.025 16.475C12.9584 15.8475 13.0245 15.213 13.219 14.6127C13.4136 14.0124 13.7322 13.4597 14.1542 12.9906C14.5762 12.5214 15.0922 12.1463 15.6686 11.8895C16.245 11.6327 16.869 11.5 17.5 11.5ZM6.5 11.5C7.13103 11.5 7.75501 11.6327 8.33142 11.8895C8.90783 12.1463 9.42379 12.5214 9.8458 12.9906C10.2678 13.4597 10.5864 14.0124 10.781 14.6127C10.9755 15.213 11.0416 15.8475 10.975 16.475C10.3076 16.5459 9.63277 16.4665 8.99998 16.2428C8.36719 16.0191 7.79245 15.6567 7.31786 15.1821C6.84328 14.7075 6.48086 14.1328 6.25716 13.5C6.03345 12.8672 5.95413 12.1924 6.025 11.525C6.18 11.508 6.34 11.5 6.5 11.5Z" fill="white" fill-opacity="0.86"/>
</g>
<defs>
<clipPath id="clip0_7077_1829">
<rect width="24" height="24" fill="white" transform="translate(0 0.5)"/>
</clipPath>
</defs>
</svg>
