<svg width="96" height="96" viewBox="0 0 96 96" fill="none" xmlns="http://www.w3.org/2000/svg">
<path fill-rule="evenodd" clip-rule="evenodd" d="M21.9273 30.4069C21.9262 30.3029 21.9256 30.1988 21.9256 30.0945C21.9256 15.1304 34.0564 2.99951 49.0206 2.99951C63.9847 2.99951 76.1156 15.1304 76.1156 30.0945C76.1156 30.1989 76.115 30.3032 76.1138 30.4074C76.1143 30.4122 76.1147 30.4171 76.115 30.422C76.1154 30.4287 76.1156 30.4355 76.1156 30.4423V50.3786C76.1156 60.8039 66.1929 68.3682 56.1401 65.607L42.5463 61.8734C30.3669 58.5284 21.9256 47.4551 21.9256 34.8248V30.4423C21.9256 30.4304 21.9262 30.4186 21.9273 30.4069ZM0 93.9995H81.3741C81.3741 87.8434 77.2528 82.4493 71.3124 80.8307L59.5987 77.6403L61.6816 69.9951L25.5375 60.1479L23.4539 67.7956L23.4479 67.7939L0 93.9986V93.9995Z" fill="white" fill-opacity="0.06"/>
</svg>
