<svg width="124" height="124" viewBox="0 0 124 124" fill="none" xmlns="http://www.w3.org/2000/svg">
<path d="M62 113.667C33.4653 113.667 10.3333 90.5346 10.3333 62.0002C10.3333 33.4654 33.4653 10.3335 62 10.3335C90.5345 10.3335 113.667 33.4654 113.667 62.0002C113.667 90.5346 90.5345 113.667 62 113.667ZM62 103.334C84.8279 103.334 103.333 84.828 103.333 62.0002C103.333 39.1724 84.8279 20.6668 62 20.6668C39.1722 20.6668 20.6667 39.1724 20.6667 62.0002C20.6667 84.828 39.1722 103.334 62 103.334ZM36.1667 62.0002H46.5C46.5 70.5608 53.4394 77.5002 62 77.5002C70.5607 77.5002 77.5 70.5608 77.5 62.0002H87.8334C87.8334 76.2674 76.2673 87.8335 62 87.8335C47.7327 87.8335 36.1667 76.2674 36.1667 62.0002Z" fill="#050505"/>
</svg>
