<svg width="1448" height="240" viewBox="0 0 1448 240" fill="none" xmlns="http://www.w3.org/2000/svg">
<g clip-path="url(#clip0_421_35)">
<g filter="url(#filter0_f_421_35)">
<circle cx="1448" cy="240" r="120" fill="white" fill-opacity="0.86"/>
</g>
<mask id="path-3-inside-1_421_35" fill="white">
<path fill-rule="evenodd" clip-rule="evenodd" d="M1401.02 95.8291V170H1438.98V95.8273L1491.43 148.274L1518.28 121.428L1465.83 68.9837H1540V31.0176H1465.83L1518.28 -21.4296L1491.43 -48.2757L1438.98 4.17087V-70H1401.02V4.16906L1348.57 -48.2773L1321.72 -21.4313L1374.17 31.0176H1300V68.9837H1374.17L1321.72 121.43L1348.57 148.276L1401.02 95.8291Z"/>
</mask>
<path d="M1401.02 170H1400.02V171H1401.02V170ZM1401.02 95.8291H1402.02V93.4149L1400.31 95.122L1401.02 95.8291ZM1438.98 170V171H1439.98V170H1438.98ZM1438.98 95.8273L1439.69 95.1202L1437.98 93.4131V95.8273H1438.98ZM1491.43 148.274L1490.72 148.981L1491.43 149.689L1492.14 148.981L1491.43 148.274ZM1518.28 121.428L1518.98 122.135L1519.69 121.428L1518.98 120.721L1518.28 121.428ZM1465.83 68.9837V67.9837H1463.42L1465.12 69.6908L1465.83 68.9837ZM1540 68.9837V69.9837H1541V68.9837H1540ZM1540 31.0176H1541V30.0176H1540V31.0176ZM1465.83 31.0176L1465.12 30.3105L1463.41 32.0176H1465.83V31.0176ZM1518.28 -21.4296L1518.98 -20.7225L1519.69 -21.4296L1518.98 -22.1367L1518.28 -21.4296ZM1491.43 -48.2757L1492.14 -48.9828L1491.43 -49.6899L1490.72 -48.9828L1491.43 -48.2757ZM1438.98 4.17087H1437.98V6.58508L1439.69 4.87797L1438.98 4.17087ZM1438.98 -70H1439.98V-71H1438.98V-70ZM1401.02 -70V-71H1400.02V-70H1401.02ZM1401.02 4.16906L1400.31 4.87617L1402.02 6.58327V4.16906H1401.02ZM1348.57 -48.2773L1349.28 -48.9845L1348.57 -49.6916L1347.86 -48.9845L1348.57 -48.2773ZM1321.72 -21.4313L1321.02 -22.1384L1320.31 -21.4313L1321.02 -20.7241L1321.72 -21.4313ZM1374.17 31.0176V32.0176H1376.59L1374.88 30.3105L1374.17 31.0176ZM1300 31.0176V30.0176H1299V31.0176H1300ZM1300 68.9837H1299V69.9837H1300V68.9837ZM1374.17 68.9837L1374.88 69.6908L1376.58 67.9837H1374.17V68.9837ZM1321.72 121.43L1321.02 120.723L1320.31 121.43L1321.02 122.137L1321.72 121.43ZM1348.57 148.276L1347.86 148.983L1348.57 149.69L1349.28 148.983L1348.57 148.276ZM1402.02 170V95.8291H1400.02V170H1402.02ZM1438.98 169H1401.02V171H1438.98V169ZM1437.98 95.8273V170H1439.98V95.8273H1437.98ZM1492.14 147.567L1439.69 95.1202L1438.28 96.5344L1490.72 148.981L1492.14 147.567ZM1517.57 120.721L1490.72 147.567L1492.14 148.981L1518.98 122.135L1517.57 120.721ZM1465.12 69.6908L1517.57 122.135L1518.98 120.721L1466.54 68.2766L1465.12 69.6908ZM1540 67.9837H1465.83V69.9837H1540V67.9837ZM1539 31.0176V68.9837H1541V31.0176H1539ZM1465.83 32.0176H1540V30.0176H1465.83V32.0176ZM1517.57 -22.1367L1465.12 30.3105L1466.54 31.7247L1518.98 -20.7225L1517.57 -22.1367ZM1490.72 -47.5686L1517.57 -20.7225L1518.98 -22.1367L1492.14 -48.9828L1490.72 -47.5686ZM1439.69 4.87797L1492.14 -47.5686L1490.72 -48.9828L1438.28 3.46376L1439.69 4.87797ZM1437.98 -70V4.17087H1439.98V-70H1437.98ZM1401.02 -69H1438.98V-71H1401.02V-69ZM1402.02 4.16906V-70H1400.02V4.16906H1402.02ZM1347.86 -47.5702L1400.31 4.87617L1401.72 3.46195L1349.28 -48.9845L1347.86 -47.5702ZM1322.43 -20.7241L1349.28 -47.5702L1347.86 -48.9845L1321.02 -22.1384L1322.43 -20.7241ZM1374.88 30.3105L1322.43 -22.1384L1321.02 -20.7241L1373.47 31.7247L1374.88 30.3105ZM1300 32.0176H1374.17V30.0176H1300V32.0176ZM1301 68.9837V31.0176H1299V68.9837H1301ZM1374.17 67.9837H1300V69.9837H1374.17V67.9837ZM1322.43 122.137L1374.88 69.6908L1373.46 68.2766L1321.02 120.723L1322.43 122.137ZM1349.28 147.569L1322.43 120.723L1321.02 122.137L1347.86 148.983L1349.28 147.569ZM1400.31 95.122L1347.86 147.569L1349.28 148.983L1401.72 96.5362L1400.31 95.122Z" fill="#050505" mask="url(#path-3-inside-1_421_35)"/>
<mask id="path-5-inside-2_421_35" fill="white">
<path fill-rule="evenodd" clip-rule="evenodd" d="M53.0169 213.829V288H90.983V213.828L143.43 266.274L170.276 239.428L117.831 186.984H192V149.018H117.829L170.276 96.5704L143.43 69.7243L90.983 122.171V48H53.0169V122.169L0.57019 69.7227L-26.2759 96.5687L26.1729 149.018H-48V186.984H26.1704L-26.2759 239.43L0.570206 266.276L53.0169 213.829Z"/>
</mask>
<path d="M53.0169 288H52.0169V289H53.0169V288ZM53.0169 213.829H54.0169V211.415L52.3098 213.122L53.0169 213.829ZM90.983 288V289H91.983V288H90.983ZM90.983 213.828L91.6901 213.121L89.983 211.413V213.828H90.983ZM143.43 266.274L142.723 266.981L143.43 267.689L144.137 266.981L143.43 266.274ZM170.276 239.428L170.983 240.135L171.69 239.428L170.983 238.721L170.276 239.428ZM117.831 186.984V185.984H115.417L117.124 187.691L117.831 186.984ZM192 186.984V187.984H193V186.984H192ZM192 149.018H193V148.018H192V149.018ZM117.829 149.018L117.122 148.31L115.414 150.018H117.829V149.018ZM170.276 96.5704L170.983 97.2775L171.69 96.5704L170.983 95.8633L170.276 96.5704ZM143.43 69.7243L144.137 69.0172L143.43 68.3101L142.723 69.0172L143.43 69.7243ZM90.983 122.171H89.983V124.585L91.6901 122.878L90.983 122.171ZM90.983 48H91.983V47H90.983V48ZM53.0169 48V47H52.0169V48H53.0169ZM53.0169 122.169L52.3098 122.876L54.0169 124.584V122.169H53.0169ZM0.57019 69.7227L1.2773 69.0155L0.57019 68.3084L-0.136916 69.0155L0.57019 69.7227ZM-26.2759 96.5687L-26.983 95.8616L-27.6901 96.5687L-26.983 97.2759L-26.2759 96.5687ZM26.1729 149.018V150.018H28.5871L26.88 148.31L26.1729 149.018ZM-48 149.018V148.018H-49V149.018H-48ZM-48 186.984H-49V187.984H-48V186.984ZM26.1704 186.984L26.8775 187.691L28.5846 185.984H26.1704V186.984ZM-26.2759 239.43L-26.983 238.723L-27.6901 239.43L-26.983 240.137L-26.2759 239.43ZM0.570206 266.276L-0.136901 266.983L0.570206 267.69L1.27731 266.983L0.570206 266.276ZM54.0169 288V213.829H52.0169V288H54.0169ZM90.983 287H53.0169V289H90.983V287ZM89.983 213.828V288H91.983V213.828H89.983ZM144.137 265.567L91.6901 213.121L90.2759 214.535L142.723 266.981L144.137 265.567ZM169.569 238.721L142.723 265.567L144.137 266.981L170.983 240.135L169.569 238.721ZM117.124 187.691L169.569 240.135L170.983 238.721L118.538 186.277L117.124 187.691ZM192 185.984H117.831V187.984H192V185.984ZM191 149.018V186.984H193V149.018H191ZM117.829 150.018H192V148.018H117.829V150.018ZM169.569 95.8633L117.122 148.31L118.536 149.725L170.983 97.2775L169.569 95.8633ZM142.723 70.4314L169.569 97.2775L170.983 95.8633L144.137 69.0172L142.723 70.4314ZM91.6901 122.878L144.137 70.4314L142.723 69.0172L90.2759 121.464L91.6901 122.878ZM89.983 48V122.171H91.983V48H89.983ZM53.0169 49H90.983V47H53.0169V49ZM54.0169 122.169V48H52.0169V122.169H54.0169ZM-0.136916 70.4298L52.3098 122.876L53.724 121.462L1.2773 69.0155L-0.136916 70.4298ZM-25.5688 97.2759L1.2773 70.4298L-0.136916 69.0155L-26.983 95.8616L-25.5688 97.2759ZM26.88 148.31L-25.5688 95.8616L-26.983 97.2759L25.4658 149.725L26.88 148.31ZM-48 150.018H26.1729V148.018H-48V150.018ZM-47 186.984V149.018H-49V186.984H-47ZM26.1704 185.984H-48V187.984H26.1704V185.984ZM-25.5688 240.137L26.8775 187.691L25.4633 186.277L-26.983 238.723L-25.5688 240.137ZM1.27731 265.569L-25.5688 238.723L-26.983 240.137L-0.136901 266.983L1.27731 265.569ZM52.3098 213.122L-0.136901 265.569L1.27731 266.983L53.724 214.536L52.3098 213.122Z" fill="#050505" mask="url(#path-5-inside-2_421_35)"/>
</g>
<defs>
<filter id="filter0_f_421_35" x="1204" y="-4" width="488" height="488" filterUnits="userSpaceOnUse" color-interpolation-filters="sRGB">
<feFlood flood-opacity="0" result="BackgroundImageFix"/>
<feBlend mode="normal" in="SourceGraphic" in2="BackgroundImageFix" result="shape"/>
<feGaussianBlur stdDeviation="62" result="effect1_foregroundBlur_421_35"/>
</filter>
<clipPath id="clip0_421_35">
<path d="M0 12C0 5.37259 5.37258 0 12 0H1436C1442.63 0 1448 5.37258 1448 12V228C1448 234.627 1442.63 240 1436 240H12C5.37261 240 0 234.627 0 228V12Z" fill="white"/>
</clipPath>
</defs>
</svg>
