<svg width="124" height="124" viewBox="0 0 124 124" fill="none" xmlns="http://www.w3.org/2000/svg">
<path d="M43.9167 36.1667C43.9167 41.8736 39.2903 46.5 33.5833 46.5C27.8764 46.5 23.25 41.8736 23.25 36.1667C23.25 30.4597 27.8764 25.8333 33.5833 25.8333C39.2903 25.8333 43.9167 30.4597 43.9167 36.1667ZM12.9167 36.1667C12.9167 47.5806 22.1694 56.8333 33.5833 56.8333C44.9972 56.8333 54.25 47.5806 54.25 36.1667C54.25 24.7528 44.9972 15.5 33.5833 15.5C22.1694 15.5 12.9167 24.7528 12.9167 36.1667ZM46.5 85.25C46.5 78.1164 40.717 72.3333 33.5833 72.3333C26.4497 72.3333 20.6667 78.1164 20.6667 85.25V98.1667H46.5V85.25ZM56.8333 108.5H10.3333V85.25C10.3333 72.4093 20.7427 62 33.5833 62C46.4239 62 56.8333 72.4093 56.8333 85.25V108.5ZM100.75 36.1667C100.75 41.8736 96.1238 46.5 90.4167 46.5C84.7096 46.5 80.0833 41.8736 80.0833 36.1667C80.0833 30.4597 84.7096 25.8333 90.4167 25.8333C96.1238 25.8333 100.75 30.4597 100.75 36.1667ZM69.75 36.1667C69.75 47.5806 79.003 56.8333 90.4167 56.8333C101.83 56.8333 111.083 47.5806 111.083 36.1667C111.083 24.7528 101.83 15.5 90.4167 15.5C79.003 15.5 69.75 24.7528 69.75 36.1667ZM103.333 85.25C103.333 78.1164 97.5503 72.3333 90.4167 72.3333C83.2831 72.3333 77.5 78.1164 77.5 85.25V98.1667H103.333V85.25ZM67.1667 98.1667V85.25C67.1667 72.4093 77.576 62 90.4167 62C103.257 62 113.667 72.4093 113.667 85.25V108.5H67.1667V98.1667Z" fill="white" fill-opacity="0.16"/>
</svg>
