<svg width="56" height="56" viewBox="0 0 56 56" fill="none" xmlns="http://www.w3.org/2000/svg">
<path d="M24.7669 41.523C23.9797 43.3257 21.4848 43.3257 20.6976 41.523L18.6498 36.8325C16.8273 32.6587 13.5471 29.336 9.45537 27.5197L3.81869 25.0177C2.02658 24.2223 2.02659 21.6152 3.81869 20.8197L9.27932 18.3958C13.4762 16.5328 16.8153 13.0871 18.6066 8.77073L20.681 3.77229C21.4508 1.91738 24.0137 1.91737 24.7835 3.77229L26.8578 8.77078C28.6491 13.0871 31.9881 16.5328 36.1851 18.3958L41.6458 20.8197C43.4378 21.6152 43.4378 24.2223 41.6458 25.0177L36.0092 27.5197C31.9174 29.336 28.6372 32.6587 26.8147 36.8325L24.7669 41.523ZM10.5923 22.9187C15.9259 25.2863 20.2627 29.1778 22.7322 34.5323C25.2019 29.1778 29.5386 25.2863 34.8721 22.9187C29.4749 20.5229 25.1244 16.4417 22.7322 10.992C20.3401 16.4417 15.9896 20.5229 10.5923 22.9187ZM45.2699 52.943L45.8458 51.6231C46.8725 49.2697 48.7216 47.3957 51.0288 46.3707L52.8031 45.5823C53.7628 45.156 53.7628 43.7614 52.8031 43.3351L51.1282 42.5907C48.7615 41.5393 46.8792 39.5961 45.8701 37.1627L45.2788 35.7363C44.8665 34.7423 43.4922 34.7423 43.0799 35.7363L42.4886 37.1627C41.4797 39.5961 39.5974 41.5393 37.2307 42.5907L35.5556 43.3351C34.5961 43.7614 34.5961 45.156 35.5556 45.5823L37.3298 46.3707C39.6373 47.3957 41.4862 49.2697 42.5129 51.6231L43.089 52.943C43.5104 53.9092 44.8483 53.9092 45.2699 52.943ZM42.8738 44.4427L44.1863 43.1393L45.4715 44.4427L44.1863 45.7094L42.8738 44.4427Z" fill="white" fill-opacity="0.86"/>
</svg>
