<svg width="124" height="124" viewBox="0 0 124 124" fill="none" xmlns="http://www.w3.org/2000/svg">
<path d="M54.8411 91.9438C53.0978 95.9355 47.5734 95.9355 45.8304 91.9438L41.2959 81.5577C37.2605 72.3156 29.9971 64.9583 20.9369 60.9365L8.45566 55.3963C4.48743 53.635 4.48744 47.8622 8.45566 46.1008L20.5471 40.7335C29.8402 36.6084 37.2339 28.9787 41.2004 19.4209L45.7937 8.35295C47.4981 4.24564 53.1733 4.24563 54.8777 8.35295L59.4709 19.421C63.4374 28.9787 70.8309 36.6084 80.1242 40.7335L92.2157 46.1008C96.1837 47.8622 96.1837 53.635 92.2157 55.3963L79.7346 60.9365C70.6743 64.9583 63.411 72.3156 59.3753 81.5577L54.8411 91.9438ZM23.4544 50.7486C35.2646 55.991 44.8674 64.608 50.3356 76.4644C55.8041 64.608 65.4069 55.991 77.2169 50.7486C65.2658 45.4436 55.6326 36.4066 50.3357 24.3394C45.0388 36.4067 35.4055 45.4436 23.4544 50.7486ZM100.241 117.231L101.516 114.308C103.789 109.097 107.884 104.948 112.992 102.678L116.921 100.932C119.046 99.9883 119.046 96.9002 116.921 95.9562L113.213 94.308C107.972 91.9799 103.804 87.6771 101.569 82.2888L100.26 79.1304C99.3473 76.9294 96.3041 76.9294 95.3911 79.1304L94.0819 82.2888C91.8478 87.6771 87.6799 91.9799 82.4393 94.308L78.7302 95.9562C76.6057 96.9002 76.6057 99.9883 78.7302 100.932L82.6589 102.678C87.7682 104.948 91.8623 109.097 94.1356 114.308L95.4113 117.231C96.3444 119.37 99.307 119.37 100.241 117.231ZM94.9349 98.4088L97.8412 95.5227L100.687 98.4088L97.8412 101.214L94.9349 98.4088Z" fill="white" fill-opacity="0.16"/>
</svg>
