<svg width="56" height="56" viewBox="0 0 56 56" fill="none" xmlns="http://www.w3.org/2000/svg">
<path d="M39.6667 35.5725V51.606C39.6667 52.2502 39.1442 52.7729 38.5 52.7729C38.2886 52.7729 38.0812 52.7153 37.8999 52.6066L28 46.6666L18.1003 52.6066C17.5477 52.9379 16.8311 52.7587 16.4996 52.2064C16.3908 52.0249 16.3333 51.8174 16.3333 51.606V35.5725C12.0658 32.1516 9.33334 26.8949 9.33334 20.9999C9.33334 10.6906 17.6907 2.33325 28 2.33325C38.3094 2.33325 46.6667 10.6906 46.6667 20.9999C46.6667 26.8949 43.9341 32.1516 39.6667 35.5725ZM21 38.3098V45.4243L28 41.2243L35 45.4243V38.3098C32.8384 39.1848 30.4754 39.6666 28 39.6666C25.5246 39.6666 23.1617 39.1848 21 38.3098ZM28 34.9999C35.732 34.9999 42 28.7319 42 20.9999C42 13.2679 35.732 6.99992 28 6.99992C20.268 6.99992 14 13.2679 14 20.9999C14 28.7319 20.268 34.9999 28 34.9999Z" fill="white" fill-opacity="0.86"/>
</svg>
