<svg width="124" height="124" viewBox="0 0 124 124" fill="none" xmlns="http://www.w3.org/2000/svg">
<path d="M93.0253 103.332H31.0252V113.666H20.6919V103.332H15.5252C12.6718 103.332 10.3586 101.019 10.3586 98.1657V20.6657C10.3586 17.8122 12.6718 15.499 15.5252 15.499H108.525C111.379 15.499 113.692 17.8122 113.692 20.6657V98.1657C113.692 101.019 111.379 103.332 108.525 103.332H103.359V113.666H93.0253V103.332ZM20.6919 92.9991H103.359V25.8324H20.6919V92.9991ZM67.192 71.6814V87.8324H56.8587V71.6814C47.9449 69.3869 41.3586 61.2954 41.3586 51.6657C41.3586 40.2518 50.6113 30.999 62.0253 30.999C73.439 30.999 82.692 40.2518 82.692 51.6657C82.692 61.2954 76.1055 69.3869 67.192 71.6814ZM62.0253 61.9991C67.7324 61.9991 72.3587 57.3728 72.3587 51.6657C72.3587 45.9587 67.7324 41.3324 62.0253 41.3324C56.3182 41.3324 51.692 45.9587 51.692 51.6657C51.692 57.3728 56.3182 61.9991 62.0253 61.9991Z" fill="#050505"/>
</svg>
