<svg width="56" height="56" viewBox="0 0 56 56" fill="none" xmlns="http://www.w3.org/2000/svg">
<mask id="path-1-inside-1_7150_1496" fill="white">
<path fill-rule="evenodd" clip-rule="evenodd" d="M23.5706 38.6934V56H32.4294V38.6934L44.667 50.931L50.9311 44.6669L38.6934 32.4293H56V23.5705H38.6935L50.931 11.333L44.6669 5.06892L32.4294 17.3065V0H23.5706V17.3065L11.3331 5.06896L5.06902 11.333L17.3065 23.5705H0V32.4293H17.3066L5.06896 44.6669L11.333 50.931L23.5706 38.6934Z"/>
</mask>
<path d="M23.5706 56H22.5706V57H23.5706V56ZM23.5706 38.6934H24.5706V36.2792L22.8635 37.9863L23.5706 38.6934ZM32.4294 56V57H33.4294V56H32.4294ZM32.4294 38.6934L33.1365 37.9863L31.4294 36.2792V38.6934H32.4294ZM44.667 50.931L43.9599 51.6381L44.667 52.3452L45.3741 51.6381L44.667 50.931ZM50.9311 44.6669L51.6382 45.374L52.3453 44.6669L51.6382 43.9598L50.9311 44.6669ZM38.6934 32.4293V31.4293H36.2792L37.9863 33.1364L38.6934 32.4293ZM56 32.4293V33.4293H57V32.4293H56ZM56 23.5705H57V22.5705H56V23.5705ZM38.6935 23.5705L37.9864 22.8634L36.2793 24.5705H38.6935V23.5705ZM50.931 11.333L51.6381 12.0401L52.3452 11.333L51.6381 10.6259L50.931 11.333ZM44.6669 5.06892L45.374 4.36181L44.6669 3.6547L43.9598 4.36181L44.6669 5.06892ZM32.4294 17.3065H31.4294V19.7207L33.1365 18.0136L32.4294 17.3065ZM32.4294 0H33.4294V-1H32.4294V0ZM23.5706 0V-1H22.5706V0H23.5706ZM23.5706 17.3065L22.8635 18.0136L24.5706 19.7207V17.3065H23.5706ZM11.3331 5.06896L12.0402 4.36185L11.3331 3.65474L10.626 4.36185L11.3331 5.06896ZM5.06902 11.333L4.36191 10.6259L3.6548 11.333L4.36191 12.0402L5.06902 11.333ZM17.3065 23.5705V24.5705H19.7207L18.0136 22.8634L17.3065 23.5705ZM0 23.5705V22.5705H-1V23.5705H0ZM0 32.4293H-1V33.4293H0V32.4293ZM17.3066 32.4293L18.0137 33.1364L19.7208 31.4293H17.3066V32.4293ZM5.06896 44.6669L4.36185 43.9598L3.65474 44.6669L4.36185 45.374L5.06896 44.6669ZM11.333 50.931L10.6259 51.6381L11.333 52.3452L12.0402 51.6381L11.333 50.931ZM24.5706 56V38.6934H22.5706V56H24.5706ZM32.4294 55H23.5706V57H32.4294V55ZM31.4294 38.6934V56H33.4294V38.6934H31.4294ZM45.3741 50.2239L33.1365 37.9863L31.7223 39.4005L43.9599 51.6381L45.3741 50.2239ZM50.224 43.9598L43.9599 50.2239L45.3741 51.6381L51.6382 45.374L50.224 43.9598ZM37.9863 33.1364L50.224 45.374L51.6382 43.9598L39.4005 31.7222L37.9863 33.1364ZM56 31.4293H38.6934V33.4293H56V31.4293ZM55 23.5705V32.4293H57V23.5705H55ZM38.6935 24.5705H56V22.5705H38.6935V24.5705ZM50.2239 10.6259L37.9864 22.8634L39.4006 24.2776L51.6381 12.0401L50.2239 10.6259ZM43.9598 5.77602L50.2239 12.0401L51.6381 10.6259L45.374 4.36181L43.9598 5.77602ZM33.1365 18.0136L45.374 5.77602L43.9598 4.36181L31.7223 16.5993L33.1365 18.0136ZM31.4294 0V17.3065H33.4294V0H31.4294ZM23.5706 1H32.4294V-1H23.5706V1ZM24.5706 17.3065V0H22.5706V17.3065H24.5706ZM10.626 5.77606L22.8635 18.0136L24.2777 16.5994L12.0402 4.36185L10.626 5.77606ZM5.77612 12.0402L12.0402 5.77606L10.626 4.36185L4.36191 10.6259L5.77612 12.0402ZM18.0136 22.8634L5.77612 10.6259L4.36191 12.0402L16.5994 24.2776L18.0136 22.8634ZM0 24.5705H17.3065V22.5705H0V24.5705ZM1 32.4293V23.5705H-1V32.4293H1ZM17.3066 31.4293H0V33.4293H17.3066V31.4293ZM5.77606 45.374L18.0137 33.1364L16.5995 31.7222L4.36185 43.9598L5.77606 45.374ZM12.0402 50.2239L5.77606 43.9598L4.36185 45.374L10.6259 51.6381L12.0402 50.2239ZM22.8635 37.9863L10.6259 50.2239L12.0402 51.6381L24.2778 39.4005L22.8635 37.9863Z" fill="#FF6C5C" mask="url(#path-1-inside-1_7150_1496)"/>
</svg>
