<svg width="1448" height="480" viewBox="0 0 1448 480" fill="none" xmlns="http://www.w3.org/2000/svg">
<g clip-path="url(#clip0_7150_1481)">
<g clip-path="url(#clip1_7150_1481)">
<path d="M0 12C0 5.37257 5.37258 0 12 0H1436C1442.63 0 1448 5.37258 1448 12V468C1448 474.627 1442.63 480 1436 480H12C5.37261 480 0 474.627 0 468V12Z" fill="white" fill-opacity="0.04"/>
<path fill-rule="evenodd" clip-rule="evenodd" d="M1372 447.598V557H1428V447.598L1505.36 524.957L1544.96 485.359L1467.6 408H1577V352H1467.6L1544.96 274.641L1505.36 235.043L1428 312.402V203L1372 203V312.402L1294.64 235.043L1255.04 274.641L1332.4 352H1223V408H1332.4L1255.04 485.359L1294.64 524.957L1372 447.598Z" fill="#FF6C5C"/>
<g filter="url(#filter0_f_7150_1481)">
<ellipse cx="1194" cy="380.5" rx="100" ry="54.5" fill="#141414"/>
</g>
</g>
<path d="M0.5 12C0.5 5.64872 5.64873 0.5 12 0.5H1436C1442.35 0.5 1447.5 5.64873 1447.5 12V468C1447.5 474.351 1442.35 479.5 1436 479.5H12C5.64875 479.5 0.5 474.351 0.5 468V12Z" stroke="white" stroke-opacity="0.1"/>
</g>
<defs>
<filter id="filter0_f_7150_1481" x="1070" y="302" width="248" height="157" filterUnits="userSpaceOnUse" color-interpolation-filters="sRGB">
<feFlood flood-opacity="0" result="BackgroundImageFix"/>
<feBlend mode="normal" in="SourceGraphic" in2="BackgroundImageFix" result="shape"/>
<feGaussianBlur stdDeviation="12" result="effect1_foregroundBlur_7150_1481"/>
</filter>
<clipPath id="clip0_7150_1481">
<rect width="1448" height="480" fill="white"/>
</clipPath>
<clipPath id="clip1_7150_1481">
<path d="M0 12C0 5.37257 5.37258 0 12 0H1436C1442.63 0 1448 5.37258 1448 12V468C1448 474.627 1442.63 480 1436 480H12C5.37261 480 0 474.627 0 468V12Z" fill="white"/>
</clipPath>
</defs>
</svg>
