<svg width="96" height="96" viewBox="0 0 96 96" fill="none" xmlns="http://www.w3.org/2000/svg">
<path d="M16.0195 64V16H8.01953V8H20.0195C22.2287 8 24.0195 9.79088 24.0195 12V60H73.7732L81.7732 28H32.0195V20H86.8964C89.1056 20 90.8964 21.7909 90.8964 24C90.8964 24.327 90.8564 24.6529 90.7768 24.9702L80.7768 64.97C80.332 66.7508 78.732 68 76.8964 68H20.0195C17.8104 68 16.0195 66.2092 16.0195 64ZM24.0195 92C19.6013 92 16.0195 88.4184 16.0195 84C16.0195 79.5816 19.6013 76 24.0195 76C28.4378 76 32.0195 79.5816 32.0195 84C32.0195 88.4184 28.4378 92 24.0195 92ZM72.0196 92C67.6012 92 64.0196 88.4184 64.0196 84C64.0196 79.5816 67.6012 76 72.0196 76C76.438 76 80.0196 79.5816 80.0196 84C80.0196 88.4184 76.438 92 72.0196 92Z" fill="#050505"/>
</svg>
