<svg width="72" height="72" viewBox="0 0 72 72" fill="none" xmlns="http://www.w3.org/2000/svg">
<path d="M26.8937 54C26.1658 59.0883 21.7897 63 16.5 63C11.2103 63 6.83418 59.0883 6.10632 54H3V18C3 16.3432 4.34316 15 6 15H48C49.6569 15 51 16.3432 51 18V24H60L69 36.1671V54H62.8938C62.1657 59.0883 57.7896 63 52.5 63C47.2104 63 42.8343 59.0883 42.1062 54H26.8937ZM45 21H9V45.1515C10.9058 43.2066 13.562 42 16.5 42C20.6886 42 24.3044 44.4525 25.9895 48H43.0104C43.5135 46.941 44.1888 45.9792 45 45.1515V21ZM51 39H63V38.145L56.9751 30H51V39ZM52.5 57C54.4593 57 56.1261 55.7478 56.7438 54C56.9097 53.5308 57 53.0259 57 52.5C57 50.0148 54.9852 48 52.5 48C50.0148 48 48 50.0148 48 52.5C48 53.0259 48.0903 53.5308 48.2562 54C48.8739 55.7478 50.5407 57 52.5 57ZM21 52.5C21 50.0148 18.9853 48 16.5 48C14.0147 48 12 50.0148 12 52.5C12 53.0259 12.0902 53.5308 12.2561 54C12.8738 55.7478 14.5407 57 16.5 57C18.4593 57 20.1262 55.7478 20.7439 54C20.9098 53.5308 21 53.0259 21 52.5Z" fill="white" fill-opacity="0.16"/>
</svg>
