<svg width="72" height="72" viewBox="0 0 72 72" fill="none" xmlns="http://www.w3.org/2000/svg">
<path d="M3 66C3 52.7451 13.7452 42 27 42C40.2549 42 51 52.7451 51 66H45C45 56.0589 36.9411 48 27 48C17.0589 48 9 56.0589 9 66H3ZM27 39C17.055 39 9 30.945 9 21.0001C9 11.0551 17.055 3.00006 27 3.00006C36.945 3.00006 45 11.0551 45 21.0001C45 30.945 36.945 39 27 39ZM27 33C33.63 33 39 27.6301 39 21.0001C39 14.3701 33.63 9.00006 27 9.00006C20.37 9.00006 15 14.3701 15 21.0001C15 27.6301 20.37 33 27 33ZM64.6428 2.35071C67.4319 7.96953 69 14.3017 69 21.0001C69 27.6984 67.4319 34.0305 64.6428 39.6495L59.7081 36.0603C61.8213 31.4784 63 26.3769 63 21.0001C63 15.6232 61.8213 10.5216 59.7081 5.9397L64.6428 2.35071ZM54.7389 9.55353C56.196 13.0808 57 16.9465 57 21.0001C57 25.0536 56.196 28.9193 54.7389 32.4465L49.7082 28.7878C50.5455 26.3458 51 23.726 51 21.0001C51 18.2741 50.5455 15.6543 49.7082 13.2122L54.7389 9.55353Z" fill="#050505"/>
</svg>
