<svg width="72" height="72" viewBox="0 0 72 72" fill="none" xmlns="http://www.w3.org/2000/svg">
<mask id="path-1-inside-1_7150_1154" fill="white">
<path fill-rule="evenodd" clip-rule="evenodd" d="M30.3051 49.7488L30.3051 72H41.6949V49.7486L57.429 65.4828L65.4829 57.429L49.7489 41.695H72V30.3051H49.7487L65.4828 14.5711L57.429 6.51724L41.6949 22.2513V0H30.305L30.3051 22.2512L14.5712 6.51727L6.51734 14.5711L22.2514 30.3051H0V41.695H22.2512L6.51727 57.4289L14.5711 65.4827L30.3051 49.7488Z"/>
</mask>
<path d="M30.3051 72H29.3051V73H30.3051V72ZM30.3051 49.7488H31.3051V47.3346L29.5979 49.0417L30.3051 49.7488ZM41.6949 72V73H42.6949V72H41.6949ZM41.6949 49.7486L42.402 49.0415L40.6949 47.3344V49.7486H41.6949ZM57.429 65.4828L56.7219 66.1899L57.429 66.897L58.1361 66.1899L57.429 65.4828ZM65.4829 57.429L66.19 58.1361L66.8971 57.429L66.19 56.7219L65.4829 57.429ZM49.7489 41.695V40.695H47.3347L49.0418 42.4021L49.7489 41.695ZM72 41.695V42.695H73V41.695H72ZM72 30.3051H73V29.3051H72V30.3051ZM49.7487 30.3051L49.0416 29.598L47.3345 31.3051H49.7487V30.3051ZM65.4828 14.5711L66.1899 15.2782L66.897 14.5711L66.1899 13.864L65.4828 14.5711ZM57.429 6.51724L58.1361 5.81013L57.429 5.10302L56.7219 5.81013L57.429 6.51724ZM41.6949 22.2513H40.6949V24.6655L42.402 22.9584L41.6949 22.2513ZM41.6949 0H42.6949V-1H41.6949V0ZM30.305 0V-1H29.305V8.57191e-08L30.305 0ZM30.3051 22.2512L29.5979 22.9583L31.3051 24.6654V22.2512H30.3051ZM14.5712 6.51727L15.2783 5.81017L14.5712 5.10306L13.8641 5.81017L14.5712 6.51727ZM6.51734 14.5711L5.81023 13.864L5.10313 14.5711L5.81023 15.2782L6.51734 14.5711ZM22.2514 30.3051V31.3051H24.6656L22.9585 29.598L22.2514 30.3051ZM0 30.3051V29.3051H-1V30.3051H0ZM0 41.695H-1V42.695H0V41.695ZM22.2512 41.695L22.9583 42.4021L24.6654 40.695H22.2512V41.695ZM6.51727 57.4289L5.81017 56.7218L5.10306 57.4289L5.81017 58.136L6.51727 57.4289ZM14.5711 65.4827L13.864 66.1899L14.5711 66.897L15.2782 66.1899L14.5711 65.4827ZM31.3051 72L31.3051 49.7488H29.3051L29.3051 72H31.3051ZM41.6949 71H30.3051V73H41.6949V71ZM40.6949 49.7486V72H42.6949V49.7486H40.6949ZM58.1361 64.7757L42.402 49.0415L40.9878 50.4558L56.7219 66.1899L58.1361 64.7757ZM64.7757 56.7219L56.7219 64.7757L58.1361 66.1899L66.19 58.1361L64.7757 56.7219ZM49.0418 42.4021L64.7757 58.1361L66.19 56.7219L50.456 40.9879L49.0418 42.4021ZM72 40.695H49.7489V42.695H72V40.695ZM71 30.3051V41.695H73V30.3051H71ZM49.7487 31.3051H72V29.3051H49.7487V31.3051ZM64.7757 13.864L49.0416 29.598L50.4558 31.0123L66.1899 15.2782L64.7757 13.864ZM56.7219 7.22434L64.7757 15.2782L66.1899 13.864L58.1361 5.81013L56.7219 7.22434ZM42.402 22.9584L58.1361 7.22434L56.7219 5.81013L40.9878 21.5442L42.402 22.9584ZM40.6949 0V22.2513H42.6949V0H40.6949ZM30.305 1H41.6949V-1H30.305V1ZM31.3051 22.2512L31.305 -8.57191e-08L29.305 8.57191e-08L29.3051 22.2512H31.3051ZM13.8641 7.22438L29.5979 22.9583L31.0122 21.544L15.2783 5.81017L13.8641 7.22438ZM7.22445 15.2782L15.2783 7.22438L13.8641 5.81017L5.81023 13.864L7.22445 15.2782ZM22.9585 29.598L7.22445 13.864L5.81023 15.2782L21.5443 31.0123L22.9585 29.598ZM0 31.3051H22.2514V29.3051H0V31.3051ZM1 41.695V30.3051H-1V41.695H1ZM22.2512 40.695H0V42.695H22.2512V40.695ZM7.22438 58.136L22.9583 42.4021L21.5441 40.9879L5.81017 56.7218L7.22438 58.136ZM15.2782 64.7756L7.22438 56.7218L5.81017 58.136L13.864 66.1899L15.2782 64.7756ZM29.5979 49.0417L13.864 64.7756L15.2782 66.1899L31.0122 50.4559L29.5979 49.0417Z" fill="white" fill-opacity="0.86" mask="url(#path-1-inside-1_7150_1154)"/>
</svg>
