<svg width="72" height="72" viewBox="0 0 72 72" fill="none" xmlns="http://www.w3.org/2000/svg">
<path d="M6 66C6 52.7451 16.7452 42 30 42C43.2549 42 54 52.7451 54 66H48C48 56.0589 39.9411 48 30 48C20.0589 48 12 56.0589 12 66H6ZM30 39C20.055 39 12 30.945 12 21C12 11.055 20.055 3 30 3C39.945 3 48 11.055 48 21C48 30.945 39.945 39 30 39ZM30 33C36.63 33 42 27.63 42 21C42 14.37 36.63 9 30 9C23.37 9 18 14.37 18 21C18 27.63 23.37 33 30 33ZM54.8511 44.1084C63.1932 47.8683 69 56.256 69 66H63C63 58.692 58.6449 52.4013 52.3884 49.5813L54.8511 44.1084ZM52.7886 10.2396C58.7832 12.7111 63 18.6108 63 25.5C63 34.1106 56.4126 41.1756 48 41.9328V35.8938C53.0901 35.1666 57 30.792 57 25.5C57 21.358 54.6048 17.7781 51.123 16.069L52.7886 10.2396Z" fill="#050505"/>
</svg>
