<svg width="156" height="156" viewBox="0 0 156 156" fill="none" xmlns="http://www.w3.org/2000/svg">
<path d="M0 8C0 3.58172 3.58172 0 8 0H148C152.418 0 156 3.58172 156 8V148C156 152.418 152.418 156 148 156H8C3.58172 156 0 152.418 0 148V8Z" fill="white" fill-opacity="0.04"/>
<path d="M59.7784 84V72.3636H61.5341V82.4886H66.8068V84H59.7784ZM72.3494 84.1761C71.5313 84.1761 70.8172 83.9886 70.2074 83.6136C69.5975 83.2386 69.1241 82.714 68.7869 82.0398C68.4498 81.3655 68.2812 80.5777 68.2812 79.6761C68.2812 78.7708 68.4498 77.9792 68.7869 77.3011C69.1241 76.6231 69.5975 76.0966 70.2074 75.7216C70.8172 75.3466 71.5313 75.1591 72.3494 75.1591C73.1676 75.1591 73.8816 75.3466 74.4915 75.7216C75.1013 76.0966 75.5748 76.6231 75.9119 77.3011C76.2491 77.9792 76.4176 78.7708 76.4176 79.6761C76.4176 80.5777 76.2491 81.3655 75.9119 82.0398C75.5748 82.714 75.1013 83.2386 74.4915 83.6136C73.8816 83.9886 73.1676 84.1761 72.3494 84.1761ZM72.3551 82.75C72.8854 82.75 73.3248 82.6098 73.6733 82.3295C74.0218 82.0492 74.2794 81.6761 74.446 81.2102C74.6165 80.7443 74.7017 80.2311 74.7017 79.6705C74.7017 79.1136 74.6165 78.6023 74.446 78.1364C74.2794 77.6667 74.0218 77.2898 73.6733 77.0057C73.3248 76.7216 72.8854 76.5795 72.3551 76.5795C71.821 76.5795 71.3778 76.7216 71.0256 77.0057C70.6771 77.2898 70.4176 77.6667 70.2472 78.1364C70.0805 78.6023 69.9972 79.1136 69.9972 79.6705C69.9972 80.2311 70.0805 80.7443 70.2472 81.2102C70.4176 81.6761 70.6771 82.0492 71.0256 82.3295C71.3778 82.6098 71.821 82.75 72.3551 82.75ZM81.973 87.4545C81.2798 87.4545 80.6832 87.3636 80.1832 87.1818C79.687 87 79.2817 86.7595 78.9673 86.4602C78.6529 86.161 78.4181 85.8333 78.2628 85.4773L79.723 84.875C79.8253 85.0417 79.9616 85.2178 80.1321 85.4034C80.3063 85.5928 80.5412 85.7538 80.8366 85.8864C81.1359 86.0189 81.5204 86.0852 81.9901 86.0852C82.634 86.0852 83.1662 85.928 83.5866 85.6136C84.0071 85.303 84.2173 84.8068 84.2173 84.125V82.4091H84.1094C84.0071 82.5947 83.8594 82.8011 83.6662 83.0284C83.4768 83.2557 83.2154 83.4527 82.8821 83.6193C82.5488 83.786 82.1151 83.8693 81.581 83.8693C80.8916 83.8693 80.2704 83.7083 79.7173 83.3864C79.1681 83.0606 78.7325 82.5814 78.4105 81.9489C78.0923 81.3125 77.9332 80.5303 77.9332 79.6023C77.9332 78.6742 78.0904 77.8788 78.4048 77.2159C78.723 76.553 79.1586 76.0455 79.7116 75.6932C80.2647 75.3371 80.8916 75.1591 81.5923 75.1591C82.134 75.1591 82.5715 75.25 82.9048 75.4318C83.2382 75.6098 83.4976 75.8182 83.6832 76.0568C83.8726 76.2955 84.0185 76.5057 84.1207 76.6875H84.2457V75.2727H85.9105V84.1932C85.9105 84.9432 85.7363 85.5587 85.3878 86.0398C85.0393 86.5208 84.5677 86.8769 83.973 87.108C83.3821 87.339 82.7154 87.4545 81.973 87.4545ZM81.956 82.4602C82.4446 82.4602 82.8575 82.3466 83.1946 82.1193C83.5355 81.8883 83.7931 81.5587 83.9673 81.1307C84.1454 80.6989 84.2344 80.1818 84.2344 79.5795C84.2344 78.9924 84.1473 78.4754 83.973 78.0284C83.7988 77.5814 83.5431 77.233 83.206 76.983C82.8688 76.7292 82.4522 76.6023 81.956 76.6023C81.4446 76.6023 81.0185 76.7348 80.6776 77C80.3366 77.2614 80.0791 77.6174 79.9048 78.0682C79.7344 78.5189 79.6491 79.0227 79.6491 79.5795C79.6491 80.1515 79.7363 80.6534 79.9105 81.0852C80.0848 81.517 80.3423 81.8542 80.6832 82.0966C81.0279 82.339 81.4522 82.4602 81.956 82.4602ZM91.8651 84.1761C91.0469 84.1761 90.3329 83.9886 89.723 83.6136C89.1132 83.2386 88.6397 82.714 88.3026 82.0398C87.9654 81.3655 87.7969 80.5777 87.7969 79.6761C87.7969 78.7708 87.9654 77.9792 88.3026 77.3011C88.6397 76.6231 89.1132 76.0966 89.723 75.7216C90.3329 75.3466 91.0469 75.1591 91.8651 75.1591C92.6832 75.1591 93.3973 75.3466 94.0071 75.7216C94.617 76.0966 95.0904 76.6231 95.4276 77.3011C95.7647 77.9792 95.9332 78.7708 95.9332 79.6761C95.9332 80.5777 95.7647 81.3655 95.4276 82.0398C95.0904 82.714 94.617 83.2386 94.0071 83.6136C93.3973 83.9886 92.6832 84.1761 91.8651 84.1761ZM91.8707 82.75C92.401 82.75 92.8404 82.6098 93.1889 82.3295C93.5374 82.0492 93.795 81.6761 93.9616 81.2102C94.1321 80.7443 94.2173 80.2311 94.2173 79.6705C94.2173 79.1136 94.1321 78.6023 93.9616 78.1364C93.795 77.6667 93.5374 77.2898 93.1889 77.0057C92.8404 76.7216 92.401 76.5795 91.8707 76.5795C91.3366 76.5795 90.8935 76.7216 90.5412 77.0057C90.1927 77.2898 89.9332 77.6667 89.7628 78.1364C89.5961 78.6023 89.5128 79.1136 89.5128 79.6705C89.5128 80.2311 89.5961 80.7443 89.7628 81.2102C89.9332 81.6761 90.1927 82.0492 90.5412 82.3295C90.8935 82.6098 91.3366 82.75 91.8707 82.75Z" fill="white" fill-opacity="0.38"/>
</svg>
